<?xml version="1.0" encoding="UTF-8" standalone="no"?>
<!-- Created with Inkscape (http://www.inkscape.org/) -->

<svg
   xmlns:dc="http://purl.org/dc/elements/1.1/"
   xmlns:cc="http://creativecommons.org/ns#"
   xmlns:rdf="http://www.w3.org/1999/02/22-rdf-syntax-ns#"
   xmlns:svg="http://www.w3.org/2000/svg"
   xmlns="http://www.w3.org/2000/svg"
   xmlns:sodipodi="http://sodipodi.sourceforge.net/DTD/sodipodi-0.dtd"
   xmlns:inkscape="http://www.inkscape.org/namespaces/inkscape"
   width="162.85252mm"
   height="27.55825mm"
   viewBox="0 0 577.0365 97.647345"
   id="svg2"
   version="1.1"
   inkscape:version="0.91 r13725"
   sodipodi:docname="2.svg">
  <defs
     id="defs4">
    <marker
       inkscape:stockid="Arrow1Lend"
       orient="auto"
       refY="0"
       refX="0"
       id="marker5463"
       style="overflow:visible"
       inkscape:isstock="true">
      <path
         inkscape:connector-curvature="0"
         id="path5465"
         d="M 0,0 5,-5 -12.5,0 5,5 0,0 Z"
         style="fill:#000000;fill-opacity:1;fill-rule:evenodd;stroke:#000000;stroke-width:1pt;stroke-opacity:1"
         transform="matrix(-0.8,0,0,-0.8,-10,0)" />
    </marker>
    <marker
       inkscape:isstock="true"
       style="overflow:visible"
       id="marker5207"
       refX="0"
       refY="0"
       orient="auto"
       inkscape:stockid="Arrow1Lend"
       inkscape:collect="always">
      <path
         transform="matrix(-0.8,0,0,-0.8,-10,0)"
         style="fill:#000000;fill-opacity:1;fill-rule:evenodd;stroke:#000000;stroke-width:1pt;stroke-opacity:1"
         d="M 0,0 5,-5 -12.5,0 5,5 0,0 Z"
         id="path5209"
         inkscape:connector-curvature="0" />
    </marker>
    <marker
       inkscape:isstock="true"
       style="overflow:visible"
       id="marker5117"
       refX="0"
       refY="0"
       orient="auto"
       inkscape:stockid="Arrow1Lend">
      <path
         transform="matrix(-0.8,0,0,-0.8,-10,0)"
         style="fill:#000000;fill-opacity:1;fill-rule:evenodd;stroke:#000000;stroke-width:1pt;stroke-opacity:1"
         d="M 0,0 5,-5 -12.5,0 5,5 0,0 Z"
         id="path5119"
         inkscape:connector-curvature="0" />
    </marker>
    <marker
       inkscape:stockid="Arrow1Lstart"
       orient="auto"
       refY="0"
       refX="0"
       id="Arrow1Lstart"
       style="overflow:visible"
       inkscape:isstock="true">
      <path
         id="path4237"
         d="M 0,0 5,-5 -12.5,0 5,5 0,0 Z"
         style="fill:#000000;fill-opacity:1;fill-rule:evenodd;stroke:#000000;stroke-width:1pt;stroke-opacity:1"
         transform="matrix(0.8,0,0,0.8,10,0)"
         inkscape:connector-curvature="0" />
    </marker>
    <marker
       inkscape:stockid="Arrow1Mend"
       orient="auto"
       refY="0"
       refX="0"
       id="Arrow1Mend"
       style="overflow:visible"
       inkscape:isstock="true">
      <path
         id="path4246"
         d="M 0,0 5,-5 -12.5,0 5,5 0,0 Z"
         style="fill:#000000;fill-opacity:1;fill-rule:evenodd;stroke:#000000;stroke-width:1pt;stroke-opacity:1"
         transform="matrix(-0.4,0,0,-0.4,-4,0)"
         inkscape:connector-curvature="0" />
    </marker>
  </defs>
  <sodipodi:namedview
     id="base"
     pagecolor="#ffffff"
     bordercolor="#666666"
     borderopacity="1.0"
     inkscape:pageopacity="0.0"
     inkscape:pageshadow="2"
     inkscape:zoom="1.979899"
     inkscape:cx="248.78463"
     inkscape:cy="39.599563"
     inkscape:document-units="px"
     inkscape:current-layer="layer1"
     showgrid="false"
     inkscape:snap-bbox="true"
     inkscape:bbox-paths="true"
     inkscape:snap-bbox-edge-midpoints="true"
     inkscape:snap-bbox-midpoints="true"
     inkscape:bbox-nodes="true"
     inkscape:object-paths="true"
     inkscape:snap-intersection-paths="true"
     inkscape:object-nodes="true"
     inkscape:snap-smooth-nodes="true"
     inkscape:snap-midpoints="true"
     inkscape:snap-object-midpoints="true"
     inkscape:snap-center="true"
     inkscape:snap-text-baseline="true"
     inkscape:snap-page="true"
     showguides="true"
     inkscape:guide-bbox="true"
     fit-margin-top="5"
     fit-margin-left="5"
     fit-margin-right="5"
     fit-margin-bottom="5"
     inkscape:window-width="1920"
     inkscape:window-height="1024"
     inkscape:window-x="0"
     inkscape:window-y="30"
     inkscape:window-maximized="1">
    <sodipodi:guide
       position="142.87684,79.430805"
       orientation="0,1"
       id="guide4155" />
    <sodipodi:guide
       position="48.57368,79.430825"
       orientation="0,1"
       id="guide5437" />
  </sodipodi:namedview>
  <metadata
     id="metadata7">
    <rdf:RDF>
      <cc:Work
         rdf:about="">
        <dc:format>image/svg+xml</dc:format>
        <dc:type
           rdf:resource="http://purl.org/dc/dcmitype/StillImage" />
        <dc:title></dc:title>
      </cc:Work>
    </rdf:RDF>
  </metadata>
  <g
     inkscape:label="Layer 1"
     inkscape:groupmode="layer"
     id="layer1"
     transform="translate(-101.05174,-536.50281)">
    <path
       style="opacity:1;fill:none;fill-opacity:1;stroke:#000000;stroke-width:1;stroke-linejoin:round;stroke-miterlimit:4;stroke-dasharray:none;stroke-dashoffset:0;stroke-opacity:1"
       d="m 179.98257,585.57648 a 30.357143,30.357143 0 0 1 -30.35714,30.35714 30.357143,30.357143 0 0 1 -30.35715,-30.35714 30.357143,30.357143 0 0 1 30.35715,-30.35715 30.357143,30.357143 0 0 1 30.35714,30.35715 z"
       id="path4136-6"
       inkscape:connector-curvature="0" />
    <path
       style="opacity:1;fill:none;fill-opacity:1;stroke:#000000;stroke-width:1;stroke-linejoin:round;stroke-miterlimit:4;stroke-dasharray:none;stroke-dashoffset:0;stroke-opacity:1"
       d="m 659.87173,585.57648 a 30.357143,30.357143 0 0 1 -30.35714,30.35714 30.357143,30.357143 0 0 1 -30.35715,-30.35714 30.357143,30.357143 0 0 1 30.35715,-30.35715 30.357143,30.357143 0 0 1 30.35714,30.35715 z"
       id="path4136-3-3"
       inkscape:connector-curvature="0" />
    <g
       style="font-style:normal;font-weight:normal;font-size:40px;line-height:1000%;font-family:sans-serif;letter-spacing:0px;word-spacing:0px;fill:#000000;fill-opacity:1;stroke:none;stroke-width:1px;stroke-linecap:butt;stroke-linejoin:miter;stroke-opacity:1"
       id="text4183"
       transform="translate(-5e-6,2.5e-5)">
      <path
         d="m 144.91293,588.43895 q 0.15,0.15 0.15,0.325 0,2.225 1.425,3.5 1.45,1.25 3.825,1.25 0.3,0 0.4,-0.025 1.1,-0.225 1.775,-1.125 0.7,-0.9 0.7,-2.125 0,-1.075 -0.575,-1.95 -0.55,-0.9 -1.425,-1.2 -1.4,-0.35 -1.85,-0.475 -1.875,-0.45 -1.925,-0.475 -1.45,-0.5 -2.4,-1.75 -0.95,-1.275 -0.95,-2.95 0,-1.5 0.775,-2.675 0.775,-1.175 1.925,-1.75 1,-0.5 2,-0.5 1.975,0 3.2,0.85 0.375,0.25 0.85,0.725 l 0.525,-0.775 q 0.125,-0.175 0.25,-0.375 0.15,-0.2 0.25,-0.325 l 0.075,-0.1 q 0.025,0 0.1,0 0.075,-0.025 0.15,-0.025 0.175,0 0.325,0.15 l 0,5.925 -0.15,0.15 -0.45,0 q -0.275,0 -0.325,-0.075 -0.05,-0.075 -0.125,-0.5 -0.425,-3.15 -2.525,-4.175 -0.925,-0.4 -1.875,-0.4 -1.3,0 -2.15,0.85 -0.825,0.825 -0.825,2.15 0,0.85 0.425,1.575 0.425,0.7 1.2,1.1 0.25,0.125 2.35,0.625 1.775,0.475 1.9,0.525 1.425,0.55 2.325,1.875 0.925,1.3 0.925,3.075 0,2.05 -1.125,3.475 -1.125,1.4 -2.95,1.775 -0.25,0.05 -0.9,0.05 -2.65,0 -4.3,-1.45 -0.125,-0.125 -0.175,-0.1 -0.1,0.125 -0.375,0.525 -0.275,0.375 -0.5,0.675 -0.225,0.325 -0.225,0.35 -0.05,0.025 -0.25,0.025 -0.175,0 -0.325,-0.15 l 0,-2.925 q 0,-2.975 0.025,-3.025 0.05,-0.125 0.5,-0.125 l 0.325,0 z"
         style="font-style:normal;font-variant:normal;font-weight:normal;font-stretch:normal;font-size:25px;font-family:KaTeX_Main;-inkscape-font-specification:KaTeX_Main"
         id="path5277"
         inkscape:connector-curvature="0" />
    </g>
    <g
       style="font-style:normal;font-weight:normal;font-size:40px;line-height:1000%;font-family:sans-serif;letter-spacing:0px;word-spacing:0px;fill:#000000;fill-opacity:1;stroke:none;stroke-width:1px;stroke-linecap:butt;stroke-linejoin:miter;stroke-opacity:1"
       id="text4183-5"
       transform="translate(5.0000001e-6,-2.5e-5)">
      <path
         d="m 621.40208,582.964 q 0.025,-0.05 0.25,-2.85 0.225,-2.8 0.225,-2.85 l 0,-0.15 15.275,0 0,0.15 q 0.025,0.05 0.25,2.85 0.225,2.8 0.225,2.85 l 0,0.15 -1,0 0,-0.15 q -0.025,-0.1 -0.075,-0.6 -0.175,-2.425 -0.8,-3.15 -0.425,-0.525 -1.375,-0.8 -0.525,-0.125 -1.925,-0.125 l -0.675,0 q -0.575,0 -0.725,0.05 -0.125,0.025 -0.2,0.25 -0.025,0.05 -0.025,6.975 l 0,6.9 q 0.2,0.275 0.625,0.35 0.9,0.075 2.25,0.075 l 0.75,0 0,1.15 -0.325,0 q -0.525,-0.075 -4.6,-0.075 -4.075,0 -4.6,0.075 l -0.325,0 0,-1.15 0.75,0 q 1.35,0 2.25,-0.075 0.425,-0.075 0.625,-0.35 l 0,-6.9 q 0,-6.925 -0.025,-6.975 -0.075,-0.225 -0.225,-0.25 -0.125,-0.05 -0.7,-0.05 l -0.675,0 q -1.175,0 -1.425,0.025 -1.075,0.175 -1.7,0.7 -0.8,0.675 -1,3.35 -0.05,0.5 -0.075,0.6 l 0,0.15 -1,0 0,-0.15 z"
         style="font-style:normal;font-variant:normal;font-weight:normal;font-stretch:normal;font-size:25px;font-family:KaTeX_Main;-inkscape-font-specification:KaTeX_Main"
         id="path5280"
         inkscape:connector-curvature="0" />
    </g>
    <path
       inkscape:connector-curvature="0"
       style="opacity:1;fill:none;fill-opacity:1;stroke:#000000;stroke-width:1;stroke-linejoin:round;stroke-miterlimit:4;stroke-dasharray:none;stroke-dashoffset:0;stroke-opacity:1"
       d="m 420.83718,585.0765 a 30.357143,30.357143 0 0 1 -30.35715,30.35714 30.357143,30.357143 0 0 1 -30.35714,-30.35714 30.357143,30.357143 0 0 1 30.35714,-30.35715 30.357143,30.357143 0 0 1 30.35715,30.35715 z"
       id="path4136-3-9" />
    <path
       style="fill:none;fill-rule:evenodd;stroke:#000000;stroke-width:1px;stroke-linecap:butt;stroke-linejoin:miter;stroke-opacity:1"
       d="m 152.87542,577.17647 0,0"
       id="path5443"
       inkscape:connector-curvature="0" />
    <path
       style="fill:none;fill-rule:evenodd;stroke:#000000;stroke-width:1px;stroke-linecap:butt;stroke-linejoin:miter;stroke-opacity:1;marker-end:url(#marker5207)"
       d="m 179.98218,585.51346 180.1411,-0.37395"
       id="path5445"
       inkscape:connector-curvature="0" />
    <path
       style="fill:none;fill-rule:evenodd;stroke:#000000;stroke-width:1px;stroke-linecap:butt;stroke-linejoin:miter;stroke-opacity:1;marker-end:url(#marker5463)"
       d="m 420.83679,585.13999 178.32104,0.37299"
       id="path5449"
       inkscape:connector-curvature="0" />
    <g
       style="font-style:normal;font-variant:normal;font-weight:normal;font-stretch:normal;font-size:40px;line-height:1000%;font-family:KaTeX_Math;-inkscape-font-specification:KaTeX_Math;letter-spacing:0px;word-spacing:0px;fill:#000000;fill-opacity:1;stroke:none;stroke-width:1px;stroke-linecap:butt;stroke-linejoin:miter;stroke-opacity:1"
       id="text5509">
      <path
         d="m 261.68222,574.38128 q -0.12,-0.12 -0.12,-0.22 0.08,-0.54 0.62,-1.38 0.94,-1.42 2.36,-1.64 0.28,-0.04 0.42,-0.04 0.7,0 1.28,0.36 0.6,0.36 0.86,0.9 0.26,-0.34 0.32,-0.42 0.74,-0.84 1.7,-0.84 0.82,0 1.32,0.48 0.52,0.46 0.52,1.14 0,0.62 -0.36,1.04 -0.34,0.42 -0.92,0.42 -0.38,0 -0.62,-0.22 -0.24,-0.22 -0.24,-0.58 0,-0.92 1,-1.26 0,-0.02 -0.22,-0.14 -0.2,-0.12 -0.58,-0.12 -0.26,0 -0.38,0.04 -0.76,0.32 -1.12,1.32 -0.06,0.16 -0.58,2.24 -0.52,2.06 -0.56,2.32 -0.06,0.3 -0.06,0.6 0,0.48 0.28,0.76 0.28,0.28 0.74,0.28 0.84,0 1.52,-0.7 0.68,-0.72 0.92,-1.58 0.06,-0.2 0.12,-0.22 0.06,-0.04 0.32,-0.04 0.38,0 0.38,0.16 0,0.02 -0.04,0.22 -0.34,1.24 -1.4,2.16 -0.94,0.74 -1.98,0.74 -1.4,0 -2.12,-1.26 -0.58,0.9 -1.48,1.2 -0.18,0.04 -0.52,0.04 -1.16,0 -1.64,-0.82 -0.2,-0.34 -0.2,-0.8 0,-0.6 0.36,-1.02 0.36,-0.42 0.92,-0.42 0.86,0 0.86,0.84 0,0.74 -0.7,1.08 -0.04,0.02 -0.1,0.06 -0.06,0.02 -0.1,0.04 -0.04,0.02 -0.06,0.02 l -0.06,0.02 q 0,0.06 0.3,0.18 0.24,0.1 0.52,0.1 0.72,0 1.24,-0.9 0.22,-0.36 0.78,-2.6 0.12,-0.46 0.26,-1.02 0.14,-0.56 0.2,-0.86 0.08,-0.3 0.1,-0.36 0.1,-0.54 0.1,-0.78 0,-0.48 -0.26,-0.76 -0.26,-0.28 -0.72,-0.28 -0.9,0 -1.56,0.7 -0.66,0.68 -0.92,1.58 -0.04,0.18 -0.1,0.22 -0.04,0.02 -0.32,0.02 l -0.28,0 z"
         style="font-size:20px"
         id="path5532"
         inkscape:connector-curvature="0" />
    </g>
    <g
       style="font-style:normal;font-variant:normal;font-weight:normal;font-stretch:normal;font-size:40px;line-height:1000%;font-family:KaTeX_Math;-inkscape-font-specification:KaTeX_Math;letter-spacing:0px;word-spacing:0px;fill:#000000;fill-opacity:1;stroke:none;stroke-width:1px;stroke-linecap:butt;stroke-linejoin:miter;stroke-opacity:1"
       id="text5509-3">
      <path
         d="m 514.57679,571.62927 q 0.28,0 0.48,0.16 0.2,0.14 0.2,0.4 0,0.26 -0.98,4.2 -0.98,3.94 -1.12,4.32 -0.32,0.98 -1.04,1.8 -0.7,0.84 -1.64,1.32 -1.08,0.52 -2.02,0.52 -1.52,0 -2.06,-0.96 -0.2,-0.28 -0.2,-0.8 0,-0.68 0.38,-1.06 0.42,-0.38 0.88,-0.38 0.88,0 0.88,0.84 0,0.74 -0.7,1.08 -0.04,0.02 -0.1,0.04 -0.06,0.04 -0.1,0.06 -0.04,0.02 -0.06,0.02 l -0.06,0.02 q 0.06,0.12 0.42,0.26 0.32,0.12 0.64,0.12 l 0.16,0 q 0.34,0 0.52,-0.04 0.76,-0.22 1.44,-1.02 0.68,-0.8 1.04,-1.92 0.22,-0.66 0.22,-0.78 0,-0.02 -0.04,0.02 -0.04,0.02 -0.12,0.08 -0.74,0.54 -1.64,0.54 -1.02,0 -1.68,-0.48 -0.66,-0.48 -0.86,-1.38 -0.02,-0.14 -0.02,-0.62 0,-0.48 0.04,-0.74 0.14,-0.86 0.92,-2.94 0.44,-1.18 0.44,-1.64 0,-0.28 -0.06,-0.38 -0.04,-0.12 -0.22,-0.12 l -0.1,0 q -0.46,0 -0.88,0.42 -0.64,0.64 -0.98,1.92 0,0.02 -0.02,0.08 -0.02,0.04 -0.04,0.06 0,0 -0.02,0.02 -0.02,0.02 -0.08,0.02 -0.04,0 -0.08,0 -0.04,0 -0.16,0 l -0.28,0 q -0.12,-0.12 -0.12,-0.18 0,-0.06 0.06,-0.28 0.42,-1.4 1.26,-2.18 0.68,-0.64 1.42,-0.64 0.84,0 1.34,0.46 0.5,0.46 0.5,1.28 -0.04,0.38 -0.06,0.42 0,0.12 -0.3,0.86 -0.82,2.22 -0.98,3.26 -0.02,0.16 -0.02,0.46 0,0.76 0.24,1.16 0.24,0.4 0.88,0.4 0.46,0 0.86,-0.24 0.42,-0.24 0.62,-0.46 0.22,-0.24 0.54,-0.64 0,-0.02 0.1,-0.4 0.1,-0.4 0.28,-1.18 0.2,-0.78 0.38,-1.48 0.76,-3 0.84,-3.14 0.26,-0.54 0.86,-0.54 z"
         style="font-size:20px"
         id="path5535"
         inkscape:connector-curvature="0" />
    </g>
    <g
       style="font-style:normal;font-variant:normal;font-weight:normal;font-stretch:normal;font-size:40px;line-height:1000%;font-family:KaTeX_Math;-inkscape-font-specification:KaTeX_Math;letter-spacing:0px;word-spacing:0px;fill:#000000;fill-opacity:1;stroke:none;stroke-width:1px;stroke-linecap:butt;stroke-linejoin:miter;stroke-opacity:1"
       id="text5589">
      <path
         d="m 390.42378,589.33278 q -1.2,0 -1.9125,-0.6 -0.69375,-0.61875 -0.69375,-1.8 0,-0.3375 0.0375,-0.6375 0.16875,-0.9 0.88125,-2.75625 l 0.3,-0.9 q 0.1125,-0.3375 0.1125,-0.6375 0,-0.46875 -0.35625,-0.46875 -0.13125,0 -0.3,0.0562 -0.95625,0.3375 -1.44375,2.15625 0,0.0188 -0.0188,0.075 -0.0188,0.0375 -0.0375,0.0562 0,0 -0.0188,0.0187 -0.0187,0.0188 -0.075,0.0188 -0.0375,0 -0.075,0 -0.0375,0 -0.15,0 l -0.2625,0 q -0.1125,-0.1125 -0.1125,-0.16875 0,-0.0562 0.0562,-0.28125 0.45,-1.48125 1.3875,-2.2125 0.50625,-0.39375 1.1625,-0.39375 0.73125,0 1.2,0.4125 0.46875,0.4125 0.46875,1.0875 0,0.31875 -0.0562,0.4875 0,0.13125 -0.28125,0.825 -0.8625,2.34375 -0.91875,3.3375 0,0.50625 0.0937,0.825 0.24375,0.80625 1.18125,0.80625 0.50625,0 0.9,-0.3 1.1625,-0.76875 1.93125,-3.54375 0.15,-0.525 0.15,-0.8625 0,-0.825 -0.73125,-1.48125 -0.24375,-0.225 -0.24375,-0.50625 0,-0.43125 0.3375,-0.76875 0.35625,-0.35625 0.7875,-0.35625 0.45,0 0.69375,0.43125 0.24375,0.4125 0.24375,0.99375 0,0.65625 -0.375,2.15625 -0.35625,1.44375 -0.9,2.5125 -1.18125,2.41875 -2.9625,2.41875 z"
         style="font-size:18.75px"
         id="path5594" />
    </g>
  </g>
</svg>
