<?xml version="1.0" encoding="UTF-8" standalone="no"?>
<!-- Created with Inkscape (http://www.inkscape.org/) -->

<svg
   xmlns:dc="http://purl.org/dc/elements/1.1/"
   xmlns:cc="http://creativecommons.org/ns#"
   xmlns:rdf="http://www.w3.org/1999/02/22-rdf-syntax-ns#"
   xmlns:svg="http://www.w3.org/2000/svg"
   xmlns="http://www.w3.org/2000/svg"
   xmlns:sodipodi="http://sodipodi.sourceforge.net/DTD/sodipodi-0.dtd"
   xmlns:inkscape="http://www.inkscape.org/namespaces/inkscape"
   width="113.81746mm"
   height="19.403856mm"
   viewBox="0 0 403.29021 68.753821"
   id="svg2"
   version="1.1"
   inkscape:version="0.91 r13725"
   sodipodi:docname="2.svg">
  <defs
     id="defs4" />
  <sodipodi:namedview
     id="base"
     pagecolor="#ffffff"
     bordercolor="#666666"
     borderopacity="1.0"
     inkscape:pageopacity="0.0"
     inkscape:pageshadow="2"
     inkscape:zoom="2.8"
     inkscape:cx="149.34676"
     inkscape:cy="9.0766306"
     inkscape:document-units="px"
     inkscape:current-layer="layer1"
     showgrid="false"
     showguides="true"
     inkscape:guide-bbox="true"
     inkscape:snap-bbox="true"
     inkscape:bbox-paths="true"
     inkscape:bbox-nodes="true"
     inkscape:snap-bbox-edge-midpoints="true"
     inkscape:snap-bbox-midpoints="true"
     inkscape:object-paths="true"
     inkscape:snap-intersection-paths="true"
     inkscape:object-nodes="true"
     inkscape:snap-smooth-nodes="true"
     inkscape:snap-midpoints="true"
     inkscape:snap-object-midpoints="true"
     inkscape:snap-center="true"
     inkscape:snap-text-baseline="true"
     inkscape:snap-page="true"
     fit-margin-top="5"
     fit-margin-left="5"
     fit-margin-right="5"
     fit-margin-bottom="5"
     inkscape:window-width="1920"
     inkscape:window-height="1024"
     inkscape:window-x="0"
     inkscape:window-y="30"
     inkscape:window-maximized="1" />
  <metadata
     id="metadata7">
    <rdf:RDF>
      <cc:Work
         rdf:about="">
        <dc:format>image/svg+xml</dc:format>
        <dc:type
           rdf:resource="http://purl.org/dc/dcmitype/StillImage" />
        <dc:title />
      </cc:Work>
    </rdf:RDF>
  </metadata>
  <g
     inkscape:label="Layer 1"
     inkscape:groupmode="layer"
     id="layer1"
     transform="translate(-219.42632,-489.6963)">
    <path
       style="fill:none;fill-rule:evenodd;stroke:#000000;stroke-width:1px;stroke-linecap:butt;stroke-linejoin:miter;stroke-opacity:1"
       d="m 237.14286,521.64792 367.85714,0"
       id="path4138"
       inkscape:connector-curvature="0" />
    <path
       style="opacity:1;fill:#000000;fill-opacity:1;stroke:none;stroke-width:0.27200001;stroke-linejoin:miter;stroke-miterlimit:4;stroke-dasharray:none;stroke-dashoffset:0;stroke-opacity:1"
       d="m 423.57144,521.64795 a 2.5,2.5 0 0 1 -2.5,2.5 2.5,2.5 0 0 1 -2.5,-2.5 2.5,2.5 0 0 1 2.5,-2.5 2.5,2.5 0 0 1 2.5,2.5 z"
       id="path4140" />
    <path
       style="opacity:1;fill:#000000;fill-opacity:1;stroke:none;stroke-width:0.27200001;stroke-linejoin:miter;stroke-miterlimit:4;stroke-dasharray:none;stroke-dashoffset:0;stroke-opacity:1"
       d="m 516.01666,521.64789 a 2.5,2.5 0 0 1 -2.5,2.5 2.5,2.5 0 0 1 -2.5,-2.5 2.5,2.5 0 0 1 2.5,-2.5 2.5,2.5 0 0 1 2.5,2.5 z"
       id="path4140-3" />
    <path
       style="opacity:1;fill:#000000;fill-opacity:1;stroke:none;stroke-width:0.27200001;stroke-linejoin:miter;stroke-miterlimit:4;stroke-dasharray:none;stroke-dashoffset:0;stroke-opacity:1"
       d="m 331.12622,521.64789 a 2.5,2.5 0 0 1 -2.5,2.5 2.5,2.5 0 0 1 -2.5,-2.5 2.5,2.5 0 0 1 2.5,-2.5 2.5,2.5 0 0 1 2.5,2.5 z"
       id="path4140-6" />
    <path
       style="opacity:1;fill:#000000;fill-opacity:1;stroke:none;stroke-width:0.27200001;stroke-linejoin:miter;stroke-miterlimit:4;stroke-dasharray:none;stroke-dashoffset:0;stroke-opacity:1"
       d="m 573.10254,521.64795 a 2.5,2.5 0 0 1 -2.5,2.5 2.5,2.5 0 0 1 -2.5,-2.5 2.5,2.5 0 0 1 2.5,-2.5 2.5,2.5 0 0 1 2.5,2.5 z"
       id="path4140-3-3" />
    <path
       style="opacity:1;fill:#000000;fill-opacity:1;stroke:none;stroke-width:0.27200001;stroke-linejoin:miter;stroke-miterlimit:4;stroke-dasharray:none;stroke-dashoffset:0;stroke-opacity:1"
       d="m 274.04034,521.64795 a 2.5,2.5 0 0 1 -2.5,2.5 2.5,2.5 0 0 1 -2.5,-2.5 2.5,2.5 0 0 1 2.5,-2.5 2.5,2.5 0 0 1 2.5,2.5 z"
       id="path4140-6-2" />
    <g
       style="font-style:normal;font-weight:normal;font-size:12.5px;line-height:1000%;font-family:sans-serif;letter-spacing:0px;word-spacing:0px;fill:#000000;fill-opacity:1;stroke:none;stroke-width:1px;stroke-linecap:butt;stroke-linejoin:miter;stroke-opacity:1"
       id="text4257">
      <path
         d="m 272.80909,530.73359 q 0,-0.325 0.2375,-0.5625 0.2375,-0.25 0.5625,-0.25 0.2125,0 0.35,0.1375 0.15,0.125 0.175,0.3375 0,0.3375 -0.225,0.5875 -0.225,0.2375 -0.5625,0.2375 -0.225,0 -0.375,-0.125 -0.15,-0.1375 -0.1625,-0.3625 z m -0.1125,2.75 q 0,-0.3625 -0.325,-0.3625 -0.1375,0 -0.2875,0.05 -0.3375,0.1125 -0.6625,0.475 -0.3125,0.3625 -0.525,0.8875 -0.0125,0.0375 -0.0375,0.0875 -0.025,0.05 -0.025,0.0625 0,0 -0.0375,0.0125 -0.0375,0.0125 -0.075,0.0125 -0.025,0 -0.1125,0 l -0.175,0 q -0.1,-0.1 -0.025,-0.2625 0.375,-0.9 0.975,-1.375 0.425,-0.3375 0.8625,-0.4 0.0125,0 0.1,0 0.0875,-0.0125 0.15,-0.0125 0.3,0.0125 0.55,0.125 0.325,0.2 0.475,0.425 0.1625,0.2125 0.1625,0.625 l 0,0.2 -0.6125,2.4875 q -0.6375,2.5 -0.675,2.6 -0.2,0.5375 -0.6875,0.95 -0.475,0.425 -1.0625,0.5875 -0.3125,0.075 -0.6125,0.075 -0.4875,0 -0.7875,-0.2125 -0.3,-0.2125 -0.3,-0.625 0,-0.35 0.25,-0.5875 0.25,-0.2375 0.5625,-0.2375 0.2375,0 0.375,0.1375 0.15,0.1375 0.15,0.375 0,0.45 -0.4,0.6875 0.0625,0.0125 0.175,0.0125 0.425,0 0.775,-0.3625 0.3625,-0.3625 0.5375,-0.8125 l 0.1375,-0.525 q 0.1375,-0.5375 0.325,-1.3 0.2,-0.775 0.4,-1.5625 0.2,-0.7875 0.3375,-1.3875 0.1375,-0.6125 0.1375,-0.7125 0,-0.0875 -0.0125,-0.1375 z"
         style="font-style:normal;font-variant:normal;font-weight:normal;font-stretch:normal;font-size:12.5px;font-family:KaTeX_Math;-inkscape-font-specification:KaTeX_Math"
         id="path6076" />
    </g>
    <g
       style="font-style:normal;font-weight:normal;font-size:12.5px;line-height:1000%;font-family:sans-serif;letter-spacing:0px;word-spacing:0px;fill:#000000;fill-opacity:1;stroke:none;stroke-width:1px;stroke-linecap:butt;stroke-linejoin:miter;stroke-opacity:1"
       id="text4257-9">
      <path
         d="m 317.86166,538.39398 q 0.1,0.175 0.5875,0.175 l 0.175,0 0.2,0 0,0.575 -0.1,0 q -0.1625,-0.0375 -1.4,-0.0375 -1.2375,0 -1.4,0.0375 l -0.1,0 0,-0.575 0.2,0 0.175,0 q 0.4875,0 0.5875,-0.175 l 0,-0.1 q 0,-0.1125 0,-0.2875 0,-0.175 0,-0.3875 0.0125,-0.225 0.0125,-0.4875 0,-0.275 0,-0.525 0,-0.3875 -0.0125,-0.825 0,-0.45 0,-0.7375 l 0,-0.2875 q -0.0375,-0.2375 -0.1875,-0.3125 -0.1375,-0.0875 -0.55,-0.1125 l -0.225,0 0,-0.2875 q 0,-0.2875 0.025,-0.2875 l 0.125,-0.0125 q 0.125,-0.0125 0.35,-0.025 0.2375,-0.0125 0.4625,-0.025 0.2125,-0.0125 0.45,-0.025 0.2375,-0.025 0.3625,-0.0375 0.125,-0.0125 0.1375,-0.0125 l 0.0375,0 0,0.5 q 0,0.475 0.0125,0.475 l 0.0125,-0.0125 q 0.675,-0.9625 1.9125,-0.9625 1.2125,0.0375 1.4875,0.95 l 0.025,0.0625 q 0.3,-0.375 0.3375,-0.4125 0.6375,-0.6 1.4875,-0.6 1.5625,0 1.7125,1.4125 0.0125,0.0875 0.0125,1.7375 0,1.6 0.0125,1.625 0.05,0.1 0.15,0.1375 0.2625,0.0375 0.6125,0.0375 l 0.2,0 0,0.575 -0.1,0 q -0.1625,-0.0375 -1.4,-0.0375 -1.2375,0 -1.4,0.0375 l -0.1,0 0,-0.575 0.2,0 0.1,0 q 0.6625,0 0.6625,-0.2 0.0125,-0.025 0.0125,-1.725 -0.0125,-1.6875 -0.025,-1.7875 -0.0875,-0.4 -0.2875,-0.575 -0.1875,-0.1875 -0.5875,-0.1875 -0.5625,0 -0.9875,0.425 -0.4375,0.4375 -0.5125,1.1 0,0.0125 -0.0125,0.2375 0,0.2125 0,0.55 0,0.3375 0,0.6375 0,0.1875 0,0.4 0,0.2 0,0.3625 0,0.1625 0,0.3 0.0125,0.125 0.0125,0.2125 l 0,0.075 q 0.1,0.175 0.5875,0.175 l 0.175,0 0.2,0 0,0.575 -0.1,0 q -0.1625,-0.0375 -1.4,-0.0375 -1.2375,0 -1.4,0.0375 l -0.1,0 0,-0.575 0.2,0 0.1,0 q 0.6625,0 0.6625,-0.2 0.0125,-0.025 0.0125,-1.725 -0.0125,-1.6875 -0.025,-1.7875 -0.0875,-0.4 -0.2875,-0.575 -0.1875,-0.1875 -0.5875,-0.1875 -0.5625,0 -0.9875,0.425 -0.4375,0.4375 -0.5125,1.1 0,0.0125 0,0.2375 0,0.2125 -0.0125,0.55 0,0.3375 0,0.6375 0,0.1875 0,0.4 0,0.2 0,0.3625 0.0125,0.1625 0.0125,0.3 0,0.125 0,0.2125 l 0,0.075 z"
         style="font-style:normal;font-variant:normal;font-weight:normal;font-stretch:normal;font-family:KaTeX_Main;-inkscape-font-specification:KaTeX_Main"
         id="path6079" />
      <path
         d="m 327.86146,535.13148 q -0.1875,0.2 -0.475,0.2 -0.2875,0 -0.475,-0.2 -0.1875,-0.2 -0.1875,-0.475 0,-0.175 0.1,-0.4 0.1625,-0.3375 0.65,-0.525 0.4875,-0.1875 1.1875,-0.1875 0.825,0 1.425,0.375 0.6125,0.375 0.8,0.975 0.0625,0.175 0.0625,0.4 0.0125,0.2125 0.0125,1.425 0,1.225 0,1.4375 0.0125,0.2 0.075,0.3125 0.075,0.175 0.25,0.175 0.1625,0 0.2375,-0.175 0.075,-0.15 0.075,-0.6875 l 0,-0.45 0.5,0 0,0.4875 q -0.0125,0.5 -0.0375,0.5875 -0.1125,0.35 -0.4125,0.5875 -0.3,0.225 -0.7125,0.225 -0.3125,0 -0.5625,-0.2125 -0.2375,-0.225 -0.325,-0.5375 l 0,-0.05 q -0.0375,0.0375 -0.15,0.175 -0.1125,0.125 -0.1625,0.175 -0.6125,0.5125 -1.425,0.5125 -0.65,0 -1.1625,-0.275 -0.5125,-0.275 -0.6875,-0.725 -0.1,-0.2375 -0.1,-0.475 0,-0.5875 0.4875,-1.075 0.2875,-0.2875 0.7125,-0.475 0.85,-0.3875 2.175,-0.4625 l 0.175,0 0,-0.275 q 0,-0.425 -0.075,-0.625 -0.125,-0.4125 -0.4375,-0.65 -0.3125,-0.2375 -0.775,-0.2375 -0.8375,0 -0.8375,0.1 0.275,0.1875 0.275,0.55 0,0.275 -0.2,0.475 z m 2.05,1.825 q 0,-0.725 -0.0125,-0.725 -0.0375,0 -0.0625,0.0125 -1.7125,0.1125 -2.1875,1.0125 -0.1375,0.25 -0.1375,0.5625 0,0.425 0.3,0.7125 0.3,0.2875 0.7375,0.2875 0.5,0 0.85,-0.3 0.3625,-0.3 0.475,-0.7375 0.025,-0.0875 0.0375,-0.825 z"
         style="font-style:normal;font-variant:normal;font-weight:normal;font-stretch:normal;font-family:KaTeX_Main;-inkscape-font-specification:KaTeX_Main"
         id="path6081" />
      <path
         d="m 334.69896,539.14398 q -0.1875,-0.0375 -1.2375,-0.0375 -0.925,0 -1.0625,0.0375 l -0.075,0 0,-0.575 0.175,0 q 0.8875,-0.0625 1.3,-0.475 0.05,-0.05 0.6375,-0.825 l 0.575,-0.75 -0.725,-0.975 q -0.7375,-1.0125 -0.7625,-1.0375 -0.1125,-0.1125 -0.3375,-0.15 -0.075,0 -0.45,-0.025 l -0.35,0 0,-0.575 0.0875,0 q 0.45,0.025 1.2875,0.025 l 0.55,0 q 0.6625,0 0.7375,-0.025 l 0.1,0 0,0.575 q -0.45,0.0625 -0.45,0.2 0,0.0375 0.3875,0.5875 0.4,0.55 0.5,0.65 l 0.3125,-0.425 q 0.3375,-0.4375 0.35,-0.475 0.05,-0.0875 0.05,-0.2 0,-0.2 -0.15,-0.2875 -0.025,-0.0125 -0.075,-0.025 -0.0375,-0.025 -0.05,-0.025 l -0.0625,0 0,-0.575 0.0875,0 q 0.1625,0.0375 1.2375,0.0375 0.95,0 1.0625,-0.0375 l 0.075,0 0,0.575 -0.0875,0 q -0.6125,0 -1.0125,0.2125 -0.1875,0.0875 -0.325,0.225 -0.1375,0.1375 -0.4375,0.525 -0.0875,0.125 -0.275,0.3625 -0.175,0.2375 -0.2,0.275 l -0.2,0.2625 0.775,1.0625 q 0.8125,1.1 0.8375,1.125 0.1875,0.1875 0.925,0.1875 l 0.2125,0 0,0.575 -0.075,0 q -0.125,-0.0375 -1.2,-0.0375 -1.15,0 -1.375,0.0375 l -0.1125,0 0,-0.575 0.0375,0 q 0.1375,0 0.275,-0.0625 0.1375,-0.075 0.1375,-0.15 0,-0.0125 -1.0125,-1.4 -0.0125,0.0125 -0.4,0.525 -0.375,0.5125 -0.4125,0.5625 -0.05,0.0875 -0.05,0.1875 0,0.1375 0.0875,0.2375 0.1,0.1 0.225,0.1 0.025,0 0.025,0.2875 l 0,0.2875 -0.0875,0 z"
         style="font-style:normal;font-variant:normal;font-weight:normal;font-stretch:normal;font-family:KaTeX_Main;-inkscape-font-specification:KaTeX_Main"
         id="path6083" />
      <path
         d="m 339.75326,531.21898 q 0,-0.3125 0.2125,-0.525 0.2125,-0.225 0.5375,-0.225 0.3,0 0.5625,0.2375 0.3625,0.4125 0.3625,1.2 0,0.7875 -0.3375,1.4375 -0.25,0.5125 -0.6125,0.875 -0.1875,0.1875 -0.225,0.1875 -0.05,0 -0.175,-0.1125 -0.1125,-0.125 -0.1125,-0.1625 0,-0.05 0.15,-0.2 0.8125,-0.825 0.8625,-1.9375 0,-0.15 -0.0125,-0.15 -0.0375,0.025 -0.0875,0.05 -0.1625,0.0875 -0.3625,0.0875 -0.3125,0 -0.5375,-0.2125 -0.225,-0.225 -0.225,-0.55 z"
         style="font-style:normal;font-variant:normal;font-weight:normal;font-stretch:normal;font-family:KaTeX_Main;-inkscape-font-specification:KaTeX_Main"
         id="path6085" />
    </g>
    <g
       style="font-style:normal;font-weight:normal;font-size:12.5px;line-height:1000%;font-family:sans-serif;letter-spacing:0px;word-spacing:0px;fill:#000000;fill-opacity:1;stroke:none;stroke-width:1px;stroke-linecap:butt;stroke-linejoin:miter;stroke-opacity:1"
       id="text4257-2">
      <path
         d="m 418.99019,534.70859 q -0.075,-0.075 -0.075,-0.1125 0,-0.1 0.1625,-0.5875 0.2375,-0.725 0.5625,-1.05 0.3,-0.3 0.6625,-0.3 0.9375,0 1.2,0.8 l 0.125,-0.1125 q 0.5625,-0.525 1.1625,-0.6625 0.15,-0.025 0.3125,-0.025 0.1625,0 0.3125,0.025 0.65,0.15 1.0375,0.675 0.3875,0.5125 0.3875,1.3125 0,0.5875 -0.2375,1.275 -0.3125,0.825 -0.925,1.45 -0.6125,0.6125 -1.3375,0.8375 -0.275,0.075 -0.6,0.075 -0.275,0 -0.4875,-0.075 -0.3375,-0.15 -0.55,-0.4375 l -0.0625,-0.0625 q -0.0125,0.0125 -0.275,1.0875 -0.2625,1.075 -0.2625,1.0875 0,0.025 0,0.0375 0.0125,0.025 0.025,0.0375 0.025,0.0125 0.0375,0.0125 0.025,0.0125 0.05,0.0125 0.0375,0.0125 0.0625,0.0125 0.0375,0 0.0875,0 0.05,0.0125 0.0875,0.0125 0.0375,0 0.1,0 0.0625,0 0.1125,0 l 0.3125,0 q 0.0625,0.0875 0.0625,0.1125 0.0125,0.025 -0.025,0.225 -0.0375,0.15 -0.075,0.1875 -0.0375,0.05 -0.1625,0.05 -0.2,0 -0.6625,-0.0125 -0.45,-0.0125 -0.675,-0.0125 -0.875,0 -1.1125,0.025 l -0.1,0 q -0.0875,-0.0875 -0.0875,-0.1375 0,-0.05 0.05,-0.2125 0.0375,-0.1625 0.0625,-0.1875 l 0.05,-0.0375 0.25,0 q 0.425,-0.0125 0.4875,-0.15 0.0375,-0.075 0.7625,-2.9875 0.7375,-2.9125 0.7625,-3.0875 0.0125,-0.0625 0.0125,-0.175 0,-0.5125 -0.3125,-0.5125 -0.15,0 -0.25,0.0875 -0.3,0.2375 -0.6,1.3875 0,0.0125 -0.0125,0.05 -0.0125,0.025 -0.025,0.0375 0,0 -0.0125,0.0125 -0.0125,0.0125 -0.05,0.0125 -0.025,0 -0.05,0 -0.025,0 -0.1,0 l -0.175,0 z m 4.775,-0.5875 q 0,-1 -0.7625,-1 -0.025,0 -0.0875,0.0125 -0.05,0 -0.0625,0 -0.65,0.1375 -1.225,0.9 -0.025,0.025 -0.0625,0.075 l -0.0375,0.05 q 0,0.0125 -0.05,0.1875 -0.0375,0.1625 -0.1375,0.5375 -0.0875,0.375 -0.1625,0.65 -0.325,1.325 -0.325,1.375 0.0875,0.3 0.1625,0.4375 0.275,0.5125 0.7625,0.5125 0.4,0 0.7375,-0.275 0.3375,-0.2875 0.5625,-0.7375 0.225,-0.425 0.4625,-1.4 0.225,-0.9 0.225,-1.325 z"
         style="font-style:normal;font-variant:normal;font-weight:normal;font-stretch:normal;font-size:12.5px;font-family:KaTeX_Math;-inkscape-font-specification:KaTeX_Math"
         id="path6088" />
    </g>
    <g
       style="font-style:normal;font-weight:normal;font-size:12.5px;line-height:1000%;font-family:sans-serif;letter-spacing:0px;word-spacing:0px;fill:#000000;fill-opacity:1;stroke:none;stroke-width:1px;stroke-linecap:butt;stroke-linejoin:miter;stroke-opacity:1"
       id="text4257-9-3">
      <path
         d="m 504.148,538.39398 q 0.1,0.175 0.5875,0.175 l 0.175,0 0.2,0 0,0.575 -0.1,0 q -0.1625,-0.0375 -1.4,-0.0375 -1.2375,0 -1.4,0.0375 l -0.1,0 0,-0.575 0.2,0 0.175,0 q 0.4875,0 0.5875,-0.175 l 0,-0.1 q 0,-0.1125 0,-0.2875 0,-0.175 0,-0.3875 0.0125,-0.225 0.0125,-0.4875 0,-0.275 0,-0.525 0,-0.3875 -0.0125,-0.825 0,-0.45 0,-0.7375 l 0,-0.2875 q -0.0375,-0.2375 -0.1875,-0.3125 -0.1375,-0.0875 -0.55,-0.1125 l -0.225,0 0,-0.2875 q 0,-0.2875 0.025,-0.2875 l 0.125,-0.0125 q 0.125,-0.0125 0.35,-0.025 0.2375,-0.0125 0.4625,-0.025 0.2125,-0.0125 0.45,-0.025 0.2375,-0.025 0.3625,-0.0375 0.125,-0.0125 0.1375,-0.0125 l 0.0375,0 0,0.5 q 0,0.475 0.0125,0.475 l 0.0125,-0.0125 q 0.675,-0.9625 1.9125,-0.9625 1.2125,0.0375 1.4875,0.95 l 0.025,0.0625 q 0.3,-0.375 0.3375,-0.4125 0.6375,-0.6 1.4875,-0.6 1.5625,0 1.7125,1.4125 0.0125,0.0875 0.0125,1.7375 0,1.6 0.0125,1.625 0.05,0.1 0.15,0.1375 0.2625,0.0375 0.6125,0.0375 l 0.2,0 0,0.575 -0.1,0 q -0.1625,-0.0375 -1.4,-0.0375 -1.2375,0 -1.4,0.0375 l -0.1,0 0,-0.575 0.2,0 0.1,0 q 0.6625,0 0.6625,-0.2 0.0125,-0.025 0.0125,-1.725 -0.0125,-1.6875 -0.025,-1.7875 -0.0875,-0.4 -0.2875,-0.575 -0.1875,-0.1875 -0.5875,-0.1875 -0.5625,0 -0.9875,0.425 -0.4375,0.4375 -0.5125,1.1 0,0.0125 -0.0125,0.2375 0,0.2125 0,0.55 0,0.3375 0,0.6375 0,0.1875 0,0.4 0,0.2 0,0.3625 0,0.1625 0,0.3 0.0125,0.125 0.0125,0.2125 l 0,0.075 q 0.1,0.175 0.5875,0.175 l 0.175,0 0.2,0 0,0.575 -0.1,0 q -0.1625,-0.0375 -1.4,-0.0375 -1.2375,0 -1.4,0.0375 l -0.1,0 0,-0.575 0.2,0 0.1,0 q 0.6625,0 0.6625,-0.2 0.0125,-0.025 0.0125,-1.725 -0.0125,-1.6875 -0.025,-1.7875 -0.0875,-0.4 -0.2875,-0.575 -0.1875,-0.1875 -0.5875,-0.1875 -0.5625,0 -0.9875,0.425 -0.4375,0.4375 -0.5125,1.1 0,0.0125 0,0.2375 0,0.2125 -0.0125,0.55 0,0.3375 0,0.6375 0,0.1875 0,0.4 0,0.2 0,0.3625 0.0125,0.1625 0.0125,0.3 0,0.125 0,0.2125 l 0,0.075 z"
         style="font-style:normal;font-variant:normal;font-weight:normal;font-stretch:normal;font-family:KaTeX_Main;-inkscape-font-specification:KaTeX_Main"
         id="path6091" />
      <path
         d="m 514.14781,535.13148 q -0.1875,0.2 -0.475,0.2 -0.2875,0 -0.475,-0.2 -0.1875,-0.2 -0.1875,-0.475 0,-0.175 0.1,-0.4 0.1625,-0.3375 0.65,-0.525 0.4875,-0.1875 1.1875,-0.1875 0.825,0 1.425,0.375 0.6125,0.375 0.8,0.975 0.0625,0.175 0.0625,0.4 0.0125,0.2125 0.0125,1.425 0,1.225 0,1.4375 0.0125,0.2 0.075,0.3125 0.075,0.175 0.25,0.175 0.1625,0 0.2375,-0.175 0.075,-0.15 0.075,-0.6875 l 0,-0.45 0.5,0 0,0.4875 q -0.0125,0.5 -0.0375,0.5875 -0.1125,0.35 -0.4125,0.5875 -0.3,0.225 -0.7125,0.225 -0.3125,0 -0.5625,-0.2125 -0.2375,-0.225 -0.325,-0.5375 l 0,-0.05 q -0.0375,0.0375 -0.15,0.175 -0.1125,0.125 -0.1625,0.175 -0.6125,0.5125 -1.425,0.5125 -0.65,0 -1.1625,-0.275 -0.5125,-0.275 -0.6875,-0.725 -0.1,-0.2375 -0.1,-0.475 0,-0.5875 0.4875,-1.075 0.2875,-0.2875 0.7125,-0.475 0.85,-0.3875 2.175,-0.4625 l 0.175,0 0,-0.275 q 0,-0.425 -0.075,-0.625 -0.125,-0.4125 -0.4375,-0.65 -0.3125,-0.2375 -0.775,-0.2375 -0.8375,0 -0.8375,0.1 0.275,0.1875 0.275,0.55 0,0.275 -0.2,0.475 z m 2.05,1.825 q 0,-0.725 -0.0125,-0.725 -0.0375,0 -0.0625,0.0125 -1.7125,0.1125 -2.1875,1.0125 -0.1375,0.25 -0.1375,0.5625 0,0.425 0.3,0.7125 0.3,0.2875 0.7375,0.2875 0.5,0 0.85,-0.3 0.3625,-0.3 0.475,-0.7375 0.025,-0.0875 0.0375,-0.825 z"
         style="font-style:normal;font-variant:normal;font-weight:normal;font-stretch:normal;font-family:KaTeX_Main;-inkscape-font-specification:KaTeX_Main"
         id="path6093" />
      <path
         d="m 520.98531,539.14398 q -0.1875,-0.0375 -1.2375,-0.0375 -0.925,0 -1.0625,0.0375 l -0.075,0 0,-0.575 0.175,0 q 0.8875,-0.0625 1.3,-0.475 0.05,-0.05 0.6375,-0.825 l 0.575,-0.75 -0.725,-0.975 q -0.7375,-1.0125 -0.7625,-1.0375 -0.1125,-0.1125 -0.3375,-0.15 -0.075,0 -0.45,-0.025 l -0.35,0 0,-0.575 0.0875,0 q 0.45,0.025 1.2875,0.025 l 0.55,0 q 0.6625,0 0.7375,-0.025 l 0.1,0 0,0.575 q -0.45,0.0625 -0.45,0.2 0,0.0375 0.3875,0.5875 0.4,0.55 0.5,0.65 l 0.3125,-0.425 q 0.3375,-0.4375 0.35,-0.475 0.05,-0.0875 0.05,-0.2 0,-0.2 -0.15,-0.2875 -0.025,-0.0125 -0.075,-0.025 -0.0375,-0.025 -0.05,-0.025 l -0.0625,0 0,-0.575 0.0875,0 q 0.1625,0.0375 1.2375,0.0375 0.95,0 1.0625,-0.0375 l 0.075,0 0,0.575 -0.0875,0 q -0.6125,0 -1.0125,0.2125 -0.1875,0.0875 -0.325,0.225 -0.1375,0.1375 -0.4375,0.525 -0.0875,0.125 -0.275,0.3625 -0.175,0.2375 -0.2,0.275 l -0.2,0.2625 0.775,1.0625 q 0.8125,1.1 0.8375,1.125 0.1875,0.1875 0.925,0.1875 l 0.2125,0 0,0.575 -0.075,0 q -0.125,-0.0375 -1.2,-0.0375 -1.15,0 -1.375,0.0375 l -0.1125,0 0,-0.575 0.0375,0 q 0.1375,0 0.275,-0.0625 0.1375,-0.075 0.1375,-0.15 0,-0.0125 -1.0125,-1.4 -0.0125,0.0125 -0.4,0.525 -0.375,0.5125 -0.4125,0.5625 -0.05,0.0875 -0.05,0.1875 0,0.1375 0.0875,0.2375 0.1,0.1 0.225,0.1 0.025,0 0.025,0.2875 l 0,0.2875 -0.0875,0 z"
         style="font-style:normal;font-variant:normal;font-weight:normal;font-stretch:normal;font-family:KaTeX_Main;-inkscape-font-specification:KaTeX_Main"
         id="path6095" />
    </g>
    <g
       style="font-style:normal;font-weight:normal;font-size:12.5px;line-height:1000%;font-family:sans-serif;letter-spacing:0px;word-spacing:0px;fill:#000000;fill-opacity:1;stroke:none;stroke-width:1px;stroke-linecap:butt;stroke-linejoin:miter;stroke-opacity:1"
       id="text4257-6">
      <path
         d="m 570.8838,531.64398 q 0,-0.2875 0.2375,-0.525 0.2375,-0.2375 0.55,-0.2375 0.225,0 0.375,0.15 0.1625,0.15 0.1625,0.375 0,0.275 -0.25,0.525 -0.25,0.25 -0.55,0.25 -0.225,0 -0.375,-0.15 -0.15,-0.15 -0.15,-0.3875 z m -0.2875,7.6375 q -0.4875,0 -0.7875,-0.2875 -0.3,-0.2875 -0.3,-0.775 0,-0.2125 0.025,-0.2875 0,-0.025 0.575,-1.5375 0.575,-1.525 0.575,-1.55 0.0625,-0.2 0.0625,-0.45 0,-0.3 -0.2125,-0.3 l -0.025,0 q -0.3,0 -0.575,0.2875 -0.4,0.4125 -0.5875,1.175 0,0.0125 -0.0125,0.05 -0.0125,0.025 -0.025,0.0375 0,0 -0.0125,0.0125 -0.0125,0.0125 -0.05,0.0125 -0.025,0 -0.05,0 -0.025,0 -0.1,0 l -0.175,0 q -0.075,-0.075 -0.075,-0.1125 0,-0.0375 0.0375,-0.175 0.325,-1.075 0.95,-1.5 0.3375,-0.2625 0.725,-0.2625 0.5,0 0.825,0.2875 0.325,0.2875 0.325,0.775 0,0.1625 -0.0625,0.375 -0.0125,0.025 -0.575,1.5375 l -0.5625,1.5125 q -0.0625,0.275 -0.0625,0.4 0,0.3125 0.2125,0.3125 0.175,0 0.3125,-0.075 0.55,-0.2625 0.8625,-1.3125 0.0375,-0.15 0.0625,-0.175 0.0375,-0.025 0.2125,-0.025 0.1125,0 0.15,0.0125 0.05,0 0.075,0.025 0.025,0.025 0.025,0.0875 0,0.05 -0.0375,0.1625 -0.2375,0.7125 -0.6875,1.2375 -0.4375,0.525 -1.0375,0.525 z"
         style="font-style:normal;font-variant:normal;font-weight:normal;font-stretch:normal;font-size:12.5px;font-family:KaTeX_Math;-inkscape-font-specification:KaTeX_Math"
         id="path6098" />
    </g>
    <path
       style="fill:none;fill-rule:evenodd;stroke:#000000;stroke-width:1px;stroke-linecap:butt;stroke-linejoin:miter;stroke-opacity:1"
       d="m 328.62622,507.91284 184.89045,0"
       id="path4370"
       inkscape:connector-curvature="0" />
  </g>
</svg>
