<?xml version="1.0" encoding="UTF-8" standalone="no"?>
<!-- Created with Inkscape (http://www.inkscape.org/) -->

<svg
   xmlns:dc="http://purl.org/dc/elements/1.1/"
   xmlns:cc="http://creativecommons.org/ns#"
   xmlns:rdf="http://www.w3.org/1999/02/22-rdf-syntax-ns#"
   xmlns:svg="http://www.w3.org/2000/svg"
   xmlns="http://www.w3.org/2000/svg"
   xmlns:sodipodi="http://sodipodi.sourceforge.net/DTD/sodipodi-0.dtd"
   xmlns:inkscape="http://www.inkscape.org/namespaces/inkscape"
   width="130.32281mm"
   height="79.931602mm"
   viewBox="0 0 461.77375 283.22221"
   id="svg2"
   version="1.1"
   inkscape:version="0.91 r13725"
   sodipodi:docname="1.svg">
  <defs
     id="defs4" />
  <sodipodi:namedview
     id="base"
     pagecolor="#ffffff"
     bordercolor="#666666"
     borderopacity="1.0"
     inkscape:pageopacity="0.0"
     inkscape:pageshadow="2"
     inkscape:zoom="2.8"
     inkscape:cx="227.5537"
     inkscape:cy="147.48995"
     inkscape:document-units="px"
     inkscape:current-layer="layer1"
     showgrid="false"
     inkscape:snap-bbox="true"
     inkscape:bbox-paths="true"
     inkscape:bbox-nodes="true"
     inkscape:snap-bbox-edge-midpoints="true"
     inkscape:snap-bbox-midpoints="true"
     inkscape:object-paths="true"
     inkscape:snap-intersection-paths="true"
     inkscape:object-nodes="true"
     inkscape:snap-smooth-nodes="true"
     inkscape:snap-midpoints="true"
     inkscape:snap-object-midpoints="true"
     inkscape:snap-center="true"
     inkscape:snap-text-baseline="true"
     inkscape:snap-page="true"
     showguides="true"
     inkscape:guide-bbox="true"
     inkscape:window-width="1920"
     inkscape:window-height="1024"
     inkscape:window-x="0"
     inkscape:window-y="30"
     inkscape:window-maximized="1"
     fit-margin-left="5"
     fit-margin-right="5"
     fit-margin-bottom="5"
     fit-margin-top="5" />
  <metadata
     id="metadata7">
    <rdf:RDF>
      <cc:Work
         rdf:about="">
        <dc:format>image/svg+xml</dc:format>
        <dc:type
           rdf:resource="http://purl.org/dc/dcmitype/StillImage" />
        <dc:title></dc:title>
      </cc:Work>
    </rdf:RDF>
  </metadata>
  <g
     inkscape:label="Layer 1"
     inkscape:groupmode="layer"
     id="layer1"
     transform="translate(-158.76166,-475.02623)">
    <rect
       style="opacity:1;fill:none;fill-opacity:1;stroke:#000000;stroke-width:1;stroke-linejoin:miter;stroke-miterlimit:4;stroke-dasharray:none;stroke-dashoffset:0;stroke-opacity:1"
       id="rect4140"
       width="416.68793"
       height="234.35542"
       x="177.78685"
       y="493.24277" />
    <path
       style="fill:none;fill-rule:evenodd;stroke:#e7a600;stroke-width:1px;stroke-linecap:butt;stroke-linejoin:miter;stroke-opacity:1"
       d="m 385.63081,492.74277 0,234.35544 0,0"
       id="path4142"
       inkscape:connector-curvature="0" />
    <g
       style="font-style:normal;font-weight:normal;font-size:13.125px;line-height:1000%;font-family:sans-serif;letter-spacing:0px;word-spacing:0px;fill:#000000;fill-opacity:1;stroke:none;stroke-width:1px;stroke-linecap:butt;stroke-linejoin:miter;stroke-opacity:1"
       id="text4146">
      <path
         d="m 377.40593,739.63941 0.18375,0 q 0.51187,0 0.61687,-0.18375 l 0,-0.105 q 0,-0.11812 0,-0.30187 0,-0.18375 0,-0.43313 0.0131,-0.24937 0.0131,-0.56437 0,-0.32813 0,-0.65625 0,-0.34125 0,-0.72188 0,-0.39375 0,-0.74812 0,-0.48563 0,-1.02375 0,-0.55125 0,-0.98438 0,-0.43312 -0.0131,-0.7875 0,-0.3675 0,-0.5775 0,-0.21 0,-0.22312 -0.0394,-0.24938 -0.19687,-0.32813 -0.14438,-0.0919 -0.5775,-0.11812 l -0.23625,0 0,-0.30188 q 0,-0.30187 0.0263,-0.30187 l 0.13125,-0.0131 q 0.13125,-0.0131 0.38062,-0.0263 0.24938,-0.0131 0.48563,-0.0263 0.22312,-0.0131 0.48562,-0.0263 0.2625,-0.0263 0.39375,-0.0394 0.13125,-0.0131 0.14438,-0.0131 l 0.0394,0 0,4.13438 q 0,4.16062 0.0131,4.18687 0.0525,0.105 0.1575,0.14438 0.27562,0.0394 0.64312,0.0394 l 0.21,0 0,0.60375 -0.105,0 q -0.23625,-0.0394 -1.44375,-0.0394 -1.28625,0 -1.45687,0.0394 l -0.105,0 0,-0.60375 0.21,0 z"
         style="font-style:normal;font-variant:normal;font-weight:normal;font-stretch:normal;font-size:13.125px;font-family:KaTeX_Main;-inkscape-font-specification:KaTeX_Main"
         id="path4703" />
      <path
         d="m 385.94169,737.02754 q 0,0.0919 -0.0919,0.18375 l -3.70125,0 0,0.19687 q 0,0.97125 0.2625,1.47 0.4725,0.97125 1.6275,0.97125 0.56438,0 0.945,-0.42 0.2625,-0.2625 0.40688,-0.6825 0.0394,-0.14437 0.0788,-0.18375 0.0394,-0.0394 0.21,-0.0394 0.2625,0 0.2625,0.13125 0,0.0525 -0.0394,0.17062 -0.24937,0.6825 -0.80062,1.12875 -0.53813,0.43313 -1.32563,0.43313 -0.24937,0 -0.5775,-0.0656 -0.74812,-0.14437 -1.33875,-0.6825 -0.59062,-0.53812 -0.84,-1.29937 -0.1575,-0.4725 -0.1575,-0.95813 0,-1.2075 0.70875,-2.03437 0.70875,-0.84 1.74563,-0.97125 0.0525,-0.0131 0.18375,-0.0131 1.19437,0 1.81125,0.70875 0.63,0.69563 0.63,1.95563 z m -1.07625,-0.39375 q -0.11813,-1.43063 -0.97125,-1.7325 -0.0919,-0.0394 -0.27563,-0.0525 -0.6825,0 -1.11562,0.63 -0.2625,0.42 -0.34125,1.16812 l 0,0.0919 2.70375,0 0,-0.105 z"
         style="font-style:normal;font-variant:normal;font-weight:normal;font-stretch:normal;font-size:13.125px;font-family:KaTeX_Main;-inkscape-font-specification:KaTeX_Main"
         id="path4705" />
      <path
         d="m 388.7814,739.45566 q 0.105,0.18375 0.61688,0.18375 l 0.18375,0 0.21,0 0,0.60375 -0.105,0 q -0.17063,-0.0394 -1.47,-0.0394 -1.29938,0 -1.47,0.0394 l -0.105,0 0,-0.60375 0.21,0 0.18375,0 q 0.51187,0 0.61687,-0.18375 l 0,-0.105 q 0,-0.11812 0,-0.30187 0,-0.18375 0,-0.40688 0.0131,-0.23625 0.0131,-0.51187 0,-0.28875 0,-0.55125 0,-0.40688 -0.0131,-0.86625 0,-0.4725 0,-0.77438 l 0,-0.30187 q -0.0394,-0.24938 -0.19687,-0.32813 -0.14438,-0.0919 -0.5775,-0.11812 l -0.23625,0 0,-0.30188 q 0,-0.30187 0.0263,-0.30187 l 0.13125,-0.0131 q 0.13125,-0.0131 0.3675,-0.0263 0.24937,-0.0131 0.48562,-0.0263 0.22313,-0.0131 0.4725,-0.0263 0.24938,-0.0263 0.38063,-0.0394 0.13125,-0.0131 0.14437,-0.0131 l 0.0394,0 0,0.525 q 0,0.49875 0.0131,0.49875 l 0.0131,-0.0131 q 0.70875,-1.01063 2.00812,-1.01063 1.50938,0.0525 1.66688,1.48313 0.0131,0.0919 0.0131,1.82437 0,1.68 0.0131,1.70625 0.0525,0.105 0.1575,0.14438 0.27562,0.0394 0.64312,0.0394 l 0.21,0 0,0.60375 -0.105,0 q -0.17062,-0.0394 -1.47,-0.0394 -1.29937,0 -1.47,0.0394 l -0.105,0 0,-0.60375 0.21,0 0.105,0 q 0.69563,0 0.69563,-0.21 0.0131,-0.0263 0.0131,-1.81125 -0.0131,-1.77187 -0.0263,-1.87687 -0.0919,-0.42 -0.30187,-0.60375 -0.19688,-0.19688 -0.61688,-0.19688 -0.59062,0 -1.03687,0.44625 -0.45938,0.45938 -0.53813,1.155 0,0.0131 0,0.24938 0,0.22312 -0.0131,0.5775 0,0.35437 0,0.66937 0,0.19688 0,0.42 0,0.21 0,0.38063 0.0131,0.17062 0.0131,0.315 0,0.13125 0,0.22312 l 0,0.0788 z"
         style="font-style:normal;font-variant:normal;font-weight:normal;font-stretch:normal;font-size:13.125px;font-family:KaTeX_Main;-inkscape-font-specification:KaTeX_Main"
         id="path4707" />
    </g>
    <g
       style="font-style:normal;font-weight:normal;font-size:13.125px;line-height:1000%;font-family:sans-serif;letter-spacing:0px;word-spacing:0px;fill:#000000;fill-opacity:1;stroke:none;stroke-width:1px;stroke-linecap:butt;stroke-linejoin:miter;stroke-opacity:1"
       id="text4146-3">
      <path
         d="m 581.12716,734.61254 q -0.3675,0 -0.5775,-0.23625 -0.21,-0.23625 -0.21,-0.5775 0,-0.945 0.70875,-1.61438 0.72188,-0.6825 1.71938,-0.6825 1.12875,0 1.86375,0.61688 0.74812,0.60375 0.91875,1.58812 0.0263,0.23625 0.0263,0.43313 0,0.76125 -0.45938,1.43062 -0.3675,0.55125 -1.48312,1.50938 -0.4725,0.40687 -1.3125,1.2075 l -0.77438,0.735 0.9975,0.0131 q 2.06063,0 2.19188,-0.0656 0.0525,-0.0131 0.13125,-0.27563 0.0525,-0.14437 0.18375,-0.8925 l 0,-0.0394 0.525,0 0,0.0394 -0.3675,2.40188 0,0.0394 -4.86938,0 0,-0.24937 q 0,-0.2625 0.0263,-0.30188 0.0131,-0.0131 1.1025,-1.24687 1.43063,-1.58813 1.8375,-2.1 0.87938,-1.19438 0.87938,-2.19188 0,-0.86625 -0.45938,-1.44375 -0.44625,-0.59062 -1.26,-0.59062 -0.76125,0 -1.23375,0.6825 -0.0263,0.0525 -0.0788,0.14437 -0.0394,0.0656 -0.0394,0.0788 0,0.0131 0.0656,0.0131 0.32813,0 0.525,0.23625 0.21,0.23625 0.21,0.55125 0,0.32812 -0.22312,0.56437 -0.21,0.22313 -0.56438,0.22313 z"
         style="font-style:normal;font-variant:normal;font-weight:normal;font-stretch:normal;font-size:13.125px;font-family:KaTeX_Main;-inkscape-font-specification:KaTeX_Main"
         id="path4710" />
      <path
         d="m 586.79716,739.63941 0.18375,0 q 0.51188,0 0.61688,-0.18375 l 0,-0.105 q 0,-0.11812 0,-0.30187 0,-0.18375 0,-0.43313 0.0131,-0.24937 0.0131,-0.56437 0,-0.32813 0,-0.65625 0,-0.34125 0,-0.72188 0,-0.39375 0,-0.74812 0,-0.48563 0,-1.02375 0,-0.55125 0,-0.98438 0,-0.43312 -0.0131,-0.7875 0,-0.3675 0,-0.5775 0,-0.21 0,-0.22312 -0.0394,-0.24938 -0.19688,-0.32813 -0.14437,-0.0919 -0.5775,-0.11812 l -0.23625,0 0,-0.30188 q 0,-0.30187 0.0263,-0.30187 l 0.13125,-0.0131 q 0.13125,-0.0131 0.38063,-0.0263 0.24937,-0.0131 0.48562,-0.0263 0.22313,-0.0131 0.48563,-0.0263 0.2625,-0.0263 0.39375,-0.0394 0.13125,-0.0131 0.14437,-0.0131 l 0.0394,0 0,4.13438 q 0,4.16062 0.0131,4.18687 0.0525,0.105 0.1575,0.14438 0.27563,0.0394 0.64313,0.0394 l 0.21,0 0,0.60375 -0.105,0 q -0.23625,-0.0394 -1.44375,-0.0394 -1.28625,0 -1.45688,0.0394 l -0.105,0 0,-0.60375 0.21,0 z"
         style="font-style:normal;font-variant:normal;font-weight:normal;font-stretch:normal;font-size:13.125px;font-family:KaTeX_Main;-inkscape-font-specification:KaTeX_Main"
         id="path4712" />
      <path
         d="m 595.33292,737.02754 q 0,0.0919 -0.0919,0.18375 l -3.70125,0 0,0.19687 q 0,0.97125 0.2625,1.47 0.4725,0.97125 1.6275,0.97125 0.56437,0 0.945,-0.42 0.2625,-0.2625 0.40687,-0.6825 0.0394,-0.14437 0.0788,-0.18375 0.0394,-0.0394 0.21,-0.0394 0.2625,0 0.2625,0.13125 0,0.0525 -0.0394,0.17062 -0.24938,0.6825 -0.80063,1.12875 -0.53812,0.43313 -1.32562,0.43313 -0.24938,0 -0.5775,-0.0656 -0.74813,-0.14437 -1.33875,-0.6825 -0.59063,-0.53812 -0.84,-1.29937 -0.1575,-0.4725 -0.1575,-0.95813 0,-1.2075 0.70875,-2.03437 0.70875,-0.84 1.74562,-0.97125 0.0525,-0.0131 0.18375,-0.0131 1.19438,0 1.81125,0.70875 0.63,0.69563 0.63,1.95563 z m -1.07625,-0.39375 q -0.11812,-1.43063 -0.97125,-1.7325 -0.0919,-0.0394 -0.27562,-0.0525 -0.6825,0 -1.11563,0.63 -0.2625,0.42 -0.34125,1.16812 l 0,0.0919 2.70375,0 0,-0.105 z"
         style="font-style:normal;font-variant:normal;font-weight:normal;font-stretch:normal;font-size:13.125px;font-family:KaTeX_Main;-inkscape-font-specification:KaTeX_Main"
         id="path4714" />
      <path
         d="m 598.17264,739.45566 q 0.105,0.18375 0.61687,0.18375 l 0.18375,0 0.21,0 0,0.60375 -0.105,0 q -0.17062,-0.0394 -1.47,-0.0394 -1.29937,0 -1.47,0.0394 l -0.105,0 0,-0.60375 0.21,0 0.18375,0 q 0.51188,0 0.61688,-0.18375 l 0,-0.105 q 0,-0.11812 0,-0.30187 0,-0.18375 0,-0.40688 0.0131,-0.23625 0.0131,-0.51187 0,-0.28875 0,-0.55125 0,-0.40688 -0.0131,-0.86625 0,-0.4725 0,-0.77438 l 0,-0.30187 q -0.0394,-0.24938 -0.19688,-0.32813 -0.14437,-0.0919 -0.5775,-0.11812 l -0.23625,0 0,-0.30188 q 0,-0.30187 0.0263,-0.30187 l 0.13125,-0.0131 q 0.13125,-0.0131 0.3675,-0.0263 0.24938,-0.0131 0.48563,-0.0263 0.22312,-0.0131 0.4725,-0.0263 0.24937,-0.0263 0.38062,-0.0394 0.13125,-0.0131 0.14438,-0.0131 l 0.0394,0 0,0.525 q 0,0.49875 0.0131,0.49875 l 0.0131,-0.0131 q 0.70875,-1.01063 2.00813,-1.01063 1.50937,0.0525 1.66687,1.48313 0.0131,0.0919 0.0131,1.82437 0,1.68 0.0131,1.70625 0.0525,0.105 0.1575,0.14438 0.27563,0.0394 0.64313,0.0394 l 0.21,0 0,0.60375 -0.105,0 q -0.17063,-0.0394 -1.47,-0.0394 -1.29938,0 -1.47,0.0394 l -0.105,0 0,-0.60375 0.21,0 0.105,0 q 0.69562,0 0.69562,-0.21 0.0131,-0.0263 0.0131,-1.81125 -0.0131,-1.77187 -0.0263,-1.87687 -0.0919,-0.42 -0.30188,-0.60375 -0.19687,-0.19688 -0.61687,-0.19688 -0.59063,0 -1.03688,0.44625 -0.45937,0.45938 -0.53812,1.155 0,0.0131 0,0.24938 0,0.22312 -0.0131,0.5775 0,0.35437 0,0.66937 0,0.19688 0,0.42 0,0.21 0,0.38063 0.0131,0.17062 0.0131,0.315 0,0.13125 0,0.22312 l 0,0.0788 z"
         style="font-style:normal;font-variant:normal;font-weight:normal;font-stretch:normal;font-size:13.125px;font-family:KaTeX_Main;-inkscape-font-specification:KaTeX_Main"
         id="path4716" />
    </g>
    <g
       style="font-style:normal;font-weight:normal;font-size:13.125px;line-height:1000%;font-family:sans-serif;letter-spacing:0px;word-spacing:0px;fill:#000000;fill-opacity:1;stroke:none;stroke-width:1px;stroke-linecap:butt;stroke-linejoin:miter;stroke-opacity:1"
       id="text4146-3-7">
      <path
         d="m 177.22632,732.56504 q 0.735,-1.06313 2.00813,-1.06313 0.95812,0 1.68,0.65625 0.35437,0.34125 0.60375,0.8925 0.48562,1.08938 0.48562,2.9925 0,2.03438 -0.56437,3.11063 -0.3675,0.76125 -1.07625,1.1025 -0.55125,0.27562 -1.11563,0.27562 -1.50937,0 -2.205,-1.37812 -0.56437,-1.07625 -0.56437,-3.11063 0,-1.22062 0.1575,-2.00812 0.17062,-0.80063 0.59062,-1.47 z m 2.95313,-0.1575 q -0.38063,-0.42 -0.93188,-0.42 -0.55125,0 -0.945,0.42 -0.28875,0.30187 -0.39375,0.735 -0.105,0.43312 -0.13125,1.49625 0,0.0788 -0.0131,0.51187 0,0.43313 0,0.72188 0,1.26 0.0262,1.75875 0.0525,0.91875 0.1575,1.32562 0.105,0.39375 0.39375,0.6825 0.35437,0.39375 0.90562,0.39375 0.53813,0 0.8925,-0.39375 0.28875,-0.28875 0.39375,-0.6825 0.105,-0.40687 0.1575,-1.32562 0.0263,-0.49875 0.0263,-1.75875 0,-0.28875 -0.0131,-0.72188 0,-0.43312 0,-0.51187 -0.0263,-1.06313 -0.13125,-1.49625 -0.105,-0.43313 -0.39375,-0.735 z"
         style="font-style:normal;font-variant:normal;font-weight:normal;font-stretch:normal;font-size:13.125px;font-family:KaTeX_Main;-inkscape-font-specification:KaTeX_Main"
         id="path4700" />
    </g>
    <path
       style="fill:none;fill-rule:evenodd;stroke:#23bb98;stroke-width:0.51937616px;stroke-linecap:butt;stroke-linejoin:miter;stroke-opacity:1"
       d="m 255.07255,505.93314 56.20112,0"
       id="path4190"
       inkscape:connector-curvature="0" />
    <path
       style="fill:none;fill-rule:evenodd;stroke:#f5546e;stroke-width:0.51937616px;stroke-linecap:butt;stroke-linejoin:miter;stroke-opacity:1"
       d="m 255.07255,523.93314 56.20112,0"
       id="path4190-3"
       inkscape:connector-curvature="0" />
    <path
       style="fill:none;fill-rule:evenodd;stroke:#23bb98;stroke-width:0.51937616px;stroke-linecap:butt;stroke-linejoin:miter;stroke-opacity:1"
       d="m 297.14943,553.64789 56.20112,0"
       id="path4190-9"
       inkscape:connector-curvature="0" />
    <path
       style="fill:none;fill-rule:evenodd;stroke:#f5546e;stroke-width:0.51937616px;stroke-linecap:butt;stroke-linejoin:miter;stroke-opacity:1"
       d="m 297.14943,571.64789 56.20112,0"
       id="path4190-3-1"
       inkscape:connector-curvature="0" />
    <path
       style="fill:none;fill-rule:evenodd;stroke:#23bb98;stroke-width:0.51937616px;stroke-linecap:butt;stroke-linejoin:miter;stroke-opacity:1"
       d="m 348.03604,601.4826 56.20112,0"
       id="path4190-9-7"
       inkscape:connector-curvature="0" />
    <path
       style="fill:none;fill-rule:evenodd;stroke:#f5546e;stroke-width:0.51937616px;stroke-linecap:butt;stroke-linejoin:miter;stroke-opacity:1"
       d="m 348.03604,619.4826 56.20112,0"
       id="path4190-3-1-0"
       inkscape:connector-curvature="0" />
    <path
       style="fill:none;fill-rule:evenodd;stroke:#f5546e;stroke-width:0.51937616px;stroke-linecap:butt;stroke-linejoin:miter;stroke-opacity:1"
       d="m 348.03604,619.4826 56.20112,0"
       id="path4190-3-1-6"
       inkscape:connector-curvature="0" />
    <path
       style="fill:none;fill-rule:evenodd;stroke:#23bb98;stroke-width:0.51937616px;stroke-linecap:butt;stroke-linejoin:miter;stroke-opacity:1"
       d="m 371.35687,649.03789 56.20112,0"
       id="path4190-9-7-0"
       inkscape:connector-curvature="0" />
    <path
       style="fill:none;fill-rule:evenodd;stroke:#f5546e;stroke-width:0.51937616px;stroke-linecap:butt;stroke-linejoin:miter;stroke-opacity:1"
       d="m 398.92265,667.31731 56.20112,0"
       id="path4190-3-1-0-6"
       inkscape:connector-curvature="0" />
    <path
       style="fill:none;fill-rule:evenodd;stroke:#000000;stroke-width:1.03600001;stroke-linecap:butt;stroke-linejoin:miter;stroke-miterlimit:4;stroke-dasharray:2.07200003, 2.07200003;stroke-dashoffset:0;stroke-opacity:1"
       d="m 371.84941,649.2985 -0.0209,18.27854"
       id="path4339"
       inkscape:connector-curvature="0" />
    <path
       style="fill:none;fill-rule:evenodd;stroke:#000000;stroke-width:1.03564441;stroke-linecap:butt;stroke-linejoin:miter;stroke-miterlimit:4;stroke-dasharray:2.07128882, 2.07128882;stroke-dashoffset:0;stroke-opacity:1"
       d="m 398.93961,649.29817 -0.0209,18.27854"
       id="path4339-8"
       inkscape:connector-curvature="0"
       transform="translate(2.979126e-6,2.9905434e-6)" />
    <path
       style="fill:none;fill-rule:evenodd;stroke:#000000;stroke-width:1px;stroke-linecap:butt;stroke-linejoin:miter;stroke-opacity:1"
       d="m 371.83896,658.43744 13.79185,0"
       id="path4358"
       inkscape:connector-curvature="0" />
    <path
       style="fill:none;fill-rule:evenodd;stroke:#000000;stroke-width:1px;stroke-linecap:butt;stroke-linejoin:miter;stroke-opacity:1"
       d="m 398.92916,658.43744 -13.29835,0"
       id="path4360"
       inkscape:connector-curvature="0" />
    <path
       style="fill:none;fill-rule:evenodd;stroke:#23bb98;stroke-width:0.51937616px;stroke-linecap:butt;stroke-linejoin:miter;stroke-opacity:1"
       d="m 301.07815,697.27233 56.20112,0"
       id="path4190-9-7-0-7"
       inkscape:connector-curvature="0" />
    <path
       style="fill:none;fill-rule:evenodd;stroke:#f5546e;stroke-width:0.51937616px;stroke-linecap:butt;stroke-linejoin:miter;stroke-opacity:1"
       d="m 469.6544,715.55141 56.20112,0"
       id="path4190-3-1-0-6-9"
       inkscape:connector-curvature="0" />
    <path
       style="fill:none;fill-rule:evenodd;stroke:#000000;stroke-width:1.03600001;stroke-linecap:butt;stroke-linejoin:miter;stroke-miterlimit:4;stroke-dasharray:2.07200003, 2.07200003;stroke-dashoffset:0;stroke-opacity:1"
       d="m 301.61705,697.53261 -0.0209,18.27854"
       id="path4339-2"
       inkscape:connector-curvature="0" />
    <path
       style="fill:none;fill-rule:evenodd;stroke:#000000;stroke-width:1.03564441;stroke-linecap:butt;stroke-linejoin:miter;stroke-miterlimit:4;stroke-dasharray:2.07128882, 2.07128882;stroke-dashoffset:0;stroke-opacity:1"
       d="m 469.13658,697.53197 -0.0209,18.27854"
       id="path4339-8-0"
       inkscape:connector-curvature="0" />
    <path
       style="fill:none;fill-rule:evenodd;stroke:#000000;stroke-width:1px;stroke-linecap:butt;stroke-linejoin:miter;stroke-opacity:1"
       d="m 385.63081,706.67155 83.49532,-3.1e-4"
       id="path4420"
       inkscape:connector-curvature="0" />
    <path
       style="fill:none;fill-rule:evenodd;stroke:#000000;stroke-width:1px;stroke-linecap:butt;stroke-linejoin:miter;stroke-opacity:1"
       d="m 301.6066,706.67188 84.02421,-3.3e-4"
       id="path4422"
       inkscape:connector-curvature="0" />
  </g>
</svg>
