<?xml version="1.0" encoding="UTF-8" standalone="no"?>
<!-- Created with Inkscape (http://www.inkscape.org/) -->

<svg
   xmlns:dc="http://purl.org/dc/elements/1.1/"
   xmlns:cc="http://creativecommons.org/ns#"
   xmlns:rdf="http://www.w3.org/1999/02/22-rdf-syntax-ns#"
   xmlns:svg="http://www.w3.org/2000/svg"
   xmlns="http://www.w3.org/2000/svg"
   xmlns:sodipodi="http://sodipodi.sourceforge.net/DTD/sodipodi-0.dtd"
   xmlns:inkscape="http://www.inkscape.org/namespaces/inkscape"
   width="183.36617mm"
   height="43.455688mm"
   viewBox="0 0 649.72263 153.97684"
   id="svg2"
   version="1.1"
   inkscape:version="0.91 r13725"
   sodipodi:docname="linear-backward1.svg">
  <defs
     id="defs4" />
  <sodipodi:namedview
     id="base"
     pagecolor="#ffffff"
     bordercolor="#666666"
     borderopacity="1.0"
     inkscape:pageopacity="0.0"
     inkscape:pageshadow="2"
     inkscape:zoom="2.8"
     inkscape:cx="348.55111"
     inkscape:cy="54.989978"
     inkscape:document-units="px"
     inkscape:current-layer="layer1"
     showgrid="false"
     inkscape:snap-bbox="true"
     inkscape:bbox-paths="true"
     inkscape:bbox-nodes="true"
     inkscape:snap-bbox-edge-midpoints="true"
     inkscape:snap-bbox-midpoints="true"
     inkscape:object-paths="true"
     inkscape:snap-intersection-paths="true"
     inkscape:object-nodes="true"
     inkscape:snap-smooth-nodes="true"
     inkscape:snap-midpoints="true"
     inkscape:snap-object-midpoints="true"
     inkscape:snap-center="true"
     inkscape:snap-text-baseline="true"
     inkscape:snap-page="true"
     showguides="true"
     inkscape:guide-bbox="true"
     inkscape:window-width="2880"
     inkscape:window-height="1508"
     inkscape:window-x="0"
     inkscape:window-y="60"
     inkscape:window-maximized="1"
     fit-margin-top="1"
     fit-margin-left="1"
     fit-margin-right="1"
     fit-margin-bottom="1">
    <sodipodi:guide
       position="3.543307,35.355588"
       orientation="1,0"
       id="guide4144" />
    <sodipodi:guide
       position="7.0066788,76.765104"
       orientation="0,1"
       id="guide4165" />
    <sodipodi:guide
       position="477.43842,24.693319"
       orientation="0,1"
       id="guide4190" />
    <sodipodi:guide
       position="304.55101,76.765104"
       orientation="1,0"
       id="guide4272" />
    <sodipodi:guide
       position="7.0066788,76.765104"
       orientation="1,0"
       id="guide4274" />
    <sodipodi:guide
       position="230.82763,76.765104"
       orientation="1,0"
       id="guide4291" />
    <sodipodi:guide
       position="477.80991,343.45205"
       orientation="0,1"
       id="guide4374" />
    <sodipodi:guide
       position="646.17927,31.820058"
       orientation="1,0"
       id="guide7870" />
    <sodipodi:guide
       position="304.06368,129.96725"
       orientation="0,1"
       id="guide7872" />
    <sodipodi:guide
       position="330.32765,111.27944"
       orientation="0,1"
       id="guide7874" />
    <sodipodi:guide
       position="466.19316,76.765104"
       orientation="1,0"
       id="guide7888" />
  </sodipodi:namedview>
  <metadata
     id="metadata7">
    <rdf:RDF>
      <cc:Work
         rdf:about="">
        <dc:format>image/svg+xml</dc:format>
        <dc:type
           rdf:resource="http://purl.org/dc/dcmitype/StillImage" />
        <dc:title />
      </cc:Work>
    </rdf:RDF>
  </metadata>
  <g
     inkscape:label="Layer 1"
     inkscape:groupmode="layer"
     id="layer1"
     transform="translate(-60.601377,-214.00724)">
    <g
       style="font-style:normal;font-weight:normal;font-size:40px;line-height:1000%;font-family:sans-serif;letter-spacing:0px;word-spacing:0px;fill:#000000;fill-opacity:1;stroke:none;stroke-width:1px;stroke-linecap:butt;stroke-linejoin:miter;stroke-opacity:1"
       id="text4167">
      <path
         d="m 531.79669,346.99078 q 0,-1.36 -0.7,-2.1 -0.68,-0.74 -1.98,-0.74 -1.1,0 -2.12,0.9 -1,0.9 -1,2.14 0,0.62 0.3,1.06 0.32,0.44 0.82,0.6 0.06,0.04 1.38,0.4 1.34,0.34 1.36,0.34 0.3,0.08 0.76,0.4 1.2,0.86 1.2,2.56 0,0.52 -0.16,1.12 -0.1,0.54 -0.4,1.1 -1.24,2.46 -3.88,3.02 -0.24,0.04 -0.68,0.04 -1.98,0 -3.08,-1.1 l -0.2,-0.22 -0.56,0.62 q -0.56,0.62 -0.62,0.66 -0.06,0.04 -0.2,0.04 -0.26,0 -0.26,-0.16 0,-0.06 1.16,-4.7 0.04,-0.12 0.4,-0.12 l 0.26,0 q 0.1,0.1 0.1,0.14 0.02,0.02 -0.02,0.32 -0.1,0.5 -0.1,1.02 0.08,1.3 0.94,1.94 0.88,0.64 2.38,0.64 0.2,0 0.48,-0.04 0.94,-0.22 1.68,-1 0.76,-0.78 0.96,-1.8 0.04,-0.16 0.04,-0.62 0,-1.28 -1.04,-1.74 -0.12,-0.02 -1.44,-0.36 -1.32,-0.36 -1.38,-0.4 -0.88,-0.26 -1.42,-1 -0.52,-0.76 -0.52,-1.8 0,-1 0.56,-2.06 0.58,-1.08 1.38,-1.66 1.02,-0.88 2.46,-1.1 0.08,-0.02 0.22,-0.02 l 0.22,0 q 2.08,0 2.92,1.28 l 1.18,-1.28 q 0.02,0 0.08,0 0.06,-0.02 0.1,-0.02 0.26,0 0.26,0.14 0,0.14 -0.58,2.44 -0.56,2.28 -0.62,2.34 -0.06,0.06 -0.32,0.06 -0.4,0 -0.4,-0.18 0,-0.12 0.02,-0.2 0,-0.1 0.02,-0.42 0.04,-0.34 0.04,-0.48 z"
         style="font-size:20px"
         id="path5410" />
      <path
         d="m 536.71482,354.44078 q 0,-0.325 0.2375,-0.5625 0.2375,-0.25 0.5625,-0.25 0.2125,0 0.35,0.1375 0.15,0.125 0.175,0.3375 0,0.3375 -0.225,0.5875 -0.225,0.2375 -0.5625,0.2375 -0.225,0 -0.375,-0.125 -0.15,-0.1375 -0.1625,-0.3625 z m -0.1125,2.75 q 0,-0.3625 -0.325,-0.3625 -0.1375,0 -0.2875,0.05 -0.3375,0.1125 -0.6625,0.475 -0.3125,0.3625 -0.525,0.8875 -0.0125,0.0375 -0.0375,0.0875 -0.025,0.05 -0.025,0.0625 0,0 -0.0375,0.0125 -0.0375,0.0125 -0.075,0.0125 -0.025,0 -0.1125,0 l -0.175,0 q -0.1,-0.1 -0.025,-0.2625 0.375,-0.9 0.975,-1.375 0.425,-0.3375 0.8625,-0.4 0.0125,0 0.1,0 0.0875,-0.0125 0.15,-0.0125 0.3,0.0125 0.55,0.125 0.325,0.2 0.475,0.425 0.1625,0.2125 0.1625,0.625 l 0,0.2 -0.6125,2.4875 q -0.6375,2.5 -0.675,2.6 -0.2,0.5375 -0.6875,0.95 -0.475,0.425 -1.0625,0.5875 -0.3125,0.075 -0.6125,0.075 -0.4875,0 -0.7875,-0.2125 -0.3,-0.2125 -0.3,-0.625 0,-0.35 0.25,-0.5875 0.25,-0.2375 0.5625,-0.2375 0.2375,0 0.375,0.1375 0.15,0.1375 0.15,0.375 0,0.45 -0.4,0.6875 0.0625,0.0125 0.175,0.0125 0.425,0 0.775,-0.3625 0.3625,-0.3625 0.5375,-0.8125 l 0.1375,-0.525 q 0.1375,-0.5375 0.325,-1.3 0.2,-0.775 0.4,-1.5625 0.2,-0.7875 0.3375,-1.3875 0.1375,-0.6125 0.1375,-0.7125 0,-0.0875 -0.0125,-0.1375 z"
         style="font-style:normal;font-variant:normal;font-weight:bold;font-stretch:normal;font-size:12.5px;font-family:KaTeX_Math;-inkscape-font-specification:'KaTeX_Math Bold';baseline-shift:sub"
         id="path5412" />
    </g>
    <rect
       style="opacity:1;fill:#000000;fill-opacity:1;stroke:none;stroke-width:0.37795275;stroke-linejoin:miter;stroke-miterlimit:4;stroke-dasharray:none;stroke-dashoffset:0;stroke-opacity:1"
       id="rect4138"
       width="642.63599"
       height="7.0710678"
       x="64.144684"
       y="332.62851" />
    <rect
       style="opacity:1;fill:#000000;fill-opacity:1;stroke:none;stroke-width:0.37795275;stroke-linejoin:miter;stroke-miterlimit:4;stroke-dasharray:none;stroke-dashoffset:0;stroke-opacity:1"
       id="rect4146"
       width="6.9267454"
       height="48.480591"
       x="699.85394"
       y="291.21899"
       ry="3"
       rx="3" />
    <rect
       style="opacity:1;fill:#000000;fill-opacity:1;stroke:none;stroke-width:0.37795275;stroke-linejoin:miter;stroke-miterlimit:4;stroke-dasharray:none;stroke-dashoffset:0;stroke-opacity:1"
       id="rect4146-3"
       width="6.9267454"
       height="48.480591"
       x="287.96564"
       y="291.21899"
       ry="3"
       rx="3" />
    <rect
       style="opacity:1;fill:#000000;fill-opacity:1;stroke:none;stroke-width:0.37795275;stroke-linejoin:miter;stroke-miterlimit:4;stroke-dasharray:none;stroke-dashoffset:0;stroke-opacity:1"
       id="rect4146-3-3"
       width="6.9267454"
       height="48.480591"
       x="523.33118"
       y="291.21899"
       ry="3"
       rx="3" />
    <g
       style="font-style:normal;font-weight:normal;font-size:40px;line-height:1000%;font-family:sans-serif;letter-spacing:0px;word-spacing:0px;fill:#000000;fill-opacity:1;stroke:none;stroke-width:1px;stroke-linecap:butt;stroke-linejoin:miter;stroke-opacity:1"
       id="text4167-6">
      <path
         d="m 293.16041,357.11078 q -0.54,0 -1.8,-0.02 -1.24,-0.02 -1.94,-0.02 -2.58,0 -3.28,0.04 l -0.3,0 q -0.12,-0.12 -0.14,-0.16 0,-0.06 0.06,-0.38 0.08,-0.26 0.2,-0.38 l 0.56,0 q 1.2,0 1.62,-0.06 0.34,-0.02 0.5,-0.12 0.02,-0.02 0.04,-0.02 0.1,-0.06 0.2,-0.4 0.1,-0.36 0.8,-3.14 0.34,-1.36 0.56,-2.22 1.4,-5.5 1.4,-5.62 0,-0.1 -0.58,-0.1 l -0.62,0 q -1.34,0 -1.76,0.12 -0.86,0.18 -1.3,0.7 -0.54,0.6 -1.18,2.44 -0.14,0.44 -0.2,0.52 -0.06,0.08 -0.28,0.08 l -0.06,0 q -0.26,0 -0.32,-0.06 -0.06,-0.06 -0.06,-0.1 0,-0.12 0.6,-1.92 0.44,-1.38 0.74,-2.2 0.12,-0.38 0.26,-0.52 l 9.36,0 q 2.68,0 2.68,0.1 l 0,0.02 0.02,0.02 q 0,0.04 0,0.06 0,0.12 -0.36,2.28 -0.34,2.16 -0.36,2.18 0,0.06 -0.08,0.1 -0.04,0.04 -0.3,0.04 -0.12,0 -0.2,0 -0.06,-0.02 -0.08,-0.02 -0.02,-0.02 -0.06,-0.06 -0.04,-0.06 -0.06,-0.08 0,-0.14 0.06,-0.54 0.18,-1.08 0.18,-1.58 0,-0.46 -0.12,-0.76 -0.12,-0.3 -0.28,-0.46 -0.14,-0.16 -0.54,-0.24 -0.38,-0.08 -0.66,-0.1 -0.28,-0.02 -0.92,-0.04 -0.92,0 -1.18,0.04 -0.24,0.02 -0.34,0.14 -0.02,0.02 -1.42,5.6 -1.4,5.56 -1.4,5.64 0,0.14 0.26,0.18 0.28,0.08 1.5,0.1 0.68,0 0.8,0.02 0.14,0.02 0.18,0.12 0.02,0.06 -0.04,0.34 -0.08,0.36 -0.18,0.42 l -0.04,0.02 q -0.06,0 -0.14,0 z"
         style="font-size:20px"
         id="path5405" />
      <path
         d="m 300.2526,354.16078 q 0,-0.325 0.2375,-0.5625 0.2375,-0.25 0.5625,-0.25 0.2125,0 0.35,0.1375 0.15,0.125 0.175,0.3375 0,0.3375 -0.225,0.5875 -0.225,0.2375 -0.5625,0.2375 -0.225,0 -0.375,-0.125 -0.15,-0.1375 -0.1625,-0.3625 z m -0.1125,2.75 q 0,-0.3625 -0.325,-0.3625 -0.1375,0 -0.2875,0.05 -0.3375,0.1125 -0.6625,0.475 -0.3125,0.3625 -0.525,0.8875 -0.0125,0.0375 -0.0375,0.0875 -0.025,0.05 -0.025,0.0625 0,0 -0.0375,0.0125 -0.0375,0.0125 -0.075,0.0125 -0.025,0 -0.1125,0 l -0.175,0 q -0.1,-0.1 -0.025,-0.2625 0.375,-0.9 0.975,-1.375 0.425,-0.3375 0.8625,-0.4 0.0125,0 0.1,0 0.0875,-0.0125 0.15,-0.0125 0.3,0.0125 0.55,0.125 0.325,0.2 0.475,0.425 0.1625,0.2125 0.1625,0.625 l 0,0.2 -0.6125,2.4875 q -0.6375,2.5 -0.675,2.6 -0.2,0.5375 -0.6875,0.95 -0.475,0.425 -1.0625,0.5875 -0.3125,0.075 -0.6125,0.075 -0.4875,0 -0.7875,-0.2125 -0.3,-0.2125 -0.3,-0.625 0,-0.35 0.25,-0.5875 0.25,-0.2375 0.5625,-0.2375 0.2375,0 0.375,0.1375 0.15,0.1375 0.15,0.375 0,0.45 -0.4,0.6875 0.0625,0.0125 0.175,0.0125 0.425,0 0.775,-0.3625 0.3625,-0.3625 0.5375,-0.8125 l 0.1375,-0.525 q 0.1375,-0.5375 0.325,-1.3 0.2,-0.775 0.4,-1.5625 0.2,-0.7875 0.3375,-1.3875 0.1375,-0.6125 0.1375,-0.7125 0,-0.0875 -0.0125,-0.1375 z"
         style="font-style:normal;font-variant:normal;font-weight:bold;font-stretch:normal;font-size:12.5px;font-family:KaTeX_Math;-inkscape-font-specification:'KaTeX_Math Bold';baseline-shift:sub"
         id="path5407" />
    </g>
    <g
       style="font-style:normal;font-variant:normal;font-weight:normal;font-stretch:normal;font-size:40px;line-height:1000%;font-family:KaTeX_Main;-inkscape-font-specification:KaTeX_Main;letter-spacing:0px;word-spacing:0px;fill:#000000;fill-opacity:1;stroke:none;stroke-width:1px;stroke-linecap:butt;stroke-linejoin:miter;stroke-opacity:1"
       id="text4167-5">
      <path
         d="m 699.5407,344.39078 q 0,-0.02 -0.02,-0.04 -0.02,-0.04 -0.06,-0.04 -0.04,-0.02 -0.08,-0.04 -0.04,-0.02 -0.12,-0.02 -0.08,-0.02 -0.14,-0.02 -0.06,0 -0.16,0 -0.1,0 -0.18,0 -0.06,-0.02 -0.18,-0.02 -0.12,0 -0.2,0 -0.48,0 -0.58,-0.02 -0.1,-0.02 -0.14,-0.12 -0.04,-0.06 0.02,-0.36 0.1,-0.38 0.18,-0.4 0.06,-0.02 0.3,-0.02 1.08,0.06 2.54,0.06 0.28,0 0.8,0 0.52,-0.02 0.76,-0.02 0.3,0 0.72,0 0.44,-0.02 0.66,-0.02 0.24,-0.02 0.3,-0.02 l 0.24,0 q 0.12,0.12 0.12,0.18 0.02,0.04 -0.04,0.36 -0.08,0.28 -0.18,0.38 l -0.76,0 q -1.38,0.02 -1.62,0.18 -0.14,0.08 -0.28,0.58 -0.14,0.48 -1.34,5.26 -0.32,1.3 -0.68,2.78 -0.36,1.46 -0.54,2.18 l -0.18,0.72 q 0,0.08 0.18,0.1 0.18,0 1.18,0.02 1.5,0 2.12,-0.1 0.64,-0.1 1.4,-0.54 0.8,-0.46 1.28,-1.22 0.5,-0.78 0.98,-2.06 0.14,-0.4 0.22,-0.56 0.1,-0.06 0.34,-0.06 l 0.26,0 q 0.12,0.18 0.12,0.22 0,0.04 -0.42,1.18 -0.4,1.14 -0.86,2.42 -0.46,1.26 -0.52,1.46 -0.06,0.12 -0.1,0.14 -0.06,0.04 -5.16,0.04 -5.1,0 -5.16,-0.04 -0.08,-0.06 -0.08,-0.16 0,-0.14 0.04,-0.28 0.1,-0.38 0.2,-0.42 0.08,-0.02 0.3,-0.02 l 0.12,0 q 0.54,0 1.2,-0.06 0.28,-0.06 0.38,-0.24 0.06,-0.08 1.44,-5.56 1.38,-5.48 1.38,-5.78 z"
         style="font-style:normal;font-variant:normal;font-weight:normal;font-stretch:normal;font-size:20px;font-family:KaTeX_Math;-inkscape-font-specification:KaTeX_Math"
         id="path5402" />
    </g>
    <rect
       style="opacity:1;fill:#000000;fill-opacity:1;stroke:none;stroke-width:0.37795275;stroke-linejoin:miter;stroke-miterlimit:4;stroke-dasharray:none;stroke-dashoffset:0;stroke-opacity:1"
       id="rect4146-3-1"
       width="6.9267454"
       height="48.480591"
       x="361.68903"
       y="291.21899"
       ry="3"
       rx="3" />
    <g
       style="font-style:normal;font-weight:normal;font-size:40px;line-height:1000%;font-family:sans-serif;letter-spacing:0px;word-spacing:0px;fill:#000000;fill-opacity:1;stroke:none;stroke-width:1px;stroke-linecap:butt;stroke-linejoin:miter;stroke-opacity:1"
       id="text4167-2">
      <path
         d="m 365.60239,346.30151 q 0,-0.46 0.38,-0.84 0.38,-0.38 0.88,-0.38 0.36,0 0.6,0.24 0.26,0.24 0.26,0.6 0,0.44 -0.4,0.84 -0.4,0.4 -0.88,0.4 -0.36,0 -0.6,-0.24 -0.24,-0.24 -0.24,-0.62 z m -0.46,12.22 q -0.78,0 -1.26,-0.46 -0.48,-0.46 -0.48,-1.24 0,-0.34 0.04,-0.46 0,-0.04 0.92,-2.46 0.92,-2.44 0.92,-2.48 0.1,-0.32 0.1,-0.72 0,-0.48 -0.34,-0.48 l -0.04,0 q -0.48,0 -0.92,0.46 -0.64,0.66 -0.94,1.88 0,0.02 -0.02,0.08 -0.02,0.04 -0.04,0.06 0,0 -0.02,0.02 -0.02,0.02 -0.08,0.02 -0.04,0 -0.08,0 -0.04,0 -0.16,0 l -0.28,0 q -0.12,-0.12 -0.12,-0.18 0,-0.06 0.06,-0.28 0.52,-1.72 1.52,-2.4 0.54,-0.42 1.16,-0.42 0.8,0 1.32,0.46 0.52,0.46 0.52,1.24 0,0.26 -0.1,0.6 -0.02,0.04 -0.92,2.46 l -0.9,2.42 q -0.1,0.44 -0.1,0.64 0,0.5 0.34,0.5 0.28,0 0.5,-0.12 0.88,-0.42 1.38,-2.1 0.06,-0.24 0.1,-0.28 0.06,-0.04 0.34,-0.04 0.18,0 0.24,0.02 0.08,0 0.12,0.04 0.04,0.04 0.04,0.14 0,0.08 -0.06,0.26 -0.38,1.14 -1.1,1.98 -0.7,0.84 -1.66,0.84 z"
         style="font-style:normal;font-variant:normal;font-weight:bold;font-stretch:normal;font-size:20px;font-family:KaTeX_Math;-inkscape-font-specification:'KaTeX_Math Bold'"
         id="path5399" />
    </g>
    <rect
       style="opacity:1;fill:#00acff;fill-opacity:1;stroke:none;stroke-width:0.37795275;stroke-linejoin:miter;stroke-miterlimit:4;stroke-dasharray:none;stroke-dashoffset:0;stroke-opacity:1"
       id="rect4138-0"
       width="341.6283"
       height="7.0710678"
       x="365.1524"
       y="238.01685"
       ry="2"
       rx="2" />
    <rect
       style="opacity:1;fill:#a5acff;fill-opacity:1;stroke:none;stroke-width:0.37795275;stroke-linejoin:miter;stroke-miterlimit:4;stroke-dasharray:none;stroke-dashoffset:0;stroke-opacity:1"
       id="rect4138-0-6"
       width="179.98615"
       height="7.0710678"
       x="526.79456"
       y="256.70465"
       ry="2"
       rx="2" />
    <rect
       style="opacity:1;fill:#ffacff;fill-opacity:1;stroke:none;stroke-width:0.37795275;stroke-linejoin:miter;stroke-miterlimit:4;stroke-dasharray:none;stroke-dashoffset:0;stroke-opacity:1"
       id="rect4138-0-6-2"
       width="161.64217"
       height="7.0710678"
       x="365.1524"
       y="256.70465"
       ry="2"
       rx="2" />
    <g
       style="font-style:normal;font-weight:normal;font-size:40px;line-height:1000%;font-family:sans-serif;letter-spacing:0px;word-spacing:0px;fill:#000000;fill-opacity:1;stroke:none;stroke-width:1px;stroke-linecap:butt;stroke-linejoin:miter;stroke-opacity:1"
       id="text4167-2-6">
      <path
         d="m 491.69207,218.65054 q 0,-0.02 -0.02,-0.04 -0.02,-0.04 -0.06,-0.04 -0.04,-0.02 -0.08,-0.04 -0.04,-0.02 -0.12,-0.02 -0.08,-0.02 -0.14,-0.02 -0.06,0 -0.16,0 -0.1,0 -0.18,0 -0.06,-0.02 -0.18,-0.02 -0.12,0 -0.2,0 -0.48,0 -0.58,-0.02 -0.1,-0.02 -0.14,-0.12 -0.04,-0.06 0.02,-0.36 0.1,-0.38 0.18,-0.4 0.06,-0.02 0.3,-0.02 1.08,0.06 2.54,0.06 0.28,0 0.8,0 0.52,-0.02 0.76,-0.02 0.3,0 0.72,0 0.44,-0.02 0.66,-0.02 0.24,-0.02 0.3,-0.02 l 0.24,0 q 0.12,0.12 0.12,0.18 0.02,0.04 -0.04,0.36 -0.08,0.28 -0.18,0.38 l -0.76,0 q -1.38,0.02 -1.62,0.18 -0.14,0.08 -0.28,0.58 -0.14,0.48 -1.34,5.26 -0.32,1.3 -0.68,2.78 -0.36,1.46 -0.54,2.18 l -0.18,0.72 q 0,0.08 0.18,0.1 0.18,0 1.18,0.02 1.5,0 2.12,-0.1 0.64,-0.1 1.4,-0.54 0.8,-0.46 1.28,-1.22 0.5,-0.78 0.98,-2.06 0.14,-0.4 0.22,-0.56 0.1,-0.06 0.34,-0.06 l 0.26,0 q 0.12,0.18 0.12,0.22 0,0.04 -0.42,1.18 -0.4,1.14 -0.86,2.42 -0.46,1.26 -0.52,1.46 -0.06,0.12 -0.1,0.14 -0.06,0.04 -5.16,0.04 -5.1,0 -5.16,-0.04 -0.08,-0.06 -0.08,-0.16 0,-0.14 0.04,-0.28 0.1,-0.38 0.2,-0.42 0.08,-0.02 0.3,-0.02 l 0.12,0 q 0.54,0 1.2,-0.06 0.28,-0.06 0.38,-0.24 0.06,-0.08 1.44,-5.56 1.38,-5.48 1.38,-5.78 z"
         style="font-style:normal;font-variant:normal;font-weight:bold;font-stretch:normal;font-size:20px;font-family:KaTeX_Math;-inkscape-font-specification:'KaTeX_Math Bold'"
         id="path5364" />
      <path
         d="m 507.00488,226.79054 q -0.46,-0.2 -0.46,-0.6 0,-0.42 0.4,-0.56 0.1,-0.04 6.64,-0.04 l 6.54,0 0.08,0.06 q 0.36,0.14 0.36,0.54 0,0.38 -0.44,0.6 l -13.12,0 z"
         style="font-style:normal;font-variant:normal;font-weight:bold;font-stretch:normal;font-family:KaTeX_Main;-inkscape-font-specification:'KaTeX_Main Bold'"
         id="path5366" />
      <path
         d="m 531.1955,219.21054 q 0,-0.46 0.38,-0.84 0.38,-0.38 0.88,-0.38 0.36,0 0.6,0.24 0.26,0.24 0.26,0.6 0,0.44 -0.4,0.84 -0.4,0.4 -0.88,0.4 -0.36,0 -0.6,-0.24 -0.24,-0.24 -0.24,-0.62 z m -0.46,12.22 q -0.78,0 -1.26,-0.46 -0.48,-0.46 -0.48,-1.24 0,-0.34 0.04,-0.46 0,-0.04 0.92,-2.46 0.92,-2.44 0.92,-2.48 0.1,-0.32 0.1,-0.72 0,-0.48 -0.34,-0.48 l -0.04,0 q -0.48,0 -0.92,0.46 -0.64,0.66 -0.94,1.88 0,0.02 -0.02,0.08 -0.02,0.04 -0.04,0.06 0,0 -0.02,0.02 -0.02,0.02 -0.08,0.02 -0.04,0 -0.08,0 -0.04,0 -0.16,0 l -0.28,0 q -0.12,-0.12 -0.12,-0.18 0,-0.06 0.06,-0.28 0.52,-1.72 1.52,-2.4 0.54,-0.42 1.16,-0.42 0.8,0 1.32,0.46 0.52,0.46 0.52,1.24 0,0.26 -0.1,0.6 -0.02,0.04 -0.92,2.46 l -0.9,2.42 q -0.1,0.44 -0.1,0.64 0,0.5 0.34,0.5 0.28,0 0.5,-0.12 0.88,-0.42 1.38,-2.1 0.06,-0.24 0.1,-0.28 0.06,-0.04 0.34,-0.04 0.18,0 0.24,0.02 0.08,0 0.12,0.04 0.04,0.04 0.04,0.14 0,0.08 -0.06,0.26 -0.38,1.14 -1.1,1.98 -0.7,0.84 -1.66,0.84 z"
         style="font-style:normal;font-variant:normal;font-weight:bold;font-stretch:normal;font-size:20px;font-family:KaTeX_Math;-inkscape-font-specification:'KaTeX_Math Bold'"
         id="path5368" />
      <path
         d="m 541.80957,226.79054 q -0.46,-0.2 -0.46,-0.6 0,-0.42 0.4,-0.56 0.1,-0.04 6.64,-0.04 l 6.54,0 0.08,0.06 q 0.36,0.14 0.36,0.54 0,0.38 -0.44,0.6 l -13.12,0 z"
         style="font-style:normal;font-variant:normal;font-weight:bold;font-stretch:normal;font-family:KaTeX_Main;-inkscape-font-specification:'KaTeX_Main Bold'"
         id="path5370" />
      <path
         d="m 570.64019,231.21054 q -0.34,-0.06 -3.18,-0.06 -2.8,0 -3.14,0.06 l -0.24,0 0,-0.92 0.52,0 q 1.16,0 1.5,-0.06 0.16,-0.02 0.48,-0.24 l 0,-10.34 q -0.04,0 -0.16,0.06 -0.92,0.36 -2.06,0.38 l -0.38,0 0,-0.92 0.38,0 q 1.68,-0.06 2.8,-0.76 0.36,-0.2 0.62,-0.46 0.04,-0.06 0.24,-0.06 0.2,0 0.34,0.12 l 0,5.98 0.02,6 q 0.3,0.3 1.3,0.3 l 0.66,0 0.52,0 0,0.92 -0.22,0 z"
         style="font-style:normal;font-variant:normal;font-weight:normal;font-stretch:normal;font-family:KaTeX_Main;-inkscape-font-specification:KaTeX_Main"
         id="path5372" />
    </g>
    <g
       style="font-style:normal;font-weight:normal;font-size:40px;line-height:1000%;font-family:sans-serif;letter-spacing:0px;word-spacing:0px;fill:#000000;fill-opacity:1;stroke:none;stroke-width:1px;stroke-linecap:butt;stroke-linejoin:miter;stroke-opacity:1"
       id="text4167-8">
      <path
         d="m 617.15003,270.70901 q 0,-1.36 -0.7,-2.1 -0.68,-0.74 -1.98,-0.74 -1.1,0 -2.12,0.9 -1,0.9 -1,2.14 0,0.62 0.3,1.06 0.32,0.44 0.82,0.6 0.06,0.04 1.38,0.4 1.34,0.34 1.36,0.34 0.3,0.08 0.76,0.4 1.2,0.86 1.2,2.56 0,0.52 -0.16,1.12 -0.1,0.54 -0.4,1.1 -1.24,2.46 -3.88,3.02 -0.24,0.04 -0.68,0.04 -1.98,0 -3.08,-1.1 l -0.2,-0.22 -0.56,0.62 q -0.56,0.62 -0.62,0.66 -0.06,0.04 -0.2,0.04 -0.26,0 -0.26,-0.16 0,-0.06 1.16,-4.7 0.04,-0.12 0.4,-0.12 l 0.26,0 q 0.1,0.1 0.1,0.14 0.02,0.02 -0.02,0.32 -0.1,0.5 -0.1,1.02 0.08,1.3 0.94,1.94 0.88,0.64 2.38,0.64 0.2,0 0.48,-0.04 0.94,-0.22 1.68,-1 0.76,-0.78 0.96,-1.8 0.04,-0.16 0.04,-0.62 0,-1.28 -1.04,-1.74 -0.12,-0.02 -1.44,-0.36 -1.32,-0.36 -1.38,-0.4 -0.88,-0.26 -1.42,-1 -0.52,-0.76 -0.52,-1.8 0,-1 0.56,-2.06 0.58,-1.08 1.38,-1.66 1.02,-0.88 2.46,-1.1 0.08,-0.02 0.22,-0.02 l 0.22,0 q 2.08,0 2.92,1.28 l 1.18,-1.28 q 0.02,0 0.08,0 0.06,-0.02 0.1,-0.02 0.26,0 0.26,0.14 0,0.14 -0.58,2.44 -0.56,2.28 -0.62,2.34 -0.06,0.06 -0.32,0.06 -0.4,0 -0.4,-0.18 0,-0.12 0.02,-0.2 0,-0.1 0.02,-0.42 0.04,-0.34 0.04,-0.48 z"
         style="font-size:20px"
         id="path5394" />
      <path
         d="m 622.06815,278.15901 q 0,-0.325 0.2375,-0.5625 0.2375,-0.25 0.5625,-0.25 0.2125,0 0.35,0.1375 0.15,0.125 0.175,0.3375 0,0.3375 -0.225,0.5875 -0.225,0.2375 -0.5625,0.2375 -0.225,0 -0.375,-0.125 -0.15,-0.1375 -0.1625,-0.3625 z m -0.1125,2.75 q 0,-0.3625 -0.325,-0.3625 -0.1375,0 -0.2875,0.05 -0.3375,0.1125 -0.6625,0.475 -0.3125,0.3625 -0.525,0.8875 -0.0125,0.0375 -0.0375,0.0875 -0.025,0.05 -0.025,0.0625 0,0 -0.0375,0.0125 -0.0375,0.0125 -0.075,0.0125 -0.025,0 -0.1125,0 l -0.175,0 q -0.1,-0.1 -0.025,-0.2625 0.375,-0.9 0.975,-1.375 0.425,-0.3375 0.8625,-0.4 0.0125,0 0.1,0 0.0875,-0.0125 0.15,-0.0125 0.3,0.0125 0.55,0.125 0.325,0.2 0.475,0.425 0.1625,0.2125 0.1625,0.625 l 0,0.2 -0.6125,2.4875 q -0.6375,2.5 -0.675,2.6 -0.2,0.5375 -0.6875,0.95 -0.475,0.425 -1.0625,0.5875 -0.3125,0.075 -0.6125,0.075 -0.4875,0 -0.7875,-0.2125 -0.3,-0.2125 -0.3,-0.625 0,-0.35 0.25,-0.5875 0.25,-0.2375 0.5625,-0.2375 0.2375,0 0.375,0.1375 0.15,0.1375 0.15,0.375 0,0.45 -0.4,0.6875 0.0625,0.0125 0.175,0.0125 0.425,0 0.775,-0.3625 0.3625,-0.3625 0.5375,-0.8125 l 0.1375,-0.525 q 0.1375,-0.5375 0.325,-1.3 0.2,-0.775 0.4,-1.5625 0.2,-0.7875 0.3375,-1.3875 0.1375,-0.6125 0.1375,-0.7125 0,-0.0875 -0.0125,-0.1375 z"
         style="font-style:normal;font-variant:normal;font-weight:bold;font-stretch:normal;font-size:12.5px;font-family:KaTeX_Math;-inkscape-font-specification:'KaTeX_Math Bold';baseline-shift:sub"
         id="path5396" />
    </g>
    <g
       style="font-style:normal;font-weight:normal;font-size:20px;line-height:1000%;font-family:sans-serif;letter-spacing:0px;word-spacing:0px;fill:#000000;fill-opacity:1;stroke:none;stroke-width:1px;stroke-linecap:butt;stroke-linejoin:miter;stroke-opacity:1"
       id="text4181">
      <path
         d="m 396.24456,269.08574 q -0.14,-0.14 -0.14,-0.22 0,-0.44 0.26,-0.7 l 0.24,0 q 0.84,0.06 2,0.06 0.2,0 0.64,0 0.44,-0.02 0.66,-0.02 0.26,0 0.62,0 0.38,-0.02 0.58,-0.02 0.2,-0.02 0.24,-0.02 l 0.2,0 q 0.12,0.12 0.12,0.18 0.02,0.04 -0.04,0.36 -0.08,0.28 -0.18,0.38 l -0.42,0 q -0.58,0.02 -0.96,0.12 -0.3,0.12 -0.34,0.22 0,0.14 0.32,4.84 0.34,4.7 0.36,4.84 3.12,-5.52 4.7,-8.28 l -0.04,-0.74 q -0.06,-0.84 -0.2,-0.9 -0.12,-0.08 -0.84,-0.1 -0.56,0 -0.6,-0.14 -0.04,-0.06 0.02,-0.32 0.1,-0.4 0.18,-0.44 0.06,-0.02 0.62,0 0.68,0.04 1.9,0.04 0.58,0 1.36,-0.02 0.8,-0.02 1.12,-0.02 0.34,0 0.34,0.14 0,0.08 -0.06,0.36 -0.06,0.26 -0.08,0.28 -0.04,0.12 -0.52,0.12 -1.04,0.04 -1.24,0.3 -0.06,0.06 -0.04,0.14 0,0.24 0.32,4.78 0.32,4.52 0.32,4.76 l 0.04,-0.06 q 0.04,-0.06 0.12,-0.2 0.1,-0.16 0.24,-0.38 0.14,-0.24 0.34,-0.6 0.22,-0.36 0.48,-0.82 0.26,-0.46 0.6,-1.08 0.36,-0.62 0.78,-1.34 2.58,-4.54 2.62,-4.66 0.04,-0.12 0.04,-0.18 0,-0.32 -0.4,-0.48 -0.38,-0.18 -0.82,-0.18 -0.28,0 -0.28,-0.2 0,-0.06 0.04,-0.26 0.02,-0.06 0.02,-0.14 0.02,-0.08 0.02,-0.12 0.02,-0.04 0.04,-0.08 0.02,-0.04 0.06,-0.06 0.04,-0.02 0.1,-0.02 0.06,-0.02 0.16,-0.02 0.36,0 1.1,0.02 0.76,0 1.1,0 1.32,0 1.7,-0.04 0.28,0 0.28,0.22 0,0.12 -0.08,0.36 -0.08,0.24 -0.12,0.28 -0.06,0.06 -0.2,0.06 -1.26,0 -1.94,0.94 -0.14,0.22 -0.16,0.24 l -3.38,5.92 q -3.36,5.92 -3.38,5.94 -0.12,0.14 -0.48,0.14 -0.3,0 -0.38,-0.1 -0.06,-0.06 -0.4,-4.92 -0.32,-4.88 -0.32,-5.02 l -0.24,0.36 q -0.44,0.74 -2.56,4.46 -0.62,1.1 -1.38,2.42 -0.74,1.32 -1.1,1.96 -0.36,0.62 -0.38,0.64 -0.12,0.2 -0.52,0.2 -0.38,0 -0.42,-0.14 0,-0.06 -0.44,-6.38 -0.44,-6.34 -0.46,-6.36 -0.04,-0.18 -0.2,-0.22 -0.16,-0.06 -0.78,-0.08 l -0.48,0 z"
         style="font-style:normal;font-variant:normal;font-weight:normal;font-stretch:normal;font-size:20px;font-family:KaTeX_Math;-inkscape-font-specification:KaTeX_Math"
         id="path4225" />
      <path
         d="m 416.25175,278.32574 q 0,-0.2875 0.2375,-0.525 0.2375,-0.2375 0.55,-0.2375 0.225,0 0.375,0.15 0.1625,0.15 0.1625,0.375 0,0.275 -0.25,0.525 -0.25,0.25 -0.55,0.25 -0.225,0 -0.375,-0.15 -0.15,-0.15 -0.15,-0.3875 z m -0.2875,7.6375 q -0.4875,0 -0.7875,-0.2875 -0.3,-0.2875 -0.3,-0.775 0,-0.2125 0.025,-0.2875 0,-0.025 0.575,-1.5375 0.575,-1.525 0.575,-1.55 0.0625,-0.2 0.0625,-0.45 0,-0.3 -0.2125,-0.3 l -0.025,0 q -0.3,0 -0.575,0.2875 -0.4,0.4125 -0.5875,1.175 0,0.0125 -0.0125,0.05 -0.0125,0.025 -0.025,0.0375 0,0 -0.0125,0.0125 -0.0125,0.0125 -0.05,0.0125 -0.025,0 -0.05,0 -0.025,0 -0.1,0 l -0.175,0 q -0.075,-0.075 -0.075,-0.1125 0,-0.0375 0.0375,-0.175 0.325,-1.075 0.95,-1.5 0.3375,-0.2625 0.725,-0.2625 0.5,0 0.825,0.2875 0.325,0.2875 0.325,0.775 0,0.1625 -0.0625,0.375 -0.0125,0.025 -0.575,1.5375 l -0.5625,1.5125 q -0.0625,0.275 -0.0625,0.4 0,0.3125 0.2125,0.3125 0.175,0 0.3125,-0.075 0.55,-0.2625 0.8625,-1.3125 0.0375,-0.15 0.0625,-0.175 0.0375,-0.025 0.2125,-0.025 0.1125,0 0.15,0.0125 0.05,0 0.075,0.025 0.025,0.025 0.025,0.0875 0,0.05 -0.0375,0.1625 -0.2375,0.7125 -0.6875,1.2375 -0.4375,0.525 -1.0375,0.525 z"
         style="font-style:normal;font-variant:normal;font-weight:normal;font-stretch:normal;font-size:12.5px;font-family:KaTeX_Math;-inkscape-font-specification:KaTeX_Math;baseline-shift:sub"
         id="path4227" />
      <path
         d="m 424.39304,274.88574 q 0,-0.26 0.28,-0.4 l 12.74,0 q 0.3,0.14 0.3,0.4 0,0.22 -0.28,0.38 l -6.36,0.02 -6.36,0 q -0.32,-0.1 -0.32,-0.4 z m 0,3.88 q 0,-0.3 0.32,-0.4 l 12.72,0 q 0.02,0.02 0.08,0.08 0.08,0.04 0.1,0.08 0.04,0.02 0.06,0.1 0.04,0.06 0.04,0.14 0,0.26 -0.3,0.4 l -12.74,0 q -0.28,-0.14 -0.28,-0.4 z"
         style="font-style:normal;font-variant:normal;font-weight:normal;font-stretch:normal;font-size:20px;font-family:KaTeX_Main;-inkscape-font-specification:KaTeX_Main"
         id="path4229" />
      <path
         d="m 454.87992,271.42574 q 0,-1.36 -0.7,-2.1 -0.68,-0.74 -1.98,-0.74 -1.1,0 -2.12,0.9 -1,0.9 -1,2.14 0,0.62 0.3,1.06 0.32,0.44 0.82,0.6 0.06,0.04 1.38,0.4 1.34,0.34 1.36,0.34 0.3,0.08 0.76,0.4 1.2,0.86 1.2,2.56 0,0.52 -0.16,1.12 -0.1,0.54 -0.4,1.1 -1.24,2.46 -3.88,3.02 -0.24,0.04 -0.68,0.04 -1.98,0 -3.08,-1.1 l -0.2,-0.22 -0.56,0.62 q -0.56,0.62 -0.62,0.66 -0.06,0.04 -0.2,0.04 -0.26,0 -0.26,-0.16 0,-0.06 1.16,-4.7 0.04,-0.12 0.4,-0.12 l 0.26,0 q 0.1,0.1 0.1,0.14 0.02,0.02 -0.02,0.32 -0.1,0.5 -0.1,1.02 0.08,1.3 0.94,1.94 0.88,0.64 2.38,0.64 0.2,0 0.48,-0.04 0.94,-0.22 1.68,-1 0.76,-0.78 0.96,-1.8 0.04,-0.16 0.04,-0.62 0,-1.28 -1.04,-1.74 -0.12,-0.02 -1.44,-0.36 -1.32,-0.36 -1.38,-0.4 -0.88,-0.26 -1.42,-1 -0.52,-0.76 -0.52,-1.8 0,-1 0.56,-2.06 0.58,-1.08 1.38,-1.66 1.02,-0.88 2.46,-1.1 0.08,-0.02 0.22,-0.02 l 0.22,0 q 2.08,0 2.92,1.28 l 1.18,-1.28 q 0.02,0 0.08,0 0.06,-0.02 0.1,-0.02 0.26,0 0.26,0.14 0,0.14 -0.58,2.44 -0.56,2.28 -0.62,2.34 -0.06,0.06 -0.32,0.06 -0.4,0 -0.4,-0.18 0,-0.12 0.02,-0.2 0,-0.1 0.02,-0.42 0.04,-0.34 0.04,-0.48 z"
         style="font-style:normal;font-variant:normal;font-weight:normal;font-stretch:normal;font-size:20px;font-family:KaTeX_Math;-inkscape-font-specification:KaTeX_Math"
         id="path4231" />
      <path
         d="m 459.79804,278.37574 q 0,-0.325 0.2375,-0.5625 0.2375,-0.25 0.5625,-0.25 0.2125,0 0.35,0.1375 0.15,0.125 0.175,0.3375 0,0.3375 -0.225,0.5875 -0.225,0.2375 -0.5625,0.2375 -0.225,0 -0.375,-0.125 -0.15,-0.1375 -0.1625,-0.3625 z m -0.1125,2.75 q 0,-0.3625 -0.325,-0.3625 -0.1375,0 -0.2875,0.05 -0.3375,0.1125 -0.6625,0.475 -0.3125,0.3625 -0.525,0.8875 -0.0125,0.0375 -0.0375,0.0875 -0.025,0.05 -0.025,0.0625 0,0 -0.0375,0.0125 -0.0375,0.0125 -0.075,0.0125 -0.025,0 -0.1125,0 l -0.175,0 q -0.1,-0.1 -0.025,-0.2625 0.375,-0.9 0.975,-1.375 0.425,-0.3375 0.8625,-0.4 0.0125,0 0.1,0 0.0875,-0.0125 0.15,-0.0125 0.3,0.0125 0.55,0.125 0.325,0.2 0.475,0.425 0.1625,0.2125 0.1625,0.625 l 0,0.2 -0.6125,2.4875 q -0.6375,2.5 -0.675,2.6 -0.2,0.5375 -0.6875,0.95 -0.475,0.425 -1.0625,0.5875 -0.3125,0.075 -0.6125,0.075 -0.4875,0 -0.7875,-0.2125 -0.3,-0.2125 -0.3,-0.625 0,-0.35 0.25,-0.5875 0.25,-0.2375 0.5625,-0.2375 0.2375,0 0.375,0.1375 0.15,0.1375 0.15,0.375 0,0.45 -0.4,0.6875 0.0625,0.0125 0.175,0.0125 0.425,0 0.775,-0.3625 0.3625,-0.3625 0.5375,-0.8125 l 0.1375,-0.525 q 0.1375,-0.5375 0.325,-1.3 0.2,-0.775 0.4,-1.5625 0.2,-0.7875 0.3375,-1.3875 0.1375,-0.6125 0.1375,-0.7125 0,-0.0875 -0.0125,-0.1375 z"
         style="font-style:normal;font-variant:normal;font-weight:normal;font-stretch:normal;font-size:12.5px;font-family:KaTeX_Math;-inkscape-font-specification:KaTeX_Math;baseline-shift:sub"
         id="path4233" />
      <path
         d="m 468.19691,277.22574 q -0.28,-0.14 -0.28,-0.4 0,-0.26 0.28,-0.4 l 11.62,0 q 0.3,0.16 0.3,0.4 0,0.24 -0.3,0.4 l -11.62,0 z"
         style="font-style:normal;font-variant:normal;font-weight:normal;font-stretch:normal;font-size:20px;font-family:KaTeX_Main;-inkscape-font-specification:KaTeX_Main"
         id="path4235" />
      <path
         d="m 490.46378,269.82574 q 0,-0.46 0.38,-0.84 0.38,-0.38 0.88,-0.38 0.36,0 0.6,0.24 0.26,0.24 0.26,0.6 0,0.44 -0.4,0.84 -0.4,0.4 -0.88,0.4 -0.36,0 -0.6,-0.24 -0.24,-0.24 -0.24,-0.62 z m -0.46,12.22 q -0.78,0 -1.26,-0.46 -0.48,-0.46 -0.48,-1.24 0,-0.34 0.04,-0.46 0,-0.04 0.92,-2.46 0.92,-2.44 0.92,-2.48 0.1,-0.32 0.1,-0.72 0,-0.48 -0.34,-0.48 l -0.04,0 q -0.48,0 -0.92,0.46 -0.64,0.66 -0.94,1.88 0,0.02 -0.02,0.08 -0.02,0.04 -0.04,0.06 0,0 -0.02,0.02 -0.02,0.02 -0.08,0.02 -0.04,0 -0.08,0 -0.04,0 -0.16,0 l -0.28,0 q -0.12,-0.12 -0.12,-0.18 0,-0.06 0.06,-0.28 0.52,-1.72 1.52,-2.4 0.54,-0.42 1.16,-0.42 0.8,0 1.32,0.46 0.52,0.46 0.52,1.24 0,0.26 -0.1,0.6 -0.02,0.04 -0.92,2.46 l -0.9,2.42 q -0.1,0.44 -0.1,0.64 0,0.5 0.34,0.5 0.28,0 0.5,-0.12 0.88,-0.42 1.38,-2.1 0.06,-0.24 0.1,-0.28 0.06,-0.04 0.34,-0.04 0.18,0 0.24,0.02 0.08,0 0.12,0.04 0.04,0.04 0.04,0.14 0,0.08 -0.06,0.26 -0.38,1.14 -1.1,1.98 -0.7,0.84 -1.66,0.84 z"
         style="font-style:normal;font-variant:normal;font-weight:normal;font-stretch:normal;font-size:20px;font-family:KaTeX_Math;-inkscape-font-specification:KaTeX_Math"
         id="path4237" />
    </g>
  </g>
</svg>
