<?xml version="1.0" encoding="UTF-8" standalone="no"?>
<!-- Created with Inkscape (http://www.inkscape.org/) -->

<svg
   xmlns:dc="http://purl.org/dc/elements/1.1/"
   xmlns:cc="http://creativecommons.org/ns#"
   xmlns:rdf="http://www.w3.org/1999/02/22-rdf-syntax-ns#"
   xmlns:svg="http://www.w3.org/2000/svg"
   xmlns="http://www.w3.org/2000/svg"
   xmlns:sodipodi="http://sodipodi.sourceforge.net/DTD/sodipodi-0.dtd"
   xmlns:inkscape="http://www.inkscape.org/namespaces/inkscape"
   width="184.1192mm"
   height="45.464321mm"
   viewBox="0 0 652.39087 161.09405"
   id="svg2"
   version="1.1"
   inkscape:version="0.91 r13725"
   sodipodi:docname="linear-forward2.svg">
  <defs
     id="defs4">
    <pattern
       inkscape:stockid="Stripes 4:1"
       id="Strips4_1"
       patternTransform="translate(0,0) scale(10,10)"
       height="1"
       width="1.25"
       patternUnits="userSpaceOnUse"
       inkscape:collect="always">
      <rect
         id="rect5902"
         height="2"
         width="1"
         y="-0.5"
         x="0"
         style="fill:black;stroke:none" />
    </pattern>
  </defs>
  <sodipodi:namedview
     id="base"
     pagecolor="#ffffff"
     bordercolor="#666666"
     borderopacity="1.0"
     inkscape:pageopacity="0.0"
     inkscape:pageshadow="2"
     inkscape:zoom="1.979899"
     inkscape:cx="230.70302"
     inkscape:cy="126.24211"
     inkscape:document-units="px"
     inkscape:current-layer="layer1"
     showgrid="false"
     inkscape:snap-bbox="true"
     inkscape:bbox-paths="true"
     inkscape:bbox-nodes="true"
     inkscape:snap-bbox-edge-midpoints="true"
     inkscape:snap-bbox-midpoints="true"
     inkscape:object-paths="true"
     inkscape:snap-intersection-paths="true"
     inkscape:object-nodes="true"
     inkscape:snap-smooth-nodes="true"
     inkscape:snap-midpoints="true"
     inkscape:snap-object-midpoints="true"
     inkscape:snap-center="true"
     inkscape:snap-text-baseline="true"
     inkscape:snap-page="true"
     showguides="true"
     inkscape:guide-bbox="true"
     inkscape:window-width="2880"
     inkscape:window-height="1508"
     inkscape:window-x="0"
     inkscape:window-y="60"
     inkscape:window-maximized="1"
     fit-margin-top="1"
     fit-margin-left="1"
     fit-margin-right="1"
     fit-margin-bottom="1">
    <sodipodi:guide
       position="6.3905443,35.355574"
       orientation="1,0"
       id="guide4144" />
    <sodipodi:guide
       position="9.8539163,76.765092"
       orientation="0,1"
       id="guide4165" />
    <sodipodi:guide
       position="243.80643,14.118305"
       orientation="0,1"
       id="guide4190" />
    <sodipodi:guide
       position="355.39826,76.765092"
       orientation="1,0"
       id="guide4272" />
    <sodipodi:guide
       position="9.8539163,76.765092"
       orientation="1,0"
       id="guide4274" />
    <sodipodi:guide
       position="233.67488,76.765092"
       orientation="1,0"
       id="guide4291" />
    <sodipodi:guide
       position="39.725581,215.66778"
       orientation="0,1"
       id="guide4374" />
    <sodipodi:guide
       position="133.85392,76.765092"
       orientation="1,0"
       id="guide7341" />
    <sodipodi:guide
       position="479.39826,76.765092"
       orientation="1,0"
       id="guide7364" />
  </sodipodi:namedview>
  <metadata
     id="metadata7">
    <rdf:RDF>
      <cc:Work
         rdf:about="">
        <dc:format>image/svg+xml</dc:format>
        <dc:type
           rdf:resource="http://purl.org/dc/dcmitype/StillImage" />
        <dc:title />
      </cc:Work>
    </rdf:RDF>
  </metadata>
  <g
     inkscape:label="Layer 1"
     inkscape:groupmode="layer"
     id="layer1"
     transform="translate(-57.754139,-206.89003)">
    <g
       style="font-style:normal;font-weight:normal;font-size:40px;line-height:1000%;font-family:sans-serif;letter-spacing:0px;word-spacing:0px;fill:#000000;fill-opacity:1;stroke:none;stroke-width:1px;stroke-linecap:butt;stroke-linejoin:miter;stroke-opacity:1"
       id="text4167">
      <path
         d="m 71.317446,346.99078 q 0,-1.36 -0.7,-2.1 -0.68,-0.74 -1.98,-0.74 -1.1,0 -2.12,0.9 -1,0.9 -1,2.14 0,0.62 0.3,1.06 0.32,0.44 0.82,0.6 0.06,0.04 1.38,0.4 1.34,0.34 1.36,0.34 0.3,0.08 0.76,0.4 1.2,0.86 1.2,2.56 0,0.52 -0.16,1.12 -0.1,0.54 -0.4,1.1 -1.24,2.46 -3.88,3.02 -0.24,0.04 -0.68,0.04 -1.98,0 -3.08,-1.1 l -0.2,-0.22 -0.56,0.62 q -0.56,0.62 -0.62,0.66 -0.06,0.04 -0.2,0.04 -0.26,0 -0.26,-0.16 0,-0.06 1.16,-4.7 0.04,-0.12 0.4,-0.12 l 0.26,0 q 0.1,0.1 0.1,0.14 0.02,0.02 -0.02,0.32 -0.1,0.5 -0.1,1.02 0.08,1.3 0.94,1.94 0.88,0.64 2.38,0.64 0.2,0 0.48,-0.04 0.94,-0.22 1.68,-1 0.76,-0.78 0.96,-1.8 0.04,-0.16 0.04,-0.62 0,-1.28 -1.04,-1.74 -0.12,-0.02 -1.44,-0.36 -1.32,-0.36 -1.38,-0.4 -0.88,-0.26 -1.42,-1 -0.52,-0.76 -0.52,-1.8 0,-1 0.56,-2.06 0.58,-1.08 1.38,-1.66 1.02,-0.88 2.46,-1.1 0.08,-0.02 0.22,-0.02 l 0.22,0 q 2.08,0 2.92,1.28 l 1.18,-1.28 q 0.02,0 0.08,0 0.06,-0.02 0.1,-0.02 0.26,0 0.26,0.14 0,0.14 -0.58,2.44 -0.56,2.28 -0.62,2.34 -0.06,0.06 -0.32,0.06 -0.4,0 -0.4,-0.18 0,-0.12 0.02,-0.2 0,-0.1 0.02,-0.42 0.04,-0.34 0.04,-0.48 z"
         style="font-size:20px"
         id="path4208" />
      <path
         d="m 76.235571,354.44078 q 0,-0.325 0.2375,-0.5625 0.2375,-0.25 0.5625,-0.25 0.2125,0 0.35,0.1375 0.15,0.125 0.175,0.3375 0,0.3375 -0.225,0.5875 -0.225,0.2375 -0.5625,0.2375 -0.225,0 -0.375,-0.125 -0.15,-0.1375 -0.1625,-0.3625 z m -0.1125,2.75 q 0,-0.3625 -0.325,-0.3625 -0.1375,0 -0.2875,0.05 -0.3375,0.1125 -0.6625,0.475 -0.3125,0.3625 -0.525,0.8875 -0.0125,0.0375 -0.0375,0.0875 -0.025,0.05 -0.025,0.0625 0,0 -0.0375,0.0125 -0.0375,0.0125 -0.075,0.0125 -0.025,0 -0.1125,0 l -0.175,0 q -0.1,-0.1 -0.025,-0.2625 0.375,-0.9 0.975,-1.375 0.425,-0.3375 0.8625,-0.4 0.0125,0 0.1,0 0.0875,-0.0125 0.15,-0.0125 0.3,0.0125 0.55,0.125 0.325,0.2 0.475,0.425 0.1625,0.2125 0.1625,0.625 l 0,0.2 -0.6125,2.4875 q -0.6375,2.5 -0.675,2.6 -0.2,0.5375 -0.6875,0.95 -0.475,0.425 -1.0625,0.5875 -0.3125,0.075 -0.6125,0.075 -0.4875,0 -0.7875,-0.2125 -0.3,-0.2125 -0.3,-0.625 0,-0.35 0.25,-0.5875 0.25,-0.2375 0.5625,-0.2375 0.2375,0 0.375,0.1375 0.15,0.1375 0.15,0.375 0,0.45 -0.4,0.6875 0.0625,0.0125 0.175,0.0125 0.425,0 0.775,-0.3625 0.3625,-0.3625 0.5375,-0.8125 l 0.1375,-0.525 q 0.1375,-0.5375 0.325,-1.3 0.2,-0.775 0.4,-1.5625 0.2,-0.7875 0.3375,-1.3875 0.1375,-0.6125 0.1375,-0.7125 0,-0.0875 -0.0125,-0.1375 z"
         style="font-style:normal;font-variant:normal;font-weight:bold;font-stretch:normal;font-size:12.5px;font-family:KaTeX_Math;-inkscape-font-specification:'KaTeX_Math Bold';baseline-shift:sub"
         id="path4210" />
    </g>
    <rect
       style="opacity:1;fill:#000000;fill-opacity:1;stroke:none;stroke-width:0.37795275;stroke-linejoin:miter;stroke-miterlimit:4;stroke-dasharray:none;stroke-dashoffset:0;stroke-opacity:1"
       id="rect4138"
       width="518.45703"
       height="7.0710678"
       x="188.14468"
       y="332.62851" />
    <rect
       style="opacity:1;fill:#000000;fill-opacity:1;stroke:none;stroke-width:0.37795275;stroke-linejoin:miter;stroke-miterlimit:4;stroke-dasharray:none;stroke-dashoffset:0;stroke-opacity:1"
       id="rect4146"
       width="6.9267454"
       height="48.480591"
       x="188.14468"
       y="291.21899"
       ry="3"
       rx="3" />
    <rect
       style="opacity:1;fill:#000000;fill-opacity:1;stroke:none;stroke-width:0.37795275;stroke-linejoin:miter;stroke-miterlimit:4;stroke-dasharray:none;stroke-dashoffset:0;stroke-opacity:1"
       id="rect4146-3"
       width="6.9267454"
       height="48.480591"
       x="63.965637"
       y="291.21899"
       ry="3"
       rx="3" />
    <rect
       style="opacity:1;fill:#000000;fill-opacity:1;stroke:none;stroke-width:0.37795275;stroke-linejoin:miter;stroke-miterlimit:4;stroke-dasharray:none;stroke-dashoffset:0;stroke-opacity:1"
       id="rect4146-3-3"
       width="6.9267454"
       height="48.480591"
       x="647.33118"
       y="291.21899"
       ry="3"
       rx="3" />
    <g
       style="font-style:normal;font-weight:normal;font-size:40px;line-height:1000%;font-family:sans-serif;letter-spacing:0px;word-spacing:0px;fill:#000000;fill-opacity:1;stroke:none;stroke-width:1px;stroke-linecap:butt;stroke-linejoin:miter;stroke-opacity:1"
       id="text4167-6">
      <path
         d="m 653.63966,357.11078 q -0.54,0 -1.8,-0.02 -1.24,-0.02 -1.94,-0.02 -2.58,0 -3.28,0.04 l -0.3,0 q -0.12,-0.12 -0.14,-0.16 0,-0.06 0.06,-0.38 0.08,-0.26 0.2,-0.38 l 0.56,0 q 1.2,0 1.62,-0.06 0.34,-0.02 0.5,-0.12 0.02,-0.02 0.04,-0.02 0.1,-0.06 0.2,-0.4 0.1,-0.36 0.8,-3.14 0.34,-1.36 0.56,-2.22 1.4,-5.5 1.4,-5.62 0,-0.1 -0.58,-0.1 l -0.62,0 q -1.34,0 -1.76,0.12 -0.86,0.18 -1.3,0.7 -0.54,0.6 -1.18,2.44 -0.14,0.44 -0.2,0.52 -0.06,0.08 -0.28,0.08 l -0.06,0 q -0.26,0 -0.32,-0.06 -0.06,-0.06 -0.06,-0.1 0,-0.12 0.6,-1.92 0.44,-1.38 0.74,-2.2 0.12,-0.38 0.26,-0.52 l 9.36,0 q 2.68,0 2.68,0.1 l 0,0.02 0.02,0.02 q 0,0.04 0,0.06 0,0.12 -0.36,2.28 -0.34,2.16 -0.36,2.18 0,0.06 -0.08,0.1 -0.04,0.04 -0.3,0.04 -0.12,0 -0.2,0 -0.06,-0.02 -0.08,-0.02 -0.02,-0.02 -0.06,-0.06 -0.04,-0.06 -0.06,-0.08 0,-0.14 0.06,-0.54 0.18,-1.08 0.18,-1.58 0,-0.46 -0.12,-0.76 -0.12,-0.3 -0.28,-0.46 -0.14,-0.16 -0.54,-0.24 -0.38,-0.08 -0.66,-0.1 -0.28,-0.02 -0.92,-0.04 -0.92,0 -1.18,0.04 -0.24,0.02 -0.34,0.14 -0.02,0.02 -1.42,5.6 -1.4,5.56 -1.4,5.64 0,0.14 0.26,0.18 0.28,0.08 1.5,0.1 0.68,0 0.8,0.02 0.14,0.02 0.18,0.12 0.02,0.06 -0.04,0.34 -0.08,0.36 -0.18,0.42 l -0.04,0.02 q -0.06,0 -0.14,0 z"
         style="font-size:20px"
         id="path4203" />
      <path
         d="m 660.73185,354.16078 q 0,-0.325 0.2375,-0.5625 0.2375,-0.25 0.5625,-0.25 0.2125,0 0.35,0.1375 0.15,0.125 0.175,0.3375 0,0.3375 -0.225,0.5875 -0.225,0.2375 -0.5625,0.2375 -0.225,0 -0.375,-0.125 -0.15,-0.1375 -0.1625,-0.3625 z m -0.1125,2.75 q 0,-0.3625 -0.325,-0.3625 -0.1375,0 -0.2875,0.05 -0.3375,0.1125 -0.6625,0.475 -0.3125,0.3625 -0.525,0.8875 -0.0125,0.0375 -0.0375,0.0875 -0.025,0.05 -0.025,0.0625 0,0 -0.0375,0.0125 -0.0375,0.0125 -0.075,0.0125 -0.025,0 -0.1125,0 l -0.175,0 q -0.1,-0.1 -0.025,-0.2625 0.375,-0.9 0.975,-1.375 0.425,-0.3375 0.8625,-0.4 0.0125,0 0.1,0 0.0875,-0.0125 0.15,-0.0125 0.3,0.0125 0.55,0.125 0.325,0.2 0.475,0.425 0.1625,0.2125 0.1625,0.625 l 0,0.2 -0.6125,2.4875 q -0.6375,2.5 -0.675,2.6 -0.2,0.5375 -0.6875,0.95 -0.475,0.425 -1.0625,0.5875 -0.3125,0.075 -0.6125,0.075 -0.4875,0 -0.7875,-0.2125 -0.3,-0.2125 -0.3,-0.625 0,-0.35 0.25,-0.5875 0.25,-0.2375 0.5625,-0.2375 0.2375,0 0.375,0.1375 0.15,0.1375 0.15,0.375 0,0.45 -0.4,0.6875 0.0625,0.0125 0.175,0.0125 0.425,0 0.775,-0.3625 0.3625,-0.3625 0.5375,-0.8125 l 0.1375,-0.525 q 0.1375,-0.5375 0.325,-1.3 0.2,-0.775 0.4,-1.5625 0.2,-0.7875 0.3375,-1.3875 0.1375,-0.6125 0.1375,-0.7125 0,-0.0875 -0.0125,-0.1375 z"
         style="font-style:normal;font-variant:normal;font-weight:bold;font-stretch:normal;font-size:12.5px;font-family:KaTeX_Math;-inkscape-font-specification:'KaTeX_Math Bold';baseline-shift:sub"
         id="path4205" />
    </g>
    <g
       style="font-style:normal;font-variant:normal;font-weight:normal;font-stretch:normal;font-size:40px;line-height:1000%;font-family:KaTeX_Main;-inkscape-font-specification:KaTeX_Main;letter-spacing:0px;word-spacing:0px;fill:#000000;fill-opacity:1;stroke:none;stroke-width:1px;stroke-linecap:butt;stroke-linejoin:miter;stroke-opacity:1"
       id="text4167-5">
      <path
         d="m 188.53806,346.03077 q 1.12,-1.62 3.06,-1.62 1.46,0 2.56,1 0.54,0.52 0.92,1.36 0.74,1.66 0.74,4.56 0,3.1 -0.86,4.74 -0.56,1.16 -1.64,1.68 -0.84,0.42 -1.7,0.42 -2.3,0 -3.36,-2.1 -0.86,-1.64 -0.86,-4.74 0,-1.86 0.24,-3.06 0.26,-1.22 0.9,-2.24 z m 4.5,-0.24 q -0.58,-0.64 -1.42,-0.64 -0.84,0 -1.44,0.64 -0.44,0.46 -0.6,1.12 -0.16,0.66 -0.2,2.28 0,0.12 -0.02,0.78 0,0.66 0,1.1 0,1.92 0.04,2.68 0.08,1.4 0.24,2.02 0.16,0.6 0.6,1.04 0.54,0.6 1.38,0.6 0.82,0 1.36,-0.6 0.44,-0.44 0.6,-1.04 0.16,-0.62 0.24,-2.02 0.04,-0.76 0.04,-2.68 0,-0.44 -0.02,-1.1 0,-0.66 0,-0.78 -0.04,-1.62 -0.2,-2.28 -0.16,-0.66 -0.6,-1.12 z"
         style="font-style:normal;font-variant:normal;font-weight:normal;font-stretch:normal;font-size:20px;font-family:KaTeX_Main;-inkscape-font-specification:KaTeX_Main"
         id="path4200" />
    </g>
    <rect
       style="opacity:1;fill:#000000;fill-opacity:1;stroke:none;stroke-width:0.37795275;stroke-linejoin:miter;stroke-miterlimit:4;stroke-dasharray:none;stroke-dashoffset:0;stroke-opacity:1"
       id="rect4146-3-1"
       width="6.9267454"
       height="48.480591"
       x="533.68903"
       y="291.21899"
       ry="3"
       rx="3" />
    <g
       style="font-style:normal;font-weight:normal;font-size:40px;line-height:1000%;font-family:sans-serif;letter-spacing:0px;word-spacing:0px;fill:#000000;fill-opacity:1;stroke:none;stroke-width:1px;stroke-linecap:butt;stroke-linejoin:miter;stroke-opacity:1"
       id="text4167-2">
      <path
         d="m 537.60236,346.30151 q 0,-0.46 0.38,-0.84 0.38,-0.38 0.88,-0.38 0.36,0 0.6,0.24 0.26,0.24 0.26,0.6 0,0.44 -0.4,0.84 -0.4,0.4 -0.88,0.4 -0.36,0 -0.6,-0.24 -0.24,-0.24 -0.24,-0.62 z m -0.46,12.22 q -0.78,0 -1.26,-0.46 -0.48,-0.46 -0.48,-1.24 0,-0.34 0.04,-0.46 0,-0.04 0.92,-2.46 0.92,-2.44 0.92,-2.48 0.1,-0.32 0.1,-0.72 0,-0.48 -0.34,-0.48 l -0.04,0 q -0.48,0 -0.92,0.46 -0.64,0.66 -0.94,1.88 0,0.02 -0.02,0.08 -0.02,0.04 -0.04,0.06 0,0 -0.02,0.02 -0.02,0.02 -0.08,0.02 -0.04,0 -0.08,0 -0.04,0 -0.16,0 l -0.28,0 q -0.12,-0.12 -0.12,-0.18 0,-0.06 0.06,-0.28 0.52,-1.72 1.52,-2.4 0.54,-0.42 1.16,-0.42 0.8,0 1.32,0.46 0.52,0.46 0.52,1.24 0,0.26 -0.1,0.6 -0.02,0.04 -0.92,2.46 l -0.9,2.42 q -0.1,0.44 -0.1,0.64 0,0.5 0.34,0.5 0.28,0 0.5,-0.12 0.88,-0.42 1.38,-2.1 0.06,-0.24 0.1,-0.28 0.06,-0.04 0.34,-0.04 0.18,0 0.24,0.02 0.08,0 0.12,0.04 0.04,0.04 0.04,0.14 0,0.08 -0.06,0.26 -0.38,1.14 -1.1,1.98 -0.7,0.84 -1.66,0.84 z"
         style="font-style:normal;font-variant:normal;font-weight:bold;font-stretch:normal;font-size:20px;font-family:KaTeX_Math;-inkscape-font-specification:'KaTeX_Math Bold'"
         id="path4197" />
    </g>
    <rect
       style="opacity:1;fill:#a5acff;fill-opacity:1;stroke:none;stroke-width:0.37795275;stroke-linejoin:miter;stroke-miterlimit:4;stroke-dasharray:none;stroke-dashoffset:0;stroke-opacity:1"
       id="rect4138-0-6"
       width="124.00002"
       height="7.0710678"
       x="67.60804"
       y="256.70465"
       ry="4000"
       rx="2.2476361" />
    <rect
       style="opacity:1;fill:#ffacff;fill-opacity:1;stroke:none;stroke-width:0.37795275;stroke-linejoin:miter;stroke-miterlimit:4;stroke-dasharray:none;stroke-dashoffset:0;stroke-opacity:1"
       id="rect4138-0-6-2"
       width="469.54434"
       height="7.0710678"
       x="67.608055"
       y="238.01685"
       ry="2"
       rx="4.0194888" />
    <g
       style="font-style:normal;font-weight:normal;font-size:40px;line-height:1000%;font-family:sans-serif;letter-spacing:0px;word-spacing:0px;fill:#000000;fill-opacity:1;stroke:none;stroke-width:1px;stroke-linecap:butt;stroke-linejoin:miter;stroke-opacity:1"
       id="text4167-2-6">
      <path
         d="m 368.18906,270.99899 q 0,-0.46 0.38,-0.84 0.38,-0.38 0.88,-0.38 0.36,0 0.6,0.24 0.26,0.24 0.26,0.6 0,0.44 -0.4,0.84 -0.4,0.4 -0.88,0.4 -0.36,0 -0.6,-0.24 -0.24,-0.24 -0.24,-0.62 z m -0.46,12.22 q -0.78,0 -1.26,-0.46 -0.48,-0.46 -0.48,-1.24 0,-0.34 0.04,-0.46 0,-0.04 0.92,-2.46 0.92,-2.44 0.92,-2.48 0.1,-0.32 0.1,-0.72 0,-0.48 -0.34,-0.48 l -0.04,0 q -0.48,0 -0.92,0.46 -0.64,0.66 -0.94,1.88 0,0.02 -0.02,0.08 -0.02,0.04 -0.04,0.06 0,0 -0.02,0.02 -0.02,0.02 -0.08,0.02 -0.04,0 -0.08,0 -0.04,0 -0.16,0 l -0.28,0 q -0.12,-0.12 -0.12,-0.18 0,-0.06 0.06,-0.28 0.52,-1.72 1.52,-2.4 0.54,-0.42 1.16,-0.42 0.8,0 1.32,0.46 0.52,0.46 0.52,1.24 0,0.26 -0.1,0.6 -0.02,0.04 -0.92,2.46 l -0.9,2.42 q -0.1,0.44 -0.1,0.64 0,0.5 0.34,0.5 0.28,0 0.5,-0.12 0.88,-0.42 1.38,-2.1 0.06,-0.24 0.1,-0.28 0.06,-0.04 0.34,-0.04 0.18,0 0.24,0.02 0.08,0 0.12,0.04 0.04,0.04 0.04,0.14 0,0.08 -0.06,0.26 -0.38,1.14 -1.1,1.98 -0.7,0.84 -1.66,0.84 z"
         style="font-style:normal;font-variant:normal;font-weight:bold;font-stretch:normal;font-size:20px;font-family:KaTeX_Math;-inkscape-font-specification:'KaTeX_Math Bold'"
         id="path4218" />
    </g>
    <g
       style="font-style:normal;font-weight:normal;font-size:40px;line-height:1000%;font-family:sans-serif;letter-spacing:0px;word-spacing:0px;fill:#000000;fill-opacity:1;stroke:none;stroke-width:1px;stroke-linecap:butt;stroke-linejoin:miter;stroke-opacity:1"
       id="text4167-8">
      <path
         d="m 135.15001,276.70901 q 0,-1.36 -0.7,-2.1 -0.68,-0.74 -1.98,-0.74 -1.1,0 -2.12,0.9 -1,0.9 -1,2.14 0,0.62 0.3,1.06 0.32,0.44 0.82,0.6 0.06,0.04 1.38,0.4 1.34,0.34 1.36,0.34 0.3,0.08 0.76,0.4 1.2,0.86 1.2,2.56 0,0.52 -0.16,1.12 -0.1,0.54 -0.4,1.1 -1.24,2.46 -3.88,3.02 -0.24,0.04 -0.68,0.04 -1.98,0 -3.08,-1.1 l -0.2,-0.22 -0.56,0.62 q -0.56,0.62 -0.62,0.66 -0.06,0.04 -0.2,0.04 -0.26,0 -0.26,-0.16 0,-0.06 1.16,-4.7 0.04,-0.12 0.4,-0.12 l 0.26,0 q 0.1,0.1 0.1,0.14 0.02,0.02 -0.02,0.32 -0.1,0.5 -0.1,1.02 0.08,1.3 0.94,1.94 0.88,0.64 2.38,0.64 0.2,0 0.48,-0.04 0.94,-0.22 1.68,-1 0.76,-0.78 0.96,-1.8 0.04,-0.16 0.04,-0.62 0,-1.28 -1.04,-1.74 -0.12,-0.02 -1.44,-0.36 -1.32,-0.36 -1.38,-0.4 -0.88,-0.26 -1.42,-1 -0.52,-0.76 -0.52,-1.8 0,-1 0.56,-2.06 0.58,-1.08 1.38,-1.66 1.02,-0.88 2.46,-1.1 0.08,-0.02 0.22,-0.02 l 0.22,0 q 2.08,0 2.92,1.28 l 1.18,-1.28 q 0.02,0 0.08,0 0.06,-0.02 0.1,-0.02 0.26,0 0.26,0.14 0,0.14 -0.58,2.44 -0.56,2.28 -0.62,2.34 -0.06,0.06 -0.32,0.06 -0.4,0 -0.4,-0.18 0,-0.12 0.02,-0.2 0,-0.1 0.02,-0.42 0.04,-0.34 0.04,-0.48 z"
         style="font-size:20px"
         id="path4213" />
      <path
         d="m 140.06814,284.15901 q 0,-0.325 0.2375,-0.5625 0.2375,-0.25 0.5625,-0.25 0.2125,0 0.35,0.1375 0.15,0.125 0.175,0.3375 0,0.3375 -0.225,0.5875 -0.225,0.2375 -0.5625,0.2375 -0.225,0 -0.375,-0.125 -0.15,-0.1375 -0.1625,-0.3625 z m -0.1125,2.75 q 0,-0.3625 -0.325,-0.3625 -0.1375,0 -0.2875,0.05 -0.3375,0.1125 -0.6625,0.475 -0.3125,0.3625 -0.525,0.8875 -0.0125,0.0375 -0.0375,0.0875 -0.025,0.05 -0.025,0.0625 0,0 -0.0375,0.0125 -0.0375,0.0125 -0.075,0.0125 -0.025,0 -0.1125,0 l -0.175,0 q -0.1,-0.1 -0.025,-0.2625 0.375,-0.9 0.975,-1.375 0.425,-0.3375 0.8625,-0.4 0.0125,0 0.1,0 0.0875,-0.0125 0.15,-0.0125 0.3,0.0125 0.55,0.125 0.325,0.2 0.475,0.425 0.1625,0.2125 0.1625,0.625 l 0,0.2 -0.6125,2.4875 q -0.6375,2.5 -0.675,2.6 -0.2,0.5375 -0.6875,0.95 -0.475,0.425 -1.0625,0.5875 -0.3125,0.075 -0.6125,0.075 -0.4875,0 -0.7875,-0.2125 -0.3,-0.2125 -0.3,-0.625 0,-0.35 0.25,-0.5875 0.25,-0.2375 0.5625,-0.2375 0.2375,0 0.375,0.1375 0.15,0.1375 0.15,0.375 0,0.45 -0.4,0.6875 0.0625,0.0125 0.175,0.0125 0.425,0 0.775,-0.3625 0.3625,-0.3625 0.5375,-0.8125 l 0.1375,-0.525 q 0.1375,-0.5375 0.325,-1.3 0.2,-0.775 0.4,-1.5625 0.2,-0.7875 0.3375,-1.3875 0.1375,-0.6125 0.1375,-0.7125 0,-0.0875 -0.0125,-0.1375 z"
         style="font-style:normal;font-variant:normal;font-weight:bold;font-stretch:normal;font-size:12.5px;font-family:KaTeX_Math;-inkscape-font-specification:'KaTeX_Math Bold';baseline-shift:sub"
         id="path4215" />
    </g>
    <g
       style="font-style:normal;font-weight:normal;font-size:40px;line-height:1000%;font-family:sans-serif;letter-spacing:0px;word-spacing:0px;fill:#000000;fill-opacity:1;stroke:none;stroke-width:1px;stroke-linecap:butt;stroke-linejoin:miter;stroke-opacity:1"
       id="text4167-8-2">
      <path
         d="m 249.94609,211.79334 q -0.14,-0.14 -0.14,-0.22 0,-0.44 0.26,-0.7 l 0.24,0 q 0.84,0.06 2,0.06 0.2,0 0.64,0 0.44,-0.02 0.66,-0.02 0.26,0 0.62,0 0.38,-0.02 0.58,-0.02 0.2,-0.02 0.24,-0.02 l 0.2,0 q 0.12,0.12 0.12,0.18 0.02,0.04 -0.04,0.36 -0.08,0.28 -0.18,0.38 l -0.42,0 q -0.58,0.02 -0.96,0.12 -0.3,0.12 -0.34,0.22 0,0.14 0.32,4.84 0.34,4.7 0.36,4.84 3.12,-5.52 4.7,-8.28 l -0.04,-0.74 q -0.06,-0.84 -0.2,-0.9 -0.12,-0.08 -0.84,-0.1 -0.56,0 -0.6,-0.14 -0.04,-0.06 0.02,-0.32 0.1,-0.4 0.18,-0.44 0.06,-0.02 0.62,0 0.68,0.04 1.9,0.04 0.58,0 1.36,-0.02 0.8,-0.02 1.12,-0.02 0.34,0 0.34,0.14 0,0.08 -0.06,0.36 -0.06,0.26 -0.08,0.28 -0.04,0.12 -0.52,0.12 -1.04,0.04 -1.24,0.3 -0.06,0.06 -0.04,0.14 0,0.24 0.32,4.78 0.32,4.52 0.32,4.76 l 0.04,-0.06 q 0.04,-0.06 0.12,-0.2 0.1,-0.16 0.24,-0.38 0.14,-0.24 0.34,-0.6 0.22,-0.36 0.48,-0.82 0.26,-0.46 0.6,-1.08 0.36,-0.62 0.78,-1.34 2.58,-4.54 2.62,-4.66 0.04,-0.12 0.04,-0.18 0,-0.32 -0.4,-0.48 -0.38,-0.18 -0.82,-0.18 -0.28,0 -0.28,-0.2 0,-0.06 0.04,-0.26 0.02,-0.06 0.02,-0.14 0.02,-0.08 0.02,-0.12 0.02,-0.04 0.04,-0.08 0.02,-0.04 0.06,-0.06 0.04,-0.02 0.1,-0.02 0.06,-0.02 0.16,-0.02 0.36,0 1.1,0.02 0.76,0 1.1,0 1.32,0 1.7,-0.04 0.28,0 0.28,0.22 0,0.12 -0.08,0.36 -0.08,0.24 -0.12,0.28 -0.06,0.06 -0.2,0.06 -1.26,0 -1.94,0.94 -0.14,0.22 -0.16,0.24 l -3.38,5.92 q -3.36,5.92 -3.38,5.94 -0.12,0.14 -0.48,0.14 -0.3,0 -0.38,-0.1 -0.06,-0.06 -0.4,-4.92 -0.32,-4.88 -0.32,-5.02 l -0.24,0.36 q -0.44,0.74 -2.56,4.46 -0.62,1.1 -1.38,2.42 -0.74,1.32 -1.1,1.96 -0.36,0.62 -0.38,0.64 -0.12,0.2 -0.52,0.2 -0.38,0 -0.42,-0.14 0,-0.06 -0.44,-6.38 -0.44,-6.34 -0.46,-6.36 -0.04,-0.18 -0.2,-0.22 -0.16,-0.06 -0.78,-0.08 l -0.48,0 z"
         style="font-size:20px"
         id="path4182" />
      <path
         d="m 269.95327,221.53334 q 0,-0.2875 0.2375,-0.525 0.2375,-0.2375 0.55,-0.2375 0.225,0 0.375,0.15 0.1625,0.15 0.1625,0.375 0,0.275 -0.25,0.525 -0.25,0.25 -0.55,0.25 -0.225,0 -0.375,-0.15 -0.15,-0.15 -0.15,-0.3875 z m -0.2875,7.6375 q -0.4875,0 -0.7875,-0.2875 -0.3,-0.2875 -0.3,-0.775 0,-0.2125 0.025,-0.2875 0,-0.025 0.575,-1.5375 0.575,-1.525 0.575,-1.55 0.0625,-0.2 0.0625,-0.45 0,-0.3 -0.2125,-0.3 l -0.025,0 q -0.3,0 -0.575,0.2875 -0.4,0.4125 -0.5875,1.175 0,0.0125 -0.0125,0.05 -0.0125,0.025 -0.025,0.0375 0,0 -0.0125,0.0125 -0.0125,0.0125 -0.05,0.0125 -0.025,0 -0.05,0 -0.025,0 -0.1,0 l -0.175,0 q -0.075,-0.075 -0.075,-0.1125 0,-0.0375 0.0375,-0.175 0.325,-1.075 0.95,-1.5 0.3375,-0.2625 0.725,-0.2625 0.5,0 0.825,0.2875 0.325,0.2875 0.325,0.775 0,0.1625 -0.0625,0.375 -0.0125,0.025 -0.575,1.5375 l -0.5625,1.5125 q -0.0625,0.275 -0.0625,0.4 0,0.3125 0.2125,0.3125 0.175,0 0.3125,-0.075 0.55,-0.2625 0.8625,-1.3125 0.0375,-0.15 0.0625,-0.175 0.0375,-0.025 0.2125,-0.025 0.1125,0 0.15,0.0125 0.05,0 0.075,0.025 0.025,0.025 0.025,0.0875 0,0.05 -0.0375,0.1625 -0.2375,0.7125 -0.6875,1.2375 -0.4375,0.525 -1.0375,0.525 z"
         style="font-size:12.5px;baseline-shift:sub"
         id="path4184" />
      <path
         d="m 276.83956,217.87334 q -0.46,-0.2 -0.46,-0.58 0,-0.42 0.4,-0.58 0.1,-0.04 7.28,-0.04 l 7.18,0 0.08,0.06 q 0.36,0.14 0.36,0.54 0,0.38 -0.44,0.6 l -14.4,0 z m 0,4.48 q -0.46,-0.18 -0.46,-0.6 0,-0.4 0.44,-0.58 0.06,-0.02 7.24,-0.02 l 7.18,0 0.08,0.06 q 0.36,0.16 0.36,0.54 0,0.38 -0.44,0.6 l -14.4,0 z"
         style="font-style:normal;font-variant:normal;font-weight:bold;font-stretch:normal;font-size:20px;font-family:KaTeX_Main;-inkscape-font-specification:'KaTeX_Main Bold'"
         id="path4186" />
      <path
         d="m 301.67019,212.53334 q 0,-0.46 0.38,-0.84 0.38,-0.38 0.88,-0.38 0.36,0 0.6,0.24 0.26,0.24 0.26,0.6 0,0.44 -0.4,0.84 -0.4,0.4 -0.88,0.4 -0.36,0 -0.6,-0.24 -0.24,-0.24 -0.24,-0.62 z m -0.46,12.22 q -0.78,0 -1.26,-0.46 -0.48,-0.46 -0.48,-1.24 0,-0.34 0.04,-0.46 0,-0.04 0.92,-2.46 0.92,-2.44 0.92,-2.48 0.1,-0.32 0.1,-0.72 0,-0.48 -0.34,-0.48 l -0.04,0 q -0.48,0 -0.92,0.46 -0.64,0.66 -0.94,1.88 0,0.02 -0.02,0.08 -0.02,0.04 -0.04,0.06 0,0 -0.02,0.02 -0.02,0.02 -0.08,0.02 -0.04,0 -0.08,0 -0.04,0 -0.16,0 l -0.28,0 q -0.12,-0.12 -0.12,-0.18 0,-0.06 0.06,-0.28 0.52,-1.72 1.52,-2.4 0.54,-0.42 1.16,-0.42 0.8,0 1.32,0.46 0.52,0.46 0.52,1.24 0,0.26 -0.1,0.6 -0.02,0.04 -0.92,2.46 l -0.9,2.42 q -0.1,0.44 -0.1,0.64 0,0.5 0.34,0.5 0.28,0 0.5,-0.12 0.88,-0.42 1.38,-2.1 0.06,-0.24 0.1,-0.28 0.06,-0.04 0.34,-0.04 0.18,0 0.24,0.02 0.08,0 0.12,0.04 0.04,0.04 0.04,0.14 0,0.08 -0.06,0.26 -0.38,1.14 -1.1,1.98 -0.7,0.84 -1.66,0.84 z"
         style="font-size:20px"
         id="path4188" />
      <path
         d="m 312.28425,220.11334 q -0.46,-0.2 -0.46,-0.6 0,-0.42 0.4,-0.56 0.1,-0.04 6.64,-0.04 l 6.54,0 0.08,0.06 q 0.36,0.14 0.36,0.54 0,0.38 -0.44,0.6 l -13.12,0 z"
         style="font-style:normal;font-variant:normal;font-weight:bold;font-stretch:normal;font-size:20px;font-family:KaTeX_Main;-inkscape-font-specification:'KaTeX_Main Bold'"
         id="path4190" />
      <path
         d="m 343.85488,214.13334 q 0,-1.36 -0.7,-2.1 -0.68,-0.74 -1.98,-0.74 -1.1,0 -2.12,0.9 -1,0.9 -1,2.14 0,0.62 0.3,1.06 0.32,0.44 0.82,0.6 0.06,0.04 1.38,0.4 1.34,0.34 1.36,0.34 0.3,0.08 0.76,0.4 1.2,0.86 1.2,2.56 0,0.52 -0.16,1.12 -0.1,0.54 -0.4,1.1 -1.24,2.46 -3.88,3.02 -0.24,0.04 -0.68,0.04 -1.98,0 -3.08,-1.1 l -0.2,-0.22 -0.56,0.62 q -0.56,0.62 -0.62,0.66 -0.06,0.04 -0.2,0.04 -0.26,0 -0.26,-0.16 0,-0.06 1.16,-4.7 0.04,-0.12 0.4,-0.12 l 0.26,0 q 0.1,0.1 0.1,0.14 0.02,0.02 -0.02,0.32 -0.1,0.5 -0.1,1.02 0.08,1.3 0.94,1.94 0.88,0.64 2.38,0.64 0.2,0 0.48,-0.04 0.94,-0.22 1.68,-1 0.76,-0.78 0.96,-1.8 0.04,-0.16 0.04,-0.62 0,-1.28 -1.04,-1.74 -0.12,-0.02 -1.44,-0.36 -1.32,-0.36 -1.38,-0.4 -0.88,-0.26 -1.42,-1 -0.52,-0.76 -0.52,-1.8 0,-1 0.56,-2.06 0.58,-1.08 1.38,-1.66 1.02,-0.88 2.46,-1.1 0.08,-0.02 0.22,-0.02 l 0.22,0 q 2.08,0 2.92,1.28 l 1.18,-1.28 q 0.02,0 0.08,0 0.06,-0.02 0.1,-0.02 0.26,0 0.26,0.14 0,0.14 -0.58,2.44 -0.56,2.28 -0.62,2.34 -0.06,0.06 -0.32,0.06 -0.4,0 -0.4,-0.18 0,-0.12 0.02,-0.2 0,-0.1 0.02,-0.42 0.04,-0.34 0.04,-0.48 z"
         style="font-size:20px"
         id="path4192" />
      <path
         d="m 349.40413,220.31684 q 0,-0.38025 0.27787,-0.65812 0.27788,-0.2925 0.65813,-0.2925 0.24862,0 0.4095,0.16087 0.1755,0.14625 0.20475,0.39488 0,0.39487 -0.26325,0.68737 -0.26325,0.27788 -0.65813,0.27788 -0.26325,0 -0.43875,-0.14625 -0.1755,-0.16088 -0.19012,-0.42413 z m -0.13163,3.2175 q 0,-0.42412 -0.38025,-0.42412 -0.16087,0 -0.33637,0.0585 -0.39488,0.13162 -0.77513,0.55575 -0.36562,0.42412 -0.61425,1.03837 -0.0146,0.0439 -0.0439,0.10238 -0.0292,0.0585 -0.0292,0.0731 0,0 -0.0439,0.0146 -0.0439,0.0146 -0.0878,0.0146 -0.0292,0 -0.13162,0 l -0.20475,0 q -0.117,-0.117 -0.0292,-0.30712 0.43875,-1.053 1.14075,-1.60875 0.49725,-0.39488 1.00912,-0.468 0.0146,0 0.117,0 0.10238,-0.0146 0.1755,-0.0146 0.351,0.0146 0.6435,0.14625 0.38025,0.234 0.55575,0.49725 0.19013,0.24863 0.19013,0.73125 l 0,0.234 -0.71663,2.91038 q -0.74587,2.925 -0.78975,3.042 -0.234,0.62887 -0.80437,1.1115 -0.55575,0.49725 -1.24313,0.68737 -0.36562,0.0877 -0.71662,0.0877 -0.57038,0 -0.92138,-0.24862 -0.351,-0.24863 -0.351,-0.73125 0,-0.4095 0.2925,-0.68738 0.2925,-0.27787 0.65813,-0.27787 0.27787,0 0.43875,0.16087 0.1755,0.16088 0.1755,0.43875 0,0.5265 -0.468,0.80438 0.0731,0.0146 0.20475,0.0146 0.49725,0 0.90675,-0.42412 0.42412,-0.42413 0.62887,-0.95063 l 0.16088,-0.61425 q 0.16087,-0.62887 0.38025,-1.521 0.234,-0.90675 0.468,-1.82812 0.234,-0.92138 0.39487,-1.62338 0.16088,-0.71662 0.16088,-0.83362 0,-0.10238 -0.0146,-0.16088 z"
         style="font-size:64.99999762%;baseline-shift:sub"
         id="path4194" />
    </g>
    <rect
       style="opacity:1;fill:url(#Strips4_1);fill-opacity:1;stroke:none;stroke-width:0.37795275;stroke-linejoin:miter;stroke-miterlimit:4;stroke-dasharray:none;stroke-dashoffset:0;stroke-opacity:1"
       id="rect4138-9"
       width="124.17905"
       height="7.0710678"
       x="63.965637"
       y="332.62851" />
    <rect
       style="opacity:1;fill:#00acff;fill-opacity:1;stroke:none;stroke-width:0.37795275;stroke-linejoin:miter;stroke-miterlimit:4;stroke-dasharray:none;stroke-dashoffset:0;stroke-opacity:1"
       id="rect4138-0-2"
       width="345.54434"
       height="7.0710678"
       x="191.60806"
       y="256.70465"
       ry="2"
       rx="2"
       transform="translate(4.9623685e-6,0)" />
    <rect
       style="opacity:1;fill:#a5acff;fill-opacity:1;stroke:none;stroke-width:0.37795275;stroke-linejoin:miter;stroke-miterlimit:4;stroke-dasharray:none;stroke-dashoffset:0;stroke-opacity:1"
       id="rect4138-0-6-28"
       width="123.99999"
       height="7.0710678"
       x="67.608063"
       y="256.70465"
       ry="2"
       rx="2" />
  </g>
</svg>
