<?xml version="1.0" encoding="UTF-8" standalone="no"?>
<!-- Created with Inkscape (http://www.inkscape.org/) -->

<svg
   xmlns:dc="http://purl.org/dc/elements/1.1/"
   xmlns:cc="http://creativecommons.org/ns#"
   xmlns:rdf="http://www.w3.org/1999/02/22-rdf-syntax-ns#"
   xmlns:svg="http://www.w3.org/2000/svg"
   xmlns="http://www.w3.org/2000/svg"
   xmlns:sodipodi="http://sodipodi.sourceforge.net/DTD/sodipodi-0.dtd"
   xmlns:inkscape="http://www.inkscape.org/namespaces/inkscape"
   width="162.85252mm"
   height="83.640244mm"
   viewBox="0 0 577.0365 296.36307"
   id="svg2"
   version="1.1"
   inkscape:version="0.91 r13725"
   sodipodi:docname="1.svg">
  <defs
     id="defs4">
    <marker
       inkscape:isstock="true"
       style="overflow:visible"
       id="marker5207"
       refX="0"
       refY="0"
       orient="auto"
       inkscape:stockid="Arrow1Lend">
      <path
         transform="matrix(-0.8,0,0,-0.8,-10,0)"
         style="fill:#000000;fill-opacity:1;fill-rule:evenodd;stroke:#000000;stroke-width:1pt;stroke-opacity:1"
         d="M 0,0 5,-5 -12.5,0 5,5 0,0 Z"
         id="path5209"
         inkscape:connector-curvature="0" />
    </marker>
    <marker
       inkscape:isstock="true"
       style="overflow:visible"
       id="marker5117"
       refX="0"
       refY="0"
       orient="auto"
       inkscape:stockid="Arrow1Lend">
      <path
         transform="matrix(-0.8,0,0,-0.8,-10,0)"
         style="fill:#000000;fill-opacity:1;fill-rule:evenodd;stroke:#000000;stroke-width:1pt;stroke-opacity:1"
         d="M 0,0 5,-5 -12.5,0 5,5 0,0 Z"
         id="path5119"
         inkscape:connector-curvature="0" />
    </marker>
    <marker
       inkscape:stockid="Arrow1Lstart"
       orient="auto"
       refY="0"
       refX="0"
       id="Arrow1Lstart"
       style="overflow:visible"
       inkscape:isstock="true">
      <path
         id="path4237"
         d="M 0,0 5,-5 -12.5,0 5,5 0,0 Z"
         style="fill:#000000;fill-opacity:1;fill-rule:evenodd;stroke:#000000;stroke-width:1pt;stroke-opacity:1"
         transform="matrix(0.8,0,0,0.8,10,0)"
         inkscape:connector-curvature="0" />
    </marker>
    <marker
       inkscape:stockid="Arrow1Lend"
       orient="auto"
       refY="0"
       refX="0"
       id="Arrow1Lend"
       style="overflow:visible"
       inkscape:isstock="true"
       inkscape:collect="always">
      <path
         id="path4240"
         d="M 0,0 5,-5 -12.5,0 5,5 0,0 Z"
         style="fill:#000000;fill-opacity:1;fill-rule:evenodd;stroke:#000000;stroke-width:1pt;stroke-opacity:1"
         transform="matrix(-0.8,0,0,-0.8,-10,0)"
         inkscape:connector-curvature="0" />
    </marker>
    <marker
       inkscape:stockid="Arrow1Mend"
       orient="auto"
       refY="0"
       refX="0"
       id="Arrow1Mend"
       style="overflow:visible"
       inkscape:isstock="true">
      <path
         id="path4246"
         d="M 0,0 5,-5 -12.5,0 5,5 0,0 Z"
         style="fill:#000000;fill-opacity:1;fill-rule:evenodd;stroke:#000000;stroke-width:1pt;stroke-opacity:1"
         transform="matrix(-0.4,0,0,-0.4,-4,0)"
         inkscape:connector-curvature="0" />
    </marker>
  </defs>
  <sodipodi:namedview
     id="base"
     pagecolor="#ffffff"
     bordercolor="#666666"
     borderopacity="1.0"
     inkscape:pageopacity="0.0"
     inkscape:pageshadow="2"
     inkscape:zoom="1.4"
     inkscape:cx="317.9696"
     inkscape:cy="129.02682"
     inkscape:document-units="px"
     inkscape:current-layer="layer1"
     showgrid="false"
     inkscape:snap-bbox="true"
     inkscape:bbox-paths="true"
     inkscape:snap-bbox-edge-midpoints="true"
     inkscape:snap-bbox-midpoints="true"
     inkscape:bbox-nodes="true"
     inkscape:object-paths="true"
     inkscape:snap-intersection-paths="true"
     inkscape:object-nodes="true"
     inkscape:snap-smooth-nodes="true"
     inkscape:snap-midpoints="true"
     inkscape:snap-object-midpoints="true"
     inkscape:snap-center="true"
     inkscape:snap-text-baseline="true"
     inkscape:snap-page="true"
     showguides="false"
     inkscape:guide-bbox="true"
     fit-margin-top="5"
     fit-margin-left="5"
     fit-margin-right="5"
     fit-margin-bottom="5"
     inkscape:window-width="1920"
     inkscape:window-height="1024"
     inkscape:window-x="0"
     inkscape:window-y="30"
     inkscape:window-maximized="1">
    <sodipodi:guide
       position="142.87683,182.4094"
       orientation="0,1"
       id="guide4155" />
  </sodipodi:namedview>
  <metadata
     id="metadata7">
    <rdf:RDF>
      <cc:Work
         rdf:about="">
        <dc:format>image/svg+xml</dc:format>
        <dc:type
           rdf:resource="http://purl.org/dc/dcmitype/StillImage" />
        <dc:title></dc:title>
      </cc:Work>
    </rdf:RDF>
  </metadata>
  <g
     inkscape:label="Layer 1"
     inkscape:groupmode="layer"
     id="layer1"
     transform="translate(-101.05175,-440.76568)">
    <path
       style="opacity:1;fill:none;fill-opacity:1;stroke:#000000;stroke-width:1;stroke-linejoin:round;stroke-miterlimit:4;stroke-dasharray:none;stroke-dashoffset:0;stroke-opacity:1"
       d="m 339.94564,585.57648 a 30.357143,30.357143 0 0 1 -30.35714,30.35714 30.357143,30.357143 0 0 1 -30.35714,-30.35714 30.357143,30.357143 0 0 1 30.35714,-30.35715 30.357143,30.357143 0 0 1 30.35714,30.35715 z"
       id="path4136" />
    <path
       style="opacity:1;fill:none;fill-opacity:1;stroke:#000000;stroke-width:1;stroke-linejoin:round;stroke-miterlimit:4;stroke-dasharray:none;stroke-dashoffset:0;stroke-opacity:1"
       d="m 499.90869,585.57648 a 30.357143,30.357143 0 0 1 -30.35715,30.35714 30.357143,30.357143 0 0 1 -30.35714,-30.35714 30.357143,30.357143 0 0 1 30.35714,-30.35715 30.357143,30.357143 0 0 1 30.35715,30.35715 z"
       id="path4136-3" />
    <path
       style="opacity:1;fill:none;fill-opacity:1;stroke:#000000;stroke-width:1;stroke-linejoin:round;stroke-miterlimit:4;stroke-dasharray:none;stroke-dashoffset:0;stroke-opacity:1"
       d="m 179.98257,585.57648 a 30.357143,30.357143 0 0 1 -30.35714,30.35714 30.357143,30.357143 0 0 1 -30.35715,-30.35714 30.357143,30.357143 0 0 1 30.35715,-30.35715 30.357143,30.357143 0 0 1 30.35714,30.35715 z"
       id="path4136-6" />
    <path
       style="opacity:1;fill:none;fill-opacity:1;stroke:#000000;stroke-width:1;stroke-linejoin:round;stroke-miterlimit:4;stroke-dasharray:none;stroke-dashoffset:0;stroke-opacity:1"
       d="m 659.87173,585.57648 a 30.357143,30.357143 0 0 1 -30.35714,30.35714 30.357143,30.357143 0 0 1 -30.35715,-30.35714 30.357143,30.357143 0 0 1 30.35715,-30.35715 30.357143,30.357143 0 0 1 30.35714,30.35715 z"
       id="path4136-3-3" />
    <g
       style="font-style:normal;font-weight:normal;font-size:40px;line-height:1000%;font-family:sans-serif;letter-spacing:0px;word-spacing:0px;fill:#000000;fill-opacity:1;stroke:none;stroke-width:1px;stroke-linecap:butt;stroke-linejoin:miter;stroke-opacity:1"
       id="text4183">
      <path
         d="m 144.91293,588.43895 q 0.15,0.15 0.15,0.325 0,2.225 1.425,3.5 1.45,1.25 3.825,1.25 0.3,0 0.4,-0.025 1.1,-0.225 1.775,-1.125 0.7,-0.9 0.7,-2.125 0,-1.075 -0.575,-1.95 -0.55,-0.9 -1.425,-1.2 -1.4,-0.35 -1.85,-0.475 -1.875,-0.45 -1.925,-0.475 -1.45,-0.5 -2.4,-1.75 -0.95,-1.275 -0.95,-2.95 0,-1.5 0.775,-2.675 0.775,-1.175 1.925,-1.75 1,-0.5 2,-0.5 1.975,0 3.2,0.85 0.375,0.25 0.85,0.725 l 0.525,-0.775 q 0.125,-0.175 0.25,-0.375 0.15,-0.2 0.25,-0.325 l 0.075,-0.1 q 0.025,0 0.1,0 0.075,-0.025 0.15,-0.025 0.175,0 0.325,0.15 l 0,5.925 -0.15,0.15 -0.45,0 q -0.275,0 -0.325,-0.075 -0.05,-0.075 -0.125,-0.5 -0.425,-3.15 -2.525,-4.175 -0.925,-0.4 -1.875,-0.4 -1.3,0 -2.15,0.85 -0.825,0.825 -0.825,2.15 0,0.85 0.425,1.575 0.425,0.7 1.2,1.1 0.25,0.125 2.35,0.625 1.775,0.475 1.9,0.525 1.425,0.55 2.325,1.875 0.925,1.3 0.925,3.075 0,2.05 -1.125,3.475 -1.125,1.4 -2.95,1.775 -0.25,0.05 -0.9,0.05 -2.65,0 -4.3,-1.45 -0.125,-0.125 -0.175,-0.1 -0.1,0.125 -0.375,0.525 -0.275,0.375 -0.5,0.675 -0.225,0.325 -0.225,0.35 -0.05,0.025 -0.25,0.025 -0.175,0 -0.325,-0.15 l 0,-2.925 q 0,-2.975 0.025,-3.025 0.05,-0.125 0.5,-0.125 l 0.325,0 z"
         style="font-style:normal;font-variant:normal;font-weight:normal;font-stretch:normal;font-size:25px;font-family:KaTeX_Main;-inkscape-font-specification:KaTeX_Main"
         id="path5277" />
    </g>
    <g
       style="font-style:normal;font-weight:normal;font-size:40px;line-height:1000%;font-family:sans-serif;letter-spacing:0px;word-spacing:0px;fill:#000000;fill-opacity:1;stroke:none;stroke-width:1px;stroke-linecap:butt;stroke-linejoin:miter;stroke-opacity:1"
       id="text4183-5">
      <path
         d="m 621.40208,582.964 q 0.025,-0.05 0.25,-2.85 0.225,-2.8 0.225,-2.85 l 0,-0.15 15.275,0 0,0.15 q 0.025,0.05 0.25,2.85 0.225,2.8 0.225,2.85 l 0,0.15 -1,0 0,-0.15 q -0.025,-0.1 -0.075,-0.6 -0.175,-2.425 -0.8,-3.15 -0.425,-0.525 -1.375,-0.8 -0.525,-0.125 -1.925,-0.125 l -0.675,0 q -0.575,0 -0.725,0.05 -0.125,0.025 -0.2,0.25 -0.025,0.05 -0.025,6.975 l 0,6.9 q 0.2,0.275 0.625,0.35 0.9,0.075 2.25,0.075 l 0.75,0 0,1.15 -0.325,0 q -0.525,-0.075 -4.6,-0.075 -4.075,0 -4.6,0.075 l -0.325,0 0,-1.15 0.75,0 q 1.35,0 2.25,-0.075 0.425,-0.075 0.625,-0.35 l 0,-6.9 q 0,-6.925 -0.025,-6.975 -0.075,-0.225 -0.225,-0.25 -0.125,-0.05 -0.7,-0.05 l -0.675,0 q -1.175,0 -1.425,0.025 -1.075,0.175 -1.7,0.7 -0.8,0.675 -1,3.35 -0.05,0.5 -0.075,0.6 l 0,0.15 -1,0 0,-0.15 z"
         style="font-style:normal;font-variant:normal;font-weight:normal;font-stretch:normal;font-size:25px;font-family:KaTeX_Main;-inkscape-font-specification:KaTeX_Main"
         id="path5280" />
    </g>
    <g
       style="font-style:normal;font-weight:normal;font-size:40px;line-height:1000%;font-family:sans-serif;letter-spacing:0px;word-spacing:0px;fill:#000000;fill-opacity:1;stroke:none;stroke-width:1px;stroke-linecap:butt;stroke-linejoin:miter;stroke-opacity:1"
       id="text4205">
      <path
         d="m 296.4791,591.65771 q -0.315,-0.0525 -2.2225,-0.0525 -1.715,0 -1.96,0.0525 l -0.14,0 0,-0.805 0.28,0 q 0.49,0 0.8575,-0.0525 0.14,-0.0525 0.21,-0.1925 0.0175,-0.035 0.0175,-2.87 l 0,-2.8175 -1.2425,0 0,-0.805 1.2425,0 0,-1.155 0.0175,-1.1725 0.035,-0.175 q 0.28,-0.9625 0.9975,-1.5575 0.7175,-0.595 1.785,-0.7175 0.0175,0 0.1575,0 0.1575,-0.0175 0.245,-0.0175 0.6125,0.035 1.0325,0.4025 0.42,0.3675 0.42,0.9625 0,0.4025 -0.245,0.6475 -0.245,0.245 -0.6475,0.245 -0.4025,0 -0.6475,-0.245 -0.245,-0.245 -0.245,-0.6475 0,-0.315 0.315,-0.7 l -0.07,0 q -0.1575,-0.035 -0.385,0 -0.42,0.07 -0.77,0.4375 -0.3325,0.35 -0.5075,0.875 -0.105,0.35 -0.1225,1.6625 l 0,1.155 1.9425,0 0,0.805 -1.89,0 0,2.8 q 0,2.835 0.0175,2.87 0.07,0.14 0.21,0.175 0.175,0.07 0.9275,0.0875 l 0.5425,0 0,0.805 -0.1575,0 z"
         style="font-style:normal;font-variant:normal;font-weight:normal;font-stretch:normal;font-size:17.5px;font-family:KaTeX_Main;-inkscape-font-specification:KaTeX_Main"
         id="path5283" />
      <path
         d="m 297.69781,590.85271 0.245,0 q 0.6825,0 0.8225,-0.245 l 0,-0.14 q 0,-0.1575 0,-0.4025 0.0175,-0.245 0.0175,-0.5425 0,-0.315 0,-0.6825 0,-0.385 0,-0.735 0,-0.5425 0,-1.155 0,-0.63 0,-1.0325 l -0.0175,-0.4025 q -0.0525,-0.3325 -0.2625,-0.4375 -0.1925,-0.1225 -0.77,-0.1575 l -0.315,0 0,-0.4025 q 0,-0.4025 0.035,-0.4025 l 0.175,-0.0175 q 0.175,-0.0175 0.49,-0.035 0.315,-0.0175 0.63,-0.035 0.28,-0.0175 0.6125,-0.035 0.3325,-0.035 0.5075,-0.0525 0.175,-0.0175 0.1925,-0.0175 l 0.0525,0 0,1.2075 q 0.3325,-0.56 0.735,-0.875 0.4025,-0.315 1.0675,-0.315 0.49,0 0.84,0.1925 0.6825,0.35 0.6825,0.9975 0,0.385 -0.2625,0.6475 -0.2625,0.245 -0.63,0.245 -0.3675,0 -0.63,-0.245 -0.245,-0.245 -0.245,-0.63 0,-0.2975 0.14,-0.49 0.035,-0.07 0.035,-0.0875 -0.035,-0.035 -0.4025,0.07 -0.28,0.14 -0.42,0.2625 -0.7,0.665 -0.805,2.205 l 0,0.6825 q -0.0175,0.6825 -0.0175,1.1725 0,0.2275 0,0.49 0,0.245 0,0.4375 0.0175,0.1925 0.0175,0.35 0,0.1575 0,0.2625 l 0,0.0875 q 0.07,0.14 0.21,0.175 0.175,0.07 0.9275,0.0875 l 0.5425,0 0,0.805 -0.1575,0 q -0.315,-0.0525 -2.2225,-0.0525 -1.715,0 -1.96,0.0525 l -0.14,0 0,-0.805 0.28,0 z"
         style="font-style:normal;font-variant:normal;font-weight:normal;font-stretch:normal;font-size:17.5px;font-family:KaTeX_Main;-inkscape-font-specification:KaTeX_Main"
         id="path5285" />
      <path
         d="m 304.42793,587.91271 q 0,-1.5925 1.015,-2.73 1.015,-1.155 2.4325,-1.33 0.28,-0.035 0.4375,-0.035 1.5225,0 2.6425,1.12 1.225,1.225 1.225,2.9575 0,0.35 -0.0875,0.8225 -0.21,1.1025 -0.9975,1.925 -0.77,0.805 -1.8725,1.085 -0.4025,0.105 -0.91,0.105 -0.525,0 -0.9275,-0.105 -1.3125,-0.3325 -2.135,-1.3825 -0.8225,-1.0675 -0.8225,-2.4325 z m 4.2,-3.43 q -0.0875,-0.0175 -0.28,-0.0175 -0.525,0 -0.9975,0.21 -0.98,0.49 -1.1725,1.9075 -0.035,0.315 -0.035,1.12 0,1.6625 0.3325,2.3625 0.56,1.0675 1.8375,1.0675 2.135,0 2.135,-2.8525 l 0,-0.56 q 0,-1.1375 -0.0875,-1.54 -0.2975,-1.3825 -1.7325,-1.6975 z"
         style="font-style:normal;font-variant:normal;font-weight:normal;font-stretch:normal;font-size:17.5px;font-family:KaTeX_Main;-inkscape-font-specification:KaTeX_Main"
         id="path5287" />
      <path
         d="m 315.97793,590.60771 q 0.14,0.245 0.8225,0.245 l 0.245,0 0.28,0 0,0.805 -0.14,0 q -0.2275,-0.0525 -1.96,-0.0525 -1.7325,0 -1.96,0.0525 l -0.14,0 0,-0.805 0.28,0 0.245,0 q 0.6825,0 0.8225,-0.245 l 0,-0.14 q 0,-0.1575 0,-0.4025 0,-0.245 0,-0.5425 0.0175,-0.315 0.0175,-0.6825 0,-0.385 0,-0.735 0,-0.5425 -0.0175,-1.155 0,-0.63 0,-1.0325 l 0,-0.4025 q -0.0525,-0.3325 -0.2625,-0.4375 -0.1925,-0.1225 -0.77,-0.1575 l -0.315,0 0,-0.4025 q 0,-0.4025 0.035,-0.4025 l 0.175,-0.0175 q 0.175,-0.0175 0.49,-0.035 0.3325,-0.0175 0.6475,-0.035 0.2975,-0.0175 0.63,-0.035 0.3325,-0.035 0.5075,-0.0525 0.175,-0.0175 0.1925,-0.0175 l 0.0525,0 0,0.7 q 0,0.665 0.0175,0.665 l 0.0175,-0.0175 q 0.945,-1.3475 2.6775,-1.3475 1.6975,0.0525 2.0825,1.33 l 0.035,0.0875 q 0.42,-0.525 0.4725,-0.5775 0.8925,-0.84 2.0825,-0.84 2.1875,0 2.3975,1.9775 0.0175,0.1225 0.0175,2.4325 0,2.24 0.0175,2.275 0.07,0.14 0.21,0.1925 0.3675,0.0525 0.8575,0.0525 l 0.28,0 0,0.805 -0.14,0 q -0.2275,-0.0525 -1.96,-0.0525 -1.7325,0 -1.96,0.0525 l -0.14,0 0,-0.805 0.28,0 0.14,0 q 0.9275,0 0.9275,-0.28 0.0175,-0.035 0.0175,-2.415 -0.0175,-2.3625 -0.035,-2.5025 -0.1225,-0.56 -0.4025,-0.805 -0.2625,-0.2625 -0.8225,-0.2625 -0.7875,0 -1.3825,0.595 -0.6125,0.6125 -0.7175,1.54 0,0.0175 -0.0175,0.3325 0,0.2975 0,0.77 0,0.4725 0,0.8925 0,0.2625 0,0.56 0,0.28 0,0.5075 0,0.2275 0,0.42 0.0175,0.175 0.0175,0.2975 l 0,0.105 q 0.14,0.245 0.8225,0.245 l 0.245,0 0.28,0 0,0.805 -0.14,0 q -0.2275,-0.0525 -1.96,-0.0525 -1.7325,0 -1.96,0.0525 l -0.14,0 0,-0.805 0.28,0 0.14,0 q 0.9275,0 0.9275,-0.28 0.0175,-0.035 0.0175,-2.415 -0.0175,-2.3625 -0.035,-2.5025 -0.1225,-0.56 -0.4025,-0.805 -0.2625,-0.2625 -0.8225,-0.2625 -0.7875,0 -1.3825,0.595 -0.6125,0.6125 -0.7175,1.54 0,0.0175 0,0.3325 0,0.2975 -0.0175,0.77 0,0.4725 0,0.8925 0,0.2625 0,0.56 0,0.28 0,0.5075 0.0175,0.2275 0.0175,0.42 0,0.175 0,0.2975 l 0,0.105 z"
         style="font-style:normal;font-variant:normal;font-weight:normal;font-stretch:normal;font-size:17.5px;font-family:KaTeX_Main;-inkscape-font-specification:KaTeX_Main"
         id="path5289" />
    </g>
    <g
       style="font-style:normal;font-weight:normal;font-size:40px;line-height:1000%;font-family:sans-serif;letter-spacing:0px;word-spacing:0px;fill:#000000;fill-opacity:1;stroke:none;stroke-width:1px;stroke-linecap:butt;stroke-linejoin:miter;stroke-opacity:1"
       id="text4205-2">
      <path
         d="m 464.33942,580.37024 0,-0.2625 0.7,0 0,3.22 2.3625,0 0,0.805 -2.3625,0 0,2.52 q 0.0175,2.1875 0.0175,2.485 0.0175,0.28 0.1225,0.5425 0.245,0.6825 0.8575,0.6825 0.77,0 0.945,-1.2425 0.0175,-0.14 0.0175,-0.805 l 0,-0.6125 0.7,0 0,0.6125 q 0,0.805 -0.0875,1.155 -0.1925,0.7 -0.665,1.1375 -0.455,0.4375 -1.2075,0.4375 -0.945,0 -1.505,-0.5075 -0.56,-0.525 -0.6475,-1.4175 -0.0175,-0.1225 -0.0175,-2.59 l 0,-2.3975 -1.3825,0 0,-0.6475 0.1575,0 q 0.6475,-0.0525 1.1025,-0.56 0.805,-0.84 0.8925,-2.555 z"
         style="font-style:normal;font-variant:normal;font-weight:normal;font-stretch:normal;font-size:17.5px;font-family:KaTeX_Main;-inkscape-font-specification:KaTeX_Main"
         id="path5292" />
      <path
         d="m 469.16368,587.12524 q 0,-1.5925 1.015,-2.73 1.015,-1.155 2.4325,-1.33 0.28,-0.035 0.4375,-0.035 1.5225,0 2.6425,1.12 1.225,1.225 1.225,2.9575 0,0.35 -0.0875,0.8225 -0.21,1.1025 -0.9975,1.925 -0.77,0.805 -1.8725,1.085 -0.4025,0.105 -0.91,0.105 -0.525,0 -0.9275,-0.105 -1.3125,-0.3325 -2.135,-1.3825 -0.8225,-1.0675 -0.8225,-2.4325 z m 4.2,-3.43 q -0.0875,-0.0175 -0.28,-0.0175 -0.525,0 -0.9975,0.21 -0.98,0.49 -1.1725,1.9075 -0.035,0.315 -0.035,1.12 0,1.6625 0.3325,2.3625 0.56,1.0675 1.8375,1.0675 2.135,0 2.135,-2.8525 l 0,-0.56 q 0,-1.1375 -0.0875,-1.54 -0.2975,-1.3825 -1.7325,-1.6975 z"
         style="font-style:normal;font-variant:normal;font-weight:normal;font-stretch:normal;font-size:17.5px;font-family:KaTeX_Main;-inkscape-font-specification:KaTeX_Main"
         id="path5294" />
    </g>
    <path
       style="fill:none;fill-rule:evenodd;stroke:#000000;stroke-width:1px;stroke-linecap:butt;stroke-linejoin:miter;stroke-opacity:1;marker-end:url(#marker5117)"
       d="m 339.94564,585.57648 99.24876,0"
       id="path4227" />
    <path
       style="fill:none;fill-rule:evenodd;stroke:#000000;stroke-width:1px;stroke-linecap:butt;stroke-linejoin:miter;stroke-opacity:1;marker-end:url(#Arrow1Lend)"
       d="m 179.98257,585.57648 c 93.96036,-198.76673 242.42547,-72.14282 259.21183,0"
       id="path4229"
       sodipodi:nodetypes="cc" />
    <path
       style="fill:none;fill-rule:evenodd;stroke:#000000;stroke-width:1px;stroke-linecap:butt;stroke-linejoin:miter;stroke-opacity:1;marker-end:url(#marker5207)"
       d="m 339.94564,585.57648 c 4.83472,8.8621 127.99965,252.25254 259.2118,0"
       id="path4231"
       sodipodi:nodetypes="cc" />
    <g
       style="font-style:normal;font-weight:normal;font-size:40px;line-height:1000%;font-family:sans-serif;letter-spacing:0px;word-spacing:0px;fill:#000000;fill-opacity:1;stroke:none;stroke-width:1px;stroke-linecap:butt;stroke-linejoin:miter;stroke-opacity:1"
       id="text5157">
      <path
         d="m 283.69715,471.44221 0.28,0 q 0.78,0 0.94,-0.28 l 0,-0.16 q 0,-0.18 0,-0.46 0,-0.28 0,-0.66 0.02,-0.38 0.02,-0.86 0,-0.5 0,-1 0,-0.52 0,-1.1 0,-0.6 0,-1.14 0,-0.74 0,-1.56 0,-0.84 0,-1.5 0,-0.66 -0.02,-1.2 0,-0.56 0,-0.88 0,-0.32 0,-0.34 -0.06,-0.38 -0.3,-0.5 -0.22,-0.14 -0.88,-0.18 l -0.36,0 0,-0.46 q 0,-0.46 0.04,-0.46 l 0.2,-0.02 q 0.2,-0.02 0.58,-0.04 0.38,-0.02 0.74,-0.04 0.34,-0.02 0.74,-0.04 0.4,-0.04 0.6,-0.06 0.2,-0.02 0.22,-0.02 l 0.06,0 0,6.3 q 0,6.34 0.02,6.38 0.08,0.16 0.24,0.22 0.42,0.06 0.98,0.06 l 0.32,0 0,0.92 -0.16,0 q -0.36,-0.06 -2.2,-0.06 -1.96,0 -2.22,0.06 l -0.16,0 0,-0.92 0.32,0 z"
         style="font-style:normal;font-variant:normal;font-weight:normal;font-stretch:normal;font-size:20px;font-family:KaTeX_Main;-inkscape-font-specification:KaTeX_Main"
         id="path5297" />
      <path
         d="m 288.96402,468.08221 q 0,-1.82 1.16,-3.12 1.16,-1.32 2.78,-1.52 0.32,-0.04 0.5,-0.04 1.74,0 3.02,1.28 1.4,1.4 1.4,3.38 0,0.4 -0.1,0.94 -0.24,1.26 -1.14,2.2 -0.88,0.92 -2.14,1.24 -0.46,0.12 -1.04,0.12 -0.6,0 -1.06,-0.12 -1.5,-0.38 -2.44,-1.58 -0.94,-1.22 -0.94,-2.78 z m 4.8,-3.92 q -0.1,-0.02 -0.32,-0.02 -0.6,0 -1.14,0.24 -1.12,0.56 -1.34,2.18 -0.04,0.36 -0.04,1.28 0,1.9 0.38,2.7 0.64,1.22 2.1,1.22 2.44,0 2.44,-3.26 l 0,-0.64 q 0,-1.3 -0.1,-1.76 -0.34,-1.58 -1.98,-1.94 z"
         style="font-style:normal;font-variant:normal;font-weight:normal;font-stretch:normal;font-size:20px;font-family:KaTeX_Main;-inkscape-font-specification:KaTeX_Main"
         id="path5299" />
      <path
         d="m 307.44402,464.66221 q -0.96,0 -0.96,0.32 0,0.16 0.9,2.72 0.9,2.56 0.94,2.66 l 0.82,-2.38 q 0.84,-2.44 0.84,-2.56 0,-0.34 -0.3,-0.52 -0.28,-0.2 -0.68,-0.24 l -0.16,0 0,-0.92 0.14,0 q 0.26,0.06 1.9,0.06 1.36,0 1.48,-0.06 l 0.1,0 0,0.92 -0.12,0 q -0.02,0 -0.14,0.02 -0.1,0 -0.16,0 -0.94,0.14 -1.26,1 l -2.36,6.74 q -0.08,0.16 -0.44,0.16 -0.38,0 -0.46,-0.14 -0.02,-0.02 -0.98,-2.74 l -0.92,-2.68 q -1.7,4.64 -1.9,5.42 -0.1,0.14 -0.46,0.14 -0.38,0 -0.46,-0.16 l -2.6,-7.42 q -0.14,-0.22 -0.3,-0.26 -0.16,-0.06 -0.7,-0.08 l -0.44,0 0,-0.92 0.12,0 q 0.22,0.06 1.84,0.06 1.8,0 2.1,-0.06 l 0.16,0 0,0.92 -0.28,0 q -0.76,0.04 -0.76,0.34 0,0.02 0.88,2.58 l 0.88,2.52 q 0.02,-0.08 0.12,-0.38 0.12,-0.32 0.3,-0.82 0.18,-0.5 0.36,-1.06 l 0.7,-2.04 -0.12,-0.34 q -0.18,-0.52 -0.24,-0.6 -0.18,-0.18 -0.86,-0.2 l -0.4,0 0,-0.92 0.12,0 q 0.2,0.06 1.68,0.06 1.86,0 2.12,-0.06 l 0.14,0 0,0.92 -0.18,0 z"
         style="font-style:normal;font-variant:normal;font-weight:normal;font-stretch:normal;font-size:20px;font-family:KaTeX_Main;-inkscape-font-specification:KaTeX_Main"
         id="path5301" />
      <path
         d="m 321.15715,467.46221 q 0,0.14 -0.14,0.28 l -5.64,0 0,0.3 q 0,1.48 0.4,2.24 0.72,1.48 2.48,1.48 0.86,0 1.44,-0.64 0.4,-0.4 0.62,-1.04 0.06,-0.22 0.12,-0.28 0.06,-0.06 0.32,-0.06 0.4,0 0.4,0.2 0,0.08 -0.06,0.26 -0.38,1.04 -1.22,1.72 -0.82,0.66 -2.02,0.66 -0.38,0 -0.88,-0.1 -1.14,-0.22 -2.04,-1.04 -0.9,-0.82 -1.28,-1.98 -0.24,-0.72 -0.24,-1.46 0,-1.84 1.08,-3.1 1.08,-1.28 2.66,-1.48 0.08,-0.02 0.28,-0.02 1.82,0 2.76,1.08 0.96,1.06 0.96,2.98 z m -1.64,-0.6 q -0.18,-2.18 -1.48,-2.64 -0.14,-0.06 -0.42,-0.08 -1.04,0 -1.7,0.96 -0.4,0.64 -0.52,1.78 l 0,0.14 4.12,0 0,-0.16 z"
         style="font-style:normal;font-variant:normal;font-weight:normal;font-stretch:normal;font-size:20px;font-family:KaTeX_Main;-inkscape-font-specification:KaTeX_Main"
         id="path5303" />
      <path
         d="m 322.44433,471.44221 0.28,0 q 0.78,0 0.94,-0.28 l 0,-0.16 q 0,-0.18 0,-0.46 0.02,-0.28 0.02,-0.62 0,-0.36 0,-0.78 0,-0.44 0,-0.84 0,-0.62 0,-1.32 0,-0.72 0,-1.18 l -0.02,-0.46 q -0.06,-0.38 -0.3,-0.5 -0.22,-0.14 -0.88,-0.18 l -0.36,0 0,-0.46 q 0,-0.46 0.04,-0.46 l 0.2,-0.02 q 0.2,-0.02 0.56,-0.04 0.36,-0.02 0.72,-0.04 0.32,-0.02 0.7,-0.04 0.38,-0.04 0.58,-0.06 0.2,-0.02 0.22,-0.02 l 0.06,0 0,1.38 q 0.38,-0.64 0.84,-1 0.46,-0.36 1.22,-0.36 0.56,0 0.96,0.22 0.78,0.4 0.78,1.14 0,0.44 -0.3,0.74 -0.3,0.28 -0.72,0.28 -0.42,0 -0.72,-0.28 -0.28,-0.28 -0.28,-0.72 0,-0.34 0.16,-0.56 0.04,-0.08 0.04,-0.1 -0.04,-0.04 -0.46,0.08 -0.32,0.16 -0.48,0.3 -0.8,0.76 -0.92,2.52 l 0,0.78 q -0.02,0.78 -0.02,1.34 0,0.26 0,0.56 0,0.28 0,0.5 0.02,0.22 0.02,0.4 0,0.18 0,0.3 l 0,0.1 q 0.08,0.16 0.24,0.2 0.2,0.08 1.06,0.1 l 0.62,0 0,0.92 -0.18,0 q -0.36,-0.06 -2.54,-0.06 -1.96,0 -2.24,0.06 l -0.16,0 0,-0.92 0.32,0 z"
         style="font-style:normal;font-variant:normal;font-weight:normal;font-stretch:normal;font-size:20px;font-family:KaTeX_Main;-inkscape-font-specification:KaTeX_Main"
         id="path5305" />
    </g>
    <g
       style="font-style:normal;font-weight:normal;font-size:40px;line-height:1000%;font-family:sans-serif;letter-spacing:0px;word-spacing:0px;fill:#000000;fill-opacity:1;stroke:none;stroke-width:1px;stroke-linecap:butt;stroke-linejoin:miter;stroke-opacity:1"
       id="text5157-1">
      <path
         d="m 450.36353,718.2722 0.28,0 q 0.78,0 0.94,-0.28 l 0,-0.16 q 0,-0.18 0,-0.46 0,-0.28 0,-0.66 0.02,-0.38 0.02,-0.86 0,-0.5 0,-1 0,-0.52 0,-1.1 0,-0.6 0,-1.14 0,-0.74 0,-1.56 0,-0.84 0,-1.5 0,-0.66 -0.02,-1.2 0,-0.56 0,-0.88 0,-0.32 0,-0.34 -0.06,-0.38 -0.3,-0.5 -0.22,-0.14 -0.88,-0.18 l -0.36,0 0,-0.46 q 0,-0.46 0.04,-0.46 l 0.2,-0.02 q 0.2,-0.02 0.58,-0.04 0.38,-0.02 0.74,-0.04 0.34,-0.02 0.74,-0.04 0.4,-0.04 0.6,-0.06 0.2,-0.02 0.22,-0.02 l 0.06,0 0,6.3 q 0,6.34 0.02,6.38 0.08,0.16 0.24,0.22 0.42,0.06 0.98,0.06 l 0.32,0 0,0.92 -0.16,0 q -0.36,-0.06 -2.2,-0.06 -1.96,0 -2.22,0.06 l -0.16,0 0,-0.92 0.32,0 z"
         style="font-style:normal;font-variant:normal;font-weight:normal;font-stretch:normal;font-size:20px;font-family:KaTeX_Main;-inkscape-font-specification:KaTeX_Main"
         id="path5308" />
      <path
         d="m 455.6304,714.9122 q 0,-1.82 1.16,-3.12 1.16,-1.32 2.78,-1.52 0.32,-0.04 0.5,-0.04 1.74,0 3.02,1.28 1.4,1.4 1.4,3.38 0,0.4 -0.1,0.94 -0.24,1.26 -1.14,2.2 -0.88,0.92 -2.14,1.24 -0.46,0.12 -1.04,0.12 -0.6,0 -1.06,-0.12 -1.5,-0.38 -2.44,-1.58 -0.94,-1.22 -0.94,-2.78 z m 4.8,-3.92 q -0.1,-0.02 -0.32,-0.02 -0.6,0 -1.14,0.24 -1.12,0.56 -1.34,2.18 -0.04,0.36 -0.04,1.28 0,1.9 0.38,2.7 0.64,1.22 2.1,1.22 2.44,0 2.44,-3.26 l 0,-0.64 q 0,-1.3 -0.1,-1.76 -0.34,-1.58 -1.98,-1.94 z"
         style="font-style:normal;font-variant:normal;font-weight:normal;font-stretch:normal;font-size:20px;font-family:KaTeX_Main;-inkscape-font-specification:KaTeX_Main"
         id="path5310" />
      <path
         d="m 474.1104,711.4922 q -0.96,0 -0.96,0.32 0,0.16 0.9,2.72 0.9,2.56 0.94,2.66 l 0.82,-2.38 q 0.84,-2.44 0.84,-2.56 0,-0.34 -0.3,-0.52 -0.28,-0.2 -0.68,-0.24 l -0.16,0 0,-0.92 0.14,0 q 0.26,0.06 1.9,0.06 1.36,0 1.48,-0.06 l 0.1,0 0,0.92 -0.12,0 q -0.02,0 -0.14,0.02 -0.1,0 -0.16,0 -0.94,0.14 -1.26,1 l -2.36,6.74 q -0.08,0.16 -0.44,0.16 -0.38,0 -0.46,-0.14 -0.02,-0.02 -0.98,-2.74 l -0.92,-2.68 q -1.7,4.64 -1.9,5.42 -0.1,0.14 -0.46,0.14 -0.38,0 -0.46,-0.16 l -2.6,-7.42 q -0.14,-0.22 -0.3,-0.26 -0.16,-0.06 -0.7,-0.08 l -0.44,0 0,-0.92 0.12,0 q 0.22,0.06 1.84,0.06 1.8,0 2.1,-0.06 l 0.16,0 0,0.92 -0.28,0 q -0.76,0.04 -0.76,0.34 0,0.02 0.88,2.58 l 0.88,2.52 q 0.02,-0.08 0.12,-0.38 0.12,-0.32 0.3,-0.82 0.18,-0.5 0.36,-1.06 l 0.7,-2.04 -0.12,-0.34 q -0.18,-0.52 -0.24,-0.6 -0.18,-0.18 -0.86,-0.2 l -0.4,0 0,-0.92 0.12,0 q 0.2,0.06 1.68,0.06 1.86,0 2.12,-0.06 l 0.14,0 0,0.92 -0.18,0 z"
         style="font-style:normal;font-variant:normal;font-weight:normal;font-stretch:normal;font-size:20px;font-family:KaTeX_Main;-inkscape-font-specification:KaTeX_Main"
         id="path5312" />
      <path
         d="m 487.82353,714.2922 q 0,0.14 -0.14,0.28 l -5.64,0 0,0.3 q 0,1.48 0.4,2.24 0.72,1.48 2.48,1.48 0.86,0 1.44,-0.64 0.4,-0.4 0.62,-1.04 0.06,-0.22 0.12,-0.28 0.06,-0.06 0.32,-0.06 0.4,0 0.4,0.2 0,0.08 -0.06,0.26 -0.38,1.04 -1.22,1.72 -0.82,0.66 -2.02,0.66 -0.38,0 -0.88,-0.1 -1.14,-0.22 -2.04,-1.04 -0.9,-0.82 -1.28,-1.98 -0.24,-0.72 -0.24,-1.46 0,-1.84 1.08,-3.1 1.08,-1.28 2.66,-1.48 0.08,-0.02 0.28,-0.02 1.82,0 2.76,1.08 0.96,1.06 0.96,2.98 z m -1.64,-0.6 q -0.18,-2.18 -1.48,-2.64 -0.14,-0.06 -0.42,-0.08 -1.04,0 -1.7,0.96 -0.4,0.64 -0.52,1.78 l 0,0.14 4.12,0 0,-0.16 z"
         style="font-style:normal;font-variant:normal;font-weight:normal;font-stretch:normal;font-size:20px;font-family:KaTeX_Main;-inkscape-font-specification:KaTeX_Main"
         id="path5314" />
      <path
         d="m 489.11072,718.2722 0.28,0 q 0.78,0 0.94,-0.28 l 0,-0.16 q 0,-0.18 0,-0.46 0.02,-0.28 0.02,-0.62 0,-0.36 0,-0.78 0,-0.44 0,-0.84 0,-0.62 0,-1.32 0,-0.72 0,-1.18 l -0.02,-0.46 q -0.06,-0.38 -0.3,-0.5 -0.22,-0.14 -0.88,-0.18 l -0.36,0 0,-0.46 q 0,-0.46 0.04,-0.46 l 0.2,-0.02 q 0.2,-0.02 0.56,-0.04 0.36,-0.02 0.72,-0.04 0.32,-0.02 0.7,-0.04 0.38,-0.04 0.58,-0.06 0.2,-0.02 0.22,-0.02 l 0.06,0 0,1.38 q 0.38,-0.64 0.84,-1 0.46,-0.36 1.22,-0.36 0.56,0 0.96,0.22 0.78,0.4 0.78,1.14 0,0.44 -0.3,0.74 -0.3,0.28 -0.72,0.28 -0.42,0 -0.72,-0.28 -0.28,-0.28 -0.28,-0.72 0,-0.34 0.16,-0.56 0.04,-0.08 0.04,-0.1 -0.04,-0.04 -0.46,0.08 -0.32,0.16 -0.48,0.3 -0.8,0.76 -0.92,2.52 l 0,0.78 q -0.02,0.78 -0.02,1.34 0,0.26 0,0.56 0,0.28 0,0.5 0.02,0.22 0.02,0.4 0,0.18 0,0.3 l 0,0.1 q 0.08,0.16 0.24,0.2 0.2,0.08 1.06,0.1 l 0.62,0 0,0.92 -0.18,0 q -0.36,-0.06 -2.54,-0.06 -1.96,0 -2.24,0.06 l -0.16,0 0,-0.92 0.32,0 z"
         style="font-style:normal;font-variant:normal;font-weight:normal;font-stretch:normal;font-size:20px;font-family:KaTeX_Main;-inkscape-font-specification:KaTeX_Main"
         id="path5316" />
    </g>
    <g
       style="font-style:normal;font-weight:normal;font-size:15px;line-height:1000%;font-family:sans-serif;letter-spacing:0px;word-spacing:0px;fill:#000000;fill-opacity:1;stroke:none;stroke-width:1px;stroke-linecap:butt;stroke-linejoin:miter;stroke-opacity:1"
       id="text5157-7">
      <path
         d="m 341.29775,572.24186 q 0.255,-0.015 0.555,-0.03 0.3,-0.03 0.45,-0.045 0.165,-0.015 0.18,-0.015 l 0.045,0 0,2.715 q 0.015,2.76 0.03,2.85 0.06,0.315 0.225,0.465 0.3,0.21 0.9,0.21 0.42,0 0.705,-0.135 0.87,-0.42 1.02,-1.635 0,-0.015 0,-0.255 0.015,-0.24 0.015,-0.6 0,-0.375 0,-0.705 0,-0.33 0,-0.69 0,-0.375 0,-0.615 l -0.015,-0.24 q -0.045,-0.285 -0.225,-0.375 -0.165,-0.105 -0.66,-0.135 l -0.27,0 0,-0.69 q 0.03,0 1.14,-0.075 1.125,-0.075 1.185,-0.09 l 0.105,0 0,2.67 q 0,2.7 0.015,2.745 0.045,0.3 0.21,0.405 0.18,0.09 0.675,0.12 l 0.27,0 0,0.69 q -0.03,0 -1.125,0.075 -1.095,0.075 -1.155,0.09 l -0.105,0 0,-1.035 q -0.63,0.765 -1.215,0.915 -0.285,0.105 -0.795,0.105 -0.96,0 -1.485,-0.345 -0.525,-0.36 -0.675,-1.14 -0.015,-0.105 -0.03,-2.055 -0.015,-1.635 -0.03,-1.83 0,-0.195 -0.075,-0.315 -0.15,-0.24 -0.9,-0.24 l -0.165,0 0,-0.345 q 0,-0.345 0.03,-0.345 l 0.165,-0.015 q 0.15,-0.015 0.435,-0.03 0.285,-0.015 0.57,-0.03 z"
         style="font-style:normal;font-variant:normal;font-weight:normal;font-stretch:normal;font-size:15px;font-family:KaTeX_Main;-inkscape-font-specification:KaTeX_Main"
         id="path5319" />
      <path
         d="m 348.61236,581.00186 0.21,0 q 0.585,0 0.705,-0.21 l 0,-0.12 q 0,-0.105 0,-0.3 0,-0.18 0,-0.435 0.015,-0.255 0.015,-0.585 0,-0.33 0,-0.66 0,-0.345 0,-0.735 0,-0.405 0,-0.765 0,-0.51 0,-1.065 0,-0.555 0,-0.99 0,-0.435 -0.015,-0.795 0,-0.375 0,-0.585 0,-0.225 0,-0.24 -0.045,-0.285 -0.225,-0.375 -0.165,-0.105 -0.66,-0.135 l -0.27,0 0,-0.345 q 0,-0.345 0.03,-0.345 l 0.15,-0.015 q 0.15,-0.015 0.435,-0.03 0.285,-0.015 0.555,-0.03 0.255,-0.015 0.555,-0.03 0.3,-0.03 0.45,-0.045 0.15,-0.015 0.165,-0.015 l 0.045,0 0,0.39 0.015,0.39 0.12,-0.105 q 0.915,-0.66 2.07,-0.66 0.33,0 0.48,0.03 1.05,0.21 1.755,1.125 0.705,0.915 0.705,2.22 0,0.285 -0.03,0.525 -0.15,0.975 -0.735,1.68 -0.57,0.705 -1.485,1.05 -0.45,0.15 -0.93,0.15 -1.02,0 -1.8,-0.66 l -0.12,-0.105 0,1.275 q 0,1.305 0.015,1.335 0.06,0.12 0.18,0.165 0.315,0.045 0.735,0.045 l 0.24,0 0,0.69 -0.12,0 q -0.195,-0.045 -1.68,-0.045 -1.485,0 -1.68,0.045 l -0.12,0 0,-0.69 0.24,0 z m 5.82,-5.49 q 0,-1.035 -0.465,-1.83 -0.45,-0.795 -1.11,-0.915 -0.03,0 -0.105,0 -0.06,-0.015 -0.105,-0.015 -1.065,0 -1.845,0.975 l 0,3.585 q 0.615,1.08 1.68,1.08 0.63,0 1.14,-0.555 0.81,-0.84 0.81,-2.325 z"
         style="font-style:normal;font-variant:normal;font-weight:normal;font-stretch:normal;font-size:15px;font-family:KaTeX_Main;-inkscape-font-specification:KaTeX_Main"
         id="path5321" />
      <path
         d="m 356.96197,581.00186 0.21,0 q 0.585,0 0.705,-0.21 l 0,-0.12 q 0,-0.105 0,-0.3 0,-0.18 0,-0.435 0.015,-0.255 0.015,-0.585 0,-0.33 0,-0.66 0,-0.345 0,-0.735 0,-0.405 0,-0.765 0,-0.51 0,-1.065 0,-0.555 0,-0.99 0,-0.435 -0.015,-0.795 0,-0.375 0,-0.585 0,-0.225 0,-0.24 -0.045,-0.285 -0.225,-0.375 -0.165,-0.105 -0.66,-0.135 l -0.27,0 0,-0.345 q 0,-0.345 0.03,-0.345 l 0.15,-0.015 q 0.15,-0.015 0.435,-0.03 0.285,-0.015 0.555,-0.03 0.255,-0.015 0.555,-0.03 0.3,-0.03 0.45,-0.045 0.15,-0.015 0.165,-0.015 l 0.045,0 0,0.39 0.015,0.39 0.12,-0.105 q 0.915,-0.66 2.07,-0.66 0.33,0 0.48,0.03 1.05,0.21 1.755,1.125 0.705,0.915 0.705,2.22 0,0.285 -0.03,0.525 -0.15,0.975 -0.735,1.68 -0.57,0.705 -1.485,1.05 -0.45,0.15 -0.93,0.15 -1.02,0 -1.8,-0.66 l -0.12,-0.105 0,1.275 q 0,1.305 0.015,1.335 0.06,0.12 0.18,0.165 0.315,0.045 0.735,0.045 l 0.24,0 0,0.69 -0.12,0 q -0.195,-0.045 -1.68,-0.045 -1.485,0 -1.68,0.045 l -0.12,0 0,-0.69 0.24,0 z m 5.82,-5.49 q 0,-1.035 -0.465,-1.83 -0.45,-0.795 -1.11,-0.915 -0.03,0 -0.105,0 -0.06,-0.015 -0.105,-0.015 -1.065,0 -1.845,0.975 l 0,3.585 q 0.615,1.08 1.68,1.08 0.63,0 1.14,-0.555 0.81,-0.84 0.81,-2.325 z"
         style="font-style:normal;font-variant:normal;font-weight:normal;font-stretch:normal;font-size:15px;font-family:KaTeX_Main;-inkscape-font-specification:KaTeX_Main"
         id="path5323" />
      <path
         d="m 370.99658,575.10686 q 0,0.105 -0.105,0.21 l -4.23,0 0,0.225 q 0,1.11 0.3,1.68 0.54,1.11 1.86,1.11 0.645,0 1.08,-0.48 0.3,-0.3 0.465,-0.78 0.045,-0.165 0.09,-0.21 0.045,-0.045 0.24,-0.045 0.3,0 0.3,0.15 0,0.06 -0.045,0.195 -0.285,0.78 -0.915,1.29 -0.615,0.495 -1.515,0.495 -0.285,0 -0.66,-0.075 -0.855,-0.165 -1.53,-0.78 -0.675,-0.615 -0.96,-1.485 -0.18,-0.54 -0.18,-1.095 0,-1.38 0.81,-2.325 0.81,-0.96 1.995,-1.11 0.06,-0.015 0.21,-0.015 1.365,0 2.07,0.81 0.72,0.795 0.72,2.235 z m -1.23,-0.45 q -0.135,-1.635 -1.11,-1.98 -0.105,-0.045 -0.315,-0.06 -0.78,0 -1.275,0.72 -0.3,0.48 -0.39,1.335 l 0,0.105 3.09,0 0,-0.12 z"
         style="font-style:normal;font-variant:normal;font-weight:normal;font-stretch:normal;font-size:15px;font-family:KaTeX_Main;-inkscape-font-specification:KaTeX_Main"
         id="path5325" />
      <path
         d="m 371.96197,578.09186 0.21,0 q 0.585,0 0.705,-0.21 l 0,-0.12 q 0,-0.135 0,-0.345 0.015,-0.21 0.015,-0.465 0,-0.27 0,-0.585 0,-0.33 0,-0.63 0,-0.465 0,-0.99 0,-0.54 0,-0.885 l -0.015,-0.345 q -0.045,-0.285 -0.225,-0.375 -0.165,-0.105 -0.66,-0.135 l -0.27,0 0,-0.345 q 0,-0.345 0.03,-0.345 l 0.15,-0.015 q 0.15,-0.015 0.42,-0.03 0.27,-0.015 0.54,-0.03 0.24,-0.015 0.525,-0.03 0.285,-0.03 0.435,-0.045 0.15,-0.015 0.165,-0.015 l 0.045,0 0,1.035 q 0.285,-0.48 0.63,-0.75 0.345,-0.27 0.915,-0.27 0.42,0 0.72,0.165 0.585,0.3 0.585,0.855 0,0.33 -0.225,0.555 -0.225,0.21 -0.54,0.21 -0.315,0 -0.54,-0.21 -0.21,-0.21 -0.21,-0.54 0,-0.255 0.12,-0.42 0.03,-0.06 0.03,-0.075 -0.03,-0.03 -0.345,0.06 -0.24,0.12 -0.36,0.225 -0.6,0.57 -0.69,1.89 l 0,0.585 q -0.015,0.585 -0.015,1.005 0,0.195 0,0.42 0,0.21 0,0.375 0.015,0.165 0.015,0.3 0,0.135 0,0.225 l 0,0.075 q 0.06,0.12 0.18,0.15 0.15,0.06 0.795,0.075 l 0.465,0 0,0.69 -0.135,0 q -0.27,-0.045 -1.905,-0.045 -1.47,0 -1.68,0.045 l -0.12,0 0,-0.69 0.24,0 z"
         style="font-style:normal;font-variant:normal;font-weight:normal;font-stretch:normal;font-size:15px;font-family:KaTeX_Main;-inkscape-font-specification:KaTeX_Main"
         id="path5327" />
      <path
         d="m 382.53064,575.33186 q -0.21,-0.105 -0.21,-0.3 0,-0.195 0.21,-0.3 l 8.715,0 q 0.225,0.12 0.225,0.3 0,0.18 -0.225,0.3 l -8.715,0 z"
         style="font-style:normal;font-variant:normal;font-weight:normal;font-stretch:normal;font-size:15px;font-family:KaTeX_Main;-inkscape-font-specification:KaTeX_Main"
         id="path5329" />
      <path
         d="m 397.10079,578.09186 0.21,0 q 0.585,0 0.705,-0.21 l 0,-0.12 q 0,-0.135 0,-0.345 0,-0.21 0,-0.495 0.015,-0.285 0.015,-0.645 0,-0.375 0,-0.75 0,-0.39 0,-0.825 0,-0.45 0,-0.855 0,-0.555 0,-1.17 0,-0.63 0,-1.125 0,-0.495 -0.015,-0.9 0,-0.42 0,-0.66 0,-0.24 0,-0.255 -0.045,-0.285 -0.225,-0.375 -0.165,-0.105 -0.66,-0.135 l -0.27,0 0,-0.345 q 0,-0.345 0.03,-0.345 l 0.15,-0.015 q 0.15,-0.015 0.435,-0.03 0.285,-0.015 0.555,-0.03 0.255,-0.015 0.555,-0.03 0.3,-0.03 0.45,-0.045 0.15,-0.015 0.165,-0.015 l 0.045,0 0,4.725 q 0,4.755 0.015,4.785 0.06,0.12 0.18,0.165 0.315,0.045 0.735,0.045 l 0.24,0 0,0.69 -0.12,0 q -0.27,-0.045 -1.65,-0.045 -1.47,0 -1.665,0.045 l -0.12,0 0,-0.69 0.24,0 z"
         style="font-style:normal;font-variant:normal;font-weight:normal;font-stretch:normal;font-size:15px;font-family:KaTeX_Main;-inkscape-font-specification:KaTeX_Main"
         id="path5331" />
      <path
         d="m 401.05095,575.57186 q 0,-1.365 0.87,-2.34 0.87,-0.99 2.085,-1.14 0.24,-0.03 0.375,-0.03 1.305,0 2.265,0.96 1.05,1.05 1.05,2.535 0,0.3 -0.075,0.705 -0.18,0.945 -0.855,1.65 -0.66,0.69 -1.605,0.93 -0.345,0.09 -0.78,0.09 -0.45,0 -0.795,-0.09 -1.125,-0.285 -1.83,-1.185 -0.705,-0.915 -0.705,-2.085 z m 3.6,-2.94 q -0.075,-0.015 -0.24,-0.015 -0.45,0 -0.855,0.18 -0.84,0.42 -1.005,1.635 -0.03,0.27 -0.03,0.96 0,1.425 0.285,2.025 0.48,0.915 1.575,0.915 1.83,0 1.83,-2.445 l 0,-0.48 q 0,-0.975 -0.075,-1.32 -0.255,-1.185 -1.485,-1.455 z"
         style="font-style:normal;font-variant:normal;font-weight:normal;font-stretch:normal;font-size:15px;font-family:KaTeX_Main;-inkscape-font-specification:KaTeX_Main"
         id="path5333" />
      <path
         d="m 414.91095,573.00686 q -0.72,0 -0.72,0.24 0,0.12 0.675,2.04 0.675,1.92 0.705,1.995 l 0.615,-1.785 q 0.63,-1.83 0.63,-1.92 0,-0.255 -0.225,-0.39 -0.21,-0.15 -0.51,-0.18 l -0.12,0 0,-0.69 0.105,0 q 0.195,0.045 1.425,0.045 1.02,0 1.11,-0.045 l 0.075,0 0,0.69 -0.09,0 q -0.015,0 -0.105,0.015 -0.075,0 -0.12,0 -0.705,0.105 -0.945,0.75 l -1.77,5.055 q -0.06,0.12 -0.33,0.12 -0.285,0 -0.345,-0.105 -0.015,-0.015 -0.735,-2.055 l -0.69,-2.01 q -1.275,3.48 -1.425,4.065 -0.075,0.105 -0.345,0.105 -0.285,0 -0.345,-0.12 l -1.95,-5.565 q -0.105,-0.165 -0.225,-0.195 -0.12,-0.045 -0.525,-0.06 l -0.33,0 0,-0.69 0.09,0 q 0.165,0.045 1.38,0.045 1.35,0 1.575,-0.045 l 0.12,0 0,0.69 -0.21,0 q -0.57,0.03 -0.57,0.255 0,0.015 0.66,1.935 l 0.66,1.89 q 0.015,-0.06 0.09,-0.285 0.09,-0.24 0.225,-0.615 0.135,-0.375 0.27,-0.795 l 0.525,-1.53 -0.09,-0.255 q -0.135,-0.39 -0.18,-0.45 -0.135,-0.135 -0.645,-0.15 l -0.3,0 0,-0.69 0.09,0 q 0.15,0.045 1.26,0.045 1.395,0 1.59,-0.045 l 0.105,0 0,0.69 -0.135,0 z"
         style="font-style:normal;font-variant:normal;font-weight:normal;font-stretch:normal;font-size:15px;font-family:KaTeX_Main;-inkscape-font-specification:KaTeX_Main"
         id="path5335" />
      <path
         d="m 425.19579,575.10686 q 0,0.105 -0.105,0.21 l -4.23,0 0,0.225 q 0,1.11 0.3,1.68 0.54,1.11 1.86,1.11 0.645,0 1.08,-0.48 0.3,-0.3 0.465,-0.78 0.045,-0.165 0.09,-0.21 0.045,-0.045 0.24,-0.045 0.3,0 0.3,0.15 0,0.06 -0.045,0.195 -0.285,0.78 -0.915,1.29 -0.615,0.495 -1.515,0.495 -0.285,0 -0.66,-0.075 -0.855,-0.165 -1.53,-0.78 -0.675,-0.615 -0.96,-1.485 -0.18,-0.54 -0.18,-1.095 0,-1.38 0.81,-2.325 0.81,-0.96 1.995,-1.11 0.06,-0.015 0.21,-0.015 1.365,0 2.07,0.81 0.72,0.795 0.72,2.235 z m -1.23,-0.45 q -0.135,-1.635 -1.11,-1.98 -0.105,-0.045 -0.315,-0.06 -0.78,0 -1.275,0.72 -0.3,0.48 -0.39,1.335 l 0,0.105 3.09,0 0,-0.12 z"
         style="font-style:normal;font-variant:normal;font-weight:normal;font-stretch:normal;font-size:15px;font-family:KaTeX_Main;-inkscape-font-specification:KaTeX_Main"
         id="path5337" />
      <path
         d="m 426.16119,578.09186 0.21,0 q 0.585,0 0.705,-0.21 l 0,-0.12 q 0,-0.135 0,-0.345 0.015,-0.21 0.015,-0.465 0,-0.27 0,-0.585 0,-0.33 0,-0.63 0,-0.465 0,-0.99 0,-0.54 0,-0.885 l -0.015,-0.345 q -0.045,-0.285 -0.225,-0.375 -0.165,-0.105 -0.66,-0.135 l -0.27,0 0,-0.345 q 0,-0.345 0.03,-0.345 l 0.15,-0.015 q 0.15,-0.015 0.42,-0.03 0.27,-0.015 0.54,-0.03 0.24,-0.015 0.525,-0.03 0.285,-0.03 0.435,-0.045 0.15,-0.015 0.165,-0.015 l 0.045,0 0,1.035 q 0.285,-0.48 0.63,-0.75 0.345,-0.27 0.915,-0.27 0.42,0 0.72,0.165 0.585,0.3 0.585,0.855 0,0.33 -0.225,0.555 -0.225,0.21 -0.54,0.21 -0.315,0 -0.54,-0.21 -0.21,-0.21 -0.21,-0.54 0,-0.255 0.12,-0.42 0.03,-0.06 0.03,-0.075 -0.03,-0.03 -0.345,0.06 -0.24,0.12 -0.36,0.225 -0.6,0.57 -0.69,1.89 l 0,0.585 q -0.015,0.585 -0.015,1.005 0,0.195 0,0.42 0,0.21 0,0.375 0.015,0.165 0.015,0.3 0,0.135 0,0.225 l 0,0.075 q 0.06,0.12 0.18,0.15 0.15,0.06 0.795,0.075 l 0.465,0 0,0.69 -0.135,0 q -0.27,-0.045 -1.905,-0.045 -1.47,0 -1.68,0.045 l -0.12,0 0,-0.69 0.24,0 z"
         style="font-style:normal;font-variant:normal;font-weight:normal;font-stretch:normal;font-size:15px;font-family:KaTeX_Main;-inkscape-font-specification:KaTeX_Main"
         id="path5339" />
    </g>
  </g>
</svg>
