<?xml version="1.0" encoding="UTF-8" standalone="no"?>
<!-- Created with Inkscape (http://www.inkscape.org/) -->

<svg
   xmlns:dc="http://purl.org/dc/elements/1.1/"
   xmlns:cc="http://creativecommons.org/ns#"
   xmlns:rdf="http://www.w3.org/1999/02/22-rdf-syntax-ns#"
   xmlns:svg="http://www.w3.org/2000/svg"
   xmlns="http://www.w3.org/2000/svg"
   xmlns:sodipodi="http://sodipodi.sourceforge.net/DTD/sodipodi-0.dtd"
   xmlns:inkscape="http://www.inkscape.org/namespaces/inkscape"
   width="165.82697mm"
   height="94.688293mm"
   viewBox="0 0 587.57586 335.5097"
   id="svg2"
   version="1.1"
   inkscape:version="0.91 r13725"
   sodipodi:docname="4.svg">
  <defs
     id="defs4">
    <marker
       inkscape:isstock="true"
       style="overflow:visible"
       id="marker4450"
       refX="0"
       refY="0"
       orient="auto"
       inkscape:stockid="Arrow1Mend">
      <path
         transform="matrix(-0.4,0,0,-0.4,-4,0)"
         style="fill:#b6b6b6;fill-opacity:1;fill-rule:evenodd;stroke:#b6b6b6;stroke-width:1pt;stroke-opacity:1"
         d="M 0,0 5,-5 -12.5,0 5,5 0,0 Z"
         id="path4452"
         inkscape:connector-curvature="0" />
    </marker>
    <marker
       inkscape:stockid="Arrow1Mend"
       orient="auto"
       refY="0"
       refX="0"
       id="marker4321"
       style="overflow:visible"
       inkscape:isstock="true"
       inkscape:collect="always">
      <path
         inkscape:connector-curvature="0"
         id="path4323"
         d="M 0,0 5,-5 -12.5,0 5,5 0,0 Z"
         style="fill:#000000;fill-opacity:1;fill-rule:evenodd;stroke:#000000;stroke-width:1pt;stroke-opacity:1"
         transform="matrix(-0.4,0,0,-0.4,-4,0)" />
    </marker>
    <marker
       inkscape:isstock="true"
       style="overflow:visible"
       id="marker5705"
       refX="0"
       refY="0"
       orient="auto"
       inkscape:stockid="Arrow1Mend"
       inkscape:collect="always">
      <path
         transform="matrix(-0.4,0,0,-0.4,-4,0)"
         style="fill:#000000;fill-opacity:1;fill-rule:evenodd;stroke:#000000;stroke-width:1pt;stroke-opacity:1"
         d="M 0,0 5,-5 -12.5,0 5,5 0,0 Z"
         id="path5707"
         inkscape:connector-curvature="0" />
    </marker>
    <marker
       inkscape:isstock="true"
       style="overflow:visible"
       id="marker5623"
       refX="0"
       refY="0"
       orient="auto"
       inkscape:stockid="Arrow1Mend">
      <path
         transform="matrix(-0.4,0,0,-0.4,-4,0)"
         style="fill:#000000;fill-opacity:1;fill-rule:evenodd;stroke:#000000;stroke-width:1pt;stroke-opacity:1"
         d="M 0,0 5,-5 -12.5,0 5,5 0,0 Z"
         id="path5625"
         inkscape:connector-curvature="0" />
    </marker>
    <marker
       inkscape:stockid="Arrow1Mend"
       orient="auto"
       refY="0"
       refX="0"
       id="marker5367"
       style="overflow:visible"
       inkscape:isstock="true"
       inkscape:collect="always">
      <path
         id="path5369"
         d="M 0,0 5,-5 -12.5,0 5,5 0,0 Z"
         style="fill:#000000;fill-opacity:1;fill-rule:evenodd;stroke:#000000;stroke-width:1pt;stroke-opacity:1"
         transform="matrix(-0.4,0,0,-0.4,-4,0)"
         inkscape:connector-curvature="0" />
    </marker>
    <marker
       inkscape:stockid="Arrow1Mend"
       orient="auto"
       refY="0"
       refX="0"
       id="marker5297"
       style="overflow:visible"
       inkscape:isstock="true">
      <path
         id="path5299"
         d="M 0,0 5,-5 -12.5,0 5,5 0,0 Z"
         style="fill:#000000;fill-opacity:1;fill-rule:evenodd;stroke:#000000;stroke-width:1pt;stroke-opacity:1"
         transform="matrix(-0.4,0,0,-0.4,-4,0)"
         inkscape:connector-curvature="0" />
    </marker>
    <marker
       inkscape:stockid="Arrow1Mend"
       orient="auto"
       refY="0"
       refX="0"
       id="marker5233"
       style="overflow:visible"
       inkscape:isstock="true">
      <path
         id="path5235"
         d="M 0,0 5,-5 -12.5,0 5,5 0,0 Z"
         style="fill:#000000;fill-opacity:1;fill-rule:evenodd;stroke:#000000;stroke-width:1pt;stroke-opacity:1"
         transform="matrix(-0.4,0,0,-0.4,-4,0)"
         inkscape:connector-curvature="0" />
    </marker>
    <marker
       inkscape:stockid="Arrow1Mend"
       orient="auto"
       refY="0"
       refX="0"
       id="marker5175"
       style="overflow:visible"
       inkscape:isstock="true">
      <path
         id="path5177"
         d="M 0,0 5,-5 -12.5,0 5,5 0,0 Z"
         style="fill:#000000;fill-opacity:1;fill-rule:evenodd;stroke:#000000;stroke-width:1pt;stroke-opacity:1"
         transform="matrix(-0.4,0,0,-0.4,-4,0)"
         inkscape:connector-curvature="0" />
    </marker>
    <marker
       inkscape:isstock="true"
       style="overflow:visible"
       id="marker5103"
       refX="0"
       refY="0"
       orient="auto"
       inkscape:stockid="Arrow1Mend"
       inkscape:collect="always">
      <path
         transform="matrix(-0.4,0,0,-0.4,-4,0)"
         style="fill:#000000;fill-opacity:1;fill-rule:evenodd;stroke:#000000;stroke-width:1pt;stroke-opacity:1"
         d="M 0,0 5,-5 -12.5,0 5,5 0,0 Z"
         id="path5105"
         inkscape:connector-curvature="0" />
    </marker>
    <marker
       inkscape:stockid="Arrow1Mend"
       orient="auto"
       refY="0"
       refX="0"
       id="marker4737"
       style="overflow:visible"
       inkscape:isstock="true"
       inkscape:collect="always">
      <path
         id="path4739"
         d="M 0,0 5,-5 -12.5,0 5,5 0,0 Z"
         style="fill:#b6b6b6;fill-opacity:1;fill-rule:evenodd;stroke:#b6b6b6;stroke-width:1pt;stroke-opacity:1"
         transform="matrix(-0.4,0,0,-0.4,-4,0)"
         inkscape:connector-curvature="0" />
    </marker>
    <marker
       inkscape:isstock="true"
       style="overflow:visible"
       id="marker4685"
       refX="0"
       refY="0"
       orient="auto"
       inkscape:stockid="Arrow1Mend">
      <path
         transform="matrix(-0.4,0,0,-0.4,-4,0)"
         style="fill:#b6b6b6;fill-opacity:1;fill-rule:evenodd;stroke:#b6b6b6;stroke-width:1pt;stroke-opacity:1"
         d="M 0,0 5,-5 -12.5,0 5,5 0,0 Z"
         id="path4687"
         inkscape:connector-curvature="0" />
    </marker>
    <marker
       inkscape:stockid="Arrow1Mend"
       orient="auto"
       refY="0"
       refX="0"
       id="marker4637"
       style="overflow:visible"
       inkscape:isstock="true"
       inkscape:collect="always">
      <path
         id="path4639"
         d="M 0,0 5,-5 -12.5,0 5,5 0,0 Z"
         style="fill:#b6b6b6;fill-opacity:1;fill-rule:evenodd;stroke:#b6b6b6;stroke-width:1pt;stroke-opacity:1"
         transform="matrix(-0.4,0,0,-0.4,-4,0)"
         inkscape:connector-curvature="0" />
    </marker>
    <marker
       inkscape:isstock="true"
       style="overflow:visible"
       id="marker4595"
       refX="0"
       refY="0"
       orient="auto"
       inkscape:stockid="Arrow1Mend"
       inkscape:collect="always">
      <path
         transform="matrix(-0.4,0,0,-0.4,-4,0)"
         style="fill:#b6b6b6;fill-opacity:1;fill-rule:evenodd;stroke:#b6b6b6;stroke-width:1pt;stroke-opacity:1"
         d="M 0,0 5,-5 -12.5,0 5,5 0,0 Z"
         id="path4597"
         inkscape:connector-curvature="0" />
    </marker>
    <marker
       inkscape:stockid="Arrow1Mend"
       orient="auto"
       refY="0"
       refX="0"
       id="marker4557"
       style="overflow:visible"
       inkscape:isstock="true"
       inkscape:collect="always">
      <path
         id="path4559"
         d="M 0,0 5,-5 -12.5,0 5,5 0,0 Z"
         style="fill:#b6b6b6;fill-opacity:1;fill-rule:evenodd;stroke:#b6b6b6;stroke-width:1pt;stroke-opacity:1"
         transform="matrix(-0.4,0,0,-0.4,-4,0)"
         inkscape:connector-curvature="0" />
    </marker>
    <marker
       inkscape:stockid="Arrow1Mend"
       orient="auto"
       refY="0"
       refX="0"
       id="Arrow1Mend"
       style="overflow:visible"
       inkscape:isstock="true">
      <path
         id="path4254"
         d="M 0,0 5,-5 -12.5,0 5,5 0,0 Z"
         style="fill:#b6b6b6;fill-opacity:1;fill-rule:evenodd;stroke:#b6b6b6;stroke-width:1pt;stroke-opacity:1"
         transform="matrix(-0.4,0,0,-0.4,-4,0)"
         inkscape:connector-curvature="0" />
    </marker>
  </defs>
  <sodipodi:namedview
     id="base"
     pagecolor="#ffffff"
     bordercolor="#666666"
     borderopacity="1.0"
     inkscape:pageopacity="0.0"
     inkscape:pageshadow="2"
     inkscape:zoom="1.979899"
     inkscape:cx="303.43615"
     inkscape:cy="165.64454"
     inkscape:document-units="px"
     inkscape:current-layer="layer1"
     showgrid="false"
     inkscape:snap-bbox="true"
     inkscape:bbox-paths="true"
     inkscape:bbox-nodes="true"
     inkscape:snap-bbox-edge-midpoints="true"
     inkscape:snap-intersection-paths="true"
     inkscape:object-paths="true"
     inkscape:snap-bbox-midpoints="true"
     inkscape:object-nodes="true"
     inkscape:snap-smooth-nodes="true"
     inkscape:snap-midpoints="true"
     inkscape:snap-object-midpoints="true"
     inkscape:snap-center="true"
     inkscape:snap-text-baseline="true"
     inkscape:snap-page="true"
     showguides="true"
     inkscape:guide-bbox="true"
     inkscape:window-width="1920"
     inkscape:window-height="1004"
     inkscape:window-x="0"
     inkscape:window-y="36"
     inkscape:window-maximized="1"
     fit-margin-top="5"
     fit-margin-left="5"
     fit-margin-right="5"
     fit-margin-bottom="5"
     inkscape:connector-spacing="100">
    <sodipodi:guide
       position="241.66852,305.00674"
       orientation="0,1"
       id="guide4592" />
  </sodipodi:namedview>
  <metadata
     id="metadata7">
    <rdf:RDF>
      <cc:Work
         rdf:about="">
        <dc:format>image/svg+xml</dc:format>
        <dc:type
           rdf:resource="http://purl.org/dc/dcmitype/StillImage" />
        <dc:title />
      </cc:Work>
    </rdf:RDF>
  </metadata>
  <g
     inkscape:label="Layer 1"
     inkscape:groupmode="layer"
     id="layer1"
     transform="translate(-150.35489,-449.35698)">
    <path
       style="opacity:1;fill:none;fill-opacity:1;stroke:#000000;stroke-width:1;stroke-linecap:butt;stroke-linejoin:miter;stroke-miterlimit:4;stroke-dasharray:none;stroke-dashoffset:0;stroke-opacity:1"
       d="m 217.85714,667.71936 a 24.642857,24.642857 0 0 1 -24.64286,24.64286 24.642857,24.642857 0 0 1 -24.64286,-24.64286 24.642857,24.642857 0 0 1 24.64286,-24.64286 24.642857,24.642857 0 0 1 24.64286,24.64286 z"
       id="path4136" />
    <path
       style="opacity:1;fill:none;fill-opacity:1;stroke:#000000;stroke-width:1;stroke-linecap:butt;stroke-linejoin:miter;stroke-miterlimit:4;stroke-dasharray:none;stroke-dashoffset:0;stroke-opacity:1"
       d="m 217.85714,522.71936 a 24.642857,24.642857 0 0 1 -24.64286,24.64286 24.642857,24.642857 0 0 1 -24.64286,-24.64286 24.642857,24.642857 0 0 1 24.64286,-24.64286 24.642857,24.642857 0 0 1 24.64286,24.64286 z"
       id="path4136-3" />
    <path
       style="opacity:1;fill:none;fill-opacity:1;stroke:#000000;stroke-width:1;stroke-linecap:butt;stroke-linejoin:miter;stroke-miterlimit:4;stroke-dasharray:none;stroke-dashoffset:0;stroke-opacity:1"
       d="m 317.42856,667.71936 a 24.642857,24.642857 0 0 1 -24.64285,24.64286 24.642857,24.642857 0 0 1 -24.64286,-24.64286 24.642857,24.642857 0 0 1 24.64286,-24.64286 24.642857,24.642857 0 0 1 24.64285,24.64286 z"
       id="path4136-6" />
    <path
       transform="translate(7.6293945e-6,0)"
       style="opacity:1;fill:none;fill-opacity:1;stroke:#000000;stroke-width:1;stroke-linecap:butt;stroke-linejoin:miter;stroke-miterlimit:4;stroke-dasharray:none;stroke-dashoffset:0;stroke-opacity:1"
       d="m 417.99997,667.71936 a 24.642857,24.642857 0 0 1 -24.64285,24.64286 24.642857,24.642857 0 0 1 -24.64286,-24.64286 24.642857,24.642857 0 0 1 24.64286,-24.64286 24.642857,24.642857 0 0 1 24.64285,24.64286 z"
       id="path4136-5" />
    <path
       style="opacity:1;fill:none;fill-opacity:1;stroke:#000000;stroke-width:1;stroke-linecap:butt;stroke-linejoin:miter;stroke-miterlimit:4;stroke-dasharray:none;stroke-dashoffset:0;stroke-opacity:1"
       d="m 417.99994,522.71936 a 24.642857,24.642857 0 0 1 -24.64285,24.64286 24.642857,24.642857 0 0 1 -24.64286,-24.64286 24.642857,24.642857 0 0 1 24.64286,-24.64286 24.642857,24.642857 0 0 1 24.64285,24.64286 z"
       id="path4136-35" />
    <path
       style="opacity:1;fill:none;fill-opacity:1;stroke:#000000;stroke-width:1;stroke-linecap:butt;stroke-linejoin:miter;stroke-miterlimit:4;stroke-dasharray:none;stroke-dashoffset:0;stroke-opacity:1"
       d="m 518.57138,667.71936 a 24.642857,24.642857 0 0 1 -24.64285,24.64286 24.642857,24.642857 0 0 1 -24.64286,-24.64286 24.642857,24.642857 0 0 1 24.64286,-24.64286 24.642857,24.642857 0 0 1 24.64285,24.64286 z"
       id="path4136-62" />
    <path
       style="opacity:1;fill:none;fill-opacity:1;stroke:#000000;stroke-width:1;stroke-linecap:butt;stroke-linejoin:miter;stroke-miterlimit:4;stroke-dasharray:none;stroke-dashoffset:0;stroke-opacity:1"
       d="m 619.1428,667.71936 a 24.642857,24.642857 0 0 1 -24.64286,24.64286 24.642857,24.642857 0 0 1 -24.64286,-24.64286 24.642857,24.642857 0 0 1 24.64286,-24.64286 24.642857,24.642857 0 0 1 24.64286,24.64286 z"
       id="path4136-1" />
    <path
       style="opacity:1;fill:none;fill-opacity:1;stroke:#000000;stroke-width:1;stroke-linecap:butt;stroke-linejoin:miter;stroke-miterlimit:4;stroke-dasharray:none;stroke-dashoffset:0;stroke-opacity:1"
       d="m 719.71421,667.71936 a 24.642857,24.642857 0 0 1 -24.64286,24.64286 24.642857,24.642857 0 0 1 -24.64286,-24.64286 24.642857,24.642857 0 0 1 24.64286,-24.64286 24.642857,24.642857 0 0 1 24.64286,24.64286 z"
       id="path4136-1-7" />
    <path
       style="opacity:1;fill:none;fill-opacity:1;stroke:#000000;stroke-width:1;stroke-linecap:butt;stroke-linejoin:miter;stroke-miterlimit:4;stroke-dasharray:none;stroke-dashoffset:0;stroke-opacity:1"
       d="m 619.1428,522.71936 a 24.642857,24.642857 0 0 1 -24.64286,24.64286 24.642857,24.642857 0 0 1 -24.64286,-24.64286 24.642857,24.642857 0 0 1 24.64286,-24.64286 24.642857,24.642857 0 0 1 24.64286,24.64286 z"
       id="path4136-35-0" />
    <path
       style="fill:#b6b6b6;fill-rule:evenodd;stroke:#b6b6b6;stroke-width:1px;stroke-linecap:butt;stroke-linejoin:miter;stroke-opacity:1;marker-end:url(#Arrow1Mend);fill-opacity:1"
       d="m 193.21428,642.5765 0,-95.21428"
       id="path4239" />
    <path
       style="fill:#b6b6b6;fill-rule:evenodd;stroke:#b6b6b6;stroke-width:1px;stroke-linecap:butt;stroke-linejoin:miter;stroke-opacity:1;marker-end:url(#marker4557);fill-opacity:1"
       d="M 278.8359,647.40508 207.16409,543.03365"
       id="path4555" />
    <path
       style="fill:#b6b6b6;fill-rule:evenodd;stroke:#b6b6b6;stroke-width:1px;stroke-linecap:butt;stroke-linejoin:miter;stroke-opacity:1;marker-end:url(#marker4737);fill-opacity:1"
       d="m 393.35712,643.0765 -3e-5,-95.71428"
       id="path4585" />
    <path
       style="fill:#b6b6b6;fill-rule:evenodd;stroke:#b6b6b6;stroke-width:1px;stroke-linecap:butt;stroke-linejoin:miter;stroke-opacity:1;marker-end:url(#marker4595);fill-opacity:1"
       d="M 479.88419,647.47078 407.40142,542.96794"
       id="path4587" />
    <path
       style="fill:#b6b6b6;fill-rule:evenodd;stroke:#b6b6b6;stroke-width:1;stroke-linecap:butt;stroke-linejoin:miter;stroke-miterlimit:4;stroke-dasharray:2, 2;stroke-dashoffset:0;stroke-opacity:1;marker-end:url(#marker4637);fill-opacity:1"
       d="m 594.49994,643.0765 0,-95.71428"
       id="path4629" />
    <path
       style="fill:#b6b6b6;fill-rule:evenodd;stroke:#b6b6b6;stroke-width:1;stroke-linecap:butt;stroke-linejoin:miter;stroke-miterlimit:4;stroke-dasharray:2, 2;stroke-dashoffset:0;stroke-opacity:1;marker-end:url(#marker4685);fill-opacity:1"
       d="M 681.02702,647.47078 608.54427,542.96794"
       id="path4677" />
    <path
       style="fill:none;fill-rule:evenodd;stroke:#000000;stroke-width:1px;stroke-linecap:butt;stroke-linejoin:miter;stroke-opacity:1;marker-end:url(#marker5103)"
       d="m 268.14285,667.71936 -50.28571,0"
       id="path5095" />
    <path
       style="fill:none;fill-rule:evenodd;stroke:#000000;stroke-width:1px;stroke-linecap:butt;stroke-linejoin:miter;stroke-opacity:1;marker-end:url(#marker5367)"
       d="m 368.71427,667.71936 -51.28571,0"
       id="path5161" />
    <path
       style="fill:none;fill-rule:evenodd;stroke:#000000;stroke-width:1px;stroke-linecap:butt;stroke-linejoin:miter;stroke-opacity:1;marker-end:url(#marker5175)"
       d="m 469.28567,667.71936 -51.28569,0"
       id="path5163" />
    <path
       style="fill:none;fill-rule:evenodd;stroke:#000000;stroke-width:1px;stroke-linecap:butt;stroke-linejoin:miter;stroke-opacity:1;marker-end:url(#marker5233)"
       d="m 569.85708,667.71936 -51.2857,0"
       id="path5165" />
    <path
       style="fill:none;fill-rule:evenodd;stroke:#000000;stroke-width:1px;stroke-linecap:butt;stroke-linejoin:miter;stroke-opacity:1;marker-end:url(#marker5297)"
       d="m 670.42849,667.71936 -51.28569,0"
       id="path5167" />
    <path
       style="fill:none;fill-rule:evenodd;stroke:#000000;stroke-width:1px;stroke-linecap:butt;stroke-linejoin:miter;stroke-opacity:1;marker-end:url(#marker5705)"
       d="m 368.71423,522.71936 -150.85709,0"
       id="path5611" />
    <g
       style="font-style:normal;font-weight:normal;font-size:40px;line-height:1000%;font-family:sans-serif;letter-spacing:0px;word-spacing:0px;fill:#000000;fill-opacity:1;stroke:none;stroke-width:1px;stroke-linecap:butt;stroke-linejoin:miter;stroke-opacity:1"
       id="text5498-94">
      <path
         d="m 180.18485,701.52077 q -1.38,0 -1.38,0.975 0,0.195 0.03,0.255 0.135,0.36 0.465,0.525 0.33,0.15 1.02,0.285 0.855,0.15 1.17,0.33 0.945,0.45 1.215,1.485 0.015,0.09 0.015,0.36 0,0.585 -0.21,1.035 -0.585,1.11 -2.205,1.11 -0.9,0 -1.56,-0.54 l -0.12,0.105 -0.135,0.135 q -0.09,0.09 -0.18,0.165 l -0.165,0.15 -0.12,0 q -0.105,0 -0.195,-0.09 l 0,-1.185 q 0,-0.975 0,-1.125 0.015,-0.15 0.075,-0.18 0.03,-0.015 0.24,-0.015 0.195,0 0.225,0.03 0.045,0.03 0.09,0.21 0.12,0.57 0.39,1.035 0.525,0.765 1.455,0.765 1.455,0 1.455,-1.17 0,-0.435 -0.27,-0.705 -0.24,-0.285 -0.63,-0.405 -0.255,-0.06 -0.72,-0.165 -0.84,-0.165 -1.14,-0.315 -0.99,-0.465 -1.155,-1.395 -0.015,-0.06 -0.015,-0.225 0,-1.725 2.115,-1.935 0.06,-0.03 0.36,0 0.6,0 1.05,0.225 l 0.225,0.12 0.135,-0.105 q 0.195,-0.165 0.33,-0.255 l 0.12,0 q 0.105,0 0.195,0.09 l 0,1.98 -0.09,0.09 -0.42,0 q -0.09,-0.09 -0.09,-0.18 0,-0.69 -0.42,-1.08 -0.42,-0.39 -1.155,-0.39 z"
         style="font-style:normal;font-variant:normal;font-weight:normal;font-stretch:normal;font-size:15px;font-family:KaTeX_Main;-inkscape-font-specification:KaTeX_Main"
         id="path8029" />
      <path
         d="m 185.36004,698.73077 0,-0.225 0.6,0 0,2.76 2.025,0 0,0.69 -2.025,0 0,2.16 q 0.015,1.875 0.015,2.13 0.015,0.24 0.105,0.465 0.21,0.585 0.735,0.585 0.66,0 0.81,-1.065 0.015,-0.12 0.015,-0.69 l 0,-0.525 0.6,0 0,0.525 q 0,0.69 -0.075,0.99 -0.165,0.6 -0.57,0.975 -0.39,0.375 -1.035,0.375 -0.81,0 -1.29,-0.435 -0.48,-0.45 -0.555,-1.215 -0.015,-0.105 -0.015,-2.22 l 0,-2.055 -1.185,0 0,-0.555 0.135,0 q 0.555,-0.045 0.945,-0.48 0.69,-0.72 0.765,-2.19 z"
         style="font-style:normal;font-variant:normal;font-weight:normal;font-stretch:normal;font-size:15px;font-family:KaTeX_Main;-inkscape-font-specification:KaTeX_Main"
         id="path8031" />
      <path
         d="m 191.39015,702.91577 q -0.225,0.24 -0.57,0.24 -0.345,0 -0.57,-0.24 -0.225,-0.24 -0.225,-0.57 0,-0.21 0.12,-0.48 0.195,-0.405 0.78,-0.63 0.585,-0.225 1.425,-0.225 0.99,0 1.71,0.45 0.735,0.45 0.96,1.17 0.075,0.21 0.075,0.48 0.015,0.255 0.015,1.71 0,1.47 0,1.725 0.015,0.24 0.09,0.375 0.09,0.21 0.3,0.21 0.195,0 0.285,-0.21 0.09,-0.18 0.09,-0.825 l 0,-0.54 0.6,0 0,0.585 q -0.015,0.6 -0.045,0.705 -0.135,0.42 -0.495,0.705 -0.36,0.27 -0.855,0.27 -0.375,0 -0.675,-0.255 -0.285,-0.27 -0.39,-0.645 l 0,-0.06 q -0.045,0.045 -0.18,0.21 -0.135,0.15 -0.195,0.21 -0.735,0.615 -1.71,0.615 -0.78,0 -1.395,-0.33 -0.615,-0.33 -0.825,-0.87 -0.12,-0.285 -0.12,-0.57 0,-0.705 0.585,-1.29 0.345,-0.345 0.855,-0.57 1.02,-0.465 2.61,-0.555 l 0.21,0 0,-0.33 q 0,-0.51 -0.09,-0.75 -0.15,-0.495 -0.525,-0.78 -0.375,-0.285 -0.93,-0.285 -1.005,0 -1.005,0.12 0.33,0.225 0.33,0.66 0,0.33 -0.24,0.57 z m 2.46,2.19 q 0,-0.87 -0.015,-0.87 -0.045,0 -0.075,0.015 -2.055,0.135 -2.625,1.215 -0.165,0.3 -0.165,0.675 0,0.51 0.36,0.855 0.36,0.345 0.885,0.345 0.6,0 1.02,-0.36 0.435,-0.36 0.57,-0.885 0.03,-0.105 0.045,-0.99 z"
         style="font-style:normal;font-variant:normal;font-weight:normal;font-stretch:normal;font-size:15px;font-family:KaTeX_Main;-inkscape-font-specification:KaTeX_Main"
         id="path8033" />
      <path
         d="m 197.12015,707.04077 0.21,0 q 0.585,0 0.705,-0.21 l 0,-0.12 q 0,-0.135 0,-0.345 0.015,-0.21 0.015,-0.465 0,-0.27 0,-0.585 0,-0.33 0,-0.63 0,-0.465 0,-0.99 0,-0.54 0,-0.885 l -0.015,-0.345 q -0.045,-0.285 -0.225,-0.375 -0.165,-0.105 -0.66,-0.135 l -0.27,0 0,-0.345 q 0,-0.345 0.03,-0.345 l 0.15,-0.015 q 0.15,-0.015 0.42,-0.03 0.27,-0.015 0.54,-0.03 0.24,-0.015 0.525,-0.03 0.285,-0.03 0.435,-0.045 0.15,-0.015 0.165,-0.015 l 0.045,0 0,1.035 q 0.285,-0.48 0.63,-0.75 0.345,-0.27 0.915,-0.27 0.42,0 0.72,0.165 0.585,0.3 0.585,0.855 0,0.33 -0.225,0.555 -0.225,0.21 -0.54,0.21 -0.315,0 -0.54,-0.21 -0.21,-0.21 -0.21,-0.54 0,-0.255 0.12,-0.42 0.03,-0.06 0.03,-0.075 -0.03,-0.03 -0.345,0.06 -0.24,0.12 -0.36,0.225 -0.6,0.57 -0.69,1.89 l 0,0.585 q -0.015,0.585 -0.015,1.005 0,0.195 0,0.42 0,0.21 0,0.375 0.015,0.165 0.015,0.3 0,0.135 0,0.225 l 0,0.075 q 0.06,0.12 0.18,0.15 0.15,0.06 0.795,0.075 l 0.465,0 0,0.69 -0.135,0 q -0.27,-0.045 -1.905,-0.045 -1.47,0 -1.68,0.045 l -0.12,0 0,-0.69 0.24,0 z"
         style="font-style:normal;font-variant:normal;font-weight:normal;font-stretch:normal;font-size:15px;font-family:KaTeX_Main;-inkscape-font-specification:KaTeX_Main"
         id="path8035" />
      <path
         d="m 204.57513,698.73077 0,-0.225 0.6,0 0,2.76 2.025,0 0,0.69 -2.025,0 0,2.16 q 0.015,1.875 0.015,2.13 0.015,0.24 0.105,0.465 0.21,0.585 0.735,0.585 0.66,0 0.81,-1.065 0.015,-0.12 0.015,-0.69 l 0,-0.525 0.6,0 0,0.525 q 0,0.69 -0.075,0.99 -0.165,0.6 -0.57,0.975 -0.39,0.375 -1.035,0.375 -0.81,0 -1.29,-0.435 -0.48,-0.45 -0.555,-1.215 -0.015,-0.105 -0.015,-2.22 l 0,-2.055 -1.185,0 0,-0.555 0.135,0 q 0.555,-0.045 0.945,-0.48 0.69,-0.72 0.765,-2.19 z"
         style="font-style:normal;font-variant:normal;font-weight:normal;font-stretch:normal;font-size:15px;font-family:KaTeX_Main;-inkscape-font-specification:KaTeX_Main"
         id="path8037" />
    </g>
    <g
       style="font-style:normal;font-weight:normal;font-size:40px;line-height:1000%;font-family:sans-serif;letter-spacing:0px;word-spacing:0px;fill:#000000;fill-opacity:1;stroke:none;stroke-width:1px;stroke-linecap:butt;stroke-linejoin:miter;stroke-opacity:1"
       id="text5498-94-0">
      <path
         d="m 685.1795,707.04077 0.21,0 q 0.585,0 0.705,-0.21 l 0,-0.12 q 0,-0.135 0,-0.345 0,-0.21 0,-0.495 0.015,-0.285 0.015,-0.645 0,-0.375 0,-0.75 0,-0.39 0,-0.825 0,-0.45 0,-0.855 0,-0.555 0,-1.17 0,-0.63 0,-1.125 0,-0.495 -0.015,-0.9 0,-0.42 0,-0.66 0,-0.24 0,-0.255 -0.045,-0.285 -0.225,-0.375 -0.165,-0.105 -0.66,-0.135 l -0.27,0 0,-0.345 q 0,-0.345 0.03,-0.345 l 0.15,-0.015 q 0.15,-0.015 0.435,-0.03 0.285,-0.015 0.555,-0.03 0.255,-0.015 0.555,-0.03 0.3,-0.03 0.45,-0.045 0.15,-0.015 0.165,-0.015 l 0.045,0 0,4.725 q 0,4.755 0.015,4.785 0.06,0.12 0.18,0.165 0.315,0.045 0.735,0.045 l 0.24,0 0,0.69 -0.12,0 q -0.27,-0.045 -1.65,-0.045 -1.47,0 -1.665,0.045 l -0.12,0 0,-0.69 0.24,0 z"
         style="font-style:normal;font-variant:normal;font-weight:normal;font-stretch:normal;font-size:15px;font-family:KaTeX_Main;-inkscape-font-specification:KaTeX_Main"
         id="path8040" />
      <path
         d="m 691.02973,702.91577 q -0.225,0.24 -0.57,0.24 -0.345,0 -0.57,-0.24 -0.225,-0.24 -0.225,-0.57 0,-0.21 0.12,-0.48 0.195,-0.405 0.78,-0.63 0.585,-0.225 1.425,-0.225 0.99,0 1.71,0.45 0.735,0.45 0.96,1.17 0.075,0.21 0.075,0.48 0.015,0.255 0.015,1.71 0,1.47 0,1.725 0.015,0.24 0.09,0.375 0.09,0.21 0.3,0.21 0.195,0 0.285,-0.21 0.09,-0.18 0.09,-0.825 l 0,-0.54 0.6,0 0,0.585 q -0.015,0.6 -0.045,0.705 -0.135,0.42 -0.495,0.705 -0.36,0.27 -0.855,0.27 -0.375,0 -0.675,-0.255 -0.285,-0.27 -0.39,-0.645 l 0,-0.06 q -0.045,0.045 -0.18,0.21 -0.135,0.15 -0.195,0.21 -0.735,0.615 -1.71,0.615 -0.78,0 -1.395,-0.33 -0.615,-0.33 -0.825,-0.87 -0.12,-0.285 -0.12,-0.57 0,-0.705 0.585,-1.29 0.345,-0.345 0.855,-0.57 1.02,-0.465 2.61,-0.555 l 0.21,0 0,-0.33 q 0,-0.51 -0.09,-0.75 -0.15,-0.495 -0.525,-0.78 -0.375,-0.285 -0.93,-0.285 -1.005,0 -1.005,0.12 0.33,0.225 0.33,0.66 0,0.33 -0.24,0.57 z m 2.46,2.19 q 0,-0.87 -0.015,-0.87 -0.045,0 -0.075,0.015 -2.055,0.135 -2.625,1.215 -0.165,0.3 -0.165,0.675 0,0.51 0.36,0.855 0.36,0.345 0.885,0.345 0.6,0 1.02,-0.36 0.435,-0.36 0.57,-0.885 0.03,-0.105 0.045,-0.99 z"
         style="font-style:normal;font-variant:normal;font-weight:normal;font-stretch:normal;font-size:15px;font-family:KaTeX_Main;-inkscape-font-specification:KaTeX_Main"
         id="path8042" />
      <path
         d="m 699.06973,701.52077 q -1.38,0 -1.38,0.975 0,0.195 0.03,0.255 0.135,0.36 0.465,0.525 0.33,0.15 1.02,0.285 0.855,0.15 1.17,0.33 0.945,0.45 1.215,1.485 0.015,0.09 0.015,0.36 0,0.585 -0.21,1.035 -0.585,1.11 -2.205,1.11 -0.9,0 -1.56,-0.54 l -0.12,0.105 -0.135,0.135 q -0.09,0.09 -0.18,0.165 l -0.165,0.15 -0.12,0 q -0.105,0 -0.195,-0.09 l 0,-1.185 q 0,-0.975 0,-1.125 0.015,-0.15 0.075,-0.18 0.03,-0.015 0.24,-0.015 0.195,0 0.225,0.03 0.045,0.03 0.09,0.21 0.12,0.57 0.39,1.035 0.525,0.765 1.455,0.765 1.455,0 1.455,-1.17 0,-0.435 -0.27,-0.705 -0.24,-0.285 -0.63,-0.405 -0.255,-0.06 -0.72,-0.165 -0.84,-0.165 -1.14,-0.315 -0.99,-0.465 -1.155,-1.395 -0.015,-0.06 -0.015,-0.225 0,-1.725 2.115,-1.935 0.06,-0.03 0.36,0 0.6,0 1.05,0.225 l 0.225,0.12 0.135,-0.105 q 0.195,-0.165 0.33,-0.255 l 0.12,0 q 0.105,0 0.195,0.09 l 0,1.98 -0.09,0.09 -0.42,0 q -0.09,-0.09 -0.09,-0.18 0,-0.69 -0.42,-1.08 -0.42,-0.39 -1.155,-0.39 z"
         style="font-style:normal;font-variant:normal;font-weight:normal;font-stretch:normal;font-size:15px;font-family:KaTeX_Main;-inkscape-font-specification:KaTeX_Main"
         id="path8044" />
      <path
         d="m 704.24491,698.73077 0,-0.225 0.6,0 0,2.76 2.025,0 0,0.69 -2.025,0 0,2.16 q 0.015,1.875 0.015,2.13 0.015,0.24 0.105,0.465 0.21,0.585 0.735,0.585 0.66,0 0.81,-1.065 0.015,-0.12 0.015,-0.69 l 0,-0.525 0.6,0 0,0.525 q 0,0.69 -0.075,0.99 -0.165,0.6 -0.57,0.975 -0.39,0.375 -1.035,0.375 -0.81,0 -1.29,-0.435 -0.48,-0.45 -0.555,-1.215 -0.015,-0.105 -0.015,-2.22 l 0,-2.055 -1.185,0 0,-0.555 0.135,0 q 0.555,-0.045 0.945,-0.48 0.69,-0.72 0.765,-2.19 z"
         style="font-style:normal;font-variant:normal;font-weight:normal;font-stretch:normal;font-size:15px;font-family:KaTeX_Main;-inkscape-font-specification:KaTeX_Main"
         id="path8046" />
    </g>
    <path
       style="opacity:1;fill:none;fill-opacity:1;stroke:#000000;stroke-width:1;stroke-linecap:butt;stroke-linejoin:miter;stroke-miterlimit:4;stroke-dasharray:none;stroke-dashoffset:0;stroke-opacity:1"
       d="m 619.1428,726.29077 a 24.642857,24.642857 0 0 1 -24.64286,24.64286 24.642857,24.642857 0 0 1 -24.64286,-24.64286 24.642857,24.642857 0 0 1 24.64286,-24.64286 24.642857,24.642857 0 0 1 24.64286,24.64286 z"
       id="path4136-1-6" />
    <path
       style="fill:none;fill-rule:evenodd;stroke:#000000;stroke-width:1px;stroke-linecap:butt;stroke-linejoin:miter;stroke-opacity:1;marker-end:url(#marker4321)"
       d="M 573.20523,713.88902 515.22324,680.12111"
       id="path4313" />
    <g
       style="font-style:normal;font-weight:normal;font-size:40px;line-height:1000%;font-family:sans-serif;letter-spacing:0px;word-spacing:0px;fill:#000000;fill-opacity:1;stroke:none;stroke-width:1px;stroke-linecap:butt;stroke-linejoin:miter;stroke-opacity:1"
       id="text5498-9-3-7">
      <path
         d="m 591.52995,724.7408 q -0.14,-0.14 -0.14,-0.2 0,-0.08 0.06,-0.32 0.08,-0.26 0.1,-0.28 0.04,-0.1 0.18,-0.1 0.16,-0.02 1.02,-0.02 l 1.06,0 0.38,-1.6 q 0.42,-1.62 0.48,-1.74 0.24,-0.56 0.92,-0.56 0.26,0.02 0.44,0.18 0.2,0.16 0.2,0.42 0,0.24 -0.38,1.7 -0.08,0.34 -0.2,0.76 -0.1,0.4 -0.16,0.6 l -0.04,0.2 q 0,0.04 1,0.04 l 1.02,0 q 0.14,0.14 0.14,0.22 0,0.44 -0.26,0.7 l -2.14,0 -0.72,2.9 q -0.74,2.98 -0.76,3.14 -0.02,0.1 -0.02,0.3 0,0.84 0.54,0.84 0.14,0 0.24,-0.02 1,-0.18 1.82,-1.6 0.2,-0.32 0.36,-0.74 0.04,-0.12 0.1,-0.14 0.06,-0.04 0.3,-0.04 0.4,0 0.4,0.16 0,0.04 -0.08,0.24 -0.22,0.64 -0.72,1.3 -0.48,0.64 -0.98,1.02 -0.74,0.56 -1.58,0.56 -0.72,0 -1.24,-0.36 -0.5,-0.38 -0.68,-0.98 -0.04,-0.16 -0.04,-0.54 l 0,-0.36 0.7,-2.8 q 0.7,-2.82 0.72,-2.84 0,-0.04 -1.02,-0.04 l -1.02,0 z"
         style="font-style:normal;font-variant:normal;font-weight:normal;font-stretch:normal;font-size:20px;font-family:KaTeX_Math;-inkscape-font-specification:KaTeX_Math"
         id="path8050" />
    </g>
    <path
       style="fill:#b6b6b6;fill-rule:evenodd;stroke:#b6b6b6;stroke-width:1px;stroke-linecap:butt;stroke-linejoin:miter;stroke-opacity:1;marker-end:url(#marker4450);fill-opacity:1"
       d="M 577.18001,708.76172 410.67702,540.24841"
       id="path4442" />
    <g
       style="font-style:normal;font-weight:normal;font-size:40px;line-height:129.99999523%;font-family:sans-serif;letter-spacing:0px;word-spacing:0px;fill:#000000;fill-opacity:1;stroke:none;stroke-width:1px;stroke-linecap:butt;stroke-linejoin:miter;stroke-opacity:1"
       id="text4575">
      <path
         d="m 377.40659,473.45108 q 0,0.68115 0.24719,1.02722 0.25268,0.34607 0.74158,0.34607 l 1.18103,0 0,0.85693 -1.27991,0 q -0.90637,0 -1.40625,-0.58227 -0.49439,-0.58228 -0.49439,-1.64795 l 0,-5.58655 -1.62048,0 0,-0.79101 2.63123,0 0,6.37756 z"
         style="font-style:normal;font-variant:normal;font-weight:normal;font-stretch:normal;font-size:11.25px;line-height:129.99999523%;font-family:'Bitstream Vera Sans Mono';-inkscape-font-specification:'Bitstream Vera Sans Mono'"
         id="path8053" />
      <path
         d="m 385.38266,473.70377 q -0.25269,0.6427 -0.6427,1.69189 -0.54382,1.4502 -0.73059,1.7688 -0.25269,0.42847 -0.63171,0.6427 -0.37903,0.21423 -0.8844,0.21423 l -0.81299,0 0,-0.84594 0.59875,0 q 0.44495,0 0.69763,-0.25818 0.25269,-0.25818 0.6427,-1.33484 l -2.37854,-6.05347 1.07117,0 1.82373,4.81201 1.79627,-4.81201 1.07116,0 -1.62048,4.17481 z"
         style="font-style:normal;font-variant:normal;font-weight:normal;font-stretch:normal;font-size:11.25px;line-height:129.99999523%;font-family:'Bitstream Vera Sans Mono';-inkscape-font-specification:'Bitstream Vera Sans Mono'"
         id="path8055" />
      <path
         d="m 393.58395,469.52896 -2.20275,2.94434 2.41699,3.208 -1.17005,0 -1.80175,-2.46643 -1.79627,2.46643 -1.17004,0 2.41699,-3.208 -2.20276,-2.94434 1.12061,0 1.63147,2.22473 1.62048,-2.22473 1.13708,0 z"
         style="font-style:normal;font-variant:normal;font-weight:normal;font-stretch:normal;font-size:11.25px;line-height:129.99999523%;font-family:'Bitstream Vera Sans Mono';-inkscape-font-specification:'Bitstream Vera Sans Mono'"
         id="path8057" />
      <path
         d="m 397.58847,467.78214 0,1.74682 2.29614,0 0,0.78552 -2.29614,0 0,3.33985 q 0,0.68115 0.25818,0.95031 0.25818,0.26917 0.90088,0.26917 l 1.13708,0 0,0.80749 -1.23596,0 q -1.13708,0 -1.604,-0.45593 -0.46692,-0.45593 -0.46692,-1.57104 l 0,-3.33985 -1.64246,0 0,-0.78552 1.64246,0 0,-1.74682 1.01074,0 z"
         style="font-style:normal;font-variant:normal;font-weight:normal;font-stretch:normal;font-size:11.25px;line-height:129.99999523%;font-family:'Bitstream Vera Sans Mono';-inkscape-font-specification:'Bitstream Vera Sans Mono'"
         id="path8059" />
      <path
         d="m 406.33359,469.74319 0,0.98877 q -0.43396,-0.25268 -0.87342,-0.37902 -0.43945,-0.12635 -0.89538,-0.12635 -0.68665,0 -1.02722,0.22522 -0.33509,0.21973 -0.33509,0.67566 0,0.41199 0.25269,0.61524 0.25269,0.20324 1.25793,0.3955 l 0.4065,0.0769 q 0.75256,0.14282 1.13708,0.57129 0.39002,0.42846 0.39002,1.11511 0,0.91187 -0.6482,1.42822 -0.64819,0.51087 -1.80175,0.51087 -0.45594,0 -0.95581,-0.0989 -0.49988,-0.0934 -1.08216,-0.28564 l 0,-1.04371 q 0.5658,0.29114 1.08216,0.43946 0.51635,0.14282 0.97778,0.14282 0.67017,0 1.03821,-0.26917 0.36804,-0.27465 0.36804,-0.76355 0,-0.70312 -1.34583,-0.97229 l -0.0439,-0.011 -0.37903,-0.0769 q -0.87341,-0.17028 -1.27441,-0.57129 -0.401,-0.40649 -0.401,-1.10412 0,-0.8844 0.59875,-1.36231 0.59876,-0.48339 1.70837,-0.48339 0.49439,0 0.95032,0.0934 0.45593,0.0879 0.89539,0.26916 z"
         style="font-style:normal;font-variant:normal;font-weight:normal;font-stretch:normal;font-size:11.25px;line-height:129.99999523%;font-family:'Bitstream Vera Sans Mono';-inkscape-font-specification:'Bitstream Vera Sans Mono'"
         id="path8061" />
      <path
         d="m 411.13461,467.78214 0,1.74682 2.29615,0 0,0.78552 -2.29615,0 0,3.33985 q 0,0.68115 0.25818,0.95031 0.25818,0.26917 0.90088,0.26917 l 1.13709,0 0,0.80749 -1.23597,0 q -1.13708,0 -1.604,-0.45593 -0.46692,-0.45593 -0.46692,-1.57104 l 0,-3.33985 -1.64246,0 0,-0.78552 1.64246,0 0,-1.74682 1.01074,0 z"
         style="font-style:normal;font-variant:normal;font-weight:normal;font-stretch:normal;font-size:11.25px;line-height:129.99999523%;font-family:'Bitstream Vera Sans Mono';-inkscape-font-specification:'Bitstream Vera Sans Mono'"
         id="path8063" />
      <path
         d="m 419.87973,469.74319 0,0.98877 q -0.43396,-0.25268 -0.87341,-0.37902 -0.43946,-0.12635 -0.89539,-0.12635 -0.68664,0 -1.02722,0.22522 -0.33508,0.21973 -0.33508,0.67566 0,0.41199 0.25268,0.61524 0.25269,0.20324 1.25794,0.3955 l 0.40649,0.0769 q 0.75256,0.14282 1.13709,0.57129 0.39001,0.42846 0.39001,1.11511 0,0.91187 -0.64819,1.42822 -0.6482,0.51087 -1.80176,0.51087 -0.45593,0 -0.95581,-0.0989 -0.49988,-0.0934 -1.08215,-0.28564 l 0,-1.04371 q 0.56579,0.29114 1.08215,0.43946 0.51636,0.14282 0.97778,0.14282 0.67017,0 1.03821,-0.26917 0.36804,-0.27465 0.36804,-0.76355 0,-0.70312 -1.34582,-0.97229 l -0.0439,-0.011 -0.37903,-0.0769 q -0.87341,-0.17028 -1.27441,-0.57129 -0.401,-0.40649 -0.401,-1.10412 0,-0.8844 0.59875,-1.36231 0.59876,-0.48339 1.70838,-0.48339 0.49438,0 0.95031,0.0934 0.45594,0.0879 0.89539,0.26916 z"
         style="font-style:normal;font-variant:normal;font-weight:normal;font-stretch:normal;font-size:11.25px;line-height:129.99999523%;font-family:'Bitstream Vera Sans Mono';-inkscape-font-specification:'Bitstream Vera Sans Mono'"
         id="path8065" />
      <path
         d="m 370.63351,488.07608 q 0,0.68115 0.2472,1.02722 0.25268,0.34607 0.74157,0.34607 l 1.18103,0 0,0.85693 -1.2799,0 q -0.90638,0 -1.40625,-0.58227 -0.49439,-0.58228 -0.49439,-1.64795 l 0,-5.58655 -1.62048,0 0,-0.79101 2.63122,0 0,6.37756 z"
         style="font-style:normal;font-variant:normal;font-weight:normal;font-stretch:normal;font-size:11.25px;line-height:129.99999523%;font-family:'Bitstream Vera Sans Mono';-inkscape-font-specification:'Bitstream Vera Sans Mono'"
         id="path8067" />
      <path
         d="m 377.40659,488.07608 q 0,0.68115 0.24719,1.02722 0.25268,0.34607 0.74158,0.34607 l 1.18103,0 0,0.85693 -1.27991,0 q -0.90637,0 -1.40625,-0.58227 -0.49439,-0.58228 -0.49439,-1.64795 l 0,-5.58655 -1.62048,0 0,-0.79101 2.63123,0 0,6.37756 z"
         style="font-style:normal;font-variant:normal;font-weight:normal;font-stretch:normal;font-size:11.25px;line-height:129.99999523%;font-family:'Bitstream Vera Sans Mono';-inkscape-font-specification:'Bitstream Vera Sans Mono'"
         id="path8069" />
      <path
         d="m 385.38266,488.32877 q -0.25269,0.6427 -0.6427,1.69189 -0.54382,1.4502 -0.73059,1.7688 -0.25269,0.42847 -0.63171,0.6427 -0.37903,0.21423 -0.8844,0.21423 l -0.81299,0 0,-0.84594 0.59875,0 q 0.44495,0 0.69763,-0.25818 0.25269,-0.25818 0.6427,-1.33484 l -2.37854,-6.05347 1.07117,0 1.82373,4.81201 1.79627,-4.81201 1.07116,0 -1.62048,4.17481 z"
         style="font-style:normal;font-variant:normal;font-weight:normal;font-stretch:normal;font-size:11.25px;line-height:129.99999523%;font-family:'Bitstream Vera Sans Mono';-inkscape-font-specification:'Bitstream Vera Sans Mono'"
         id="path8071" />
      <path
         d="m 393.58395,484.15396 -2.20275,2.94434 2.41699,3.208 -1.17005,0 -1.80175,-2.46643 -1.79627,2.46643 -1.17004,0 2.41699,-3.208 -2.20276,-2.94434 1.12061,0 1.63147,2.22473 1.62048,-2.22473 1.13708,0 z"
         style="font-style:normal;font-variant:normal;font-weight:normal;font-stretch:normal;font-size:11.25px;line-height:129.99999523%;font-family:'Bitstream Vera Sans Mono';-inkscape-font-specification:'Bitstream Vera Sans Mono'"
         id="path8073" />
      <path
         d="m 397.58847,482.40713 0,1.74683 2.29614,0 0,0.78552 -2.29614,0 0,3.33985 q 0,0.68115 0.25818,0.95031 0.25818,0.26917 0.90088,0.26917 l 1.13708,0 0,0.80749 -1.23596,0 q -1.13708,0 -1.604,-0.45593 -0.46692,-0.45593 -0.46692,-1.57104 l 0,-3.33985 -1.64246,0 0,-0.78552 1.64246,0 0,-1.74683 1.01074,0 z"
         style="font-style:normal;font-variant:normal;font-weight:normal;font-stretch:normal;font-size:11.25px;line-height:129.99999523%;font-family:'Bitstream Vera Sans Mono';-inkscape-font-specification:'Bitstream Vera Sans Mono'"
         id="path8075" />
      <path
         d="m 406.33359,484.36819 0,0.98877 q -0.43396,-0.25268 -0.87342,-0.37902 -0.43945,-0.12635 -0.89538,-0.12635 -0.68665,0 -1.02722,0.22522 -0.33509,0.21973 -0.33509,0.67566 0,0.41199 0.25269,0.61524 0.25269,0.20324 1.25793,0.3955 l 0.4065,0.0769 q 0.75256,0.14282 1.13708,0.57129 0.39002,0.42846 0.39002,1.11511 0,0.91186 -0.6482,1.42822 -0.64819,0.51087 -1.80175,0.51087 -0.45594,0 -0.95581,-0.0989 -0.49988,-0.0934 -1.08216,-0.28565 l 0,-1.0437 q 0.5658,0.29114 1.08216,0.43946 0.51635,0.14282 0.97778,0.14282 0.67017,0 1.03821,-0.26917 0.36804,-0.27465 0.36804,-0.76355 0,-0.70312 -1.34583,-0.97229 l -0.0439,-0.011 -0.37903,-0.0769 q -0.87341,-0.17028 -1.27441,-0.57129 -0.401,-0.40649 -0.401,-1.10412 0,-0.8844 0.59875,-1.36231 0.59876,-0.48339 1.70837,-0.48339 0.49439,0 0.95032,0.0934 0.45593,0.0879 0.89539,0.26916 z"
         style="font-style:normal;font-variant:normal;font-weight:normal;font-stretch:normal;font-size:11.25px;line-height:129.99999523%;font-family:'Bitstream Vera Sans Mono';-inkscape-font-specification:'Bitstream Vera Sans Mono'"
         id="path8077" />
      <path
         d="m 411.13461,482.40713 0,1.74683 2.29615,0 0,0.78552 -2.29615,0 0,3.33985 q 0,0.68115 0.25818,0.95031 0.25818,0.26917 0.90088,0.26917 l 1.13709,0 0,0.80749 -1.23597,0 q -1.13708,0 -1.604,-0.45593 -0.46692,-0.45593 -0.46692,-1.57104 l 0,-3.33985 -1.64246,0 0,-0.78552 1.64246,0 0,-1.74683 1.01074,0 z"
         style="font-style:normal;font-variant:normal;font-weight:normal;font-stretch:normal;font-size:11.25px;line-height:129.99999523%;font-family:'Bitstream Vera Sans Mono';-inkscape-font-specification:'Bitstream Vera Sans Mono'"
         id="path8079" />
      <path
         d="m 419.87973,484.36819 0,0.98877 q -0.43396,-0.25268 -0.87341,-0.37902 -0.43946,-0.12635 -0.89539,-0.12635 -0.68664,0 -1.02722,0.22522 -0.33508,0.21973 -0.33508,0.67566 0,0.41199 0.25268,0.61524 0.25269,0.20324 1.25794,0.3955 l 0.40649,0.0769 q 0.75256,0.14282 1.13709,0.57129 0.39001,0.42846 0.39001,1.11511 0,0.91186 -0.64819,1.42822 -0.6482,0.51087 -1.80176,0.51087 -0.45593,0 -0.95581,-0.0989 -0.49988,-0.0934 -1.08215,-0.28565 l 0,-1.0437 q 0.56579,0.29114 1.08215,0.43946 0.51636,0.14282 0.97778,0.14282 0.67017,0 1.03821,-0.26917 0.36804,-0.27465 0.36804,-0.76355 0,-0.70312 -1.34582,-0.97229 l -0.0439,-0.011 -0.37903,-0.0769 q -0.87341,-0.17028 -1.27441,-0.57129 -0.401,-0.40649 -0.401,-1.10412 0,-0.8844 0.59875,-1.36231 0.59876,-0.48339 1.70838,-0.48339 0.49438,0 0.95031,0.0934 0.45594,0.0879 0.89539,0.26916 z"
         style="font-style:normal;font-variant:normal;font-weight:normal;font-stretch:normal;font-size:11.25px;line-height:129.99999523%;font-family:'Bitstream Vera Sans Mono';-inkscape-font-specification:'Bitstream Vera Sans Mono'"
         id="path8081" />
    </g>
    <g
       style="font-style:normal;font-weight:normal;font-size:40px;line-height:129.99999523%;font-family:sans-serif;letter-spacing:0px;word-spacing:0px;fill:#000000;fill-opacity:1;stroke:none;stroke-width:1px;stroke-linecap:butt;stroke-linejoin:miter;stroke-opacity:1"
       id="text4575-5">
      <path
         d="m 570.76801,487.21365 -0.33509,0 q -0.8844,0 -1.33484,0.31311 -0.44494,0.30762 -0.44494,0.92285 0,0.55481 0.33508,0.86243 0.33508,0.30762 0.92834,0.30762 0.83497,0 1.31287,-0.57678 0.47791,-0.58228 0.4834,-1.60401 l 0,-0.22522 -0.94482,0 z m 1.96105,-0.41748 0,3.51013 -1.01623,0 0,-0.91186 q -0.3241,0.54932 -0.81848,0.81299 -0.48889,0.25818 -1.19202,0.25818 -0.93933,0 -1.49963,-0.52735 -0.5603,-0.53283 -0.5603,-1.42273 0,-1.02722 0.68664,-1.56006 0.69214,-0.53283 2.02698,-0.53283 l 1.35681,0 0,-0.1593 q -0.005,-0.73609 -0.37354,-1.06568 -0.36804,-0.33508 -1.17553,-0.33508 -0.51636,0 -1.0437,0.14831 -0.52735,0.14832 -1.02723,0.43396 l 0,-1.01074 q 0.56031,-0.21423 1.07117,-0.3186 0.51636,-0.10986 0.99976,-0.10986 0.76355,0 1.30188,0.22521 0.54382,0.22522 0.8789,0.67566 0.20874,0.27466 0.29663,0.68116 0.0879,0.401 0.0879,1.20849 z"
         style="font-style:normal;font-variant:normal;font-weight:normal;font-stretch:normal;font-size:11.25px;line-height:129.99999523%;font-family:'Bitstream Vera Sans Mono';-inkscape-font-specification:'Bitstream Vera Sans Mono'"
         id="path8084" />
      <path
         d="m 577.54108,487.21365 -0.33509,0 q -0.8844,0 -1.33484,0.31311 -0.44494,0.30762 -0.44494,0.92285 0,0.55481 0.33508,0.86243 0.33508,0.30762 0.92835,0.30762 0.83496,0 1.31286,-0.57678 0.47791,-0.58228 0.4834,-1.60401 l 0,-0.22522 -0.94482,0 z m 1.96106,-0.41748 0,3.51013 -1.01624,0 0,-0.91186 q -0.3241,0.54932 -0.81848,0.81299 -0.48889,0.25818 -1.19202,0.25818 -0.93933,0 -1.49963,-0.52735 -0.5603,-0.53283 -0.5603,-1.42273 0,-1.02722 0.68664,-1.56006 0.69214,-0.53283 2.02698,-0.53283 l 1.35681,0 0,-0.1593 q -0.005,-0.73609 -0.37353,-1.06568 -0.36805,-0.33508 -1.17554,-0.33508 -0.51636,0 -1.0437,0.14831 -0.52735,0.14832 -1.02722,0.43396 l 0,-1.01074 q 0.5603,-0.21423 1.07116,-0.3186 0.51636,-0.10986 0.99976,-0.10986 0.76355,0 1.30188,0.22521 0.54382,0.22522 0.8789,0.67566 0.20874,0.27466 0.29664,0.68116 0.0879,0.401 0.0879,1.20849 z"
         style="font-style:normal;font-variant:normal;font-weight:normal;font-stretch:normal;font-size:11.25px;line-height:129.99999523%;font-family:'Bitstream Vera Sans Mono';-inkscape-font-specification:'Bitstream Vera Sans Mono'"
         id="path8086" />
      <path
         d="m 583.96808,488.07608 q 0,0.68115 0.24719,1.02722 0.25269,0.34607 0.74158,0.34607 l 1.18103,0 0,0.85693 -1.27991,0 q -0.90637,0 -1.40625,-0.58227 -0.49438,-0.58228 -0.49438,-1.64795 l 0,-5.58655 -1.62049,0 0,-0.79101 2.63123,0 0,6.37756 z"
         style="font-style:normal;font-variant:normal;font-weight:normal;font-stretch:normal;font-size:11.25px;line-height:129.99999523%;font-family:'Bitstream Vera Sans Mono';-inkscape-font-specification:'Bitstream Vera Sans Mono'"
         id="path8088" />
      <path
         d="m 591.94415,488.32877 q -0.25268,0.6427 -0.6427,1.69189 -0.54382,1.4502 -0.73059,1.7688 -0.25268,0.42847 -0.63171,0.6427 -0.37903,0.21423 -0.8844,0.21423 l -0.81299,0 0,-0.84594 0.59876,0 q 0.44494,0 0.69763,-0.25818 0.25268,-0.25818 0.6427,-1.33484 l -2.37854,-6.05347 1.07116,0 1.82373,4.81201 1.79627,-4.81201 1.07117,0 -1.62049,4.17481 z"
         style="font-style:normal;font-variant:normal;font-weight:normal;font-stretch:normal;font-size:11.25px;line-height:129.99999523%;font-family:'Bitstream Vera Sans Mono';-inkscape-font-specification:'Bitstream Vera Sans Mono'"
         id="path8090" />
      <path
         d="m 600.14545,484.15396 -2.20276,2.94434 2.41699,3.208 -1.17004,0 -1.80176,-2.46643 -1.79627,2.46643 -1.17004,0 2.41699,-3.208 -2.20276,-2.94434 1.12061,0 1.63147,2.22473 1.62048,-2.22473 1.13709,0 z"
         style="font-style:normal;font-variant:normal;font-weight:normal;font-stretch:normal;font-size:11.25px;line-height:129.99999523%;font-family:'Bitstream Vera Sans Mono';-inkscape-font-specification:'Bitstream Vera Sans Mono'"
         id="path8092" />
      <path
         d="m 604.14996,482.40713 0,1.74683 2.29615,0 0,0.78552 -2.29615,0 0,3.33985 q 0,0.68115 0.25818,0.95031 0.25818,0.26917 0.90088,0.26917 l 1.13709,0 0,0.80749 -1.23597,0 q -1.13708,0 -1.604,-0.45593 -0.46692,-0.45593 -0.46692,-1.57104 l 0,-3.33985 -1.64245,0 0,-0.78552 1.64245,0 0,-1.74683 1.01074,0 z"
         style="font-style:normal;font-variant:normal;font-weight:normal;font-stretch:normal;font-size:11.25px;line-height:129.99999523%;font-family:'Bitstream Vera Sans Mono';-inkscape-font-specification:'Bitstream Vera Sans Mono'"
         id="path8094" />
      <path
         d="m 612.89508,484.36819 0,0.98877 q -0.43396,-0.25268 -0.87341,-0.37902 -0.43946,-0.12635 -0.89539,-0.12635 -0.68664,0 -1.02722,0.22522 -0.33508,0.21973 -0.33508,0.67566 0,0.41199 0.25268,0.61524 0.25269,0.20324 1.25794,0.3955 l 0.40649,0.0769 q 0.75256,0.14282 1.13709,0.57129 0.39001,0.42846 0.39001,1.11511 0,0.91186 -0.64819,1.42822 -0.6482,0.51087 -1.80176,0.51087 -0.45593,0 -0.95581,-0.0989 -0.49988,-0.0934 -1.08215,-0.28565 l 0,-1.0437 q 0.56579,0.29114 1.08215,0.43946 0.51636,0.14282 0.97778,0.14282 0.67017,0 1.03821,-0.26917 0.36804,-0.27465 0.36804,-0.76355 0,-0.70312 -1.34582,-0.97229 l -0.0439,-0.011 -0.37903,-0.0769 q -0.87341,-0.17028 -1.27441,-0.57129 -0.401,-0.40649 -0.401,-1.10412 0,-0.8844 0.59875,-1.36231 0.59876,-0.48339 1.70838,-0.48339 0.49438,0 0.95031,0.0934 0.45594,0.0879 0.89539,0.26916 z"
         style="font-style:normal;font-variant:normal;font-weight:normal;font-stretch:normal;font-size:11.25px;line-height:129.99999523%;font-family:'Bitstream Vera Sans Mono';-inkscape-font-specification:'Bitstream Vera Sans Mono'"
         id="path8096" />
      <path
         d="m 617.69611,482.40713 0,1.74683 2.29614,0 0,0.78552 -2.29614,0 0,3.33985 q 0,0.68115 0.25817,0.95031 0.25818,0.26917 0.90088,0.26917 l 1.13709,0 0,0.80749 -1.23596,0 q -1.13709,0 -1.60401,-0.45593 -0.46692,-0.45593 -0.46692,-1.57104 l 0,-3.33985 -1.64245,0 0,-0.78552 1.64245,0 0,-1.74683 1.01075,0 z"
         style="font-style:normal;font-variant:normal;font-weight:normal;font-stretch:normal;font-size:11.25px;line-height:129.99999523%;font-family:'Bitstream Vera Sans Mono';-inkscape-font-specification:'Bitstream Vera Sans Mono'"
         id="path8098" />
      <path
         d="m 626.44122,484.36819 0,0.98877 q -0.43396,-0.25268 -0.87341,-0.37902 -0.43945,-0.12635 -0.89539,-0.12635 -0.68664,0 -1.02722,0.22522 -0.33508,0.21973 -0.33508,0.67566 0,0.41199 0.25269,0.61524 0.25268,0.20324 1.25793,0.3955 l 0.40649,0.0769 q 0.75257,0.14282 1.13709,0.57129 0.39001,0.42846 0.39001,1.11511 0,0.91186 -0.64819,1.42822 -0.64819,0.51087 -1.80176,0.51087 -0.45593,0 -0.95581,-0.0989 -0.49988,-0.0934 -1.08215,-0.28565 l 0,-1.0437 q 0.56579,0.29114 1.08215,0.43946 0.51636,0.14282 0.97778,0.14282 0.67017,0 1.03821,-0.26917 0.36804,-0.27465 0.36804,-0.76355 0,-0.70312 -1.34582,-0.97229 l -0.0439,-0.011 -0.37902,-0.0769 q -0.87342,-0.17028 -1.27442,-0.57129 -0.401,-0.40649 -0.401,-1.10412 0,-0.8844 0.59876,-1.36231 0.59875,-0.48339 1.70837,-0.48339 0.49438,0 0.95032,0.0934 0.45593,0.0879 0.89538,0.26916 z"
         style="font-style:normal;font-variant:normal;font-weight:normal;font-stretch:normal;font-size:11.25px;line-height:129.99999523%;font-family:'Bitstream Vera Sans Mono';-inkscape-font-specification:'Bitstream Vera Sans Mono'"
         id="path8100" />
    </g>
    <g
       style="font-style:normal;font-weight:normal;font-size:40px;line-height:129.99999523%;font-family:sans-serif;letter-spacing:0px;word-spacing:0px;fill:#000000;fill-opacity:1;stroke:none;stroke-width:1px;stroke-linecap:butt;stroke-linejoin:miter;stroke-opacity:1"
       id="text4575-5-2">
      <path
         d="m 571.3642,762.57983 q 0,0.68116 0.24719,1.02723 0.25268,0.34606 0.74158,0.34606 l 1.18103,0 0,0.85694 -1.27991,0 q -0.90637,0 -1.40625,-0.58228 -0.49439,-0.58227 -0.49439,-1.64795 l 0,-5.58654 -1.62048,0 0,-0.79102 2.63123,0 0,6.37756 z"
         style="font-style:normal;font-variant:normal;font-weight:normal;font-stretch:normal;font-size:11.25px;line-height:129.99999523%;font-family:'Bitstream Vera Sans Mono';-inkscape-font-specification:'Bitstream Vera Sans Mono'"
         id="path8103" />
      <path
         d="m 578.13727,762.57983 q 0,0.68116 0.24719,1.02723 0.25269,0.34606 0.74158,0.34606 l 1.18103,0 0,0.85694 -1.27991,0 q -0.90637,0 -1.40625,-0.58228 -0.49438,-0.58227 -0.49438,-1.64795 l 0,-5.58654 -1.62049,0 0,-0.79102 2.63123,0 0,6.37756 z"
         style="font-style:normal;font-variant:normal;font-weight:normal;font-stretch:normal;font-size:11.25px;line-height:129.99999523%;font-family:'Bitstream Vera Sans Mono';-inkscape-font-specification:'Bitstream Vera Sans Mono'"
         id="path8105" />
      <path
         d="m 584.91034,762.57983 q 0,0.68116 0.24719,1.02723 0.25269,0.34606 0.74158,0.34606 l 1.18103,0 0,0.85694 -1.27991,0 q -0.90637,0 -1.40625,-0.58228 -0.49438,-0.58227 -0.49438,-1.64795 l 0,-5.58654 -1.62049,0 0,-0.79102 2.63123,0 0,6.37756 z"
         style="font-style:normal;font-variant:normal;font-weight:normal;font-stretch:normal;font-size:11.25px;line-height:129.99999523%;font-family:'Bitstream Vera Sans Mono';-inkscape-font-specification:'Bitstream Vera Sans Mono'"
         id="path8107" />
      <path
         d="m 592.88641,762.83252 q -0.25268,0.6427 -0.6427,1.69189 -0.54382,1.4502 -0.73059,1.7688 -0.25268,0.42847 -0.63171,0.6427 -0.37903,0.21424 -0.8844,0.21424 l -0.81299,0 0,-0.84595 0.59876,0 q 0.44494,0 0.69763,-0.25818 0.25268,-0.25818 0.6427,-1.33484 l -2.37854,-6.05347 1.07116,0 1.82374,4.81202 1.79626,-4.81202 1.07117,0 -1.62049,4.17481 z"
         style="font-style:normal;font-variant:normal;font-weight:normal;font-stretch:normal;font-size:11.25px;line-height:129.99999523%;font-family:'Bitstream Vera Sans Mono';-inkscape-font-specification:'Bitstream Vera Sans Mono'"
         id="path8109" />
      <path
         d="m 601.08771,758.65771 -2.20276,2.94434 2.41699,3.20801 -1.17004,0 -1.80176,-2.46643 -1.79627,2.46643 -1.17004,0 2.41699,-3.20801 -2.20276,-2.94434 1.12061,0 1.63147,2.22474 1.62048,-2.22474 1.13709,0 z"
         style="font-style:normal;font-variant:normal;font-weight:normal;font-stretch:normal;font-size:11.25px;line-height:129.99999523%;font-family:'Bitstream Vera Sans Mono';-inkscape-font-specification:'Bitstream Vera Sans Mono'"
         id="path8111" />
      <path
         d="m 605.09222,756.91089 0,1.74682 2.29615,0 0,0.78553 -2.29615,0 0,3.33984 q 0,0.68115 0.25818,0.95032 0.25818,0.26916 0.90088,0.26916 l 1.13709,0 0,0.8075 -1.23597,0 q -1.13708,0 -1.604,-0.45593 -0.46692,-0.45594 -0.46692,-1.57105 l 0,-3.33984 -1.64245,0 0,-0.78553 1.64245,0 0,-1.74682 1.01074,0 z"
         style="font-style:normal;font-variant:normal;font-weight:normal;font-stretch:normal;font-size:11.25px;line-height:129.99999523%;font-family:'Bitstream Vera Sans Mono';-inkscape-font-specification:'Bitstream Vera Sans Mono'"
         id="path8113" />
      <path
         d="m 613.83734,758.87195 0,0.98877 q -0.43396,-0.25269 -0.87341,-0.37903 -0.43945,-0.12634 -0.89539,-0.12634 -0.68664,0 -1.02722,0.22522 -0.33508,0.21972 -0.33508,0.67566 0,0.41198 0.25268,0.61523 0.25269,0.20325 1.25794,0.39551 l 0.40649,0.0769 q 0.75257,0.14282 1.13709,0.57129 0.39001,0.42847 0.39001,1.11511 0,0.91187 -0.64819,1.42823 -0.6482,0.51086 -1.80176,0.51086 -0.45593,0 -0.95581,-0.0989 -0.49988,-0.0934 -1.08215,-0.28564 l 0,-1.0437 q 0.56579,0.29113 1.08215,0.43945 0.51636,0.14282 0.97778,0.14282 0.67017,0 1.03821,-0.26916 0.36804,-0.27466 0.36804,-0.76355 0,-0.70313 -1.34582,-0.97229 l -0.0439,-0.011 -0.37903,-0.0769 q -0.87341,-0.17029 -1.27441,-0.57129 -0.401,-0.4065 -0.401,-1.10413 0,-0.8844 0.59875,-1.3623 0.59876,-0.4834 1.70838,-0.4834 0.49438,0 0.95032,0.0934 0.45593,0.0879 0.89538,0.26917 z"
         style="font-style:normal;font-variant:normal;font-weight:normal;font-stretch:normal;font-size:11.25px;line-height:129.99999523%;font-family:'Bitstream Vera Sans Mono';-inkscape-font-specification:'Bitstream Vera Sans Mono'"
         id="path8115" />
      <path
         d="m 618.63837,756.91089 0,1.74682 2.29614,0 0,0.78553 -2.29614,0 0,3.33984 q 0,0.68115 0.25818,0.95032 0.25817,0.26916 0.90087,0.26916 l 1.13709,0 0,0.8075 -1.23596,0 q -1.13709,0 -1.60401,-0.45593 -0.46692,-0.45594 -0.46692,-1.57105 l 0,-3.33984 -1.64245,0 0,-0.78553 1.64245,0 0,-1.74682 1.01075,0 z"
         style="font-style:normal;font-variant:normal;font-weight:normal;font-stretch:normal;font-size:11.25px;line-height:129.99999523%;font-family:'Bitstream Vera Sans Mono';-inkscape-font-specification:'Bitstream Vera Sans Mono'"
         id="path8117" />
    </g>
    <g
       style="font-style:normal;font-weight:normal;font-size:40px;line-height:129.99999523%;font-family:sans-serif;letter-spacing:0px;word-spacing:0px;fill:#000000;fill-opacity:1;stroke:none;stroke-width:1px;stroke-linecap:butt;stroke-linejoin:miter;stroke-opacity:1"
       id="text4575-5-2-5">
      <path
         d="m 477.48383,704.93713 q 0,0.68116 0.24719,1.02722 0.25268,0.34607 0.74158,0.34607 l 1.18103,0 0,0.85694 -1.27991,0 q -0.90637,0 -1.40625,-0.58228 -0.49439,-0.58227 -0.49439,-1.64795 l 0,-5.58654 -1.62048,0 0,-0.79102 2.63123,0 0,6.37756 z"
         style="font-style:normal;font-variant:normal;font-weight:normal;font-stretch:normal;font-size:11.25px;line-height:129.99999523%;font-family:'Bitstream Vera Sans Mono';-inkscape-font-specification:'Bitstream Vera Sans Mono'"
         id="path8120" />
      <path
         d="m 485.4599,705.18982 q -0.25269,0.6427 -0.6427,1.69189 -0.54382,1.4502 -0.73059,1.7688 -0.25269,0.42847 -0.63171,0.6427 -0.37903,0.21424 -0.8844,0.21424 l -0.81299,0 0,-0.84595 0.59875,0 q 0.44495,0 0.69763,-0.25818 0.25269,-0.25818 0.6427,-1.33484 l -2.37854,-6.05347 1.07117,0 1.82373,4.81202 1.79627,-4.81202 1.07116,0 -1.62048,4.17481 z"
         style="font-style:normal;font-variant:normal;font-weight:normal;font-stretch:normal;font-size:11.25px;line-height:129.99999523%;font-family:'Bitstream Vera Sans Mono';-inkscape-font-specification:'Bitstream Vera Sans Mono'"
         id="path8122" />
      <path
         d="m 493.66119,701.01501 -2.20275,2.94434 2.41699,3.20801 -1.17005,0 -1.80175,-2.46643 -1.79627,2.46643 -1.17004,0 2.41699,-3.20801 -2.20276,-2.94434 1.12061,0 1.63147,2.22474 1.62048,-2.22474 1.13708,0 z"
         style="font-style:normal;font-variant:normal;font-weight:normal;font-stretch:normal;font-size:11.25px;line-height:129.99999523%;font-family:'Bitstream Vera Sans Mono';-inkscape-font-specification:'Bitstream Vera Sans Mono'"
         id="path8124" />
      <path
         d="m 497.66571,699.26819 0,1.74682 2.29614,0 0,0.78553 -2.29614,0 0,3.33984 q 0,0.68115 0.25818,0.95032 0.25818,0.26916 0.90088,0.26916 l 1.13708,0 0,0.8075 -1.23596,0 q -1.13708,0 -1.604,-0.45593 -0.46692,-0.45594 -0.46692,-1.57105 l 0,-3.33984 -1.64246,0 0,-0.78553 1.64246,0 0,-1.74682 1.01074,0 z"
         style="font-style:normal;font-variant:normal;font-weight:normal;font-stretch:normal;font-size:11.25px;line-height:129.99999523%;font-family:'Bitstream Vera Sans Mono';-inkscape-font-specification:'Bitstream Vera Sans Mono'"
         id="path8126" />
      <path
         d="m 506.41083,701.22925 0,0.98877 q -0.43396,-0.25269 -0.87342,-0.37903 -0.43945,-0.12634 -0.89538,-0.12634 -0.68665,0 -1.02722,0.22522 -0.33509,0.21972 -0.33509,0.67565 0,0.41199 0.25269,0.61524 0.25269,0.20325 1.25793,0.39551 l 0.4065,0.0769 q 0.75256,0.14282 1.13708,0.57129 0.39002,0.42847 0.39002,1.11511 0,0.91187 -0.6482,1.42823 -0.64819,0.51086 -1.80175,0.51086 -0.45594,0 -0.95581,-0.0989 -0.49988,-0.0934 -1.08216,-0.28564 l 0,-1.0437 q 0.5658,0.29113 1.08216,0.43945 0.51635,0.14282 0.97778,0.14282 0.67017,0 1.03821,-0.26916 0.36804,-0.27466 0.36804,-0.76355 0,-0.70313 -1.34583,-0.97229 l -0.0439,-0.011 -0.37903,-0.0769 q -0.87341,-0.17029 -1.27441,-0.57129 -0.401,-0.4065 -0.401,-1.10413 0,-0.8844 0.59875,-1.3623 0.59876,-0.4834 1.70837,-0.4834 0.49439,0 0.95032,0.0934 0.45593,0.0879 0.89539,0.26917 z"
         style="font-style:normal;font-variant:normal;font-weight:normal;font-stretch:normal;font-size:11.25px;line-height:129.99999523%;font-family:'Bitstream Vera Sans Mono';-inkscape-font-specification:'Bitstream Vera Sans Mono'"
         id="path8128" />
      <path
         d="m 511.21185,699.26819 0,1.74682 2.29615,0 0,0.78553 -2.29615,0 0,3.33984 q 0,0.68115 0.25818,0.95032 0.25818,0.26916 0.90088,0.26916 l 1.13709,0 0,0.8075 -1.23597,0 q -1.13708,0 -1.604,-0.45593 -0.46692,-0.45594 -0.46692,-1.57105 l 0,-3.33984 -1.64246,0 0,-0.78553 1.64246,0 0,-1.74682 1.01074,0 z"
         style="font-style:normal;font-variant:normal;font-weight:normal;font-stretch:normal;font-size:11.25px;line-height:129.99999523%;font-family:'Bitstream Vera Sans Mono';-inkscape-font-specification:'Bitstream Vera Sans Mono'"
         id="path8130" />
    </g>
    <g
       style="font-style:normal;font-weight:normal;font-size:40px;line-height:129.99999523%;font-family:sans-serif;letter-spacing:0px;word-spacing:0px;fill:#000000;fill-opacity:1;stroke:none;stroke-width:1px;stroke-linecap:butt;stroke-linejoin:miter;stroke-opacity:1"
       id="text4575-5-3">
      <path
         d="m 572.57501,629.04852 -0.33508,0 q -0.8844,0 -1.33484,0.31311 -0.44495,0.30762 -0.44495,0.92285 0,0.55481 0.33509,0.86243 0.33508,0.30762 0.92834,0.30762 0.83496,0 1.31287,-0.57678 0.4779,-0.58228 0.4834,-1.60401 l 0,-0.22522 -0.94483,0 z m 1.96106,-0.41748 0,3.51013 -1.01623,0 0,-0.91186 q -0.3241,0.54931 -0.81849,0.81299 -0.48889,0.25818 -1.19201,0.25818 -0.93933,0 -1.49964,-0.52735 -0.5603,-0.53284 -0.5603,-1.42273 0,-1.02722 0.68665,-1.56006 0.69214,-0.53283 2.02697,-0.53283 l 1.35682,0 0,-0.1593 q -0.006,-0.73609 -0.37354,-1.06568 -0.36804,-0.33508 -1.17554,-0.33508 -0.51635,0 -1.0437,0.14831 -0.52734,0.14832 -1.02722,0.43396 l 0,-1.01074 q 0.5603,-0.21423 1.07117,-0.3186 0.51636,-0.10987 0.99975,-0.10987 0.76355,0 1.30188,0.22522 0.54383,0.22522 0.87891,0.67566 0.20874,0.27466 0.29663,0.68116 0.0879,0.401 0.0879,1.20849 z"
         style="font-style:normal;font-variant:normal;font-weight:normal;font-stretch:normal;font-size:11.25px;line-height:129.99999523%;font-family:'Bitstream Vera Sans Mono';-inkscape-font-specification:'Bitstream Vera Sans Mono'"
         id="path8133" />
      <path
         d="m 579.34808,629.04852 -0.33508,0 q -0.8844,0 -1.33484,0.31311 -0.44494,0.30762 -0.44494,0.92285 0,0.55481 0.33508,0.86243 0.33508,0.30762 0.92834,0.30762 0.83496,0 1.31287,-0.57678 0.4779,-0.58228 0.4834,-1.60401 l 0,-0.22522 -0.94483,0 z m 1.96106,-0.41748 0,3.51013 -1.01623,0 0,-0.91186 q -0.3241,0.54931 -0.81848,0.81299 -0.4889,0.25818 -1.19202,0.25818 -0.93933,0 -1.49963,-0.52735 -0.56031,-0.53284 -0.56031,-1.42273 0,-1.02722 0.68665,-1.56006 0.69214,-0.53283 2.02698,-0.53283 l 1.35681,0 0,-0.1593 q -0.005,-0.73609 -0.37354,-1.06568 -0.36804,-0.33508 -1.17553,-0.33508 -0.51636,0 -1.04371,0.14831 -0.52734,0.14832 -1.02722,0.43396 l 0,-1.01074 q 0.56031,-0.21423 1.07117,-0.3186 0.51636,-0.10987 0.99976,-0.10987 0.76355,0 1.30188,0.22522 0.54382,0.22522 0.8789,0.67566 0.20874,0.27466 0.29663,0.68116 0.0879,0.401 0.0879,1.20849 z"
         style="font-style:normal;font-variant:normal;font-weight:normal;font-stretch:normal;font-size:11.25px;line-height:129.99999523%;font-family:'Bitstream Vera Sans Mono';-inkscape-font-specification:'Bitstream Vera Sans Mono'"
         id="path8135" />
      <path
         d="m 585.77509,629.91095 q 0,0.68115 0.24719,1.02722 0.25268,0.34607 0.74157,0.34607 l 1.18104,0 0,0.85693 -1.27991,0 q -0.90637,0 -1.40625,-0.58227 -0.49439,-0.58228 -0.49439,-1.64795 l 0,-5.58655 -1.62048,0 0,-0.79101 2.63123,0 0,6.37756 z"
         style="font-style:normal;font-variant:normal;font-weight:normal;font-stretch:normal;font-size:11.25px;line-height:129.99999523%;font-family:'Bitstream Vera Sans Mono';-inkscape-font-specification:'Bitstream Vera Sans Mono'"
         id="path8137" />
      <path
         d="m 593.75116,630.16363 q -0.25269,0.6427 -0.6427,1.6919 -0.54382,1.45019 -0.73059,1.7688 -0.25269,0.42846 -0.63172,0.6427 -0.37902,0.21423 -0.88439,0.21423 l -0.81299,0 0,-0.84595 0.59875,0 q 0.44495,0 0.69763,-0.25817 0.25269,-0.25818 0.6427,-1.33484 l -2.37854,-6.05347 1.07117,0 1.82373,4.81201 1.79627,-4.81201 1.07116,0 -1.62048,4.1748 z"
         style="font-style:normal;font-variant:normal;font-weight:normal;font-stretch:normal;font-size:11.25px;line-height:129.99999523%;font-family:'Bitstream Vera Sans Mono';-inkscape-font-specification:'Bitstream Vera Sans Mono'"
         id="path8139" />
      <path
         d="m 601.95245,625.98883 -2.20276,2.94434 2.417,3.208 -1.17005,0 -1.80175,-2.46643 -1.79627,2.46643 -1.17004,0 2.41699,-3.208 -2.20276,-2.94434 1.12061,0 1.63147,2.22473 1.62048,-2.22473 1.13708,0 z"
         style="font-style:normal;font-variant:normal;font-weight:normal;font-stretch:normal;font-size:11.25px;line-height:129.99999523%;font-family:'Bitstream Vera Sans Mono';-inkscape-font-specification:'Bitstream Vera Sans Mono'"
         id="path8141" />
      <path
         d="m 605.95697,624.242 0,1.74683 2.29614,0 0,0.78552 -2.29614,0 0,3.33985 q 0,0.68115 0.25818,0.95031 0.25818,0.26917 0.90088,0.26917 l 1.13708,0 0,0.80749 -1.23596,0 q -1.13708,0 -1.604,-0.45593 -0.46692,-0.45593 -0.46692,-1.57104 l 0,-3.33985 -1.64246,0 0,-0.78552 1.64246,0 0,-1.74683 1.01074,0 z"
         style="font-style:normal;font-variant:normal;font-weight:normal;font-stretch:normal;font-size:11.25px;line-height:129.99999523%;font-family:'Bitstream Vera Sans Mono';-inkscape-font-specification:'Bitstream Vera Sans Mono'"
         id="path8143" />
      <path
         d="m 614.70209,626.20306 0,0.98877 q -0.43396,-0.25268 -0.87342,-0.37903 -0.43945,-0.12634 -0.89538,-0.12634 -0.68665,0 -1.02722,0.22522 -0.33509,0.21973 -0.33509,0.67566 0,0.41199 0.25269,0.61524 0.25268,0.20324 1.25793,0.3955 l 0.4065,0.0769 q 0.75256,0.14282 1.13708,0.57129 0.39002,0.42846 0.39002,1.11511 0,0.91186 -0.6482,1.42822 -0.64819,0.51087 -1.80175,0.51087 -0.45594,0 -0.95581,-0.0989 -0.49988,-0.0934 -1.08216,-0.28565 l 0,-1.0437 q 0.5658,0.29114 1.08216,0.43946 0.51635,0.14282 0.97778,0.14282 0.67017,0 1.03821,-0.26917 0.36804,-0.27465 0.36804,-0.76355 0,-0.70312 -1.34583,-0.97229 l -0.0439,-0.011 -0.37903,-0.0769 q -0.87341,-0.17029 -1.27441,-0.57129 -0.401,-0.40649 -0.401,-1.10412 0,-0.8844 0.59875,-1.36231 0.59876,-0.4834 1.70837,-0.4834 0.49439,0 0.95032,0.0934 0.45593,0.0879 0.89539,0.26916 z"
         style="font-style:normal;font-variant:normal;font-weight:normal;font-stretch:normal;font-size:11.25px;line-height:129.99999523%;font-family:'Bitstream Vera Sans Mono';-inkscape-font-specification:'Bitstream Vera Sans Mono'"
         id="path8145" />
      <path
         d="m 619.50311,624.242 0,1.74683 2.29615,0 0,0.78552 -2.29615,0 0,3.33985 q 0,0.68115 0.25818,0.95031 0.25818,0.26917 0.90088,0.26917 l 1.13709,0 0,0.80749 -1.23597,0 q -1.13708,0 -1.604,-0.45593 -0.46692,-0.45593 -0.46692,-1.57104 l 0,-3.33985 -1.64246,0 0,-0.78552 1.64246,0 0,-1.74683 1.01074,0 z"
         style="font-style:normal;font-variant:normal;font-weight:normal;font-stretch:normal;font-size:11.25px;line-height:129.99999523%;font-family:'Bitstream Vera Sans Mono';-inkscape-font-specification:'Bitstream Vera Sans Mono'"
         id="path8147" />
    </g>
    <g
       style="font-style:normal;font-weight:normal;font-size:40px;line-height:1000%;font-family:sans-serif;letter-spacing:0px;word-spacing:0px;fill:#000000;fill-opacity:1;stroke:none;stroke-width:1px;stroke-linecap:butt;stroke-linejoin:miter;stroke-opacity:1"
       id="text5498-6-3-9-8">
      <path
         d="m 692.82989,672.25943 q -1.28,0 -2.04,-0.64 -0.74,-0.66 -0.74,-1.92 0,-0.36 0.04,-0.68 0.18,-0.96 0.94,-2.94 l 0.32,-0.96 q 0.12,-0.36 0.12,-0.68 0,-0.5 -0.38,-0.5 -0.14,0 -0.32,0.06 -1.02,0.36 -1.54,2.3 0,0.02 -0.02,0.08 -0.02,0.04 -0.04,0.06 0,0 -0.02,0.02 -0.02,0.02 -0.08,0.02 -0.04,0 -0.08,0 -0.04,0 -0.16,0 l -0.28,0 q -0.12,-0.12 -0.12,-0.18 0,-0.06 0.06,-0.3 0.48,-1.58 1.48,-2.36 0.54,-0.42 1.24,-0.42 0.78,0 1.28,0.44 0.5,0.44 0.5,1.16 0,0.34 -0.06,0.52 0,0.14 -0.3,0.88 -0.92,2.5 -0.98,3.56 0,0.54 0.1,0.88 0.26,0.86 1.26,0.86 0.54,0 0.96,-0.32 1.24,-0.82 2.06,-3.78 0.16,-0.56 0.16,-0.92 0,-0.88 -0.78,-1.58 -0.26,-0.24 -0.26,-0.54 0,-0.46 0.36,-0.82 0.38,-0.38 0.84,-0.38 0.48,0 0.74,0.46 0.26,0.44 0.26,1.06 0,0.7 -0.4,2.3 -0.38,1.54 -0.96,2.68 -1.26,2.58 -3.16,2.58 z"
         style="font-size:20px"
         id="path8150" />
      <path
         d="m 701.60959,672.03943 q -0.15937,-0.0281 -1.49062,-0.0281 -1.3125,0 -1.47188,0.0281 l -0.1125,0 0,-0.43125 0.24375,0 q 0.54375,0 0.70313,-0.0281 0.075,-0.009 0.225,-0.1125 l 0,-4.84687 q -0.0187,0 -0.075,0.0281 -0.43125,0.16875 -0.96563,0.17813 l -0.17812,0 0,-0.43125 0.17812,0 q 0.7875,-0.0281 1.3125,-0.35625 0.16875,-0.0937 0.29063,-0.21563 0.0188,-0.0281 0.1125,-0.0281 0.0937,0 0.15937,0.0563 l 0,2.80312 0.009,2.8125 q 0.14062,0.14063 0.60937,0.14063 l 0.30938,0 0.24375,0 0,0.43125 -0.10313,0 z"
         style="font-style:normal;font-variant:normal;font-weight:normal;font-stretch:normal;font-size:9.375px;font-family:KaTeX_Main;-inkscape-font-specification:KaTeX_Main"
         id="path8152" />
    </g>
    <g
       style="font-style:normal;font-weight:normal;font-size:40px;line-height:1000%;font-family:sans-serif;letter-spacing:0px;word-spacing:0px;fill:#000000;fill-opacity:1;stroke:none;stroke-width:1px;stroke-linecap:butt;stroke-linejoin:miter;stroke-opacity:1"
       id="text5498-6-3-9-06">
      <path
         d="m 592.15533,672.25943 q -1.28,0 -2.04,-0.64 -0.74,-0.66 -0.74,-1.92 0,-0.36 0.04,-0.68 0.18,-0.96 0.94,-2.94 l 0.32,-0.96 q 0.12,-0.36 0.12,-0.68 0,-0.5 -0.38,-0.5 -0.14,0 -0.32,0.06 -1.02,0.36 -1.54,2.3 0,0.02 -0.02,0.08 -0.02,0.04 -0.04,0.06 0,0 -0.02,0.02 -0.02,0.02 -0.08,0.02 -0.04,0 -0.08,0 -0.04,0 -0.16,0 l -0.28,0 q -0.12,-0.12 -0.12,-0.18 0,-0.06 0.06,-0.3 0.48,-1.58 1.48,-2.36 0.54,-0.42 1.24,-0.42 0.78,0 1.28,0.44 0.5,0.44 0.5,1.16 0,0.34 -0.06,0.52 0,0.14 -0.3,0.88 -0.92,2.5 -0.98,3.56 0,0.54 0.1,0.88 0.26,0.86 1.26,0.86 0.54,0 0.96,-0.32 1.24,-0.82 2.06,-3.78 0.16,-0.56 0.16,-0.92 0,-0.88 -0.78,-1.58 -0.26,-0.24 -0.26,-0.54 0,-0.46 0.36,-0.82 0.38,-0.38 0.84,-0.38 0.48,0 0.74,0.46 0.26,0.44 0.26,1.06 0,0.7 -0.4,2.3 -0.38,1.54 -0.96,2.68 -1.26,2.58 -3.16,2.58 z"
         style="font-size:20px"
         id="path8155" />
      <path
         d="m 598.06628,668.01755 q -0.2625,0 -0.4125,-0.16875 -0.15,-0.16875 -0.15,-0.4125 0,-0.675 0.50625,-1.15312 0.51563,-0.4875 1.22813,-0.4875 0.80625,0 1.33125,0.44062 0.53437,0.43125 0.65625,1.13438 0.0188,0.16875 0.0188,0.30937 0,0.54375 -0.32813,1.02188 -0.2625,0.39375 -1.05937,1.07812 -0.3375,0.29063 -0.9375,0.8625 l -0.55313,0.525 0.7125,0.009 q 1.47188,0 1.56563,-0.0469 0.0375,-0.009 0.0937,-0.19687 0.0375,-0.10313 0.13125,-0.6375 l 0,-0.0281 0.375,0 0,0.0281 -0.2625,1.71562 0,0.0281 -3.47813,0 0,-0.17813 q 0,-0.1875 0.0187,-0.21562 0.009,-0.009 0.7875,-0.89063 1.02188,-1.13437 1.3125,-1.5 0.62813,-0.85312 0.62813,-1.56562 0,-0.61875 -0.32813,-1.03125 -0.31875,-0.42188 -0.9,-0.42188 -0.54375,0 -0.88125,0.4875 -0.0188,0.0375 -0.0563,0.10313 -0.0281,0.0469 -0.0281,0.0563 0,0.009 0.0469,0.009 0.23438,0 0.375,0.16875 0.15,0.16875 0.15,0.39375 0,0.23438 -0.15937,0.40313 -0.15,0.15937 -0.40313,0.15937 z"
         style="font-style:normal;font-variant:normal;font-weight:normal;font-stretch:normal;font-size:9.375px;font-family:KaTeX_Main;-inkscape-font-specification:KaTeX_Main"
         id="path8157" />
    </g>
    <g
       style="font-style:normal;font-weight:normal;font-size:40px;line-height:1000%;font-family:sans-serif;letter-spacing:0px;word-spacing:0px;fill:#000000;fill-opacity:1;stroke:none;stroke-width:1px;stroke-linecap:butt;stroke-linejoin:miter;stroke-opacity:1"
       id="text5498-6-3-9-0">
      <path
         d="m 491.5465,672.25943 q -1.28,0 -2.04,-0.64 -0.74,-0.66 -0.74,-1.92 0,-0.36 0.04,-0.68 0.18,-0.96 0.94,-2.94 l 0.32,-0.96 q 0.12,-0.36 0.12,-0.68 0,-0.5 -0.38,-0.5 -0.14,0 -0.32,0.06 -1.02,0.36 -1.54,2.3 0,0.02 -0.02,0.08 -0.02,0.04 -0.04,0.06 0,0 -0.02,0.02 -0.02,0.02 -0.08,0.02 -0.04,0 -0.08,0 -0.04,0 -0.16,0 l -0.28,0 q -0.12,-0.12 -0.12,-0.18 0,-0.06 0.06,-0.3 0.48,-1.58 1.48,-2.36 0.54,-0.42 1.24,-0.42 0.78,0 1.28,0.44 0.5,0.44 0.5,1.16 0,0.34 -0.06,0.52 0,0.14 -0.3,0.88 -0.92,2.5 -0.98,3.56 0,0.54 0.1,0.88 0.26,0.86 1.26,0.86 0.54,0 0.96,-0.32 1.24,-0.82 2.06,-3.78 0.16,-0.56 0.16,-0.92 0,-0.88 -0.78,-1.58 -0.26,-0.24 -0.26,-0.54 0,-0.46 0.36,-0.82 0.38,-0.38 0.84,-0.38 0.48,0 0.74,0.46 0.26,0.44 0.26,1.06 0,0.7 -0.4,2.3 -0.38,1.54 -0.96,2.68 -1.26,2.58 -3.16,2.58 z"
         style="font-size:20px"
         id="path8160" />
      <path
         d="m 497.61683,667.6988 q -0.25312,0 -0.40312,-0.15937 -0.14063,-0.15938 -0.14063,-0.4125 0,-0.53438 0.42188,-0.89063 0.42187,-0.36562 0.975,-0.43125 l 0.14062,0 q 0.32813,0 0.4125,0.009 0.30938,0.0469 0.62813,0.19687 0.61875,0.30938 0.77812,0.88125 0.0281,0.0937 0.0281,0.25313 0,0.55312 -0.34688,0.99375 -0.3375,0.43125 -0.85312,0.61875 -0.0469,0.0187 0,0.0281 0.0188,0.009 0.0937,0.0281 0.57187,0.15937 0.96562,0.6 0.39375,0.43125 0.39375,0.98437 0,0.38438 -0.17812,0.74063 -0.225,0.47812 -0.74063,0.79687 -0.50625,0.30938 -1.13437,0.30938 -0.61875,0 -1.09688,-0.2625 -0.47812,-0.2625 -0.64687,-0.70313 -0.0937,-0.19687 -0.0937,-0.45937 0,-0.2625 0.16875,-0.42188 0.17812,-0.16875 0.42187,-0.16875 0.2625,0 0.43125,0.16875 0.16875,0.16875 0.16875,0.42188 0,0.21562 -0.12187,0.375 -0.12188,0.15937 -0.32813,0.20625 l -0.0656,0.0187 q 0.50625,0.42187 1.1625,0.42187 0.51562,0 0.77812,-0.49687 0.15938,-0.30938 0.15938,-0.94688 l 0,-0.1875 q 0,-0.89062 -0.6,-1.19062 -0.14063,-0.0562 -0.57188,-0.0656 l -0.39375,-0.009 -0.0281,-0.0188 q -0.0188,-0.0281 -0.0188,-0.15 0,-0.1125 0.0281,-0.14063 0.0281,-0.0281 0.0469,-0.0281 0.2625,0 0.54375,-0.0469 0.4125,-0.0562 0.62812,-0.45937 0.21563,-0.4125 0.21563,-0.98438 0,-0.60937 -0.32813,-0.81562 -0.19687,-0.13125 -0.44062,-0.13125 -0.46875,0 -0.825,0.25312 -0.0375,0.0187 -0.0844,0.0656 -0.0469,0.0375 -0.075,0.075 l -0.0281,0.0375 q 0.0281,0.009 0.0656,0.0187 0.1875,0.0187 0.30938,0.17812 0.13125,0.15938 0.13125,0.36563 0,0.225 -0.15938,0.38437 -0.15,0.15 -0.39375,0.15 z"
         style="font-style:normal;font-variant:normal;font-weight:normal;font-stretch:normal;font-size:9.375px;font-family:KaTeX_Main;-inkscape-font-specification:KaTeX_Main"
         id="path8162" />
    </g>
    <g
       style="font-style:normal;font-weight:normal;font-size:40px;line-height:1000%;font-family:sans-serif;letter-spacing:0px;word-spacing:0px;fill:#000000;fill-opacity:1;stroke:none;stroke-width:1px;stroke-linecap:butt;stroke-linejoin:miter;stroke-opacity:1"
       id="text5498-6-3-9">
      <path
         d="m 390.90945,672.25943 q -1.28,0 -2.04,-0.64 -0.74,-0.66 -0.74,-1.92 0,-0.36 0.04,-0.68 0.18,-0.96 0.94,-2.94 l 0.32,-0.96 q 0.12,-0.36 0.12,-0.68 0,-0.5 -0.38,-0.5 -0.14,0 -0.32,0.06 -1.02,0.36 -1.54,2.3 0,0.02 -0.02,0.08 -0.02,0.04 -0.04,0.06 0,0 -0.02,0.02 -0.02,0.02 -0.08,0.02 -0.04,0 -0.08,0 -0.04,0 -0.16,0 l -0.28,0 q -0.12,-0.12 -0.12,-0.18 0,-0.06 0.06,-0.3 0.48,-1.58 1.48,-2.36 0.54,-0.42 1.24,-0.42 0.78,0 1.28,0.44 0.5,0.44 0.5,1.16 0,0.34 -0.06,0.52 0,0.14 -0.3,0.88 -0.92,2.5 -0.98,3.56 0,0.54 0.1,0.88 0.26,0.86 1.26,0.86 0.54,0 0.96,-0.32 1.24,-0.82 2.06,-3.78 0.16,-0.56 0.16,-0.92 0,-0.88 -0.78,-1.58 -0.26,-0.24 -0.26,-0.54 0,-0.46 0.36,-0.82 0.38,-0.38 0.84,-0.38 0.48,0 0.74,0.46 0.26,0.44 0.26,1.06 0,0.7 -0.4,2.3 -0.38,1.54 -0.96,2.68 -1.26,2.58 -3.16,2.58 z"
         style="font-size:20px"
         id="path8165" />
      <path
         d="m 400.1204,672.03943 q -0.13125,-0.0281 -1.20937,-0.0281 -1.125,0 -1.25625,0.0281 l -0.0844,0 0,-0.43125 0.29063,0 q 0.40312,-0.009 0.49687,-0.0469 0.075,-0.0187 0.1125,-0.0937 0.009,-0.0187 0.009,-0.50625 l 0,-0.46875 -2.42813,0 0,-0.43125 1.41563,-2.16562 q 1.43437,-2.175 1.45312,-2.18438 0.0188,-0.0188 0.19688,-0.0188 l 0.16875,0 0.0563,0.0562 0,4.3125 0.8625,0 0,0.43125 -0.8625,0 0,0.47813 q 0,0.38437 0,0.45 0.009,0.0656 0.0562,0.1125 0.075,0.0656 0.53437,0.075 l 0.27188,0 0,0.43125 -0.0844,0 z m -1.58437,-1.97813 0,-3.13125 -2.05313,3.12188 1.02188,0.009 1.03125,0 z"
         style="font-style:normal;font-variant:normal;font-weight:normal;font-stretch:normal;font-size:9.375px;font-family:KaTeX_Main;-inkscape-font-specification:KaTeX_Main"
         id="path8167" />
    </g>
    <g
       style="font-style:normal;font-weight:normal;font-size:40px;line-height:1000%;font-family:sans-serif;letter-spacing:0px;word-spacing:0px;fill:#000000;fill-opacity:1;stroke:none;stroke-width:1px;stroke-linecap:butt;stroke-linejoin:miter;stroke-opacity:1"
       id="text5498-6-3-3">
      <path
         d="m 290.44115,672.25943 q -1.28,0 -2.04,-0.64 -0.74,-0.66 -0.74,-1.92 0,-0.36 0.04,-0.68 0.18,-0.96 0.94,-2.94 l 0.32,-0.96 q 0.12,-0.36 0.12,-0.68 0,-0.5 -0.38,-0.5 -0.14,0 -0.32,0.06 -1.02,0.36 -1.54,2.3 0,0.02 -0.02,0.08 -0.02,0.04 -0.04,0.06 0,0 -0.02,0.02 -0.02,0.02 -0.08,0.02 -0.04,0 -0.08,0 -0.04,0 -0.16,0 l -0.28,0 q -0.12,-0.12 -0.12,-0.18 0,-0.06 0.06,-0.3 0.48,-1.58 1.48,-2.36 0.54,-0.42 1.24,-0.42 0.78,0 1.28,0.44 0.5,0.44 0.5,1.16 0,0.34 -0.06,0.52 0,0.14 -0.3,0.88 -0.92,2.5 -0.98,3.56 0,0.54 0.1,0.88 0.26,0.86 1.26,0.86 0.54,0 0.96,-0.32 1.24,-0.82 2.06,-3.78 0.16,-0.56 0.16,-0.92 0,-0.88 -0.78,-1.58 -0.26,-0.24 -0.26,-0.54 0,-0.46 0.36,-0.82 0.38,-0.38 0.84,-0.38 0.48,0 0.74,0.46 0.26,0.44 0.26,1.06 0,0.7 -0.4,2.3 -0.38,1.54 -0.96,2.68 -1.26,2.58 -3.16,2.58 z"
         style="font-size:20px"
         id="path8170" />
      <path
         d="m 296.32399,670.03318 q 0.225,0 0.375,0.15937 0.15937,0.15 0.15937,0.38438 0,0.21562 -0.15937,0.36562 -0.15938,0.15 -0.35625,0.15 l -0.0656,0 0.0281,0.0469 q 0.14062,0.3 0.43125,0.49687 0.29062,0.19688 0.68437,0.19688 0.66563,0 0.95625,-0.5625 0.17813,-0.34688 0.17813,-1.2 0,-0.96563 -0.25313,-1.30313 -0.24375,-0.30937 -0.6,-0.30937 -0.73125,0 -1.10625,0.6375 -0.0375,0.0656 -0.075,0.0844 -0.0281,0.009 -0.13125,0.009 -0.15937,0 -0.17812,-0.0562 -0.0188,-0.0375 -0.0188,-1.64063 0,-0.28125 -0.009,-0.66562 0,-0.38438 0,-0.4875 0,-0.525 0.0563,-0.525 0.0187,-0.0188 0.0375,-0.0188 l 0.16875,0.0563 q 0.60938,0.24375 1.24688,0.24375 0.66562,0 1.275,-0.2625 0.075,-0.0375 0.12187,-0.0375 0.075,0 0.075,0.16875 l 0,0.12187 q -0.75937,0.90938 -1.92187,0.90938 -0.29063,0 -0.525,-0.0562 l -0.0937,-0.0188 0,1.6125 q 0.53437,-0.43125 1.09687,-0.43125 0.17813,0 0.38438,0.0469 0.62812,0.15938 1.02187,0.7125 0.40313,0.55313 0.40313,1.29375 0,0.85313 -0.6,1.47188 -0.59063,0.61875 -1.4625,0.61875 -0.59063,0 -1.00313,-0.32813 -0.17812,-0.1125 -0.30937,-0.30937 -0.28125,-0.3375 -0.35625,-0.83438 0,-0.0281 -0.009,-0.0844 0,-0.0656 0,-0.0937 0,-0.2625 0.15,-0.4125 0.15,-0.15 0.38438,-0.15 z"
         style="font-style:normal;font-variant:normal;font-weight:normal;font-stretch:normal;font-size:9.375px;font-family:KaTeX_Main;-inkscape-font-specification:KaTeX_Main"
         id="path8172" />
    </g>
    <g
       style="font-style:normal;font-weight:normal;font-size:40px;line-height:1000%;font-family:sans-serif;letter-spacing:0px;word-spacing:0px;fill:#000000;fill-opacity:1;stroke:none;stroke-width:1px;stroke-linecap:butt;stroke-linejoin:miter;stroke-opacity:1"
       id="text5498-6-3">
      <path
         d="m 190.83692,672.25943 q -1.28,0 -2.04,-0.64 -0.74,-0.66 -0.74,-1.92 0,-0.36 0.04,-0.68 0.18,-0.96 0.94,-2.94 l 0.32,-0.96 q 0.12,-0.36 0.12,-0.68 0,-0.5 -0.38,-0.5 -0.14,0 -0.32,0.06 -1.02,0.36 -1.54,2.3 0,0.02 -0.02,0.08 -0.02,0.04 -0.04,0.06 0,0 -0.02,0.02 -0.02,0.02 -0.08,0.02 -0.04,0 -0.08,0 -0.04,0 -0.16,0 l -0.28,0 q -0.12,-0.12 -0.12,-0.18 0,-0.06 0.06,-0.3 0.48,-1.58 1.48,-2.36 0.54,-0.42 1.24,-0.42 0.78,0 1.28,0.44 0.5,0.44 0.5,1.16 0,0.34 -0.06,0.52 0,0.14 -0.3,0.88 -0.92,2.5 -0.98,3.56 0,0.54 0.1,0.88 0.26,0.86 1.26,0.86 0.54,0 0.96,-0.32 1.24,-0.82 2.06,-3.78 0.16,-0.56 0.16,-0.92 0,-0.88 -0.78,-1.58 -0.26,-0.24 -0.26,-0.54 0,-0.46 0.36,-0.82 0.38,-0.38 0.84,-0.38 0.48,0 0.74,0.46 0.26,0.44 0.26,1.06 0,0.7 -0.4,2.3 -0.38,1.54 -0.96,2.68 -1.26,2.58 -3.16,2.58 z"
         style="font-size:20px"
         id="path8175" />
      <path
         d="m 199.2135,666.40505 q -0.20625,-0.20625 -0.58125,-0.23437 -0.65625,0 -1.09687,0.5625 -0.44063,0.60937 -0.44063,1.89375 l 0.009,0.0375 0.075,-0.12188 q 0.38437,-0.5625 1.04062,-0.5625 0.43125,0 0.75938,0.17813 0.225,0.13125 0.45,0.38437 0.225,0.24375 0.36562,0.525 0.19688,0.45938 0.19688,1.00313 l 0,0.16875 q 0,0.21562 -0.0469,0.40312 -0.1125,0.55313 -0.58125,1.04063 -0.40312,0.42187 -0.9,0.525 -0.15,0.0375 -0.375,0.0375 -0.17812,0 -0.31875,-0.0281 -0.69375,-0.13125 -1.10625,-0.75 -0.55312,-0.87187 -0.55312,-2.3625 0,-1.0125 0.35625,-1.77187 0.35625,-0.75938 0.99375,-1.18125 0.50625,-0.35625 1.09687,-0.35625 0.54375,0 0.87188,0.29062 0.3375,0.29063 0.3375,0.79688 0,0.23437 -0.14063,0.375 -0.13125,0.14062 -0.35625,0.14062 -0.225,0 -0.36562,-0.13125 -0.13125,-0.13125 -0.13125,-0.36562 0,-0.42188 0.44062,-0.49688 z m -0.4125,2.25 q -0.2625,-0.3375 -0.675,-0.3375 -0.34687,0 -0.5625,0.21563 -0.45937,0.45937 -0.45937,1.48125 0,0.83437 0.1125,1.15312 0.0937,0.28125 0.31875,0.47813 0.225,0.19687 0.53437,0.19687 0.47813,0 0.73125,-0.35625 0.14063,-0.19687 0.17813,-0.46875 0.0375,-0.27187 0.0375,-0.7875 l 0,-0.15 0,-0.15 q 0,-0.53437 -0.0375,-0.80625 -0.0375,-0.27187 -0.17813,-0.46875 z"
         style="font-style:normal;font-variant:normal;font-weight:normal;font-stretch:normal;font-size:9.375px;font-family:KaTeX_Main;-inkscape-font-specification:KaTeX_Main"
         id="path8177" />
    </g>
    <g
       style="font-style:normal;font-weight:normal;font-size:40px;line-height:1000%;font-family:sans-serif;letter-spacing:0px;word-spacing:0px;fill:#000000;fill-opacity:1;stroke:none;stroke-width:1px;stroke-linecap:butt;stroke-linejoin:miter;stroke-opacity:1"
       id="text5498-9-3-5">
      <path
         d="m 396.55709,515.79939 q 0.3,-0.02 0.68,-0.04 0.38,-0.04 0.56,-0.06 0.2,-0.02 0.22,-0.02 0.24,0 0.24,0.16 0,0.14 -1.48,6.06 -1.46,5.9 -1.48,6 -0.02,0.1 -0.02,0.3 0,0.84 0.56,0.84 0.18,-0.02 0.4,-0.18 0.42,-0.4 0.82,-1.92 0.12,-0.4 0.2,-0.42 0.04,-0.02 0.2,-0.02 l 0.08,0 q 0.38,0 0.38,0.16 0,0.08 -0.06,0.32 -0.44,1.68 -1.08,2.32 -0.26,0.26 -0.64,0.42 -0.16,0.04 -0.48,0.04 -1.26,0 -1.76,-0.98 -0.1,-0.26 -0.1,-0.24 -0.02,-0.02 -0.08,0.02 -0.04,0.04 -0.08,0.08 -0.96,0.9 -1.9,1.1 -0.12,0.02 -0.5,0.02 -1.32,0 -2.18,-1.1 -0.6,-0.88 -0.6,-2.24 0,-1.86 1.36,-3.68 1.24,-1.52 2.76,-1.9 0.42,-0.12 0.82,-0.12 1.1,0 1.68,0.84 0.1,0.12 0.1,0.08 0.02,-0.08 0.54,-2.18 0.54,-2.12 0.56,-2.22 0,-0.24 -0.12,-0.32 -0.22,-0.08 -0.8,-0.1 l -0.42,0 q -0.12,-0.12 -0.14,-0.16 0,-0.04 0.06,-0.38 0.1,-0.38 0.26,-0.38 0.02,0 0.2,-0.02 0.2,-0.02 0.54,-0.04 0.36,-0.02 0.7,-0.04 z m -1.72,7.24 q -0.44,-1.58 -1.5,-1.58 -0.8,0 -1.42,0.68 -0.6,0.68 -0.92,1.56 -0.58,1.58 -0.82,3.28 0,0.06 -0.02,0.22 0,0.16 0,0.24 0,0.72 0.3,1.16 0.32,0.44 0.92,0.44 1.06,0 2.22,-1.44 l 0.16,-0.22 q 0.18,-0.72 0.54,-2.16 0.36,-1.46 0.54,-2.18 z"
         style="font-style:normal;font-variant:normal;font-weight:normal;font-stretch:normal;font-size:20px;font-family:KaTeX_Math;-inkscape-font-specification:KaTeX_Math"
         id="path8180" />
    </g>
    <g
       style="font-style:normal;font-weight:normal;font-size:40px;line-height:1000%;font-family:sans-serif;letter-spacing:0px;word-spacing:0px;fill:#000000;fill-opacity:1;stroke:none;stroke-width:1px;stroke-linecap:butt;stroke-linejoin:miter;stroke-opacity:1"
       id="text5498-9-3-5-3">
      <path
         d="m 598.03991,518.40936 q 0.28,0 0.46,0.16 0.2,0.14 0.2,0.42 l -1.52,6.36 q -0.02,0.1 -0.02,0.32 0,0.84 0.56,0.84 0.46,-0.06 0.78,-0.76 0.22,-0.46 0.52,-1.62 0.04,-0.16 0.4,-0.16 0.18,0 0.24,0.02 0.06,0 0.1,0.04 0.04,0.04 0.04,0.12 0,0.06 -0.06,0.3 -0.6,2.36 -1.72,2.74 -0.16,0.04 -0.48,0.04 -1.32,0 -1.82,-1.12 -0.12,0.1 -0.24,0.22 -1,0.92 -2.04,0.92 -0.88,0 -1.56,-0.36 -0.82,-0.48 -1.02,-1.5 -0.02,-0.14 -0.02,-0.62 0,-0.48 0.04,-0.74 0.14,-0.86 0.92,-2.94 0.44,-1.18 0.44,-1.64 0,-0.28 -0.06,-0.38 -0.04,-0.12 -0.22,-0.12 l -0.1,0 q -0.46,0 -0.88,0.42 -0.64,0.64 -0.98,1.92 0,0.02 -0.02,0.08 -0.02,0.04 -0.04,0.06 0,0 -0.02,0.02 -0.02,0.02 -0.08,0.02 -0.04,0 -0.08,0 -0.04,0 -0.16,0 l -0.28,0 q -0.12,-0.12 -0.12,-0.18 0,-0.06 0.06,-0.28 0.4,-1.38 1.24,-2.18 0.7,-0.64 1.44,-0.64 0.84,0 1.34,0.48 0.5,0.46 0.5,1.2 0,0.4 -0.36,1.34 -0.82,2.2 -0.98,3.26 -0.02,0.16 -0.02,0.46 0,0.76 0.24,1.16 0.24,0.4 0.88,0.4 0.84,0 1.52,-0.72 0.4,-0.4 0.5,-0.64 0.04,-0.08 0.76,-3.04 0.6,-2.4 0.72,-2.8 0.12,-0.42 0.28,-0.58 0.34,-0.3 0.72,-0.3 z"
         style="font-style:normal;font-variant:normal;font-weight:normal;font-stretch:normal;font-size:20px;font-family:KaTeX_Math;-inkscape-font-specification:KaTeX_Math"
         id="path8183" />
    </g>
  </g>
</svg>
