<?xml version="1.0" encoding="UTF-8"?>
<svg width="47.708mm" height="27.716mm" version="1.1" viewBox="0 0 47.708 27.716" xmlns="http://www.w3.org/2000/svg">
 <g transform="translate(-69.273 -93.112)">
  <g transform="matrix(.35278 0 0 .35278 -11.873 -55.223)">
   <path d="m294.19 459.78c0-5.9403-4.8154-10.756-10.756-10.756s-10.756 4.8154-10.756 10.756 4.8154 10.756 10.756 10.756 10.756-4.8154 10.756-10.756z" fill="none" stroke="#000" stroke-miterlimit="10" stroke-width=".3985"/>
   <g transform="matrix(11.955 0 0 -11.955 281.16 463.95)">
    <path d="m.007.558h.01l.129.058c.001.00099999.002.00099999.003.00099999.006 0 .008-.009.008-.033v-.485c0-.052-.011-.063-.065-.066l-.056-.003v-.03c.154.003.154.003.165.003.013 0 .035 0 .069-.001.012-.001.047-.001.088-.002v.03l-.052.003c-.055.003-.065.014-.065.066v.593l-.014.0049999c-.065-.034-.136-.064-.227-.096z"/>
   </g>
   <path d="m251.61 459.78c0-5.9055-4.7872-10.693-10.693-10.693-5.9055 0-10.693 4.7872-10.693 10.693s4.7872 10.693 10.693 10.693c5.9055 0 10.693-4.7872 10.693-10.693z" fill="none" stroke="#000" stroke-miterlimit="10" stroke-width=".3985"/>
   <g transform="matrix(11.955 0 0 -11.955 238.12 463.86)">
    <path d="m0 .026v-.026c.187.003.187.003.223.003s.036 0 .229-.003c-.002.021-.002.031-.002.045 0 .013 0 .023.002.045-.115-.005-.161-.006-.346-.01l.182.193c.097.103.127.158.127.233 0 .115-.078.186-.205.186-.072 0-.121-.02-.17-.07l-.017-.136h.029l.013.046c.016.058.052.083.119.083.086 0 .141-.054.141-.139 0-.075-.042-.149-.155-.269z"/>
   </g>
   <path d="m336.67 459.78c0-5.9185-4.7978-10.716-10.716-10.716-5.9185 0-10.716 4.7978-10.716 10.716s4.7978 10.716 10.716 10.716c5.9185 0 10.716-4.7978 10.716-10.716z" fill="none" stroke="#000" stroke-miterlimit="10" stroke-width=".3985"/>
   <g transform="matrix(11.955 0 0 -11.955 323.14 464.01)">
    <path d="m.028.518h.031l.018.056c.011.034.074.068.126.068.065 0 .118-.053.118-.116 0-.075-.059-.138-.13-.138-.008 0-.019.00099999-.032.002l-.015.001-.012-.053.007-.006c.038.017.057.022.084.022.083 0 .131-.053.131-.144 0-.102-.061-.169-.154-.169-.046 0-.087.015-.117.043-.024.022-.037.045-.056.099l-.027-.01c.021-.061.029-.097.035-.147.053-.018.097-.026.134-.026.08 0 .172.045.227.112.034.041.051.085.051.132 0 .048-.02.09-.056.115-.025.018-.048.026-.098.035.08.062.11.108.11.167 0 .089-.074.148-.185.148-.068 0-.113-.019-.161-.067z"/>
   </g>
   <path d="m365.06 431.43c0-5.9403-4.8154-10.756-10.756-10.756-5.9403 0-10.756 4.8154-10.756 10.756s4.8154 10.756 10.756 10.756c5.9403 0 10.756-4.8154 10.756-10.756z" fill="none" stroke="#000" stroke-miterlimit="10" stroke-width=".3985"/>
   <g transform="matrix(11.955 0 0 -11.955 351.33 435.61)">
    <path d="m.278.184v-.075c0-.06-.011-.074-.06-.076l-.062-.003v-.03c.133.003.133.003.157.003.024 0 .024 0 .157-.003v.03l-.048.003c-.049.003-.06.016-.06.076v.075c.059 0 .08-.001.108-.004v.071c-.047-.004-.066-.004-.081-.003h-.027v.139c0 .178.002.264.007.305l-.012.005-.074-.027-.283-.463.011-.023h.267m0 .064h-.215l.215.352z"/>
   </g>
   <path d="m365.02 488.13c0-5.9185-4.7978-10.716-10.716-10.716-5.9185 0-10.716 4.7978-10.716 10.716 0 5.9185 4.7978 10.716 10.716 10.716 5.9185 0 10.716-4.7978 10.716-10.716z" fill="none" stroke="#000" stroke-miterlimit="10" stroke-width=".3985"/>
   <g transform="matrix(11.955 0 0 -11.955 351.47 492.35)">
    <path d="m.114.625c.129-.004.185-.005.305-.005l.005.005c-.002.018-.002.026-.002.039 0 .014 0 .022.002.04l-.005.005c-.075-.004-.12-.005-.174-.005-.055 0-.099.001-.174.005l-.005-.005c.001-.061.002-.105.002-.137 0-.085-.003-.181-.006-.225l.02-.006c.047.047.074.061.123.061.096 0 .156-.068.156-.176 0-.111-.064-.176-.173-.176-.054 0-.104.018-.118.044l-.046.082-.024-.014c.023-.057.035-.089.049-.133.028-.015.068-.024.111-.024.067 0 .138.029.193.077.061.054.093.122.093.196 0 .113-.081.193-.195.193-.048 0-.084-.013-.146-.05z"/>
   </g>
   <path d="m272.48 459.78h-20.673" fill="none" stroke="#000" stroke-miterlimit="10" stroke-width=".3985"/>
   <g transform="matrix(11.955 0 0 -11.955 259.87 472.34)">
    <path d="m.007.558h.01l.129.058c.001.00099999.002.00099999.003.00099999.006 0 .008-.009.008-.033v-.485c0-.052-.011-.063-.065-.066l-.056-.003v-.03c.154.003.154.003.165.003.013 0 .035 0 .069-.001.012-.001.047-.001.088-.002v.03l-.052.003c-.055.003-.065.014-.065.066v.593l-.014.0049999c-.065-.034-.136-.064-.227-.096z"/>
   </g>
   <path d="m294.39 459.78h20.65" fill="none" stroke="#000" stroke-miterlimit="10" stroke-width=".3985"/>
   <g transform="matrix(11.955 0 0 -11.955 301.92 455.56)">
    <path d="m0 .026v-.026c.187.003.187.003.223.003s.036 0 .229-.003c-.002.021-.002.031-.002.045 0 .013 0 .023.002.045-.115-.005-.161-.006-.346-.01l.182.193c.097.103.127.158.127.233 0 .115-.078.186-.205.186-.072 0-.121-.02-.17-.07l-.017-.136h.029l.013.046c.016.058.052.083.119.083.086 0 .141-.054.141-.139 0-.075-.042-.149-.155-.269z"/>
   </g>
   <path d="m333.67 452.06 12.882-12.882" fill="none" stroke="#000" stroke-miterlimit="10" stroke-width=".3985"/>
   <g transform="matrix(11.955 0 0 -11.955 330.13 441.48)">
    <path d="m.028.518h.031l.018.056c.011.034.074.068.126.068.065 0 .118-.053.118-.116 0-.075-.059-.138-.13-.138-.008 0-.019.00099999-.032.002l-.015.001-.012-.053.007-.006c.038.017.057.022.084.022.083 0 .131-.053.131-.144 0-.102-.061-.169-.154-.169-.046 0-.087.015-.117.043-.024.022-.037.045-.056.099l-.027-.01c.021-.061.029-.097.035-.147.053-.018.097-.026.134-.026.08 0 .172.045.227.112.034.041.051.085.051.132 0 .048-.02.09-.056.115-.025.018-.048.026-.098.035.08.062.11.108.11.167 0 .089-.074.148-.185.148-.068 0-.113-.019-.161-.067z"/>
   </g>
   <path d="m333.67 467.5 12.91 12.91" fill="none" stroke="#000" stroke-miterlimit="10" stroke-width=".3985"/>
   <g transform="matrix(11.955 0 0 -11.955 344.33 469.73)">
    <path d="m.278.184v-.075c0-.06-.011-.074-.06-.076l-.062-.003v-.03c.133.003.133.003.157.003.024 0 .024 0 .157-.003v.03l-.048.003c-.049.003-.06.016-.06.076v.075c.059 0 .08-.001.108-.004v.071c-.047-.004-.066-.004-.081-.003h-.027v.139c0 .178.002.264.007.305l-.012.005-.074-.027-.283-.463.011-.023h.267m0 .064h-.215l.215.352z"/>
   </g>
  </g>
 </g>
</svg>
