<?xml version="1.0" encoding="UTF-8" standalone="no"?>
<!-- Created with Inkscape (http://www.inkscape.org/) -->

<svg
   xmlns:dc="http://purl.org/dc/elements/1.1/"
   xmlns:cc="http://creativecommons.org/ns#"
   xmlns:rdf="http://www.w3.org/1999/02/22-rdf-syntax-ns#"
   xmlns:svg="http://www.w3.org/2000/svg"
   xmlns="http://www.w3.org/2000/svg"
   xmlns:sodipodi="http://sodipodi.sourceforge.net/DTD/sodipodi-0.dtd"
   xmlns:inkscape="http://www.inkscape.org/namespaces/inkscape"
   width="159.39406mm"
   height="80.218201mm"
   viewBox="0 0 564.7821 284.23772"
   id="svg2"
   version="1.1"
   inkscape:version="0.91 r13725"
   sodipodi:docname="1.svg">
  <defs
     id="defs4">
    <marker
       inkscape:stockid="Arrow2Mstart"
       orient="auto"
       refY="0"
       refX="0"
       id="Arrow2Mstart"
       style="overflow:visible"
       inkscape:isstock="true">
      <path
         id="path4376"
         style="fill:#000000;fill-opacity:1;fill-rule:evenodd;stroke:#000000;stroke-width:0.625;stroke-linejoin:round;stroke-opacity:1"
         d="M 8.7185878,4.0337352 -2.2072895,0.01601326 8.7185884,-4.0017078 c -1.7454984,2.3720609 -1.7354408,5.6174519 -6e-7,8.035443 z"
         transform="scale(0.6,0.6)"
         inkscape:connector-curvature="0" />
    </marker>
  </defs>
  <sodipodi:namedview
     id="base"
     pagecolor="#ffffff"
     bordercolor="#666666"
     borderopacity="1.0"
     inkscape:pageopacity="0.0"
     inkscape:pageshadow="2"
     inkscape:zoom="0.9899495"
     inkscape:cx="120.58599"
     inkscape:cy="27.445568"
     inkscape:document-units="px"
     inkscape:current-layer="layer1"
     showgrid="false"
     showguides="true"
     inkscape:guide-bbox="true"
     inkscape:snap-bbox="true"
     inkscape:bbox-paths="true"
     inkscape:snap-bbox-edge-midpoints="true"
     inkscape:bbox-nodes="true"
     inkscape:snap-bbox-midpoints="true"
     inkscape:object-paths="true"
     inkscape:snap-intersection-paths="true"
     inkscape:object-nodes="true"
     inkscape:snap-midpoints="true"
     inkscape:snap-smooth-nodes="true"
     inkscape:snap-object-midpoints="true"
     inkscape:snap-center="true"
     inkscape:snap-text-baseline="true"
     inkscape:snap-page="true"
     inkscape:window-width="1920"
     inkscape:window-height="1024"
     inkscape:window-x="0"
     inkscape:window-y="30"
     inkscape:window-maximized="1"
     fit-margin-top="5"
     fit-margin-left="5"
     fit-margin-right="5"
     fit-margin-bottom="5">
    <sodipodi:guide
       position="30.705647,314.82036"
       orientation="0,1"
       id="guide4136" />
    <sodipodi:guide
       position="404.87114,71.177509"
       orientation="0,1"
       id="guide4140" />
    <sodipodi:guide
       position="24.871143,311.82036"
       orientation="1,0"
       id="guide4169" />
    <sodipodi:guide
       position="398.44257,152.96322"
       orientation="0,1"
       id="guide4344" />
  </sodipodi:namedview>
  <metadata
     id="metadata7">
    <rdf:RDF>
      <cc:Work
         rdf:about="">
        <dc:format>image/svg+xml</dc:format>
        <dc:type
           rdf:resource="http://purl.org/dc/dcmitype/StillImage" />
        <dc:title />
      </cc:Work>
    </rdf:RDF>
  </metadata>
  <g
     inkscape:label="Layer 1"
     inkscape:groupmode="layer"
     id="layer1"
     transform="translate(-62.986001,-600.73056)">
    <path
       style="fill:none;fill-rule:evenodd;stroke:#000000;stroke-width:2.29999995;stroke-linecap:butt;stroke-linejoin:miter;stroke-miterlimit:4;stroke-dasharray:none;stroke-opacity:1"
       d="m 87.857143,651.64791 c 514.999997,0 514.999997,0 514.999997,0"
       id="path4146"
       inkscape:connector-curvature="0" />
    <path
       style="fill:none;fill-rule:evenodd;stroke:#000000;stroke-width:2.29999995;stroke-linecap:butt;stroke-linejoin:miter;stroke-miterlimit:4;stroke-dasharray:none;stroke-opacity:1"
       d="m 87.857143,812.29078 c 514.999997,0 514.999997,0 514.999997,0"
       id="path4146-3"
       inkscape:connector-curvature="0" />
    <path
       style="opacity:1;fill:#ff4887;fill-opacity:1;stroke:none;stroke-width:3;stroke-linejoin:miter;stroke-miterlimit:4;stroke-dasharray:none;stroke-dashoffset:0;stroke-opacity:1"
       d="m 606.64519,651.64789 a 3.7880721,3.7880721 0 0 1 -3.78807,3.78807 3.7880721,3.7880721 0 0 1 -3.78808,-3.78807 3.7880721,3.7880721 0 0 1 3.78808,-3.78807 3.7880721,3.7880721 0 0 1 3.78807,3.78807 z"
       id="path4175" />
    <path
       style="opacity:1;fill:#ff4887;fill-opacity:1;stroke:none;stroke-width:3;stroke-linejoin:miter;stroke-miterlimit:4;stroke-dasharray:none;stroke-dashoffset:0;stroke-opacity:1"
       d="m 93.469003,812.29077 a 3.7880721,3.7880721 0 0 1 -3.788072,3.78807 3.7880721,3.7880721 0 0 1 -3.788072,-3.78807 3.7880721,3.7880721 0 0 1 3.788072,-3.78807 3.7880721,3.7880721 0 0 1 3.788072,3.78807 z"
       id="path4175-6" />
    <path
       style="opacity:1;fill:#ff4887;fill-opacity:1;stroke:none;stroke-width:3;stroke-linejoin:miter;stroke-miterlimit:4;stroke-dasharray:none;stroke-dashoffset:0;stroke-opacity:1"
       d="m 140.12139,836.69464 a 3.7880721,3.7880721 0 0 1 -3.78808,3.78807 3.7880721,3.7880721 0 0 1 -3.78807,-3.78807 3.7880721,3.7880721 0 0 1 3.78807,-3.78807 3.7880721,3.7880721 0 0 1 3.78808,3.78807 z"
       id="path4175-6-7" />
    <path
       style="opacity:1;fill:#ff4887;fill-opacity:1;stroke:none;stroke-width:3;stroke-linejoin:miter;stroke-miterlimit:4;stroke-dasharray:none;stroke-dashoffset:0;stroke-opacity:1"
       d="m 418.03566,722.8291 a 3.7880721,3.7880721 0 0 1 -3.78807,3.78807 3.7880721,3.7880721 0 0 1 -3.78807,-3.78807 3.7880721,3.7880721 0 0 1 3.78807,-3.78807 3.7880721,3.7880721 0 0 1 3.78807,3.78807 z"
       id="path4175-6-5" />
    <path
       style="opacity:1;fill:#ff4887;fill-opacity:1;stroke:none;stroke-width:3;stroke-linejoin:miter;stroke-miterlimit:4;stroke-dasharray:none;stroke-dashoffset:0;stroke-opacity:1"
       d="m 280.07854,839.7251 a 3.7880721,3.7880721 0 0 1 -3.78807,3.78807 3.7880721,3.7880721 0 0 1 -3.78808,-3.78807 3.7880721,3.7880721 0 0 1 3.78808,-3.78807 3.7880721,3.7880721 0 0 1 3.78807,3.78807 z"
       id="path4175-6-3" />
    <path
       style="opacity:1;fill:#ff4887;fill-opacity:1;stroke:none;stroke-width:3;stroke-linejoin:miter;stroke-miterlimit:4;stroke-dasharray:none;stroke-dashoffset:0;stroke-opacity:1"
       d="m 186.77376,863.46368 a 3.7880721,3.7880721 0 0 1 -3.78807,3.78808 3.7880721,3.7880721 0 0 1 -3.78807,-3.78808 3.7880721,3.7880721 0 0 1 3.78807,-3.78807 3.7880721,3.7880721 0 0 1 3.78807,3.78807 z"
       id="path4175-6-56" />
    <path
       style="opacity:1;fill:#ff4887;fill-opacity:1;stroke:none;stroke-width:3;stroke-linejoin:miter;stroke-miterlimit:4;stroke-dasharray:none;stroke-dashoffset:0;stroke-opacity:1"
       d="m 466.68804,636.37732 a 3.7880721,3.7880721 0 0 1 -3.78808,3.78807 3.7880721,3.7880721 0 0 1 -3.78807,-3.78807 3.7880721,3.7880721 0 0 1 3.78807,-3.78807 3.7880721,3.7880721 0 0 1 3.78808,3.78807 z"
       id="path4175-6-2" />
    <path
       style="opacity:1;fill:#ff4887;fill-opacity:1;stroke:none;stroke-width:3;stroke-linejoin:miter;stroke-miterlimit:4;stroke-dasharray:none;stroke-dashoffset:0;stroke-opacity:1"
       d="m 559.99278,636.37732 a 3.7880721,3.7880721 0 0 1 -3.78807,3.78807 3.7880721,3.7880721 0 0 1 -3.78807,-3.78807 3.7880721,3.7880721 0 0 1 3.78807,-3.78807 3.7880721,3.7880721 0 0 1 3.78807,3.78807 z"
       id="path4175-6-9" />
    <path
       style="opacity:1;fill:#ff4887;fill-opacity:1;stroke:none;stroke-width:3;stroke-linejoin:miter;stroke-miterlimit:4;stroke-dasharray:none;stroke-dashoffset:0;stroke-opacity:1"
       d="m 425.02168,622.23517 a 3.7880721,3.7880721 0 0 1 -3.78807,3.78807 3.7880721,3.7880721 0 0 1 -3.78807,-3.78807 3.7880721,3.7880721 0 0 1 3.78807,-3.78807 3.7880721,3.7880721 0 0 1 3.78807,3.78807 z"
       id="path4175-6-1" />
    <path
       style="opacity:1;fill:#ff4887;fill-opacity:1;stroke:none;stroke-width:3;stroke-linejoin:miter;stroke-miterlimit:4;stroke-dasharray:none;stroke-dashoffset:0;stroke-opacity:1"
       d="m 373.38329,643.95343 a 3.7880721,3.7880721 0 0 1 -3.78808,3.78807 3.7880721,3.7880721 0 0 1 -3.78807,-3.78807 3.7880721,3.7880721 0 0 1 3.78807,-3.78807 3.7880721,3.7880721 0 0 1 3.78808,3.78807 z"
       id="path4175-6-27" />
    <path
       style="opacity:1;fill:#ff4887;fill-opacity:1;stroke:none;stroke-width:3;stroke-linejoin:miter;stroke-miterlimit:4;stroke-dasharray:none;stroke-dashoffset:0;stroke-opacity:1"
       d="m 326.73091,832.14893 a 3.7880721,3.7880721 0 0 1 -3.78807,3.78807 3.7880721,3.7880721 0 0 1 -3.78807,-3.78807 3.7880721,3.7880721 0 0 1 3.78807,-3.78808 3.7880721,3.7880721 0 0 1 3.78807,3.78808 z"
       id="path4175-6-0" />
    <path
       style="opacity:1;fill:#ff4887;fill-opacity:1;stroke:none;stroke-width:3;stroke-linejoin:miter;stroke-miterlimit:4;stroke-dasharray:none;stroke-dashoffset:0;stroke-opacity:1"
       d="m 233.42613,642.9433 a 3.7880721,3.7880721 0 0 1 -3.78807,3.78807 3.7880721,3.7880721 0 0 1 -3.78807,-3.78807 3.7880721,3.7880721 0 0 1 3.78807,-3.78807 3.7880721,3.7880721 0 0 1 3.78807,3.78807 z"
       id="path4175-6-93" />
    <path
       style="opacity:1;fill:#ff4887;fill-opacity:1;stroke:none;stroke-width:3;stroke-linejoin:miter;stroke-miterlimit:4;stroke-dasharray:none;stroke-dashoffset:0;stroke-opacity:1"
       d="m 513.34041,832.14893 a 3.7880721,3.7880721 0 0 1 -3.78807,3.78807 3.7880721,3.7880721 0 0 1 -3.78807,-3.78807 3.7880721,3.7880721 0 0 1 3.78807,-3.78808 3.7880721,3.7880721 0 0 1 3.78807,3.78808 z"
       id="path4175-6-6" />
    <g
       style="font-style:normal;font-variant:normal;font-weight:normal;font-stretch:normal;font-size:40px;line-height:1000%;font-family:KaTeX_Math;-inkscape-font-specification:KaTeX_Math;letter-spacing:0px;word-spacing:0px;fill:#000000;fill-opacity:1;stroke:none;stroke-width:1px;stroke-linecap:butt;stroke-linejoin:miter;stroke-opacity:1"
       id="text4267">
      <path
         d="m 81.805036,786.47686 q 0.0225,0 1.62,-0.1125 1.62,-0.135 1.6425,-0.135 0.27,0 0.27,0.2025 0,0.2025 -0.765,3.2175 -0.18,0.765 -0.405,1.575 -0.2025,0.81 -0.315,1.215 l -0.09,0.4275 q 0,0.0675 0.135,-0.0675 0.765,-0.63 1.71,-0.855 0.27,-0.045 0.5625,-0.045 0.2925,0 0.5625,0.045 1.17,0.27 1.8675,1.215 0.6975,0.945 0.6975,2.385 0,2.52 -1.7775,4.545 -1.755,2.0025 -3.825,2.0025 -0.6525,0 -1.2375,-0.2925 -1.755,-0.7875 -1.755,-3.33 0,-0.6525 0.135,-1.2825 0,-0.0225 1.125,-4.6125 l 1.1475,-4.59 q 0.045,-0.315 -0.1575,-0.3825 -0.18,-0.09 -0.63,-0.09 -0.1575,0 -0.2475,0 -0.4725,0 -0.54,-0.0675 -0.135,-0.1125 -0.0225,-0.54 0.09,-0.315 0.1575,-0.36 0.0675,-0.0675 0.135,-0.0675 z m 5.5575,8.055 q 0,-1.8 -1.3725,-1.8 -0.045,0 -0.1575,0.0225 -0.09,0 -0.1125,0 -1.17,0.2475 -2.205,1.62 -0.045,0.045 -0.1125,0.135 l -0.0675,0.09 q 0,0.0225 -0.405,1.62 -0.3825,1.575 -0.4275,1.8 -0.135,0.6975 -0.135,1.26 0,1.08 0.54,1.62 0.36,0.36 0.9,0.36 0.7425,0 1.5075,-0.72 0.5625,-0.5175 0.9,-1.26 0.36,-0.765 0.7425,-2.3625 0.405,-1.62 0.405,-2.385 z"
         style="font-size:22.5px"
         id="path4193" />
      <path
         d="m 93.554255,793.64936 q 0,-0.3575 0.26125,-0.61875 0.26125,-0.275 0.61875,-0.275 0.23375,0 0.385,0.15125 0.165,0.1375 0.1925,0.37125 0,0.37125 -0.2475,0.64625 -0.2475,0.26125 -0.61875,0.26125 -0.2475,0 -0.4125,-0.1375 -0.165,-0.15125 -0.17875,-0.39875 z m -0.12375,3.025 q 0,-0.39875 -0.3575,-0.39875 -0.15125,0 -0.31625,0.055 -0.37125,0.12375 -0.72875,0.5225 -0.34375,0.39875 -0.5775,0.97625 -0.01375,0.0413 -0.04125,0.0963 -0.0275,0.055 -0.0275,0.0688 0,0 -0.04125,0.0137 -0.04125,0.0137 -0.0825,0.0137 -0.0275,0 -0.12375,0 l -0.1925,0 q -0.11,-0.11 -0.0275,-0.28875 0.4125,-0.99 1.0725,-1.5125 0.4675,-0.37125 0.94875,-0.44 0.01375,0 0.11,0 0.09625,-0.0138 0.165,-0.0138 0.33,0.0138 0.605,0.1375 0.3575,0.22 0.5225,0.4675 0.17875,0.23375 0.17875,0.6875 l 0,0.22 -0.67375,2.73625 q -0.70125,2.75 -0.7425,2.86 -0.22,0.59125 -0.75625,1.045 -0.5225,0.4675 -1.16875,0.64625 -0.34375,0.0825 -0.67375,0.0825 -0.53625,0 -0.86625,-0.23375 -0.33,-0.23375 -0.33,-0.6875 0,-0.385 0.275,-0.64625 0.275,-0.26125 0.61875,-0.26125 0.26125,0 0.4125,0.15125 0.165,0.15125 0.165,0.4125 0,0.495 -0.44,0.75625 0.06875,0.0137 0.1925,0.0137 0.4675,0 0.8525,-0.39875 0.39875,-0.39875 0.59125,-0.89375 l 0.15125,-0.5775 q 0.15125,-0.59125 0.3575,-1.43 0.22,-0.8525 0.44,-1.71875 0.22,-0.86625 0.37125,-1.52625 0.15125,-0.67375 0.15125,-0.78375 0,-0.0962 -0.01375,-0.15125 z"
         style="font-size:13.75px"
         id="path4195" />
    </g>
    <g
       style="font-style:normal;font-variant:normal;font-weight:normal;font-stretch:normal;font-size:40px;line-height:1000%;font-family:KaTeX_Math;-inkscape-font-specification:KaTeX_Math;letter-spacing:0px;word-spacing:0px;fill:#000000;fill-opacity:1;stroke:none;stroke-width:1px;stroke-linecap:butt;stroke-linejoin:miter;stroke-opacity:1"
       id="text4267-0">
      <path
         d="m 598.23358,657.9533 q 0.0225,0 1.62,-0.1125 1.62,-0.135 1.6425,-0.135 0.27,0 0.27,0.2025 0,0.2025 -0.765,3.2175 -0.18,0.765 -0.405,1.575 -0.2025,0.81 -0.315,1.215 l -0.09,0.4275 q 0,0.0675 0.135,-0.0675 0.765,-0.63 1.71,-0.855 0.27,-0.045 0.5625,-0.045 0.2925,0 0.5625,0.045 1.17,0.27 1.8675,1.215 0.6975,0.945 0.6975,2.385 0,2.52 -1.7775,4.545 -1.755,2.0025 -3.825,2.0025 -0.6525,0 -1.2375,-0.2925 -1.755,-0.7875 -1.755,-3.33 0,-0.6525 0.135,-1.2825 0,-0.0225 1.125,-4.6125 l 1.1475,-4.59 q 0.045,-0.315 -0.1575,-0.3825 -0.18,-0.09 -0.63,-0.09 -0.1575,0 -0.2475,0 -0.4725,0 -0.54,-0.0675 -0.135,-0.1125 -0.0225,-0.54 0.09,-0.315 0.1575,-0.36 0.0675,-0.0675 0.135,-0.0675 z m 5.5575,8.055 q 0,-1.8 -1.3725,-1.8 -0.045,0 -0.1575,0.0225 -0.09,0 -0.1125,0 -1.17,0.2475 -2.205,1.62 -0.045,0.045 -0.1125,0.135 l -0.0675,0.09 q 0,0.0225 -0.405,1.62 -0.3825,1.575 -0.4275,1.8 -0.135,0.6975 -0.135,1.26 0,1.08 0.54,1.62 0.36,0.36 0.9,0.36 0.7425,0 1.5075,-0.72 0.5625,-0.5175 0.9,-1.26 0.36,-0.765 0.7425,-2.3625 0.405,-1.62 0.405,-2.385 z"
         style="font-size:22.5px"
         id="path4188" />
      <path
         d="m 608.42905,665.0708 q 0,-0.31625 0.26125,-0.5775 0.26125,-0.26125 0.605,-0.26125 0.2475,0 0.4125,0.165 0.17875,0.165 0.17875,0.4125 0,0.3025 -0.275,0.5775 -0.275,0.275 -0.605,0.275 -0.2475,0 -0.4125,-0.165 -0.165,-0.165 -0.165,-0.42625 z m -0.31625,8.40125 q -0.53625,0 -0.86625,-0.31625 -0.33,-0.31625 -0.33,-0.8525 0,-0.23375 0.0275,-0.31625 0,-0.0275 0.6325,-1.69125 0.6325,-1.6775 0.6325,-1.705 0.0687,-0.22 0.0687,-0.495 0,-0.33 -0.23375,-0.33 l -0.0275,0 q -0.33,0 -0.6325,0.31625 -0.44,0.45375 -0.64625,1.2925 0,0.0137 -0.0137,0.055 -0.0138,0.0275 -0.0275,0.0413 0,0 -0.0137,0.0137 -0.0138,0.0137 -0.055,0.0137 -0.0275,0 -0.055,0 -0.0275,0 -0.11,0 l -0.1925,0 q -0.0825,-0.0825 -0.0825,-0.12375 0,-0.0412 0.0412,-0.1925 0.3575,-1.1825 1.045,-1.65 0.37125,-0.28875 0.7975,-0.28875 0.55,0 0.9075,0.31625 0.3575,0.31625 0.3575,0.8525 0,0.17875 -0.0688,0.4125 -0.0137,0.0275 -0.6325,1.69125 l -0.61875,1.66375 q -0.0688,0.3025 -0.0688,0.44 0,0.34375 0.23375,0.34375 0.1925,0 0.34375,-0.0825 0.605,-0.28875 0.94875,-1.44375 0.0412,-0.165 0.0688,-0.1925 0.0412,-0.0275 0.23375,-0.0275 0.12375,0 0.165,0.0138 0.055,0 0.0825,0.0275 0.0275,0.0275 0.0275,0.0963 0,0.055 -0.0412,0.17875 -0.26125,0.78375 -0.75625,1.36125 -0.48125,0.5775 -1.14125,0.5775 z"
         style="font-size:13.75px"
         id="path4190" />
    </g>
    <g
       style="font-style:normal;font-variant:normal;font-weight:normal;font-stretch:normal;font-size:40px;line-height:1000%;font-family:KaTeX_Math;-inkscape-font-specification:KaTeX_Math;letter-spacing:0px;word-spacing:0px;fill:#000000;fill-opacity:1;stroke:none;stroke-width:1px;stroke-linecap:butt;stroke-linejoin:miter;stroke-opacity:1"
       id="text4267-0-1">
      <path
         d="m 409.58273,729.54003 q 0.0225,0 1.62,-0.1125 1.62,-0.135 1.6425,-0.135 0.27,0 0.27,0.2025 0,0.2025 -0.765,3.2175 -0.18,0.765 -0.405,1.575 -0.2025,0.81 -0.315,1.215 l -0.09,0.4275 q 0,0.0675 0.135,-0.0675 0.765,-0.63 1.71,-0.855 0.27,-0.045 0.5625,-0.045 0.2925,0 0.5625,0.045 1.17,0.27 1.8675,1.215 0.6975,0.945 0.6975,2.385 0,2.52 -1.7775,4.545 -1.755,2.0025 -3.825,2.0025 -0.6525,0 -1.2375,-0.2925 -1.755,-0.7875 -1.755,-3.33 0,-0.6525 0.135,-1.2825 0,-0.0225 1.125,-4.6125 l 1.1475,-4.59 q 0.045,-0.315 -0.1575,-0.3825 -0.18,-0.09 -0.63,-0.09 -0.1575,0 -0.2475,0 -0.4725,0 -0.54,-0.0675 -0.135,-0.1125 -0.0225,-0.54 0.09,-0.315 0.1575,-0.36 0.0675,-0.0675 0.135,-0.0675 z m 5.5575,8.055 q 0,-1.8 -1.3725,-1.8 -0.045,0 -0.1575,0.0225 -0.09,0 -0.1125,0 -1.17,0.2475 -2.205,1.62 -0.045,0.045 -0.1125,0.135 l -0.0675,0.09 q 0,0.0225 -0.405,1.62 -0.3825,1.575 -0.4275,1.8 -0.135,0.6975 -0.135,1.26 0,1.08 0.54,1.62 0.36,0.36 0.9,0.36 0.7425,0 1.5075,-0.72 0.5625,-0.5175 0.9,-1.26 0.36,-0.765 0.7425,-2.3625 0.405,-1.62 0.405,-2.385 z"
         style="font-size:22.5px"
         id="path4176" />
      <path
         d="m 419.13195,735.51628 q 0.0137,0 0.99,-0.0688 0.99,-0.0825 1.00375,-0.0825 0.165,0 0.165,0.11 0,0.0963 -0.6875,2.87375 -0.6875,2.7225 -0.6875,2.81875 0.26125,-0.165 0.42625,-0.275 0.165,-0.12375 0.26125,-0.20625 0.0962,-0.0963 0.4675,-0.45375 0.825,-0.825 1.155,-1.03125 0.55,-0.37125 1.045,-0.37125 0.4125,0 0.64625,0.275 0.2475,0.275 0.2475,0.72875 0,0.495 -0.23375,0.81125 -0.23375,0.3025 -0.66,0.3025 -0.26125,0 -0.44,-0.15125 -0.165,-0.15125 -0.165,-0.39875 0,-0.34375 0.23375,-0.5775 0.23375,-0.2475 0.55,-0.28875 l 0.0962,-0.0275 q -0.165,-0.165 -0.33,-0.165 -0.4675,0 -1.1,0.4675 -0.26125,0.20625 -0.7975,0.7425 -0.39875,0.39875 -0.935,0.8525 0.64625,0.15125 0.88,0.23375 0.66,0.26125 0.88,0.715 0.12375,0.2475 0.12375,0.53625 0,0.17875 -0.0825,0.59125 -0.0688,0.4125 -0.0688,0.5225 0,0.55 0.37125,0.55 0.2475,0 0.45375,-0.20625 0.34375,-0.34375 0.61875,-1.43 0.0275,-0.11 0.275,-0.11 0.1925,0 0.22,0.0275 0.0825,0.055 0.0138,0.28875 -0.37125,1.25125 -0.94875,1.69125 -0.34375,0.2475 -0.67375,0.2475 -0.6325,0 -1.0175,-0.37125 -0.37125,-0.385 -0.37125,-1.0175 0,-0.12375 0.0413,-0.385 0.0412,-0.26125 0.0412,-0.37125 0,-0.17875 -0.0825,-0.34375 -0.17875,-0.34375 -0.67375,-0.53625 -0.45375,-0.15125 -0.6325,-0.15125 l -0.0275,0 q -0.17875,0.67375 -0.34375,1.30625 -0.15125,0.6325 -0.23375,0.94875 -0.0687,0.31625 -0.12375,0.48125 -0.0688,0.17875 -0.2475,0.3025 -0.17875,0.1375 -0.385,0.1375 -0.165,0 -0.33,-0.11 -0.15125,-0.0963 -0.15125,-0.26125 0,-0.1375 0.50875,-2.2 0.50875,-2.0625 1.00375,-4.05625 l 0.50875,-1.99375 q 0.0275,-0.1925 -0.0962,-0.23375 -0.11,-0.055 -0.385,-0.055 -0.0962,0 -0.15125,0 -0.28875,0 -0.33,-0.0412 -0.0825,-0.0688 -0.0138,-0.33 0.055,-0.1925 0.0962,-0.22 0.0413,-0.0412 0.0825,-0.0412 z"
         style="font-size:13.75px"
         id="path4178" />
    </g>
    <g
       style="font-style:normal;font-weight:normal;font-size:40px;line-height:1000%;font-family:sans-serif;letter-spacing:0px;word-spacing:0px;fill:#000000;fill-opacity:1;stroke:none;stroke-width:1px;stroke-linecap:butt;stroke-linejoin:miter;stroke-opacity:1"
       id="text4340">
      <path
         d="m 463.55063,725.29763 0,-0.925 -10.675,0 0,0.925 5.525,0 c -1.2375,2.1375 -3.375,4.2125 -5.8375,5.45 0.1875,0.2125 0.4875,0.575 0.625,0.8125 1.7375,-0.9125 3.2625,-2.2 4.525,-3.6375 l 0,6.95 0.9875,0 0,-8.2 c 0.3125,-0.4625 0.6125,-0.9125 0.8875,-1.375 l 3.9625,0 z m -4.6,2.6875 c 1.475,0.975 3.325,2.45 4.2125,3.4 l 0.7375,-0.7125 c -0.9125,-0.95 -2.8125,-2.35 -4.2625,-3.2875 l -0.6875,0.6 z"
         style="font-size:12.5px"
         id="path4181" />
      <path
         d="m 476.15063,726.01013 0,-0.9 -6.3875,0 c 0.1875,-0.4625 0.3375,-0.925 0.4875,-1.4 l -0.95,-0.225 c -0.15,0.5375 -0.3375,1.0875 -0.55,1.625 l -3.45,0 0,0.9 3.075,0 c -0.8125,1.725 -1.95,3.3125 -3.475,4.375 0.15,0.2125 0.375,0.6125 0.475,0.8375 0.55,-0.375 1.0375,-0.825 1.4875,-1.3 l 0,4.9625 0.9125,0 0,-6.05 c 0.6375,-0.875 1.175,-1.825 1.6125,-2.825 l 6.7625,0 z m 0.2375,4.6 -3.3375,0 0,-0.725 c 0.9125,-0.5625 1.875,-1.325 2.55,-2.0625 l -0.6,-0.475 -0.1875,0.0625 -5.0875,0 0,0.85 4.2375,0 c -0.55,0.4875 -1.225,1 -1.8375,1.325 l 0,1.025 -3.45,0 0,0.875 3.45,0 0,2.3 c 0,0.175 -0.05,0.225 -0.275,0.2375 -0.2125,0.025 -0.9625,0.025 -1.7875,-0.0125 0.125,0.275 0.25,0.625 0.3,0.8875 1.0625,0 1.75,0 2.1625,-0.1375 0.4125,-0.15 0.525,-0.4125 0.525,-0.9625 l 0,-2.3125 3.3375,0 0,-0.875 z"
         style="font-size:12.5px"
         id="path4183" />
      <path
         d="m 485.35063,730.22263 2.8125,0 0,-0.875 -2.8125,0 0,-2.3875 -0.925,0 0,2.3875 -2.8,0 0,0.875 2.8,0 0,3.5125 -3.2875,0 0,0.875 7.5125,0 0,-0.875 -3.3,0 0,-3.5125 z m -3.1375,-4.8 c 0.225,-0.5625 0.4375,-1.1375 0.6,-1.7 l -0.95,-0.2375 c -0.175,0.6375 -0.4,1.3 -0.6625,1.9375 l -3.4125,0 0,0.8875 3,0 c -0.775,1.5875 -1.875,3.0625 -3.3,4.075 0.15,0.2 0.3875,0.5875 0.475,0.8375 0.525,-0.375 1.0125,-0.7875 1.45,-1.2625 l 0,4.9 0.9125,0 0,-6 c 0.5875,-0.8 1.075,-1.65 1.5125,-2.55 l 6.8125,0 0,-0.8875 -6.4375,0 z"
         style="font-size:12.5px"
         id="path4185" />
    </g>
    <path
       style="fill:none;fill-rule:evenodd;stroke:#000000;stroke-width:1.32000494;stroke-linecap:butt;stroke-linejoin:miter;stroke-miterlimit:4;stroke-dasharray:none;stroke-opacity:1;marker-start:url(#Arrow2Mstart)"
       d="m 443.27124,738.00506 50.42816,0"
       id="path4346"
       inkscape:connector-curvature="0" />
  </g>
</svg>
