<?xml version="1.0" encoding="UTF-8" standalone="no"?>
<!-- Created with Inkscape (http://www.inkscape.org/) -->

<svg
   xmlns:dc="http://purl.org/dc/elements/1.1/"
   xmlns:cc="http://creativecommons.org/ns#"
   xmlns:rdf="http://www.w3.org/1999/02/22-rdf-syntax-ns#"
   xmlns:svg="http://www.w3.org/2000/svg"
   xmlns="http://www.w3.org/2000/svg"
   xmlns:sodipodi="http://sodipodi.sourceforge.net/DTD/sodipodi-0.dtd"
   xmlns:inkscape="http://www.inkscape.org/namespaces/inkscape"
   width="159.39406mm"
   height="80.218201mm"
   viewBox="0 0 564.7821 284.23772"
   id="svg2"
   version="1.1"
   inkscape:version="0.91 r13725"
   sodipodi:docname="2.svg">
  <defs
     id="defs4">
    <marker
       inkscape:stockid="Arrow2Mstart"
       orient="auto"
       refY="0"
       refX="0"
       id="Arrow2Mstart"
       style="overflow:visible"
       inkscape:isstock="true">
      <path
         id="path4376"
         style="fill:#000000;fill-opacity:1;fill-rule:evenodd;stroke:#000000;stroke-width:0.625;stroke-linejoin:round;stroke-opacity:1"
         d="M 8.7185878,4.0337352 -2.2072895,0.01601326 8.7185884,-4.0017078 c -1.7454984,2.3720609 -1.7354408,5.6174519 -6e-7,8.035443 z"
         transform="scale(0.6,0.6)"
         inkscape:connector-curvature="0" />
    </marker>
  </defs>
  <sodipodi:namedview
     id="base"
     pagecolor="#ffffff"
     bordercolor="#666666"
     borderopacity="1.0"
     inkscape:pageopacity="0.0"
     inkscape:pageshadow="2"
     inkscape:zoom="1.4142136"
     inkscape:cx="280.93969"
     inkscape:cy="124.11075"
     inkscape:document-units="px"
     inkscape:current-layer="layer1"
     showgrid="false"
     showguides="true"
     inkscape:guide-bbox="true"
     inkscape:snap-bbox="true"
     inkscape:bbox-paths="true"
     inkscape:snap-bbox-edge-midpoints="true"
     inkscape:bbox-nodes="true"
     inkscape:snap-bbox-midpoints="true"
     inkscape:object-paths="true"
     inkscape:snap-intersection-paths="true"
     inkscape:object-nodes="true"
     inkscape:snap-midpoints="true"
     inkscape:snap-smooth-nodes="true"
     inkscape:snap-object-midpoints="true"
     inkscape:snap-center="true"
     inkscape:snap-text-baseline="true"
     inkscape:snap-page="true"
     inkscape:window-width="1920"
     inkscape:window-height="1024"
     inkscape:window-x="0"
     inkscape:window-y="30"
     inkscape:window-maximized="1"
     fit-margin-top="5"
     fit-margin-left="5"
     fit-margin-bottom="5"
     fit-margin-right="5">
    <sodipodi:guide
       position="30.705647,314.82036"
       orientation="0,1"
       id="guide4136" />
    <sodipodi:guide
       position="404.87114,71.177509"
       orientation="0,1"
       id="guide4140" />
    <sodipodi:guide
       position="24.871143,311.82036"
       orientation="1,0"
       id="guide4169" />
    <sodipodi:guide
       position="398.44257,152.96322"
       orientation="0,1"
       id="guide4344" />
  </sodipodi:namedview>
  <metadata
     id="metadata7">
    <rdf:RDF>
      <cc:Work
         rdf:about="">
        <dc:format>image/svg+xml</dc:format>
        <dc:type
           rdf:resource="http://purl.org/dc/dcmitype/StillImage" />
        <dc:title />
      </cc:Work>
    </rdf:RDF>
  </metadata>
  <g
     inkscape:label="Layer 1"
     inkscape:groupmode="layer"
     id="layer1"
     transform="translate(-62.986001,-600.73056)">
    <path
       style="fill:none;fill-rule:evenodd;stroke:#000000;stroke-width:2.29999995;stroke-linecap:butt;stroke-linejoin:miter;stroke-miterlimit:4;stroke-dasharray:none;stroke-opacity:1"
       d="m 87.857143,651.64791 c 514.999997,0 514.999997,0 514.999997,0"
       id="path4146"
       inkscape:connector-curvature="0" />
    <path
       style="fill:none;fill-rule:evenodd;stroke:#000000;stroke-width:2.29999995;stroke-linecap:butt;stroke-linejoin:miter;stroke-miterlimit:4;stroke-dasharray:none;stroke-opacity:1"
       d="m 87.857143,812.29078 c 514.999997,0 514.999997,0 514.999997,0"
       id="path4146-3"
       inkscape:connector-curvature="0" />
    <path
       style="opacity:1;fill:#ff4887;fill-opacity:1;stroke:none;stroke-width:3;stroke-linejoin:miter;stroke-miterlimit:4;stroke-dasharray:none;stroke-dashoffset:0;stroke-opacity:1"
       d="m 606.64519,651.64789 a 3.7880721,3.7880721 0 0 1 -3.78807,3.78807 3.7880721,3.7880721 0 0 1 -3.78808,-3.78807 3.7880721,3.7880721 0 0 1 3.78808,-3.78807 3.7880721,3.7880721 0 0 1 3.78807,3.78807 z"
       id="path4175" />
    <path
       style="opacity:1;fill:#ff4887;fill-opacity:1;stroke:none;stroke-width:3;stroke-linejoin:miter;stroke-miterlimit:4;stroke-dasharray:none;stroke-dashoffset:0;stroke-opacity:1"
       d="m 93.469003,812.29077 a 3.7880721,3.7880721 0 0 1 -3.788072,3.78807 3.7880721,3.7880721 0 0 1 -3.788072,-3.78807 3.7880721,3.7880721 0 0 1 3.788072,-3.78807 3.7880721,3.7880721 0 0 1 3.788072,3.78807 z"
       id="path4175-6" />
    <path
       style="opacity:1;fill:#ff4887;fill-opacity:1;stroke:none;stroke-width:3;stroke-linejoin:miter;stroke-miterlimit:4;stroke-dasharray:none;stroke-dashoffset:0;stroke-opacity:1"
       d="m 140.12139,836.69464 a 3.7880721,3.7880721 0 0 1 -3.78808,3.78807 3.7880721,3.7880721 0 0 1 -3.78807,-3.78807 3.7880721,3.7880721 0 0 1 3.78807,-3.78807 3.7880721,3.7880721 0 0 1 3.78808,3.78807 z"
       id="path4175-6-7" />
    <path
       style="opacity:1;fill:#ff4887;fill-opacity:1;stroke:none;stroke-width:3;stroke-linejoin:miter;stroke-miterlimit:4;stroke-dasharray:none;stroke-dashoffset:0;stroke-opacity:1"
       d="m 280.07854,839.7251 a 3.7880721,3.7880721 0 0 1 -3.78807,3.78807 3.7880721,3.7880721 0 0 1 -3.78808,-3.78807 3.7880721,3.7880721 0 0 1 3.78808,-3.78807 3.7880721,3.7880721 0 0 1 3.78807,3.78807 z"
       id="path4175-6-3" />
    <path
       style="opacity:1;fill:#ff4887;fill-opacity:1;stroke:none;stroke-width:3;stroke-linejoin:miter;stroke-miterlimit:4;stroke-dasharray:none;stroke-dashoffset:0;stroke-opacity:1"
       d="m 186.77376,863.46368 a 3.7880721,3.7880721 0 0 1 -3.78807,3.78808 3.7880721,3.7880721 0 0 1 -3.78807,-3.78808 3.7880721,3.7880721 0 0 1 3.78807,-3.78807 3.7880721,3.7880721 0 0 1 3.78807,3.78807 z"
       id="path4175-6-56" />
    <path
       style="opacity:1;fill:#ff4887;fill-opacity:1;stroke:none;stroke-width:3;stroke-linejoin:miter;stroke-miterlimit:4;stroke-dasharray:none;stroke-dashoffset:0;stroke-opacity:1"
       d="m 466.68804,636.37732 a 3.7880721,3.7880721 0 0 1 -3.78808,3.78807 3.7880721,3.7880721 0 0 1 -3.78807,-3.78807 3.7880721,3.7880721 0 0 1 3.78807,-3.78807 3.7880721,3.7880721 0 0 1 3.78808,3.78807 z"
       id="path4175-6-2" />
    <path
       style="opacity:1;fill:#ff4887;fill-opacity:1;stroke:none;stroke-width:3;stroke-linejoin:miter;stroke-miterlimit:4;stroke-dasharray:none;stroke-dashoffset:0;stroke-opacity:1"
       d="m 559.99278,636.37732 a 3.7880721,3.7880721 0 0 1 -3.78807,3.78807 3.7880721,3.7880721 0 0 1 -3.78807,-3.78807 3.7880721,3.7880721 0 0 1 3.78807,-3.78807 3.7880721,3.7880721 0 0 1 3.78807,3.78807 z"
       id="path4175-6-9" />
    <path
       style="opacity:1;fill:#ff4887;fill-opacity:1;stroke:none;stroke-width:3;stroke-linejoin:miter;stroke-miterlimit:4;stroke-dasharray:none;stroke-dashoffset:0;stroke-opacity:1"
       d="m 425.02168,622.23517 a 3.7880721,3.7880721 0 0 1 -3.78807,3.78807 3.7880721,3.7880721 0 0 1 -3.78807,-3.78807 3.7880721,3.7880721 0 0 1 3.78807,-3.78807 3.7880721,3.7880721 0 0 1 3.78807,3.78807 z"
       id="path4175-6-1" />
    <path
       style="opacity:1;fill:#ff4887;fill-opacity:1;stroke:none;stroke-width:3;stroke-linejoin:miter;stroke-miterlimit:4;stroke-dasharray:none;stroke-dashoffset:0;stroke-opacity:1"
       d="m 373.38329,643.95343 a 3.7880721,3.7880721 0 0 1 -3.78808,3.78807 3.7880721,3.7880721 0 0 1 -3.78807,-3.78807 3.7880721,3.7880721 0 0 1 3.78807,-3.78807 3.7880721,3.7880721 0 0 1 3.78808,3.78807 z"
       id="path4175-6-27" />
    <path
       style="opacity:1;fill:#ff4887;fill-opacity:1;stroke:none;stroke-width:3;stroke-linejoin:miter;stroke-miterlimit:4;stroke-dasharray:none;stroke-dashoffset:0;stroke-opacity:1"
       d="m 326.73091,832.14893 a 3.7880721,3.7880721 0 0 1 -3.78807,3.78807 3.7880721,3.7880721 0 0 1 -3.78807,-3.78807 3.7880721,3.7880721 0 0 1 3.78807,-3.78808 3.7880721,3.7880721 0 0 1 3.78807,3.78808 z"
       id="path4175-6-0" />
    <path
       style="opacity:1;fill:#ff4887;fill-opacity:1;stroke:none;stroke-width:3;stroke-linejoin:miter;stroke-miterlimit:4;stroke-dasharray:none;stroke-dashoffset:0;stroke-opacity:1"
       d="m 233.42613,642.9433 a 3.7880721,3.7880721 0 0 1 -3.78807,3.78807 3.7880721,3.7880721 0 0 1 -3.78807,-3.78807 3.7880721,3.7880721 0 0 1 3.78807,-3.78807 3.7880721,3.7880721 0 0 1 3.78807,3.78807 z"
       id="path4175-6-93" />
    <path
       style="opacity:1;fill:#ff4887;fill-opacity:1;stroke:none;stroke-width:3;stroke-linejoin:miter;stroke-miterlimit:4;stroke-dasharray:none;stroke-dashoffset:0;stroke-opacity:1"
       d="m 513.34041,832.14893 a 3.7880721,3.7880721 0 0 1 -3.78807,3.78807 3.7880721,3.7880721 0 0 1 -3.78807,-3.78807 3.7880721,3.7880721 0 0 1 3.78807,-3.78808 3.7880721,3.7880721 0 0 1 3.78807,3.78808 z"
       id="path4175-6-6" />
    <g
       style="font-style:normal;font-variant:normal;font-weight:normal;font-stretch:normal;font-size:40px;line-height:1000%;font-family:KaTeX_Math;-inkscape-font-specification:KaTeX_Math;letter-spacing:0px;word-spacing:0px;fill:#000000;fill-opacity:1;stroke:none;stroke-width:1px;stroke-linecap:butt;stroke-linejoin:miter;stroke-opacity:1"
       id="text4267">
      <path
         d="m 81.805036,786.47686 q 0.0225,0 1.62,-0.1125 1.62,-0.135 1.6425,-0.135 0.27,0 0.27,0.2025 0,0.2025 -0.765,3.2175 -0.18,0.765 -0.405,1.575 -0.2025,0.81 -0.315,1.215 l -0.09,0.4275 q 0,0.0675 0.135,-0.0675 0.765,-0.63 1.71,-0.855 0.27,-0.045 0.5625,-0.045 0.2925,0 0.5625,0.045 1.17,0.27 1.8675,1.215 0.6975,0.945 0.6975,2.385 0,2.52 -1.7775,4.545 -1.755,2.0025 -3.825,2.0025 -0.6525,0 -1.2375,-0.2925 -1.755,-0.7875 -1.755,-3.33 0,-0.6525 0.135,-1.2825 0,-0.0225 1.125,-4.6125 l 1.1475,-4.59 q 0.045,-0.315 -0.1575,-0.3825 -0.18,-0.09 -0.63,-0.09 -0.1575,0 -0.2475,0 -0.4725,0 -0.54,-0.0675 -0.135,-0.1125 -0.0225,-0.54 0.09,-0.315 0.1575,-0.36 0.0675,-0.0675 0.135,-0.0675 z m 5.5575,8.055 q 0,-1.8 -1.3725,-1.8 -0.045,0 -0.1575,0.0225 -0.09,0 -0.1125,0 -1.17,0.2475 -2.205,1.62 -0.045,0.045 -0.1125,0.135 l -0.0675,0.09 q 0,0.0225 -0.405,1.62 -0.3825,1.575 -0.4275,1.8 -0.135,0.6975 -0.135,1.26 0,1.08 0.54,1.62 0.36,0.36 0.9,0.36 0.7425,0 1.5075,-0.72 0.5625,-0.5175 0.9,-1.26 0.36,-0.765 0.7425,-2.3625 0.405,-1.62 0.405,-2.385 z"
         style="font-size:22.5px"
         id="path4191" />
      <path
         d="m 93.554255,793.64936 q 0,-0.3575 0.26125,-0.61875 0.26125,-0.275 0.61875,-0.275 0.23375,0 0.385,0.15125 0.165,0.1375 0.1925,0.37125 0,0.37125 -0.2475,0.64625 -0.2475,0.26125 -0.61875,0.26125 -0.2475,0 -0.4125,-0.1375 -0.165,-0.15125 -0.17875,-0.39875 z m -0.12375,3.025 q 0,-0.39875 -0.3575,-0.39875 -0.15125,0 -0.31625,0.055 -0.37125,0.12375 -0.72875,0.5225 -0.34375,0.39875 -0.5775,0.97625 -0.01375,0.0413 -0.04125,0.0963 -0.0275,0.055 -0.0275,0.0688 0,0 -0.04125,0.0137 -0.04125,0.0137 -0.0825,0.0137 -0.0275,0 -0.12375,0 l -0.1925,0 q -0.11,-0.11 -0.0275,-0.28875 0.4125,-0.99 1.0725,-1.5125 0.4675,-0.37125 0.94875,-0.44 0.01375,0 0.11,0 0.09625,-0.0138 0.165,-0.0138 0.33,0.0138 0.605,0.1375 0.3575,0.22 0.5225,0.4675 0.17875,0.23375 0.17875,0.6875 l 0,0.22 -0.67375,2.73625 q -0.70125,2.75 -0.7425,2.86 -0.22,0.59125 -0.75625,1.045 -0.5225,0.4675 -1.16875,0.64625 -0.34375,0.0825 -0.67375,0.0825 -0.53625,0 -0.86625,-0.23375 -0.33,-0.23375 -0.33,-0.6875 0,-0.385 0.275,-0.64625 0.275,-0.26125 0.61875,-0.26125 0.26125,0 0.4125,0.15125 0.165,0.15125 0.165,0.4125 0,0.495 -0.44,0.75625 0.06875,0.0137 0.1925,0.0137 0.4675,0 0.8525,-0.39875 0.39875,-0.39875 0.59125,-0.89375 l 0.15125,-0.5775 q 0.15125,-0.59125 0.3575,-1.43 0.22,-0.8525 0.44,-1.71875 0.22,-0.86625 0.37125,-1.52625 0.15125,-0.67375 0.15125,-0.78375 0,-0.0962 -0.01375,-0.15125 z"
         style="font-size:13.75px"
         id="path4193" />
    </g>
    <g
       style="font-style:normal;font-variant:normal;font-weight:normal;font-stretch:normal;font-size:40px;line-height:1000%;font-family:KaTeX_Math;-inkscape-font-specification:KaTeX_Math;letter-spacing:0px;word-spacing:0px;fill:#000000;fill-opacity:1;stroke:none;stroke-width:1px;stroke-linecap:butt;stroke-linejoin:miter;stroke-opacity:1"
       id="text4267-0">
      <path
         d="m 598.23358,657.9533 q 0.0225,0 1.62,-0.1125 1.62,-0.135 1.6425,-0.135 0.27,0 0.27,0.2025 0,0.2025 -0.765,3.2175 -0.18,0.765 -0.405,1.575 -0.2025,0.81 -0.315,1.215 l -0.09,0.4275 q 0,0.0675 0.135,-0.0675 0.765,-0.63 1.71,-0.855 0.27,-0.045 0.5625,-0.045 0.2925,0 0.5625,0.045 1.17,0.27 1.8675,1.215 0.6975,0.945 0.6975,2.385 0,2.52 -1.7775,4.545 -1.755,2.0025 -3.825,2.0025 -0.6525,0 -1.2375,-0.2925 -1.755,-0.7875 -1.755,-3.33 0,-0.6525 0.135,-1.2825 0,-0.0225 1.125,-4.6125 l 1.1475,-4.59 q 0.045,-0.315 -0.1575,-0.3825 -0.18,-0.09 -0.63,-0.09 -0.1575,0 -0.2475,0 -0.4725,0 -0.54,-0.0675 -0.135,-0.1125 -0.0225,-0.54 0.09,-0.315 0.1575,-0.36 0.0675,-0.0675 0.135,-0.0675 z m 5.5575,8.055 q 0,-1.8 -1.3725,-1.8 -0.045,0 -0.1575,0.0225 -0.09,0 -0.1125,0 -1.17,0.2475 -2.205,1.62 -0.045,0.045 -0.1125,0.135 l -0.0675,0.09 q 0,0.0225 -0.405,1.62 -0.3825,1.575 -0.4275,1.8 -0.135,0.6975 -0.135,1.26 0,1.08 0.54,1.62 0.36,0.36 0.9,0.36 0.7425,0 1.5075,-0.72 0.5625,-0.5175 0.9,-1.26 0.36,-0.765 0.7425,-2.3625 0.405,-1.62 0.405,-2.385 z"
         style="font-size:22.5px"
         id="path4196" />
      <path
         d="m 608.42905,665.0708 q 0,-0.31625 0.26125,-0.5775 0.26125,-0.26125 0.605,-0.26125 0.2475,0 0.4125,0.165 0.17875,0.165 0.17875,0.4125 0,0.3025 -0.275,0.5775 -0.275,0.275 -0.605,0.275 -0.2475,0 -0.4125,-0.165 -0.165,-0.165 -0.165,-0.42625 z m -0.31625,8.40125 q -0.53625,0 -0.86625,-0.31625 -0.33,-0.31625 -0.33,-0.8525 0,-0.23375 0.0275,-0.31625 0,-0.0275 0.6325,-1.69125 0.6325,-1.6775 0.6325,-1.705 0.0687,-0.22 0.0687,-0.495 0,-0.33 -0.23375,-0.33 l -0.0275,0 q -0.33,0 -0.6325,0.31625 -0.44,0.45375 -0.64625,1.2925 0,0.0137 -0.0137,0.055 -0.0138,0.0275 -0.0275,0.0413 0,0 -0.0137,0.0137 -0.0138,0.0137 -0.055,0.0137 -0.0275,0 -0.055,0 -0.0275,0 -0.11,0 l -0.1925,0 q -0.0825,-0.0825 -0.0825,-0.12375 0,-0.0412 0.0412,-0.1925 0.3575,-1.1825 1.045,-1.65 0.37125,-0.28875 0.7975,-0.28875 0.55,0 0.9075,0.31625 0.3575,0.31625 0.3575,0.8525 0,0.17875 -0.0688,0.4125 -0.0137,0.0275 -0.6325,1.69125 l -0.61875,1.66375 q -0.0688,0.3025 -0.0688,0.44 0,0.34375 0.23375,0.34375 0.1925,0 0.34375,-0.0825 0.605,-0.28875 0.94875,-1.44375 0.0412,-0.165 0.0688,-0.1925 0.0412,-0.0275 0.23375,-0.0275 0.12375,0 0.165,0.0138 0.055,0 0.0825,0.0275 0.0275,0.0275 0.0275,0.0963 0,0.055 -0.0412,0.17875 -0.26125,0.78375 -0.75625,1.36125 -0.48125,0.5775 -1.14125,0.5775 z"
         style="font-size:13.75px"
         id="path4198" />
    </g>
    <path
       style="fill:none;fill-rule:evenodd;stroke:#000000;stroke-width:2.29999995;stroke-linecap:butt;stroke-linejoin:miter;stroke-miterlimit:4;stroke-dasharray:4.5999999, 2.29999995;stroke-dashoffset:0;stroke-opacity:1"
       d="m 347.18334,832.42633 c 1e-5,-200.84254 1e-5,-200.84254 1e-5,-200.84254"
       id="path4146-0"
       inkscape:connector-curvature="0" />
    <path
       style="fill:none;fill-rule:evenodd;stroke:#1e64e2;stroke-width:1;stroke-linecap:butt;stroke-linejoin:miter;stroke-miterlimit:4;stroke-dasharray:none;stroke-opacity:1"
       d="m 229.63806,646.73137 c 0,164.40941 0,164.40941 0,164.40941"
       id="path5365"
       inkscape:connector-curvature="0" />
    <path
       style="fill:none;fill-rule:evenodd;stroke:#1e64e2;stroke-width:1.00911319;stroke-linecap:butt;stroke-linejoin:miter;stroke-miterlimit:4;stroke-dasharray:none;stroke-opacity:1"
       d="m 136.33331,813.44078 c 0,19.46579 0,19.46579 0,19.46579"
       id="path5365-2"
       inkscape:connector-curvature="0" />
    <path
       style="fill:none;fill-rule:evenodd;stroke:#1e64e2;stroke-width:1;stroke-linecap:butt;stroke-linejoin:miter;stroke-miterlimit:4;stroke-dasharray:none;stroke-opacity:1"
       d="m 182.98569,813.44078 c 0,46.23483 0,46.23483 0,46.23483"
       id="path5365-2-3"
       inkscape:connector-curvature="0" />
    <path
       style="fill:none;fill-rule:evenodd;stroke:#1e64e2;stroke-width:1;stroke-linecap:butt;stroke-linejoin:miter;stroke-miterlimit:4;stroke-dasharray:none;stroke-opacity:1"
       d="m 276.29047,813.44078 c 0,22.49625 0,22.49625 0,22.49625"
       id="path5365-2-7"
       inkscape:connector-curvature="0" />
    <path
       style="fill:none;fill-rule:evenodd;stroke:#1e64e2;stroke-width:1;stroke-linecap:butt;stroke-linejoin:miter;stroke-miterlimit:4;stroke-dasharray:none;stroke-opacity:1"
       d="m 322.94284,813.44078 c 0,14.92007 0,14.92007 0,14.92007"
       id="path5365-2-5"
       inkscape:connector-curvature="0" />
    <path
       style="fill:none;fill-rule:evenodd;stroke:#e2551e;stroke-width:1;stroke-linecap:butt;stroke-linejoin:miter;stroke-miterlimit:4;stroke-dasharray:none;stroke-opacity:1"
       d="m 369.59521,647.7415 c 0,2.75641 0,2.75641 0,2.75641"
       id="path5365-2-9"
       inkscape:connector-curvature="0" />
    <path
       style="fill:none;fill-rule:evenodd;stroke:#e2551e;stroke-width:1;stroke-linecap:butt;stroke-linejoin:miter;stroke-miterlimit:4;stroke-dasharray:none;stroke-opacity:1"
       d="m 421.23361,626.02324 c 0,24.47467 0,24.47467 0,24.47467"
       id="path5365-2-2"
       inkscape:connector-curvature="0" />
    <path
       style="fill:none;fill-rule:evenodd;stroke:#e2551e;stroke-width:1;stroke-linecap:butt;stroke-linejoin:miter;stroke-miterlimit:4;stroke-dasharray:none;stroke-opacity:1"
       d="m 462.89996,640.16539 c 0,10.33252 0,10.33252 0,10.33252"
       id="path5365-2-28"
       inkscape:connector-curvature="0" />
    <path
       style="fill:none;fill-rule:evenodd;stroke:#e2551e;stroke-width:1;stroke-linecap:butt;stroke-linejoin:miter;stroke-miterlimit:4;stroke-dasharray:none;stroke-opacity:1"
       d="m 556.20471,640.16539 c 0,10.33252 0,10.33252 0,10.33252"
       id="path5365-2-97"
       inkscape:connector-curvature="0" />
    <path
       style="fill:none;fill-rule:evenodd;stroke:#e2551e;stroke-width:1;stroke-linecap:butt;stroke-linejoin:miter;stroke-miterlimit:4;stroke-dasharray:none;stroke-opacity:1"
       d="m 509.55234,652.79791 c 0,175.56294 0,175.56294 0,175.56294"
       id="path5365-2-36"
       inkscape:connector-curvature="0" />
  </g>
</svg>
